<?xml version="1.0" encoding="UTF-8" standalone="no"?>
<!-- Created with Inkscape (http://www.inkscape.org/) -->

<svg
   version="1.1"
   id="svg1"
   width="26.703125"
   height="26.6875"
   viewBox="0 0 26.703125 26.6875"
   sodipodi:docname="duc's Journal.svg"
   xmlns:inkscape="http://www.inkscape.org/namespaces/inkscape"
   xmlns:sodipodi="http://sodipodi.sourceforge.net/DTD/sodipodi-0.dtd"
   xmlns="http://www.w3.org/2000/svg"
   xmlns:svg="http://www.w3.org/2000/svg">
  <defs
     id="defs1" />
  <sodipodi:namedview
     id="namedview1"
     pagecolor="#ffffff"
     bordercolor="#000000"
     borderopacity="0.25"
     inkscape:showpageshadow="2"
     inkscape:pageopacity="0.0"
     inkscape:pagecheckerboard="0"
     inkscape:deskcolor="#d1d1d1"
     inkscape:zoom="17.034845"
     inkscape:cx="942.30384"
     inkscape:cy="215.70493"
     inkscape:window-width="1920"
     inkscape:window-height="1013"
     inkscape:window-x="-9"
     inkscape:window-y="-9"
     inkscape:window-maximized="1"
     inkscape:current-layer="g6">
    <inkscape:page
       x="0"
       y="0"
       width="26.703125"
       height="26.6875"
       id="page2"
       margin="0"
       bleed="0" />
  </sodipodi:namedview>
  <g
     id="g4"
     inkscape:groupmode="layer"
     inkscape:label="2"
     transform="translate(-933.3125,-195.70312)">
    <g
       id="g6"
       aria-label="&#10;8.2"
       transform="matrix(1.3333333,0,0,1.3333333,932,221.28003)">
      <path
         id="path7"
         d="m 11.003906,-19.182676 c 1.382813,0 2.674805,0.266601 3.878907,0.796875 1.218749,0.515625 2.279296,1.230468 3.187499,2.144531 0.914063,0.908203 1.634766,1.96875 2.167969,3.1875 0.515625,1.212891 0.773438,2.504883 0.773438,3.8789062 0,1.3916016 -0.257813,2.6953125 -0.773438,3.9140625 -0.533203,1.21875 -1.253906,2.2822266 -2.167969,3.1875 -0.908203,0.8994141 -1.96875,1.61132817 -3.187499,2.13281255 -1.204102,0.515625 -2.496094,0.7734375 -3.878907,0.7734375 -1.3916013,0 -2.6894529,-0.2578125 -3.8906248,-0.7734375 -1.21875,-0.52148438 -2.2851562,-1.23339845 -3.1992187,-2.13281255 -0.9082031,-0.9052734 -1.6259766,-1.96875 -2.15625,-3.1875 -0.515625,-1.21875 -0.7734375,-2.5224609 -0.7734375,-3.9140625 0,-1.3740232 0.2578125,-2.6660152 0.7734375,-3.8789062 0.5302734,-1.21875 1.2480469,-2.279297 2.15625,-3.1875 0.9140625,-0.914063 1.9804687,-1.628906 3.1992187,-2.144531 1.2011719,-0.530274 2.4990235,-0.796875 3.8906248,-0.796875 z m 0,1.546875 c -1.1806638,0 -2.2792966,0.222656 -3.2929685,0.667968 -1.03125,0.445313 -1.9306641,1.051758 -2.6953125,1.816407 -0.7675781,0.767578 -1.3710937,1.664062 -1.8164062,2.695312 -0.4453125,1.03125 -0.6679688,2.126953 -0.6679688,3.2812502 0,1.1806641 0.2226563,2.2851563 0.6679688,3.3164063 0.4453125,1.0166016 1.0488281,1.9072266 1.8164062,2.671875 0.7646484,0.7675781 1.6640625,1.3710937 2.6953125,1.8164062 1.0136719,0.44531255 2.1123047,0.6679688 3.2929685,0.6679688 1.171875,0 2.264649,-0.22265625 3.28125,-0.6679688 1.03125,-0.4453125 1.927735,-1.0488281 2.695313,-1.8164062 0.764648,-0.7646484 1.371093,-1.6552734 1.816406,-2.671875 0.445312,-1.03125 0.667969,-2.1357422 0.667969,-3.3164063 0,-1.1542972 -0.222657,-2.2500002 -0.667969,-3.2812502 -0.445313,-1.03125 -1.051758,-1.927734 -1.816406,-2.695312 -0.767578,-0.764649 -1.664063,-1.371094 -2.695313,-1.816407 -1.016601,-0.445312 -2.109375,-0.667968 -3.28125,-0.667968 z m 2.636719,8.6835935 c 0.272461,0.055664 0.46875,0.1582031 0.585938,0.3046875 0.123046,0.140625 0.1875,0.3457031 0.1875,0.609375 0,0.6796875 -0.336915,1.2304687 -1.007813,1.6523437 -0.665039,0.421875 -1.49707,0.6328125 -2.496094,0.6328125 -0.9697263,0 -1.7666013,-0.2109375 -2.3906247,-0.6328125 -0.6269532,-0.421875 -0.9375001,-0.9726562 -0.9375001,-1.6523437 0,-0.2636719 0.049805,-0.46875 0.1523438,-0.609375 0.099609,-0.1464844 0.2724609,-0.2490234 0.515625,-0.3046875 0.140625,-0.046875 0.3105469,-0.076172 0.515625,-0.09375 0.2109375,-0.014648 0.5976563,-0.023437 1.1601563,-0.023437 h 1.5820317 c 0.703125,0 1.189453,0.00879 1.464843,0.023437 0.272461,0.017578 0.495117,0.046875 0.667969,0.09375 z M 6.0585937,-10.827208 c 0.3574219,0 0.6679688,0.128907 0.9257813,0.386719 0.2578125,0.257813 0.3867187,0.574219 0.3867187,0.949219 0,0.1728516 -0.041016,0.3134766 -0.1171875,0.421875 -0.070312,0.1025391 -0.1757812,0.1611328 -0.3164062,0.1757812 -0.041016,0.017578 -0.087891,0.020508 -0.140625,0.011719 -0.046875,-0.00586 -0.1025391,-0.017578 -0.1640625,-0.035156 -0.00879,0 -0.020508,-0.00293 -0.035156,-0.011719 -0.017578,-0.00586 -0.041016,-0.014648 -0.070312,-0.023437 L 6.421875,-8.975645 C 6.333984,-9.004942 6.2607422,-9.02545 6.1992187,-9.034239 c -0.055664,-0.00586 -0.102539,-0.011719 -0.140625,-0.011719 -0.055664,0 -0.1142578,0.00586 -0.1757812,0.011719 -0.055664,0.00879 -0.1259766,0.029297 -0.2109375,0.058594 l -0.1054688,0.023437 c -0.017578,0.00879 -0.035156,0.017578 -0.058594,0.023437 -0.023437,0.00879 -0.041016,0.011719 -0.046875,0.011719 -0.064453,0.017578 -0.1230469,0.029297 -0.1757813,0.035156 -0.046875,0.00879 -0.09082,0.00586 -0.1289062,-0.011719 C 5.015625,-8.9082622 4.9042969,-8.9668559 4.828125,-9.069395 4.7578125,-9.1777934 4.7226562,-9.3184184 4.7226562,-9.49127 c 0,-0.375 0.1289063,-0.691406 0.3867188,-0.949219 0.2578125,-0.257812 0.5742187,-0.386719 0.9492187,-0.386719 z m 9.8789063,0 c 0.375,0 0.691406,0.128907 0.949219,0.386719 0.257812,0.257813 0.386718,0.574219 0.386718,0.949219 0,0.1728516 -0.04102,0.3134766 -0.117187,0.421875 -0.07031,0.1025391 -0.175781,0.1611328 -0.316406,0.1757812 -0.04102,0.017578 -0.08789,0.020508 -0.140625,0.011719 -0.04687,-0.00586 -0.102539,-0.017578 -0.164063,-0.035156 -0.0088,0 -0.02344,-0.00293 -0.04687,-0.011719 -0.02344,-0.00586 -0.04395,-0.014648 -0.05859,-0.023437 l -0.105468,-0.023437 c -0.08789,-0.029297 -0.161133,-0.049805 -0.222657,-0.058594 -0.05566,-0.00586 -0.111328,-0.011719 -0.164062,-0.011719 -0.04102,0 -0.09082,0.00586 -0.152344,0.011719 -0.05566,0.00879 -0.125976,0.029297 -0.210937,0.058594 l -0.105469,0.023437 c -0.03223,0.00879 -0.05566,0.017578 -0.07031,0.023437 -0.01758,0.00879 -0.0293,0.011719 -0.03516,0.011719 -0.06445,0.017578 -0.123047,0.029297 -0.175781,0.035156 -0.04687,0.00879 -0.09082,0.00586 -0.128906,-0.011719 -0.140625,-0.014648 -0.251953,-0.073242 -0.328125,-0.1757812 C 14.660156,-9.1777934 14.625,-9.3184184 14.625,-9.49127 c 0,-0.375 0.128906,-0.691406 0.386719,-0.949219 0.257812,-0.257812 0.565429,-0.386719 0.925781,-0.386719 z m 0,0"
         style="fill:#000000;fill-opacity:1;fill-rule:nonzero;stroke:none" />
      <path
         id="path8"
         d="m 34.655273,-7.2852153 c 0,-0.5449219 0.140625,-1.0019531 0.421875,-1.3710938 0.28711,-0.375 0.644532,-0.6474609 1.066407,-0.8203125 -0.369141,-0.1552734 -0.65625,-0.3925781 -0.867188,-0.7148434 -0.210937,-0.328125 -0.316406,-0.720703 -0.316406,-1.183594 0,-0.398438 0.09961,-0.755859 0.304687,-1.078125 0.202149,-0.328125 0.47461,-0.585938 0.820313,-0.773438 0.351562,-0.193359 0.75,-0.292968 1.195312,-0.292968 0.436524,0 0.826172,0.09961 1.171875,0.292968 0.351563,0.1875 0.626954,0.445313 0.832032,0.773438 0.202148,0.322266 0.304687,0.679687 0.304687,1.078125 0,0.462891 -0.105469,0.855469 -0.316406,1.183594 -0.210938,0.3222653 -0.500977,0.55957 -0.867188,0.7148434 0.421875,0.1728516 0.773438,0.4453125 1.054688,0.8203125 0.287109,0.3691407 0.433594,0.8261719 0.433594,1.3710938 0,0.4394531 -0.117188,0.8408203 -0.351563,1.2070312 -0.228515,0.3603516 -0.536133,0.6503907 -0.925781,0.8671875 -0.392578,0.2167969 -0.837891,0.328125 -1.335938,0.328125 -0.500976,0 -0.949218,-0.1113281 -1.347656,-0.328125 -0.392578,-0.2167968 -0.703125,-0.5068359 -0.9375,-0.8671875 -0.228515,-0.3662109 -0.339844,-0.7675781 -0.339844,-1.2070312 z m 1.277344,-3.9726567 c 0,0.398438 0.131836,0.723633 0.398438,0.972657 0.263672,0.243164 0.580078,0.3632809 0.949218,0.3632809 0.357422,0 0.670899,-0.1201169 0.9375,-0.3632809 0.263672,-0.249024 0.398438,-0.574219 0.398438,-0.972657 0,-0.398437 -0.125977,-0.720703 -0.375,-0.972656 -0.251953,-0.257812 -0.571289,-0.386719 -0.960938,-0.386719 -0.398437,0 -0.723632,0.128907 -0.972656,0.386719 -0.251953,0.251953 -0.375,0.574219 -0.375,0.972656 z m -0.304687,3.8554692 c 0,0.3457031 0.07617,0.6386719 0.234375,0.8789062 0.155273,0.2431641 0.357422,0.4277344 0.609375,0.5507813 0.257812,0.1259765 0.527343,0.1875 0.808593,0.1875 0.272461,0 0.533204,-0.061523 0.785157,-0.1875 0.257812,-0.1230469 0.46289,-0.3076172 0.621093,-0.5507813 0.155274,-0.2402343 0.234375,-0.5332031 0.234375,-0.8789062 0,-0.3046875 -0.0791,-0.5771485 -0.234375,-0.8203125 -0.158203,-0.2402344 -0.363281,-0.4335938 -0.621093,-0.5742188 -0.251953,-0.1464843 -0.512696,-0.2226562 -0.785157,-0.2226562 -0.28125,0 -0.550781,0.076172 -0.808593,0.2226562 -0.251953,0.140625 -0.454102,0.3339844 -0.609375,0.5742188 -0.158203,0.243164 -0.234375,0.515625 -0.234375,0.8203125 z m 6.061523,1.921875 c 0,-0.1875 0.06445,-0.3427735 0.199219,-0.46875 0.131836,-0.1230469 0.287109,-0.1875 0.46875,-0.1875 0.178711,0 0.331055,0.064453 0.457031,0.1875 0.131836,0.1259765 0.199219,0.28125 0.199219,0.46875 0,0.1816406 -0.06738,0.336914 -0.199219,0.46875 -0.125976,0.1230469 -0.27832,0.1875 -0.457031,0.1875 -0.181641,0 -0.336914,-0.064453 -0.46875,-0.1875 -0.134766,-0.131836 -0.199219,-0.2871094 -0.199219,-0.46875 z m 2.698242,0.4804687 3.972657,-4.2304687 c 0.28125,-0.2958985 0.495117,-0.5917969 0.644531,-0.8906252 0.155273,-0.295898 0.234375,-0.612305 0.234375,-0.949219 0,-0.249023 -0.06738,-0.486328 -0.199219,-0.714843 -0.125977,-0.225586 -0.310547,-0.413086 -0.550781,-0.5625 -0.234375,-0.146485 -0.524414,-0.222657 -0.867188,-0.222657 -0.539062,0 -0.966797,0.184571 -1.277343,0.550782 -0.304688,0.360351 -0.457032,0.861328 -0.457032,1.5 h -1.019531 c 0,-0.600586 0.108398,-1.12793 0.328125,-1.582032 0.216797,-0.451171 0.530273,-0.802734 0.9375,-1.054687 0.413086,-0.249024 0.908203,-0.375 1.488281,-0.375 0.459961,0 0.858399,0.0791 1.195313,0.234375 0.333984,0.158203 0.612304,0.357422 0.832031,0.597656 0.216797,0.243164 0.37793,0.503906 0.480469,0.785156 0.09961,0.28125 0.152344,0.550782 0.152344,0.808594 0,0.430664 -0.105469,0.861328 -0.316407,1.2890627 -0.205078,0.421875 -0.46875,0.8027344 -0.796875,1.1367187 l -2.671875,2.71875 h 3.820313 v 0.9609375 z m 0,0"
         style="fill:#000000;fill-opacity:1;fill-rule:nonzero;stroke:none" />
    </g>
  </g>
</svg>
