<?xml version="1.0" encoding="UTF-8" standalone="no"?>
<!-- Created with Inkscape (http://www.inkscape.org/) -->

<svg
   version="1.1"
   id="svg1"
   width="29.327999"
   height="22.313334"
   viewBox="0 0 29.327999 22.313334"
   xmlns="http://www.w3.org/2000/svg"
   xmlns:svg="http://www.w3.org/2000/svg">
  <defs
     id="defs1" />
  <g
     id="g372"
     transform="translate(-30504,-499.32265)">
    <path
       id="path420"
       d="m 315.621,374.492 c 0.258,0 0.504,0.047 0.738,0.129 0.239,0.09 0.461,0.207 0.657,0.352 0.168,-0.133 0.355,-0.239 0.562,-0.317 0.203,-0.074 0.418,-0.121 0.645,-0.14 l 0.175,-0.024 h 4.805 c 0.602,0 1.125,0.211 1.57,0.633 0.446,0.418 0.684,0.922 0.727,1.523 v 4.957 h 0.199 c 0.414,0 0.774,0.141 1.078,0.422 0.309,0.282 0.485,0.629 0.528,1.043 v 2.684 c 0.168,0.055 0.32,0.16 0.445,0.305 0.133,0.14 0.215,0.312 0.246,0.515 v 2.321 c 0,0.242 -0.074,0.453 -0.223,0.632 -0.148,0.184 -0.347,0.289 -0.597,0.328 h -2.168 v 0.457 c 0,0.258 -0.09,0.477 -0.27,0.657 -0.183,0.172 -0.394,0.258 -0.633,0.258 -0.23,0 -0.429,-0.075 -0.597,-0.223 -0.172,-0.145 -0.281,-0.344 -0.328,-0.586 v -0.563 h -12.364 v 0.457 c 0,0.258 -0.089,0.477 -0.269,0.657 -0.184,0.172 -0.399,0.258 -0.656,0.258 -0.235,0 -0.442,-0.075 -0.61,-0.223 -0.172,-0.145 -0.269,-0.344 -0.293,-0.586 v -0.563 h -2.062 c -0.242,0 -0.453,-0.074 -0.621,-0.234 -0.172,-0.156 -0.274,-0.355 -0.305,-0.598 v -2.32 c 0,-0.215 0.062,-0.414 0.188,-0.598 0.132,-0.179 0.296,-0.285 0.503,-0.328 v -2.554 c 0,-0.422 0.133,-0.785 0.411,-1.09 0.281,-0.305 0.625,-0.481 1.043,-0.528 h 0.363 v -4.804 c 0,-0.602 0.203,-1.125 0.621,-1.571 0.422,-0.445 0.93,-0.683 1.535,-0.714 l 0.152,-0.024 z m 10.547,13.172 h -18.34 v 0.258 h 18.34 z m -0.68,-4.23 h -16.98 v 2.296 h 16.98 z m -9.867,-7.09 h -4.805 c -0.101,0 -0.195,0.035 -0.269,0.094 -0.078,0.054 -0.137,0.124 -0.164,0.21 l -0.024,0.059 v 4.898 h 13.301 l 0.024,-4.804 c 0,-0.098 -0.036,-0.192 -0.106,-0.27 -0.062,-0.074 -0.137,-0.133 -0.223,-0.164 l -0.058,-0.023 h -4.899 c -0.132,0 -0.242,0.043 -0.328,0.129 -0.086,0.089 -0.129,0.195 -0.129,0.328 0,0.23 -0.078,0.429 -0.234,0.609 -0.156,0.184 -0.352,0.278 -0.586,0.293 l -0.105,0.012 h -0.012 c -0.258,0 -0.477,-0.086 -0.656,-0.258 -0.18,-0.18 -0.27,-0.398 -0.27,-0.656 0,-0.098 -0.031,-0.192 -0.094,-0.27 -0.054,-0.074 -0.125,-0.133 -0.211,-0.164 l -0.058,-0.023 z m 1.383,2.273 c 0.25,0 0.461,0.09 0.644,0.27 0.18,0.183 0.27,0.398 0.27,0.656 0,0.258 -0.09,0.477 -0.27,0.656 -0.183,0.184 -0.394,0.27 -0.644,0.27 -0.258,0 -0.477,-0.086 -0.656,-0.27 -0.18,-0.179 -0.27,-0.398 -0.27,-0.656 0,-0.258 0.086,-0.473 0.27,-0.656 0.179,-0.18 0.398,-0.27 0.656,-0.27 z m -4.371,-1.371 c 0.258,0 0.472,0.09 0.656,0.27 0.18,0.183 0.27,0.398 0.27,0.656 0,0.258 -0.09,0.476 -0.27,0.656 -0.184,0.184 -0.398,0.27 -0.656,0.27 -0.242,0 -0.453,-0.086 -0.633,-0.27 -0.184,-0.18 -0.27,-0.398 -0.27,-0.656 0,-0.258 0.09,-0.473 0.27,-0.656 0.18,-0.18 0.391,-0.27 0.633,-0.27 z m 8.73,0 c 0.239,0 0.449,0.09 0.633,0.27 0.18,0.183 0.27,0.398 0.27,0.656 0,0.258 -0.09,0.476 -0.27,0.656 -0.184,0.184 -0.394,0.27 -0.633,0.27 -0.258,0 -0.476,-0.086 -0.656,-0.27 -0.18,-0.18 -0.269,-0.398 -0.269,-0.656 0,-0.258 0.085,-0.473 0.269,-0.656 0.18,-0.18 0.398,-0.27 0.656,-0.27 z"
       style="fill:#000000;fill-opacity:1;fill-rule:nonzero;stroke:none"
       transform="matrix(1.3333333,0,0,1.3333333,30096,0)" />
  </g>
</svg>
