<?xml version="1.0" encoding="UTF-8" standalone="no"?>
<!-- Created with Inkscape (http://www.inkscape.org/) -->

<svg
   version="1.1"
   id="svg1"
   width="28.141333"
   height="20.765333"
   viewBox="0 0 28.141333 20.765333"
   xmlns="http://www.w3.org/2000/svg"
   xmlns:svg="http://www.w3.org/2000/svg">
  <defs
     id="defs1" />
  <g
     id="g372"
     transform="translate(-30192.593,-545.89599)">
    <path
       id="path424"
       d="m 81.645,409.422 c 0.257,0 0.503,0.039 0.738,0.117 0.238,0.078 0.449,0.191 0.633,0.34 0.168,-0.133 0.355,-0.238 0.562,-0.317 0.211,-0.078 0.434,-0.124 0.668,-0.14 h 4.957 c 0.602,0 1.125,0.207 1.57,0.621 0.446,0.406 0.684,0.91 0.715,1.512 l 0.012,0.152 v 2.707 c 0.578,0.125 1.059,0.426 1.453,0.902 0.399,0.469 0.598,1.012 0.598,1.629 v 3.071 c 0,0.812 -0.301,1.507 -0.891,2.086 -0.586,0.57 -1.285,0.855 -2.098,0.855 h -0.199 v 1.137 c 0,0.258 -0.09,0.472 -0.269,0.644 -0.184,0.172 -0.399,0.258 -0.656,0.258 -0.231,0 -0.43,-0.074 -0.598,-0.223 -0.172,-0.148 -0.278,-0.339 -0.305,-0.574 v -1.242 H 77.109 v 1.137 c 0,0.258 -0.089,0.472 -0.269,0.644 -0.184,0.172 -0.399,0.258 -0.656,0.258 -0.231,0 -0.43,-0.074 -0.598,-0.223 -0.172,-0.148 -0.277,-0.339 -0.305,-0.574 v -1.242 c -0.781,-0.039 -1.449,-0.34 -2.004,-0.902 -0.558,-0.571 -0.832,-1.25 -0.832,-2.039 v -3.071 c 0,-0.633 0.2,-1.183 0.598,-1.652 0.402,-0.477 0.902,-0.777 1.488,-0.902 v -2.684 c 0,-0.602 0.203,-1.121 0.621,-1.559 0.422,-0.437 0.93,-0.679 1.536,-0.726 z m 9.257,6.726 c -0.211,0 -0.398,0.079 -0.562,0.235 -0.16,0.156 -0.235,0.344 -0.235,0.562 v 1.7 c 0,0.437 -0.16,0.812 -0.468,1.125 -0.313,0.304 -0.692,0.457 -1.137,0.457 H 77.496 c -0.445,0 -0.828,-0.153 -1.137,-0.457 -0.312,-0.313 -0.468,-0.688 -0.468,-1.125 v -1.7 c 0,-0.218 -0.082,-0.406 -0.246,-0.562 -0.161,-0.156 -0.34,-0.235 -0.551,-0.235 -0.219,0 -0.406,0.079 -0.563,0.235 -0.16,0.156 -0.234,0.344 -0.234,0.562 v 3.071 c 0,0.312 0.109,0.582 0.328,0.808 0.227,0.219 0.496,0.328 0.809,0.328 h 15.128 c 0.309,0 0.579,-0.109 0.797,-0.328 0.227,-0.226 0.34,-0.496 0.34,-0.808 v -3.071 c 0,-0.218 -0.078,-0.406 -0.234,-0.562 -0.16,-0.156 -0.348,-0.235 -0.563,-0.235 z m -9.257,-4.898 h -4.817 c -0.113,0 -0.207,0.035 -0.293,0.105 -0.09,0.063 -0.137,0.149 -0.152,0.258 v 3.059 c 0.398,0.226 0.719,0.539 0.972,0.937 0.25,0.399 0.375,0.844 0.375,1.336 v 1.477 h 4.372 v -6.715 c 0,-0.117 -0.043,-0.219 -0.118,-0.305 -0.07,-0.086 -0.16,-0.136 -0.257,-0.152 z m 7.558,0 h -4.805 c -0.117,0 -0.218,0.035 -0.304,0.105 -0.086,0.063 -0.137,0.149 -0.153,0.258 v 6.809 h 4.325 v -1.477 c 0,-0.5 0.129,-0.953 0.386,-1.359 0.258,-0.414 0.59,-0.727 1.008,-0.938 v -2.941 c 0,-0.117 -0.043,-0.219 -0.117,-0.305 -0.07,-0.086 -0.152,-0.136 -0.246,-0.152 z"
       style="fill:#000000;fill-opacity:1;fill-rule:nonzero;stroke:none"
       transform="matrix(1.3333333,0,0,1.3333333,30096,0)" />
  </g>
</svg>
