<?xml version="1.0" encoding="UTF-8" standalone="no"?>
<!-- Created with Inkscape (http://www.inkscape.org/) -->

<svg
   version="1.1"
   id="svg1"
   width="26.296875"
   height="22.59375"
   viewBox="0 0 26.296875 22.59375"
   xmlns="http://www.w3.org/2000/svg"
   xmlns:svg="http://www.w3.org/2000/svg">
  <defs
     id="defs1" />
  <g
     id="g3"
     transform="translate(-1089.5156,-197.76563)">
    <g
       id="g7"
       aria-label="&#10;work"
       transform="matrix(1.3333333,0,0,1.3333333,1088,221.28003)">
      <path
         id="path8"
         d="m 15.117188,-17.635801 c 0.257812,0 0.474609,0.09082 0.65625,0.269531 0.17871,0.181641 0.269531,0.392578 0.269531,0.632812 v 1.851563 h 2.777343 c 0.225586,0 0.436524,0.04395 0.632813,0.128906 0.193359,0.08789 0.363281,0.199219 0.503906,0.339844 0.28711,0.219727 0.509766,0.486328 0.667969,0.796875 0.155273,0.313477 0.234375,0.650391 0.234375,1.007812 v 9.6210942 c 0,0.6503907 -0.228516,1.1953125 -0.679688,1.640625 -0.454101,0.43945317 -0.993164,0.65625005 -1.617187,0.65625005 H 3.4335938 c -0.6269532,0 -1.1660157,-0.21679688 -1.6171876,-0.65625005 -0.4541015,-0.4453125 -0.6796875,-0.9902343 -0.6796875,-1.640625 v -9.6210942 c 0,-0.357421 0.076172,-0.694335 0.234375,-1.007812 0.1552735,-0.310547 0.3691407,-0.568359 0.6445313,-0.773438 l 0.070312,-0.07031 c 0.052734,-0.05273 0.1113281,-0.09961 0.1757813,-0.140625 0.070312,-0.04687 0.1318359,-0.08496 0.1875,-0.117188 0.1171875,-0.05273 0.234375,-0.09375 0.3515625,-0.117187 0.1230468,-0.0293 0.2490234,-0.04687 0.375,-0.04687 H 5.953125 v -1.851563 c 0,-0.240234 0.087891,-0.451171 0.2695312,-0.632812 0.178711,-0.178711 0.3984375,-0.269531 0.65625,-0.269531 z m 3.890624,7.535156 -1.3125,2.6484375 c -0.18164,0.3603516 -0.442382,0.6533203 -0.785156,0.8789062 -0.336914,0.2285157 -0.703125,0.3574219 -1.101562,0.3867188 h -3.890625 v 0.4570312 c 0,0.2109375 -0.07031,0.3984375 -0.210938,0.5625 -0.134765,0.1640625 -0.298828,0.2783204 -0.492187,0.3398438 l -0.105469,0.011719 h -0.105469 c -0.219726,0 -0.410156,-0.061523 -0.574218,-0.1875 -0.164063,-0.1318359 -0.269532,-0.3046875 -0.316407,-0.515625 l -0.01172,-0.1054687 -0.02344,-0.1054688 V -6.1865825 H 6.3632812 c -0.421875,0 -0.8085937,-0.09668 -1.1601562,-0.2929688 C 4.8574219,-6.6816997 4.5849609,-6.9541606 4.3828125,-7.2998638 L 4.3007812,-7.4522075 2.9882813,-10.100645 v 7.1132812 c 0,0.1171875 0.035156,0.2197266 0.1054687,0.3046875 0.070312,0.087891 0.1552734,0.1376954 0.2578125,0.1523438 l 0.082031,0.023437 H 18.5625 c 0.108398,0 0.205078,-0.035156 0.292969,-0.1054688 0.08496,-0.076172 0.134765,-0.1699218 0.152343,-0.28125 z M 18.457031,-13.05377 H 3.5390625 l 2.390625,4.78125 c 0.038086,0.064453 0.084961,0.1171875 0.140625,0.1640625 0.061523,0.041016 0.1289062,0.064453 0.1992187,0.070312 l 0.09375,0.023437 h 3.7148438 v -0.46875 c 0,-0.2021484 0.06445,-0.3867188 0.199219,-0.5507813 0.140625,-0.1640625 0.307617,-0.2724609 0.503906,-0.328125 l 0.105469,-0.023437 h 0.117187 c 0.210938,0 0.398438,0.067383 0.5625,0.1992188 0.164063,0.1259766 0.269532,0.2900391 0.316407,0.4921875 l 0.01172,0.1054687 0.02344,0.1054688 v 0.46875 h 3.714844 c 0.07617,0 0.146484,-0.014648 0.210937,-0.046875 0.06152,-0.038086 0.117188,-0.084961 0.164062,-0.140625 l 0.05859,-0.070312 z m -4.253906,-2.753906 H 7.7929687 v 0.925781 h 6.4101563 z m 0,0"
         style="fill:#000000;fill-opacity:1;fill-rule:nonzero;stroke:none" />
      <path
         id="path9"
         d="m 34.057617,-10.51959 h 1.078125 l 1.382813,3.5859372 1.5,-4.0078122 1.605468,4.0312497 1.394532,-3.6093747 h 1.078125 l -2.402344,5.9414059 -1.664063,-4.0195312 -1.570312,4.0195312 z m 8.525391,2.7539059 c 0,-0.5537109 0.123047,-1.0458984 0.375,-1.4765625 0.249023,-0.4365234 0.588867,-0.7763674 1.019531,-1.0195314 0.436523,-0.249023 0.925781,-0.375 1.464844,-0.375 0.539062,0 1.022461,0.125977 1.453125,0.375 0.427734,0.243164 0.767578,0.583008 1.019531,1.0195314 0.249023,0.4306641 0.375,0.9228516 0.375,1.4765625 0,0.5566407 -0.125977,1.0517578 -0.375,1.4882813 -0.251953,0.4394531 -0.591797,0.7822265 -1.019531,1.03125 -0.430664,0.243164 -0.914063,0.3632812 -1.453125,0.3632812 -0.539063,0 -1.028321,-0.1201172 -1.464844,-0.3632812 -0.430664,-0.2490235 -0.770508,-0.5917969 -1.019531,-1.03125 -0.251953,-0.4365235 -0.375,-0.9316406 -0.375,-1.4882813 z m 0.972656,0 c 0,0.3925782 0.08203,0.7353516 0.246094,1.03125 0.164062,0.2900391 0.386719,0.5214844 0.667969,0.6914063 0.28125,0.1728515 0.603515,0.2578125 0.972656,0.2578125 0.357422,0 0.679687,-0.084961 0.960937,-0.2578125 0.28125,-0.1699219 0.503907,-0.4013672 0.667969,-0.6914063 0.164063,-0.2958984 0.246094,-0.6386718 0.246094,-1.03125 0,-0.3808593 -0.08203,-0.7207031 -0.246094,-1.0195312 -0.164062,-0.2958985 -0.386719,-0.5273438 -0.667969,-0.6914063 -0.28125,-0.1699218 -0.603515,-0.2578125 -0.960937,-0.2578125 -0.369141,0 -0.691406,0.087891 -0.972656,0.2578125 -0.28125,0.1640625 -0.503907,0.3955078 -0.667969,0.6914063 -0.164063,0.2988281 -0.246094,0.6386719 -0.246094,1.0195312 z m 8.683594,-1.6992187 c -0.125977,-0.09375 -0.243164,-0.1582031 -0.351563,-0.1992188 -0.102539,-0.046875 -0.231445,-0.070312 -0.386718,-0.070312 -0.369141,0 -0.615235,0.1289063 -0.738282,0.3867188 -0.125976,0.2578125 -0.1875,0.5859375 -0.1875,0.984375 v 3.3632812 H 49.614258 V -10.51959 h 0.960937 v 0.6328122 c 0.146485,-0.2255862 0.322266,-0.4042972 0.527344,-0.5390622 0.210938,-0.140625 0.421875,-0.210938 0.632813,-0.210938 0.202148,0 0.389648,0.0293 0.5625,0.08203 0.169921,0.04687 0.328125,0.146485 0.46875,0.292969 z m 4.432617,-1.0546872 h 1.195312 l -2.402343,2.2851559 2.648437,3.234375 H 56.90625 l -2.273438,-2.8007812 v 2.8007812 H 53.671875 V -14.36334 h 0.960937 v 5.7773434 z m 0,0"
         style="fill:#000000;fill-opacity:1;fill-rule:nonzero;stroke:none" />
    </g>
  </g>
</svg>
