<?xml version="1.0" encoding="UTF-8" standalone="no"?>
<!-- Created with Inkscape (http://www.inkscape.org/) -->

<svg
   version="1.1"
   id="svg1"
   width="26.859377"
   height="25.031252"
   viewBox="0 0 26.859377 25.031252"
   xmlns="http://www.w3.org/2000/svg"
   xmlns:svg="http://www.w3.org/2000/svg">
  <defs
     id="defs1" />
  <g
     id="g3"
     transform="translate(-1401.2344,-647.34766)">
    <g
       id="g48"
       aria-label="&#10;r"
       transform="matrix(1.3333333,0,0,1.3333333,1400,671.78671)">
      <path
         id="path49"
         d="m 15.597656,-18.329288 c 0.624024,0 1.163086,0.222656 1.617188,0.667969 0.451172,0.445312 0.679687,0.984375 0.679687,1.617187 0,0.04102 0,0.08203 0,0.128907 0,0.04101 -0.0088,0.07617 -0.02344,0.105468 l -0.04687,0.386719 c 0.943359,0.298828 1.722656,0.84961 2.332031,1.652344 0.609375,0.805664 0.914062,1.722656 0.914062,2.753906 0,0.641602 -0.114257,1.2421877 -0.339843,1.8046877 -0.243164,0.5566406 -0.574219,1.0400391 -0.996094,1.453125 -0.416016,0.4160156 -0.899414,0.7382812 -1.453125,0.9726562 -0.5625,0.2431641 -1.157227,0.3632813 -1.78125,0.3632813 h 0.128906 c -0.430664,0.9140625 -1.063476,1.6845703 -1.898437,2.3085937 -0.829102,0.6269532 -1.766602,1.0166016 -2.8125,1.171875 v 1.5703125 h 2.578125 c 0.257812,0 0.474609,0.09082 0.65625,0.2695313 0.178711,0.18164061 0.269531,0.39843749 0.269531,0.65624999 0,0.22851562 -0.0791,0.42773437 -0.234375,0.59765625 -0.158203,0.16992187 -0.351562,0.26953125 -0.585937,0.29296875 H 7.5 c -0.2578125,0 -0.4775391,-0.0908203 -0.65625,-0.26953125 -0.1816406,-0.17285156 -0.2695313,-0.37792969 -0.2695313,-0.62109375 0,-0.24902344 0.076172,-0.45996094 0.234375,-0.63281249 0.1552735,-0.1699219 0.3515625,-0.2695313 0.5859375,-0.2929688 H 10.078125 V -2.9425691 C 9.0292969,-3.0978425 8.0888672,-3.4874909 7.2539062,-4.1144441 6.4248047,-4.7384675 5.7949219,-5.5089753 5.3671875,-6.4230378 h 0.1289062 c -0.6269531,0 -1.21875,-0.1201172 -1.7812499,-0.3632813 C 3.1582031,-7.0206941 2.671875,-7.3429597 2.25,-7.7589753 1.8339844,-8.1720612 1.5058594,-8.6554597 1.265625,-9.2121003 c -0.2285156,-0.5625 -0.33984375,-1.1630857 -0.33984375,-1.8046877 0,-1.03125 0.30468745,-1.948242 0.91406245,-2.753906 0.6093751,-0.802734 1.3857422,-1.353516 2.3320313,-1.652344 L 4.125,-15.809757 c -0.070312,-0.600585 0.076172,-1.139648 0.4453125,-1.617187 0.375,-0.483398 0.8554687,-0.776367 1.4414062,-0.878906 l 0.1523438,-0.02344 c 0.046875,0 0.084961,0 0.1171875,0 0.038086,0 0.076172,0 0.1171875,0 z m 0,1.828125 H 6.3632812 c -0.1347656,0.01758 -0.2402343,0.07617 -0.3164062,0.175781 -0.079102,0.10254 -0.1113281,0.216797 -0.09375,0.339844 l 0.703125,6.9843752 v 0.1054687 c 0,0.5712891 0.1171875,1.1103516 0.3515625,1.6171875 0.2255859,0.515625 0.5332031,0.9667969 0.9257812,1.3476563 0.3984376,0.375 0.8554688,0.6679687 1.3710938,0.8789062 0.5302734,0.234375 1.0957035,0.3515625 1.6992185,0.3515625 0.591797,0 1.154297,-0.1171875 1.6875,-0.3515625 0.515625,-0.2109375 0.966797,-0.5039062 1.359375,-0.8789062 0.398438,-0.3808594 0.708985,-0.8320313 0.9375,-1.3476563 0.234375,-0.5068359 0.351563,-1.0458984 0.351563,-1.6171875 v -0.1054687 l 0.703125,-6.9843752 0.02344,-0.05859 c 0,-0.131835 -0.04687,-0.240234 -0.140625,-0.328125 -0.09375,-0.08496 -0.205078,-0.128906 -0.328125,-0.128906 z m -12.8437497,5.484375 c 0,0.65625 0.1992187,1.2304689 0.5976562,1.7226564 0.3984375,0.4921875 0.8964844,0.8203125 1.5,0.984375 0,-0.099609 -0.00586,-0.2021484 -0.011719,-0.3046875 -0.00879,-0.099609 -0.011719,-0.1933593 -0.011719,-0.28125 v 0.046875 l -0.46875,-4.6874999 c -0.4863281,0.219727 -0.8759766,0.556641 -1.171875,1.007812 -0.2900391,0.445313 -0.4335937,0.949219 -0.4335932,1.511719 z m 14.4140627,2.1679689 v 0.1523438 c 0,0.070312 -0.0059,0.1347656 -0.01172,0.1875 -0.0088,0.055664 -0.01172,0.1230469 -0.01172,0.1992187 0.600586,-0.1640625 1.101563,-0.4921875 1.5,-0.984375 0.398438,-0.4921875 0.597656,-1.0664064 0.597656,-1.7226564 0,-0.5625 -0.149414,-1.066406 -0.445312,-1.511719 -0.290039,-0.451171 -0.676758,-0.788085 -1.160156,-1.007812 z m 0,0"
         style="fill:#000000;fill-opacity:1;fill-rule:nonzero;stroke:none" />
      <path
         id="path50"
         d="m 37.526367,-9.4640534 c -0.125976,-0.09375 -0.243164,-0.1582032 -0.351562,-0.1992188 -0.102539,-0.046875 -0.231446,-0.070312 -0.386719,-0.070312 -0.369141,0 -0.615234,0.1289063 -0.738281,0.3867188 -0.125977,0.2578125 -0.1875,0.5859375 -0.1875,0.984375 v 3.3632812 h -0.960938 v -5.5195318 h 0.960938 v 0.6328131 c 0.146484,-0.2255861 0.322265,-0.4042971 0.527343,-0.5390631 0.210938,-0.140625 0.421875,-0.210936 0.632813,-0.210936 0.202148,0 0.389648,0.0293 0.5625,0.08203 0.169922,0.04687 0.328125,0.146484 0.46875,0.292969 z m 0,0"
         style="fill:#000000;fill-opacity:1;fill-rule:nonzero;stroke:none" />
    </g>
  </g>
</svg>
