<?xml version="1.0" encoding="UTF-8" standalone="no"?>
<!-- Created with Inkscape (http://www.inkscape.org/) -->

<svg
   version="1.1"
   id="svg1"
   width="25.046875"
   height="26.265623"
   viewBox="0 0 25.046875 26.265623"
   xmlns="http://www.w3.org/2000/svg"
   xmlns:svg="http://www.w3.org/2000/svg">
  <defs
     id="defs1" />
  <g
     id="g3"
     transform="translate(-1246.1406,-857.05469)">
    <g
       id="g69"
       aria-label="&#10;l"
       transform="matrix(1.3333333,0,0,1.3333333,1244,882.40004)">
      <path
         id="path70"
         d="m 13.382813,-19.009014 c 0.380859,0 0.720703,0.128906 1.019531,0.386718 0.295898,0.257813 0.471679,0.585938 0.527344,0.984375 h 1.933593 c 0.600586,0 1.125,0.205079 1.570313,0.609375 0.451172,0.398438 0.703125,0.890625 0.75,1.476563 l 1.207031,13.7460936 c 0,0.046875 0,0.087891 0,0.1171875 0,0.023437 0,0.052734 0,0.082031 0,0.64160154 -0.231445,1.18359373 -0.691406,1.62890623 -0.462891,0.4453125 -1.013672,0.66796875 -1.652344,0.66796875 H 3.8671875 c -0.6328125,0 -1.1689453,-0.22851563 -1.6054687,-0.6796875 C 1.8222656,-0.440655 1.6054687,-0.9797175 1.6054687,-1.6066706 c 0,-0.029297 0,-0.061524 0,-0.09375 0,-0.038086 0,-0.073242 0,-0.1054688 L 2.8125,-15.551983 c 0.052734,-0.585938 0.2958984,-1.078125 0.7265625,-1.476563 0.4277344,-0.404296 0.9404297,-0.609375 1.5351562,-0.609375 H 6.375 c 0.061523,-0.398437 0.2373047,-0.726562 0.5273437,-0.984375 0.2958985,-0.257812 0.6445313,-0.386718 1.0429688,-0.386718 0.3896484,0 0.7294922,0.128906 1.0195313,0.386718 0.2958984,0.257813 0.4804687,0.585938 0.5507812,0.984375 H 11.8125 c 0.05273,-0.398437 0.228516,-0.726562 0.527344,-0.984375 0.295898,-0.257812 0.644531,-0.386718 1.042969,-0.386718 z m 4.828124,13.1835934 -0.386718,4.4296875 -0.01172,0.1289062 -0.02344,0.1289063 h 0.257813 c 0.155273,0 0.28418,-0.046875 0.386719,-0.140625 0.09961,-0.09375 0.152343,-0.2021485 0.152343,-0.328125 v -0.023437 z M 6.3632812,-15.809796 H 5.0742187 c -0.102539,0 -0.1933593,0.03223 -0.2695312,0.09375 -0.079102,0.06445 -0.1347656,0.146485 -0.1640625,0.246094 l -0.023437,0.07031 -1.2070312,13.7460934 c 0,0.017578 0,0.029297 0,0.035156 0,0.00879 0,0.011719 0,0.011719 0,0.1113281 0.035156,0.2080078 0.1054687,0.2929687 0.076172,0.087891 0.1669922,0.1376953 0.2695313,0.1523438 l 0.082031,0.023437 H 15.574219 c 0.09961,0 0.190429,-0.029297 0.269531,-0.09375 0.07617,-0.070312 0.131836,-0.1523438 0.164062,-0.2460938 l 0.01172,-0.09375 1.183594,-13.7460941 c 0.01465,0 0.02344,-0.0029 0.02344,-0.01172 0,-0.0059 0,-0.01758 0,-0.03516 0,-0.108399 -0.03516,-0.202149 -0.105468,-0.28125 -0.07031,-0.07617 -0.164063,-0.131836 -0.28125,-0.164063 H 13.59375 v 0.257813 c 0.202148,0.05566 0.366211,0.164062 0.492188,0.328125 0.131835,0.158203 0.199218,0.339844 0.199218,0.550781 0,0.257813 -0.09082,0.477539 -0.269531,0.65625 -0.181641,0.181641 -0.392578,0.269531 -0.632812,0.269531 -0.430665,0 -0.796875,-0.143554 -1.101563,-0.433593 -0.298828,-0.295899 -0.462891,-0.65918 -0.492187,-1.089844 v -0.539063 H 8.1679688 v 0.257813 c 0.1933593,0.05566 0.3544921,0.164062 0.4804687,0.328125 0.1318359,0.158204 0.1992188,0.339844 0.1992188,0.550782 0,0.257813 -0.09082,0.477539 -0.2695313,0.65625 -0.1816406,0.181641 -0.3925781,0.269531 -0.6328125,0.269531 -0.3984375,0 -0.7441406,-0.131836 -1.03125,-0.398437 C 6.6328125,-14.409405 6.4511719,-14.7346 6.375,-15.118389 l -0.011719,-0.152344 z m 6.2460938,10.9921879 c 0.240234,0 0.451172,0.09082 0.632813,0.2695312 0.17871,0.1816407 0.269531,0.3984375 0.269531,0.65625 0,0.234375 -0.0791,0.4394532 -0.234375,0.609375 -0.149414,0.1728516 -0.336914,0.2695313 -0.5625,0.2929688 H 7.1132812 c -0.2578125,0 -0.477539,-0.087891 -0.65625,-0.2695313 C 6.2753906,-3.4377253 6.1875,-3.6486628 6.1875,-3.8918269 c 0,-0.2255859 0.073242,-0.4248047 0.2226562,-0.5976562 0.1464844,-0.1699219 0.3457032,-0.28125 0.5976563,-0.328125 z m 1.089844,-7.1953129 c 0.169922,0.1875 0.257812,0.407227 0.257812,0.65625 0,0.251954 -0.09082,0.462891 -0.269531,0.632813 l -3.890625,3.8906249 c -0.2050781,0.2197265 -0.4511719,0.3134765 -0.7382812,0.28125 -0.28125,-0.029297 -0.5009766,-0.1669922 -0.65625,-0.4101563 L 7.1484375,-8.8957331 C 7.0224609,-9.1066706 6.984375,-9.3322566 7.03125,-9.5754206 c 0.052734,-0.2490235 0.1875,-0.4453124 0.3984375,-0.5859374 0.2167969,-0.131836 0.4482422,-0.169922 0.6914063,-0.117188 0.2402343,0.04687 0.4335937,0.181641 0.5742187,0.3984379 l 0.6328125,0.9609375 3.082031,-3.0937504 c 0.169922,-0.169921 0.38086,-0.257812 0.632813,-0.257812 0.257812,0 0.474609,0.08789 0.65625,0.257812 z m 0,0"
         style="fill:#000000;fill-opacity:1;fill-rule:nonzero;stroke:none" />
      <path
         id="path71"
         d="m 34.901367,-14.36253 h 0.960938 v 9.3632813 h -0.960938 z m 0,0"
         style="fill:#000000;fill-opacity:1;fill-rule:nonzero;stroke:none" />
    </g>
  </g>
</svg>
