<?xml version="1.0" encoding="UTF-8" standalone="no"?>
<!-- Created with Inkscape (http://www.inkscape.org/) -->

<svg
   version="1.1"
   id="svg1"
   width="26.375"
   height="26.331024"
   viewBox="0 0 26.375 26.331024"
   xmlns="http://www.w3.org/2000/svg"
   xmlns:svg="http://www.w3.org/2000/svg">
  <defs
     id="defs1" />
  <g
     id="g3"
     transform="translate(-1401.5156,-857.05469)">
    <g
       id="g71"
       aria-label="&#10;đ"
       transform="matrix(1.3333333,0,0,1.3333333,1400,882.40004)">
      <path
         id="path72"
         d="m 17.425781,-18.751202 c 0.169922,-0.169922 0.38086,-0.257812 0.632813,-0.257812 0.249023,0 0.46875,0.08789 0.65625,0.257812 l 1.933593,1.957031 c 0.178711,0.172852 0.269532,0.383789 0.269532,0.632813 0,0.251953 -0.09082,0.46875 -0.269532,0.65625 l -2.4375,2.425781 c -0.09375,0.102539 -0.208007,0.175781 -0.339843,0.222656 -0.125977,0.04102 -0.254883,0.05274 -0.386719,0.03516 l -3.070312,3.0703121 c 0.240234,0.7265625 0.284179,1.4765625 0.128906,2.25 -0.158203,0.7734375 -0.500977,1.453125 -1.03125,2.0390625 l -0.152344,0.1523438 c -0.205078,0.2050781 -0.375,0.421875 -0.515625,0.65625 -0.140625,0.234375 -0.246094,0.477539 -0.316406,0.7265625 l -0.04687,0.1875 c -0.117188,0.5332031 -0.310547,1.0371094 -0.574219,1.5117187 -0.266602,0.46875 -0.591797,0.9023438 -0.972656,1.30078128 -0.632813,0.6328125 -1.3564456,1.08398437 -2.167969,1.359375 -0.8056641,0.26367187 -1.6171875,0.35742187 -2.4375,0.28125 C 5.5136719,0.63454031 4.7373047,0.38844656 3.9960938,-0.02463937 3.2519531,-0.45237375 2.625,-1.0471003 2.109375,-1.8058894 1.7871094,-2.2746394 1.5498047,-2.7814753 1.3945312,-3.3293269 1.2216797,-3.8742487 1.1367187,-4.4221003 1.1367187,-4.9699519 c 0,-0.5537109 0.076172,-1.1044922 0.234375,-1.6523437 0.1699219,-0.5390625 0.4160157,-1.0458985 0.7382813,-1.5234375 0.3808594,-0.5859375 0.8466797,-1.0722656 1.3945313,-1.4648438 0.5537109,-0.3984371 1.1542968,-0.6914061 1.8046874,-0.8789061 l 0.2578125,-0.05859 c 0.28125,-0.07031 0.5449219,-0.166992 0.796875,-0.292969 0.2578125,-0.131836 0.4833985,-0.292968 0.6796875,-0.480468 l 0.1523438,-0.128907 c 0.6005859,-0.600586 1.3007813,-0.990234 2.0976563,-1.171875 0.8027342,-0.178711 1.5937502,-0.140625 2.3671872,0.117188 l 3.058594,-3.070313 c -0.01758,-0.123046 -0.0059,-0.251953 0.03516,-0.386718 0.04687,-0.140625 0.123047,-0.260743 0.234375,-0.363282 z m -8.7890622,8.460938 -0.1289063,0.128906 C 8.1943359,-9.8478816 7.8427734,-9.5783503 7.453125,-9.3527644 7.0693359,-9.1330378 6.6679687,-8.9572566 6.2460937,-8.8254206 l -0.2578125,0.058594 c -0.4863281,0.1171875 -0.9316406,0.3164063 -1.3359375,0.5976563 -0.3984375,0.2753906 -0.7382812,0.6269531 -1.0195312,1.0546875 -0.4306641,0.6328125 -0.6445312,1.3476562 -0.6445312,2.1445312 0,0.7910157 0.2138671,1.5 0.6445312,2.1328125 0.3427734,0.515625 0.7734375,0.9257813 1.2890625,1.2304688 0.4980469,0.28125 1.0253906,0.4541015 1.5820312,0.515625 0.5625,0.055664 1.116211,-0.011719 1.6640626,-0.1992188 0.5390625,-0.1875 1.03125,-0.4951172 1.4765625,-0.9257812 0.2255859,-0.2402344 0.4218747,-0.5039063 0.5859377,-0.7851563 0.169922,-0.2871093 0.304687,-0.5917968 0.398437,-0.9140625 l 0.04687,-0.234375 c 0.09961,-0.4511718 0.269532,-0.8847656 0.503907,-1.3007812 0.234375,-0.421875 0.530273,-0.8027344 0.890625,-1.1484375 0.216796,-0.2109375 0.386718,-0.4482422 0.503906,-0.7148438 0.123047,-0.2636718 0.199219,-0.5419922 0.222656,-0.8320312 l -2.097656,2.109375 c -0.1875,0.1875 -0.407227,0.28125 -0.65625,0.28125 -0.2519534,0 -0.4687502,-0.09375 -0.6562502,-0.28125 L 7.921875,-7.5012019 C 7.7490234,-7.6711237 7.6640625,-7.8879206 7.6640625,-8.1457331 c 0,-0.2578125 0.084961,-0.4716797 0.2578125,-0.6445313 l 2.109375,-2.0976566 c -0.2578125,0.02344 -0.5039062,0.08789 -0.7382812,0.1875 -0.234375,0.102539 -0.4541016,0.240235 -0.65625,0.410157 z m -2.8828126,4.3124996 0.09375,0.09375 1.9453125,1.9335938 c 0.1699219,0.1875 0.2578126,0.4072265 0.2578126,0.65625 0,0.2519531 -0.087891,0.46875 -0.2578126,0.65625 -0.1728515,0.1582031 -0.3720703,0.243164 -0.5976562,0.2578125 -0.2285156,0.00879 -0.4277344,-0.058594 -0.5976563,-0.1992188 l -0.09375,-0.058594 -1.9453125,-1.9570313 C 4.3857422,-4.7648737 4.3007812,-4.9816706 4.3007812,-5.2394831 c 0,-0.2578125 0.084961,-0.4716797 0.2578125,-0.6445313 0.1699219,-0.1699218 0.3691407,-0.2636718 0.5976563,-0.28125 0.2255859,-0.014648 0.4248047,0.046875 0.5976562,0.1875 z m 10.1249998,-8.1562496 -5.9999997,5.9882809 0.1523437,0.1757812 5.988281,-5.9882811 z m 2.191406,-2.660157 -1.148437,1.113282 0.644531,0.667968 1.148438,-1.136718 z m 0,0"
         style="fill:#000000;fill-opacity:1;fill-rule:nonzero;stroke:none" />
      <path
         id="path73"
         d="m 34.420898,-7.7648737 c 0,-0.5917969 0.120118,-1.1044922 0.363282,-1.5351563 0.249023,-0.4277344 0.580078,-0.755859 0.996093,-0.984375 0.421875,-0.234375 0.878907,-0.351562 1.371094,-0.351562 0.413086,0 0.779297,0.09375 1.101563,0.28125 0.319336,0.18164 0.580078,0.4423823 0.785156,0.7851558 v -2.5078128 h -1.5 v -0.902343 h 1.5 v -1.382813 h 0.960937 v 1.382813 h 1.136719 v 0.902343 h -1.136719 v 7.0781253 h -0.960937 v -0.9492188 c -0.205078,0.3457031 -0.46582,0.609375 -0.785156,0.796875 -0.322266,0.1787109 -0.688477,0.2695313 -1.101563,0.2695313 -0.492187,0 -0.949219,-0.1142579 -1.371094,-0.3398438 -0.416015,-0.234375 -0.74707,-0.5654297 -0.996093,-0.9960937 -0.243164,-0.4365235 -0.363282,-0.9521485 -0.363282,-1.546875 z m 0.972657,0 c 0,0.430664 0.08496,0.7939453 0.257812,1.0898437 0.169922,0.2988281 0.401367,0.5214844 0.691406,0.6679688 0.28711,0.149414 0.600586,0.2226562 0.9375,0.2226562 0.272461,0 0.544922,-0.073242 0.820313,-0.2226562 0.272461,-0.1464844 0.495117,-0.3691407 0.667969,-0.6679688 0.178711,-0.2958984 0.269531,-0.6591797 0.269531,-1.0898437 0,-0.421875 -0.09082,-0.7792969 -0.269531,-1.078125 -0.172852,-0.2958985 -0.395508,-0.5185547 -0.667969,-0.6679688 -0.275391,-0.1464844 -0.547852,-0.2226562 -0.820313,-0.2226562 -0.336914,0 -0.65039,0.076172 -0.9375,0.2226562 -0.290039,0.1494141 -0.521484,0.3720703 -0.691406,0.6679688 -0.172851,0.2988281 -0.257812,0.65625 -0.257812,1.078125 z m 0,0"
         style="fill:#000000;fill-opacity:1;fill-rule:nonzero;stroke:none" />
    </g>
  </g>
</svg>
