<?xml version="1.0" encoding="UTF-8" standalone="no"?>
<!-- Created with Inkscape (http://www.inkscape.org/) -->

<svg
   version="1.1"
   id="svg1"
   width="25.046875"
   height="26.265623"
   viewBox="0 0 25.046875 26.265623"
   xmlns="http://www.w3.org/2000/svg"
   xmlns:svg="http://www.w3.org/2000/svg">
  <defs
     id="defs1" />
  <g
     id="g3"
     transform="translate(-934.14062,-902.39062)">
    <g
       id="g73"
       aria-label="&#10;z"
       transform="matrix(1.3333333,0,0,1.3333333,932,927.73337)">
      <path
         id="path74"
         d="m 13.382813,-19.007061 c 0.380859,0 0.720703,0.128906 1.019531,0.386719 0.295898,0.257812 0.471679,0.585937 0.527344,0.984375 h 1.933593 c 0.600586,0 1.125,0.205078 1.570313,0.609375 0.451172,0.398437 0.703125,0.890625 0.75,1.476562 l 1.207031,13.7460938 c 0,0.046875 0,0.087891 0,0.1171875 0,0.023437 0,0.052734 0,0.082031 0,0.64160156 -0.231445,1.18359375 -0.691406,1.62890625 -0.462891,0.4453125 -1.013672,0.66796875 -1.652344,0.66796875 H 3.8671875 C 3.234375,0.6921575 2.6982422,0.46364188 2.2617188,0.01247 1.8222656,-0.43870187 1.6054687,-0.97776437 1.6054687,-1.6047175 c 0,-0.029297 0,-0.061523 0,-0.09375 0,-0.038086 0,-0.073242 0,-0.1054687 L 2.8125,-15.55003 c 0.052734,-0.585937 0.2958984,-1.078125 0.7265625,-1.476562 0.4277344,-0.404297 0.9404297,-0.609375 1.5351562,-0.609375 H 6.375 c 0.061523,-0.398438 0.2373047,-0.726563 0.5273437,-0.984375 0.2958985,-0.257813 0.6445313,-0.386719 1.0429688,-0.386719 0.3896484,0 0.7294922,0.128906 1.0195313,0.386719 0.2958984,0.257812 0.4804687,0.585937 0.5507812,0.984375 H 11.8125 c 0.05273,-0.398438 0.228516,-0.726563 0.527344,-0.984375 0.295898,-0.257813 0.644531,-0.386719 1.042969,-0.386719 z m 4.828124,13.1835935 -0.386718,4.4296875 -0.01172,0.1289063 -0.02344,0.1289062 h 0.257813 c 0.155273,0 0.28418,-0.046875 0.386719,-0.140625 0.09961,-0.09375 0.152343,-0.2021484 0.152343,-0.328125 V -1.628155 Z M 6.3632812,-15.807842 H 5.0742187 c -0.102539,0 -0.1933593,0.03223 -0.2695312,0.09375 -0.079102,0.06445 -0.1347656,0.146484 -0.1640625,0.246093 l -0.023437,0.07031 -1.2070312,13.7460935 c 0,0.017578 0,0.029297 0,0.035156 0,0.00879 0,0.011719 0,0.011719 0,0.1113281 0.035156,0.2080078 0.1054687,0.2929688 0.076172,0.087891 0.1669922,0.1376953 0.2695313,0.1523437 l 0.082031,0.023437 H 15.574219 c 0.09961,0 0.190429,-0.029297 0.269531,-0.09375 0.07617,-0.070312 0.131836,-0.1523437 0.164062,-0.2460937 l 0.01172,-0.09375 1.183594,-13.7460943 c 0.01465,0 0.02344,-0.0029 0.02344,-0.01172 0,-0.0059 0,-0.01758 0,-0.03516 0,-0.108398 -0.03516,-0.202148 -0.105468,-0.28125 -0.07031,-0.07617 -0.164063,-0.131836 -0.28125,-0.164062 H 13.59375 v 0.257812 c 0.202148,0.05566 0.366211,0.164063 0.492188,0.328125 0.131835,0.158203 0.199218,0.339844 0.199218,0.550781 0,0.257813 -0.09082,0.477539 -0.269531,0.65625 -0.181641,0.181641 -0.392578,0.269532 -0.632812,0.269532 -0.398438,0 -0.747071,-0.131836 -1.042969,-0.398438 -0.298828,-0.263672 -0.47461,-0.588867 -0.527344,-0.972656 l -0.02344,-0.152344 v -0.539062 H 8.1679688 v 0.257812 c 0.1933593,0.05566 0.3544921,0.164063 0.4804687,0.328125 0.1318359,0.158203 0.1992188,0.339844 0.1992188,0.550781 0,0.257813 -0.09082,0.477539 -0.2695313,0.65625 -0.1816406,0.181641 -0.3925781,0.269532 -0.6328125,0.269532 -0.3984375,0 -0.7441406,-0.131836 -1.03125,-0.398438 -0.28125,-0.263672 -0.4628906,-0.588867 -0.5390625,-0.972656 l -0.011719,-0.152344 z m 5.1093748,7.4531245 c 0.240235,0 0.451172,0.09082 0.632813,0.2695313 0.178711,0.1816406 0.269531,0.3925781 0.269531,0.6328125 0,0.2578125 -0.09082,0.477539 -0.269531,0.65625 -0.181641,0.1816406 -0.392578,0.2695312 -0.632813,0.2695312 H 7.265625 c -0.2519531,0 -0.4658203,-0.087891 -0.6445313,-0.2695312 -0.1728515,-0.178711 -0.2578125,-0.3984375 -0.2578125,-0.65625 0,-0.2402344 0.084961,-0.4511719 0.2578125,-0.6328125 0.178711,-0.178711 0.3925782,-0.2695313 0.6445313,-0.2695313 z m 1.265625,-3.4335935 c 0.257813,0 0.47168,0.09082 0.644532,0.269531 0.169921,0.181641 0.257812,0.392578 0.257812,0.632813 0,0.228515 -0.0791,0.427734 -0.234375,0.597656 -0.149414,0.172851 -0.336914,0.27832 -0.5625,0.316406 H 7.171875 c -0.2431641,0 -0.4541016,-0.084961 -0.6328125,-0.257812 -0.1816406,-0.178711 -0.2695313,-0.398438 -0.2695313,-0.65625 0,-0.234375 0.073242,-0.436524 0.2226563,-0.609375 0.1552734,-0.169922 0.3457031,-0.269532 0.5742187,-0.292969 z m 0,0"
         style="fill:#000000;fill-opacity:1;fill-rule:nonzero;stroke:none" />
      <path
         id="path75"
         d="m 37.59668,-9.6174128 h -3.058594 v -0.9023442 h 4.804687 l -3.421875,4.6171879 h 3.175782 v 0.9023438 h -4.921875 z m 0,0"
         style="fill:#000000;fill-opacity:1;fill-rule:nonzero;stroke:none" />
    </g>
  </g>
</svg>
