<?xml version="1.0" encoding="UTF-8" standalone="no"?>
<!-- Created with Inkscape (http://www.inkscape.org/) -->

<svg
   version="1.1"
   id="svg1"
   width="22.24511"
   height="24.3125"
   viewBox="0 0 22.24511 24.3125"
   xmlns="http://www.w3.org/2000/svg"
   xmlns:svg="http://www.w3.org/2000/svg">
  <defs
     id="defs1" />
  <g
     id="g82"
     transform="translate(-2239.5469,-188.96875)">
    <g
       id="g97"
       aria-label="&#10;ae"
       transform="matrix(1.3333333,0,0,1.3333333,2236,213.28003)">
      <path
         id="path98"
         d="m 15.140625,-18.233458 c 0.257813,0 0.474609,0.09082 0.65625,0.269532 0.178711,0.18164 0.269531,0.398437 0.269531,0.65625 0,0.228515 -0.0791,0.427734 -0.234375,0.597656 -0.158203,0.172852 -0.351562,0.275391 -0.585937,0.304687 h -1.195313 v 6.304688 l 2.472656,3.7265625 c 0.02344,0.023437 0.04687,0.058594 0.07031,0.1054687 0.02344,0.041016 0.04687,0.082031 0.07031,0.1289063 l 2.414063,3.6445312 c 0.225586,0.3457032 0.307617,0.7265625 0.246094,1.1484375 -0.06445,0.41601567 -0.263672,0.75000005 -0.597657,1.00781255 l -0.105468,0.0820313 c -0.125977,0.0878906 -0.266602,0.15234375 -0.421875,0.19921875 -0.149409,0.04101557 -0.301753,0.0585937 -0.457027,0.0585937 H 4.2539062 c -0.430664,0 -0.805664,-0.15527344 -1.1249999,-0.46875 -0.3134766,-0.31933594 -0.46875,-0.6972656 -0.46875,-1.1367188 0,-0.1464843 0.017578,-0.2929687 0.058594,-0.4335937 0.046875,-0.140625 0.1054688,-0.2753906 0.1757813,-0.4101563 L 7.652344,-10.100645 v -6.304688 H 6.890625 c -0.2578125,0 -0.4775391,-0.08789 -0.65625,-0.269531 -0.1728516,-0.178711 -0.2578125,-0.389648 -0.2578125,-0.632812 0,-0.249024 0.076172,-0.459961 0.234375,-0.632813 0.1552734,-0.169922 0.3457031,-0.269531 0.5742187,-0.292969 z m -2.917969,1.828125 H 9.4921875 v 6.375 c 0,0.1025396 -0.011719,0.2050786 -0.035156,0.304688 -0.017578,0.09375 -0.041016,0.1933594 -0.070312,0.2929687 L 9.328125,-9.30377 9.234375,-9.1748638 4.6875,-1.850645 h 12.621094 l -1.992188,-3 H 9.6210938 c -0.2578125,0 -0.4775391,-0.087891 -0.65625,-0.2695313 -0.1816407,-0.1787109 -0.2695313,-0.3984375 -0.2695313,-0.65625 0,-0.2255859 0.076172,-0.4248046 0.234375,-0.5976562 C 9.09375,-6.5440044 9.2871094,-6.6465434 9.515625,-6.67877 h 4.59375 l -1.628906,-2.4726563 c -0.05566,-0.084961 -0.102539,-0.1757812 -0.140625,-0.2695312 -0.04102,-0.09375 -0.07031,-0.1933594 -0.09375,-0.3046875 l -0.02344,-0.1523438 v -1.1601562 h -1.207031 c -0.257812,0 -0.477539,-0.08789 -0.65625,-0.269531 -0.172852,-0.178711 -0.257812,-0.398438 -0.257812,-0.65625 0,-0.225586 0.07617,-0.424805 0.234375,-0.597657 0.155273,-0.169921 0.345703,-0.27246 0.574218,-0.304687 h 1.3125 v -0.878906 h -1.207031 c -0.257812,0 -0.477539,-0.08789 -0.65625,-0.269532 -0.172852,-0.17871 -0.257812,-0.398437 -0.257812,-0.65625 0,-0.225585 0.07617,-0.424804 0.234375,-0.597656 0.155273,-0.169922 0.345703,-0.272461 0.574218,-0.304687 h 1.3125 z m 0,0"
         style="fill:#000000;fill-opacity:1;fill-rule:nonzero;stroke:none" />
      <path
         id="path99"
         d="m 35.334961,-9.2188091 -0.46875,-0.7382812 c 0.202148,-0.1464847 0.480469,-0.2958987 0.832031,-0.4453127 0.351563,-0.155273 0.776367,-0.234375 1.277344,-0.234375 0.632812,0 1.142578,0.146485 1.535156,0.433594 0.389649,0.290039 0.585938,0.7031249 0.585938,1.2421874 v 3.9609375 h -0.960938 v -0.796875 c -0.164062,0.2988282 -0.416015,0.5244141 -0.75,0.6796875 -0.336914,0.1552735 -0.711914,0.234375 -1.125,0.234375 -0.351562,0 -0.673828,-0.064453 -0.960937,-0.1875 -0.28125,-0.1318359 -0.509766,-0.3222656 -0.679688,-0.5742187 -0.172851,-0.2490235 -0.257812,-0.5625 -0.257812,-0.9375 0,-0.5859375 0.205078,-1.0371094 0.621093,-1.359375 0.421875,-0.328125 0.996094,-0.4921875 1.722657,-0.4921875 0.319336,0 0.600586,0.043945 0.84375,0.1289062 0.240234,0.079102 0.436523,0.1699219 0.585937,0.2695313 v -0.9257813 c 0,-0.28125 -0.117187,-0.4921875 -0.351562,-0.6328125 -0.234375,-0.140625 -0.503907,-0.2109375 -0.808594,-0.2109375 -0.392578,0 -0.732422,0.076172 -1.019531,0.2226563 -0.28125,0.140625 -0.489258,0.2636719 -0.621094,0.3632812 z m 0,2.6015625 c 0,0.2988282 0.111328,0.5214844 0.339844,0.6679688 0.225586,0.149414 0.498047,0.2226562 0.820312,0.2226562 0.47461,0 0.867188,-0.1083984 1.171875,-0.328125 0.310547,-0.2255859 0.46875,-0.5917968 0.46875,-1.1015625 v -0.2226562 c -0.407226,-0.2109375 -0.864258,-0.3164063 -1.371094,-0.3164063 -0.492187,0 -0.855468,0.099609 -1.089843,0.2929688 -0.228516,0.1875 -0.339844,0.4511719 -0.339844,0.7851562 z m 10.145508,0.328125 c -0.181641,0.28125 -0.383789,0.5332032 -0.609375,0.75 -0.228516,0.2109375 -0.500977,0.375 -0.820313,0.4921875 -0.313476,0.1083985 -0.711914,0.1640625 -1.195312,0.1640625 -0.492188,0 -0.9375,-0.1201172 -1.335938,-0.3632812 -0.398437,-0.2490235 -0.711914,-0.5917969 -0.9375,-1.03125 -0.228515,-0.4365235 -0.339844,-0.9316406 -0.339844,-1.4882813 0,-0.099609 0.0029,-0.1992187 0.01172,-0.2929687 0.0059,-0.09375 0.01758,-0.1904297 0.03516,-0.2929688 0.07617,-0.4511718 0.237305,-0.8496093 0.480469,-1.1953125 0.240235,-0.3427734 0.550781,-0.6093749 0.925781,-0.7968749 0.38086,-0.193359 0.808594,-0.292969 1.277344,-0.292969 0.521485,0 0.978516,0.117188 1.371094,0.351563 0.389648,0.228515 0.694336,0.5507809 0.914062,0.9726559 0.216797,0.421875 0.328125,0.9228516 0.328125,1.5 0,0.055664 0,0.1054688 0,0.1523438 0,0.046875 -0.0088,0.09375 -0.02344,0.140625 h -4.335938 c 0.03809,0.5625 0.213868,0.993164 0.527344,1.2890625 0.310547,0.2988281 0.717774,0.4453125 1.21875,0.4453125 0.404297,0 0.75,-0.087891 1.03125,-0.2695313 0.28125,-0.1875 0.515625,-0.4277343 0.703125,-0.7265625 z m -2.507813,-3.515625 c -0.445312,0 -0.832031,0.1347657 -1.160156,0.3984375 -0.328125,0.2578125 -0.515625,0.6152344 -0.5625,1.0664063 h 3.28125 c -0.04687,-0.4277344 -0.199219,-0.7792969 -0.457031,-1.0546875 -0.251953,-0.272461 -0.618164,-0.4101563 -1.101563,-0.4101563 z m 0,0"
         style="fill:#000000;fill-opacity:1;fill-rule:nonzero;stroke:none" />
    </g>
  </g>
</svg>
