<?xml version="1.0" encoding="UTF-8" standalone="no"?>
<!-- Created with Inkscape (http://www.inkscape.org/) -->

<svg
   version="1.1"
   id="svg1"
   width="26.984373"
   height="26.890623"
   viewBox="0 0 26.984373 26.890623"
   xmlns="http://www.w3.org/2000/svg"
   xmlns:svg="http://www.w3.org/2000/svg">
  <defs
     id="defs1" />
  <g
     id="g3"
     transform="translate(-1245.2344,-902.07812)">
    <g
       id="g77"
       aria-label="&#10;c"
       transform="matrix(1.3333333,0,0,1.3333333,1244,927.73337)">
      <path
         id="path78"
         d="m 18.152344,-19.241436 c 0.826172,0 1.535156,0.292969 2.121093,0.878906 0.591797,0.585938 0.890625,1.286133 0.890625,2.097656 v 14.2031253 c 0,0.8203125 -0.298828,1.52343745 -0.890625,2.10937495 C 19.6875,0.63356375 18.978516,0.9265325 18.152344,0.9265325 H 3.9140625 c -0.8378906,0 -1.5439453,-0.29296875 -2.1210938,-0.87890625 C 1.2128906,-0.53831125 0.92578125,-1.2414362 0.92578125,-2.0617487 V -16.264874 c 0,-0.811523 0.28710935,-1.511718 0.86718745,-2.097656 0.5771485,-0.585937 1.2832032,-0.878906 2.1210938,-0.878906 z M 7.5820312,-9.4328425 2.7539063,-4.534405 v 2.4726563 c 0,0.290039 0.09668,0.5478515 0.2929687,0.7734375 0.2021484,0.2197265 0.4511719,0.3398437 0.75,0.3632812 h 14.355469 c 0.295898,0 0.553711,-0.0966797 0.773437,-0.2929687 0.225586,-0.2021485 0.354492,-0.4482422 0.386719,-0.7382813 v -2.25 l -4.101562,-3.8671875 -4.640625,4.6757813 c -0.172852,0.1875 -0.386719,0.28125 -0.6445317,0.28125 -0.2578125,0 -0.4746094,-0.084961 -0.6445313,-0.2578125 C 9.1083984,-3.5441706 9.0146484,-3.7433894 9,-3.971905 8.9824219,-4.1974909 9.0498047,-4.4054987 9.1992188,-4.5929987 l 0.058594,-0.09375 1.5000002,-1.5234375 z M 18.152344,-17.401592 H 3.9140625 c -0.3046875,0 -0.5683594,0.09961 -0.7851562,0.292968 -0.2109375,0.196289 -0.3339844,0.442383 -0.3632813,0.738282 l -0.011719,0.105468 v 9.1171878 L 6.9375,-11.378155 c 0.140625,-0.146484 0.3164062,-0.234375 0.5273437,-0.257812 0.2109375,-0.0293 0.4042969,0.01172 0.5859376,0.128906 l 0.1171875,0.05859 0.082031,0.07031 3.8203132,3.8554688 2.472656,-2.4843748 c 0.155273,-0.155274 0.345703,-0.240235 0.574219,-0.257813 0.234375,-0.01465 0.445312,0.04102 0.632812,0.164063 l 0.08203,0.07031 3.480469,3.2812503 v -9.5156253 c 0,-0.310547 -0.117188,-0.577148 -0.351563,-0.796875 -0.228515,-0.225586 -0.498046,-0.339843 -0.808593,-0.339843 z m -4.171875,1.136718 c 0.632812,0 1.171875,0.222657 1.617187,0.667969 0.445313,0.445313 0.667969,0.984375 0.667969,1.617188 0,0.641601 -0.222656,1.183593 -0.667969,1.628906 -0.445312,0.445312 -0.984375,0.667969 -1.617187,0.667969 -0.641602,0 -1.183594,-0.222657 -1.628906,-0.667969 -0.445313,-0.445313 -0.667969,-0.987305 -0.667969,-1.628906 0,-0.632813 0.222656,-1.171875 0.667969,-1.617188 0.445312,-0.445312 0.987304,-0.667969 1.628906,-0.667969 z m 0,2.003907 c -0.08789,0 -0.158203,0.03223 -0.210938,0.09375 -0.05566,0.05566 -0.08203,0.117187 -0.08203,0.1875 0,0.08789 0.02637,0.158203 0.08203,0.210937 0.05274,0.05566 0.123047,0.08203 0.210938,0.08203 0.07031,0 0.131836,-0.02637 0.1875,-0.08203 0.06152,-0.05273 0.09375,-0.123047 0.09375,-0.210937 0,-0.07031 -0.03223,-0.131836 -0.09375,-0.1875 -0.05566,-0.06152 -0.117188,-0.09375 -0.1875,-0.09375 z m 0,0"
         style="fill:#000000;fill-opacity:1;fill-rule:nonzero;stroke:none" />
      <path
         id="path79"
         d="m 35.334961,-7.7658503 c 0,0.3925781 0.08203,0.7353516 0.246094,1.03125 0.164062,0.2900391 0.386718,0.5214844 0.667968,0.6914062 0.28125,0.1728516 0.600586,0.2578125 0.960938,0.2578125 0.451172,0 0.855469,-0.09668 1.207031,-0.2929687 0.351563,-0.2021484 0.588867,-0.4394531 0.714844,-0.7148438 v 1.2070313 c -0.1875,0.2197266 -0.462891,0.3925781 -0.820313,0.515625 -0.351562,0.1230469 -0.720703,0.1875 -1.101562,0.1875 -0.533203,0 -1.016602,-0.1201172 -1.453125,-0.3632813 -0.430664,-0.2490234 -0.770508,-0.5917968 -1.019531,-1.03125 -0.251953,-0.4365234 -0.375,-0.9316406 -0.375,-1.4882812 0,-0.5537109 0.123047,-1.0458984 0.375,-1.4765625 0.249023,-0.4365234 0.588867,-0.7763672 1.019531,-1.0195312 0.436523,-0.249023 0.919922,-0.375 1.453125,-0.375 0.380859,0 0.75,0.06445 1.101562,0.1875 0.357422,0.117187 0.632813,0.290039 0.820313,0.5156249 v 1.2070313 c -0.125977,-0.2724609 -0.363281,-0.5068359 -0.714844,-0.703125 -0.351562,-0.2021484 -0.755859,-0.3046875 -1.207031,-0.3046875 -0.360352,0 -0.679688,0.087891 -0.960938,0.2578125 -0.28125,0.1640625 -0.503906,0.3955078 -0.667968,0.6914062 -0.164063,0.2988282 -0.246094,0.6386719 -0.246094,1.0195313 z m 0,0"
         style="fill:#000000;fill-opacity:1;fill-rule:nonzero;stroke:none" />
    </g>
  </g>
</svg>
