<?xml version="1.0" encoding="UTF-8" standalone="no"?>
<!-- Created with Inkscape (http://www.inkscape.org/) -->

<svg
   version="1.1"
   id="svg1"
   width="15.870353"
   height="27.484375"
   viewBox="0 0 15.870353 27.484375"
   xmlns="http://www.w3.org/2000/svg"
   xmlns:svg="http://www.w3.org/2000/svg">
  <defs
     id="defs1" />
  <g
     id="g82"
     transform="translate(-2242.7344,-142.28906)">
    <g
       id="g89"
       aria-label="&#10;n"
       transform="matrix(1.3333333,0,0,1.3333333,2236,167.94669)">
      <path
         id="path90"
         d="m 6.421875,1.3700581 c -0.2578125,0 -0.4775391,-0.09082 -0.65625,-0.2695312 C 5.5839844,0.91888625 5.4960937,0.70208938 5.4960937,0.44427688 c 0,-0.22851563 0.076172,-0.42773438 0.234375,-0.59765625 0.1640625,-0.16992188 0.3574219,-0.26953125 0.5859375,-0.29296875 H 7.921875 C 8.0859375,-0.96197312 8.3554688,-1.4102153 8.7304688,-1.7940044 9.1113281,-2.1836528 9.5625,-2.4619731 10.078125,-2.6260356 V -9.1768169 H 6.6328125 c -0.4394531,0 -0.8144531,-0.1523437 -1.125,-0.4570312 C 5.203125,-9.944395 5.0507812,-10.319395 5.0507812,-10.758848 c 0,-0.07617 0.00293,-0.155274 0.011719,-0.234375 0.00586,-0.07617 0.023437,-0.152344 0.046875,-0.222656 l 1.9335937,-6.867188 c 0.099609,-0.342773 0.2929688,-0.621094 0.5742188,-0.832031 0.2871094,-0.216797 0.6035156,-0.328125 0.9492188,-0.328125 h 4.8632815 c 0.342773,0 0.65625,0.111328 0.9375,0.328125 0.287109,0.210937 0.483398,0.489258 0.585937,0.832031 l 1.933594,6.867188 c 0.123047,0.430664 0.07617,0.84082 -0.140625,1.2304684 -0.210938,0.383789 -0.524414,0.6328125 -0.9375,0.75 -0.07031,0.023437 -0.146485,0.041016 -0.222656,0.046875 -0.0791,0.00879 -0.152344,0.011719 -0.222657,0.011719 h -0.84375 v 1.3359375 c 0.216797,0.140625 0.389649,0.3339844 0.515625,0.5742188 0.131836,0.234375 0.199219,0.4892578 0.199219,0.7617187 0,0.4541016 -0.164062,0.8408203 -0.492187,1.1601563 -0.322266,0.3134765 -0.703125,0.46875 -1.148438,0.46875 -0.445312,0 -0.826172,-0.1552735 -1.136719,-0.46875 -0.313476,-0.319336 -0.46875,-0.7060547 -0.46875,-1.1601563 0,-0.2724609 0.06152,-0.5273437 0.1875,-0.7617187 0.131836,-0.2402344 0.295899,-0.4335938 0.492188,-0.5742188 v -1.3359375 h -0.75 v 6.5507813 c 0.515625,0.1640625 0.960937,0.4423828 1.335937,0.8320312 0.38086,0.3837891 0.65625,0.83203128 0.820313,1.34765628 h 1.5 c 0.257812,0 0.474609,0.0908203 0.65625,0.26953125 C 16.40918,-0.00396531 16.5,0.20111281 16.5,0.44427688 c 0,0.24902343 -0.08203,0.45996093 -0.246094,0.63281252 -0.158203,0.1699219 -0.348633,0.2695312 -0.574218,0.2929687 z m 4.582031,-2.29687497 -0.128906,0.0234375 c -0.164062,0.0175781 -0.313477,0.0556641 -0.445312,0.1171875 -0.125977,0.0556641 -0.243165,0.12890625 -0.351563,0.22265625 l -0.1054687,0.1171875 h 2.0507817 l -0.01172,-0.0234375 c -0.134766,-0.13183594 -0.28711,-0.24023438 -0.457031,-0.328125 -0.172852,-0.0849609 -0.357422,-0.12890625 -0.550782,-0.12890625 z M 13.59375,-6.7275981 c -0.05566,0 -0.105469,0.023437 -0.152344,0.070312 -0.04101,0.041016 -0.05859,0.09082 -0.05859,0.1523437 0,0.055664 0.01758,0.1054688 0.05859,0.1523438 0.04687,0.041016 0.09668,0.058594 0.152344,0.058594 0.06152,0 0.111328,-0.017578 0.152344,-0.058594 0.04687,-0.046875 0.07031,-0.09668 0.07031,-0.1523438 0,-0.061523 -0.02344,-0.1113281 -0.07031,-0.1523437 -0.04102,-0.046875 -0.09082,-0.070312 -0.152344,-0.070312 z M 13.253906,-17.426817 H 8.7421875 l -1.03125,3.679688 h 3.7382815 c 0.257812,0 0.474609,0.09082 0.65625,0.269531 0.178711,0.181641 0.269531,0.398437 0.269531,0.65625 0,0.228516 -0.08203,0.427734 -0.246094,0.597656 -0.158203,0.172852 -0.348633,0.275391 -0.574218,0.304688 H 7.1953125 L 6.9375,-11.004942 h 8.121094 z m 0,0"
         style="fill:#000000;fill-opacity:1;fill-rule:nonzero;stroke:none" />
      <path
         id="path91"
         d="m 38.44043,-8.3623637 c 0,-0.9140625 -0.392578,-1.3710938 -1.171875,-1.3710938 -0.421875,0 -0.761719,0.1289063 -1.019532,0.3867188 -0.257812,0.2578125 -0.386718,0.5859375 -0.386718,0.984375 v 3.3632812 h -0.960938 v -5.5195315 h 0.960938 v 0.8789065 c 0.164062,-0.3046875 0.386718,-0.5449215 0.667968,-0.7265625 0.28711,-0.178711 0.612305,-0.269531 0.972657,-0.269531 0.568359,0 1.02539,0.18457 1.371093,0.550781 0.351563,0.3603516 0.527344,0.8964844 0.527344,1.6054688 v 3.4804687 H 38.44043 Z m 0,0"
         style="fill:#000000;fill-opacity:1;fill-rule:nonzero;stroke:none" />
    </g>
  </g>
</svg>
