<?xml version="1.0" encoding="UTF-8" standalone="no"?>
<!-- Created with Inkscape (http://www.inkscape.org/) -->

<svg
   version="1.1"
   id="svg1"
   width="26.303135"
   height="27.187492"
   viewBox="0 0 26.303135 27.187492"
   xmlns="http://www.w3.org/2000/svg"
   xmlns:svg="http://www.w3.org/2000/svg">
  <defs
     id="defs1" />
  <g
     id="g82"
     transform="translate(-1925.512,-654.02735)">
    <g
       id="g151"
       aria-label="&#10;an"
       transform="matrix(1.3333333,0,0,1.3333333,1924,679.84005)">
      <path
         id="path152"
         d="m 6.8789062,-1.5235947 c 0.1699219,0.1582031 0.2578125,0.3574219 0.2578125,0.59765626 0.00586,0.234375 -0.052734,0.43945313 -0.1757812,0.609375 l -0.082031,0.0820312 -0.9960937,0.984375 C 5.7099612,0.93734276 5.496094,1.0310927 5.2382815,1.0310927 4.980469,1.0310927 4.7636722,0.9373427 4.5937503,0.74984276 4.4208984,0.59163969 4.3271484,0.39828031 4.3125,0.16390531 4.30371,-0.06168063 4.371094,-0.26382906 4.5117187,-0.44546969 l 0.082031,-0.09375 0.9960937,-0.98437501 c 0.1699219,-0.1875 0.3867188,-0.28125 0.6445313,-0.28125 0.2578125,0 0.4716797,0.09375 0.6445315,0.28125 z M 3.7148438,-15.363438 c 0.4130859,-0.483399 0.9550781,-0.785157 1.6289062,-0.902344 0.6855469,-0.108399 1.4414062,-0.06152 2.2617187,0.140625 0.8261719,0.196289 1.7021485,0.536133 2.6250003,1.019531 0.914062,0.492188 1.819336,1.101563 2.71875,1.828125 l 1.289062,-1.3125 c 0.1875,-0.169922 0.404297,-0.257812 0.65625,-0.257812 0.249024,0 0.46875,0.08789 0.65625,0.257812 0.155274,0.172852 0.240235,0.375 0.257813,0.609375 0.01465,0.228516 -0.04687,0.427734 -0.1875,0.597656 l -0.07031,0.08203 -1.21875,1.230468 c 0.108399,0.117188 0.222657,0.234375 0.339844,0.351563 0.117188,0.111328 0.228516,0.222656 0.339844,0.339844 l 1.03125,-1.03125 c 0.1875,-0.169922 0.404297,-0.257813 0.65625,-0.257813 0.249023,0 0.46875,0.08789 0.65625,0.257813 0.155273,0.172851 0.240234,0.37207 0.257812,0.597656 0.01465,0.228515 -0.04687,0.427734 -0.1875,0.597656 l -0.07031,0.09375 -1.160157,1.1484376 c 0.483399,0.6328125 0.884766,1.265625 1.207032,1.8984375 0.328125,0.6269531 0.550781,1.2304687 0.667968,1.8164062 0.123047,0.5800781 0.143555,1.1103516 0.05859,1.59375 -0.08789,0.5009766 -0.287109,0.9375 -0.597656,1.3125 -0.328125,0.3925781 -0.75,0.65625 -1.265625,0.796875 -0.509766,0.140625 -1.072266,0.1845703 -1.6875,0.1289063 -0.609375,-0.052734 -1.265625,-0.2109375 -1.96875,-0.46875 -0.703125,-0.2578125 -1.417969,-0.600586 -2.144531,-1.03125 -0.01758,0.041016 -0.03516,0.087891 -0.05859,0.140625 -0.02344,0.046875 -0.04687,0.087891 -0.07031,0.1171875 l -0.09375,0.082031 L 8.25,-1.5939072 c -0.1875,0.1875 -0.4072266,0.28125 -0.65625,0.28125 -0.2519531,0 -0.4628906,-0.09375 -0.6328125,-0.28125 -0.1728516,-0.1552734 -0.2666016,-0.3457031 -0.28125,-0.5742187 -0.017578,-0.225586 0.049805,-0.4335938 0.1992187,-0.6210938 l 0.082031,-0.09375 2.015625,-2.015625 C 8.8740234,-4.9689072 8.7773438,-5.0421494 8.6835938,-5.1212509 8.5957031,-5.1974228 8.5019531,-5.2735947 8.4023438,-5.3439072 L 7.78125,-4.6993759 c -0.1875,0.1728515 -0.4072266,0.2578125 -0.65625,0.2578125 -0.2519531,0 -0.46875,-0.084961 -0.65625,-0.2578125 -0.1582031,-0.1699219 -0.2431641,-0.3691407 -0.2578125,-0.5976563 -0.017578,-0.234375 0.046875,-0.4453125 0.1875,-0.6328125 L 6.46875,-6.0118759 7.0078125,-6.5509384 C 6.1699219,-7.3390244 5.4521484,-8.1564072 4.8515625,-9.0001572 4.2480469,-9.8263291 3.7910156,-10.634923 3.4804688,-11.425938 3.1757813,-12.214024 3.0292969,-12.943517 3.046875,-13.617345 c 0.029297,-0.685547 0.2519531,-1.268554 0.6679688,-1.746093 z m 2.6835937,10.6992183 c 0.1552734,0.1728516 0.2402344,0.375 0.2578125,0.609375 0.014648,0.2285156 -0.046875,0.4277344 -0.1875,0.5976563 l -0.070312,0.082031 -0.984375,0.9960938 c -0.1875,0.1816406 -0.4072266,0.2695312 -0.65625,0.2695312 -0.2519531,0 -0.46875,-0.087891 -0.65625,-0.2695312 C 3.9433594,-2.5431259 3.8583984,-2.7364853 3.84375,-2.9650009 3.826172,-3.1905869 3.893555,-3.3985947 4.0429687,-3.5860947 l 0.058594,-0.082031 0.984375,-0.9960938 c 0.1875,-0.1875 0.4042969,-0.28125 0.65625,-0.28125 0.2490234,0 0.46875,0.09375 0.6562498,0.2812498 z M 3.6914063,-5.7775009 c 0.1552734,0.1582031 0.2402343,0.3574218 0.2578125,0.5976562 0.014648,0.234375 -0.046875,0.4394531 -0.1875,0.609375 l -0.070312,0.082031 -0.984375,0.984375 c -0.1875,0.1875 -0.4072266,0.28125 -0.65625,0.28125 -0.2519532,0 -0.4687501,-0.09375 -0.6562501,-0.28125 -0.1582031,-0.1552735 -0.243164,-0.3457032 -0.2578125,-0.5742188 -0.017578,-0.234375 0.049805,-0.4394531 0.1992188,-0.6210937 l 0.058594,-0.09375 1.0078126,-0.984375 c 0.1699218,-0.1875 0.3808593,-0.28125 0.6328125,-0.28125 0.2490234,0 0.46875,0.09375 0.6562492,0.2812503 z M 9.5625,-13.359532 c -1.0488281,-0.56836 -1.9804688,-0.925781 -2.8007813,-1.066406 -0.8144531,-0.146485 -1.3710937,-0.05859 -1.6757812,0.269531 -0.1962891,0.243164 -0.2578125,0.609375 -0.1875,1.101562 0.084961,0.486328 0.2929687,1.040039 0.6210937,1.664063 0.328125,0.618164 0.7734375,1.277344 1.3359375,1.9804686 0.5683594,0.703125 1.2421876,1.3916015 2.0156251,2.0625 0.7734375,0.6738281 1.5468752,1.2480468 2.3203122,1.7226562 0.773438,0.4541016 1.491211,0.8027344 2.15625,1.0429688 0.66211,0.234375 1.248047,0.3603515 1.757813,0.375 0.483398,0.017578 0.832031,-0.099609 1.042968,-0.3515625 0.272461,-0.328125 0.295899,-0.8671875 0.07031,-1.6171875 -0.228516,-0.75 -0.673828,-1.5761719 -1.335937,-2.484375 l -1.160157,1.1835937 c -0.1875,0.1728516 -0.407226,0.2578125 -0.65625,0.2578125 -0.251953,0 -0.46875,-0.084961 -0.65625,-0.2578125 -0.158203,-0.1699219 -0.243164,-0.3691406 -0.257812,-0.5976562 -0.0088,-0.234375 0.05859,-0.4394532 0.199219,-0.6210938 l 0.05859,-0.09375 1.3125,-1.2890623 c -0.111328,-0.108399 -0.222656,-0.225586 -0.339843,-0.351563 -0.117188,-0.123047 -0.240235,-0.240234 -0.363282,-0.351562 -0.172851,0.125976 -0.37207,0.18164 -0.597656,0.164062 -0.219727,-0.02344 -0.407227,-0.111328 -0.5625,-0.269531 -0.149414,-0.146484 -0.240234,-0.316406 -0.269531,-0.503906 -0.02344,-0.19336 0.0059,-0.37793 0.09375,-0.550781 -0.08789,-0.07031 -0.175781,-0.140625 -0.269531,-0.210938 -0.09375,-0.07617 -0.184571,-0.143555 -0.269532,-0.199219 l -1.4296872,1.441407 c -0.1728516,0.172851 -0.3867188,0.257812 -0.6445313,0.257812 -0.2578125,0 -0.4746094,-0.08496 -0.6445312,-0.257812 -0.1728516,-0.169922 -0.2666016,-0.369141 -0.28125,-0.597657 -0.017578,-0.234375 0.046875,-0.445312 0.1875,-0.632812 l 0.09375,-0.08203 z m -2.2617188,0.363281 c 0.099609,0.571289 0.421875,1.248047 0.9609376,2.027344 0.5390625,0.782226 1.2304687,1.5410154 2.0742192,2.2734373 0.881835,0.7734375 1.769531,1.3769531 2.660156,1.8046875 0.890625,0.4306641 1.620117,0.6210938 2.191406,0.5742188 0.257813,-0.014648 0.480469,0.064453 0.667969,0.234375 0.1875,0.1728515 0.284179,0.3808593 0.292968,0.6210937 0.01465,0.2578125 -0.05859,0.4863281 -0.222656,0.6796875 -0.164062,0.1962891 -0.375,0.3017578 -0.632812,0.3164063 -0.430664,0.017578 -0.887696,-0.035156 -1.371094,-0.1523438 -0.500977,-0.1318359 -1.019531,-0.3193359 -1.558594,-0.5625 -0.539062,-0.2402344 -1.078125,-0.5419922 -1.617187,-0.9023437 -0.5625,-0.366211 -1.1015627,-0.7792969 -1.6171877,-1.2421875 -0.5009766,-0.413086 -0.9492188,-0.8496094 -1.3476563,-1.3125 -0.421875,-0.46875 -0.7910156,-0.9316407 -1.1015625,-1.3945311 -0.3134766,-0.459961 -0.5712891,-0.916992 -0.7734375,-1.371094 -0.2050781,-0.445312 -0.3398438,-0.873047 -0.4101563,-1.289062 -0.041016,-0.240235 0.011719,-0.46875 0.1523438,-0.679688 0.140625,-0.210937 0.3398437,-0.333984 0.5976562,-0.375 0.2490235,-0.04687 0.4746094,0.0059 0.6796875,0.152344 0.2109375,0.140625 0.3339844,0.339844 0.375,0.597656 z m -1.6523437,5.2617188 c 0.1699219,0.1728516 0.2636719,0.375 0.28125,0.609375 0.014648,0.2285156 -0.052734,0.4335938 -0.1992188,0.6210938 l -0.082031,0.082031 -0.5742188,0.5976563 c -0.1875,0.1728515 -0.4072265,0.2578125 -0.65625,0.2578125 -0.2519531,0 -0.4687499,-0.084961 -0.6562499,-0.2578125 -0.1582032,-0.1699219 -0.2431641,-0.3691407 -0.2578125,-0.5976563 -0.017578,-0.2255859 0.046875,-0.4335937 0.1875,-0.6210937 l 0.070312,-0.09375 0.5976562,-0.5976563 c 0.1875,-0.1699219 0.4042969,-0.2578125 0.65625,-0.2578125 0.2490234,0 0.4599609,0.087891 0.6328128,0.2578127 z M 20.601562,-15.656407 c 0.155274,0.172851 0.240235,0.37207 0.257813,0.597656 0.01465,0.228516 -0.05273,0.427734 -0.199219,0.597656 l -0.05859,0.117188 -1.804687,1.78125 c -0.1875,0.1875 -0.407227,0.28125 -0.65625,0.28125 -0.251953,0 -0.46875,-0.09375 -0.65625,-0.28125 -0.158203,-0.155274 -0.243164,-0.345703 -0.257813,-0.574219 -0.01758,-0.234375 0.0498,-0.445312 0.199219,-0.632812 l 0.05859,-0.08203 1.804687,-1.804687 c 0.1875,-0.169922 0.404297,-0.257813 0.65625,-0.257813 0.249024,0 0.46875,0.08789 0.65625,0.257813 z m -6.679687,-0.773438 c 0.169922,0.172852 0.260742,0.372071 0.269531,0.597657 0.01465,0.228515 -0.04687,0.427734 -0.1875,0.597656 l -0.08203,0.09375 -0.585937,0.574219 c -0.172852,0.1875 -0.386719,0.28125 -0.644532,0.28125 -0.257812,0 -0.474609,-0.09375 -0.644531,-0.28125 -0.172852,-0.155274 -0.266602,-0.345704 -0.28125,-0.574219 -0.0088,-0.234375 0.05859,-0.439453 0.199219,-0.621094 l 0.08203,-0.09375 0.585938,-0.574219 c 0.169921,-0.169922 0.386718,-0.257812 0.644531,-0.257812 0.257812,0 0.471679,0.08789 0.644531,0.257812 z m 6.09375,-2.625 c 0.169922,0.158203 0.260742,0.351563 0.269531,0.585938 0.0059,0.228515 -0.05273,0.433594 -0.175781,0.621094 l -0.09375,0.08203 -2.578125,2.578125 c -0.181641,0.1875 -0.398438,0.28125 -0.65625,0.28125 -0.251953,0 -0.46582,-0.09375 -0.644531,-0.28125 -0.164063,-0.155274 -0.254883,-0.345703 -0.269531,-0.574219 -0.0088,-0.234375 0.05859,-0.445312 0.199218,-0.632812 l 0.07031,-0.08203 2.589843,-2.578125 c 0.169922,-0.1875 0.386719,-0.28125 0.644532,-0.28125 0.257812,0 0.471679,0.09375 0.644531,0.28125 z m -3.433594,-0.04687 c 0.169922,0.172852 0.260742,0.375 0.269531,0.609375 0.0059,0.228516 -0.05566,0.427735 -0.1875,0.597657 l -0.08203,0.105468 -1.160156,1.160157 c -0.1875,0.172851 -0.407227,0.257812 -0.65625,0.257812 -0.251953,0 -0.462891,-0.08496 -0.632812,-0.257812 -0.172852,-0.169922 -0.266602,-0.369141 -0.28125,-0.597657 -0.01758,-0.225586 0.0498,-0.433593 0.199218,-0.621093 l 0.08203,-0.09375 1.160156,-1.160157 c 0.169922,-0.169922 0.386719,-0.257812 0.644531,-0.257812 0.257812,0 0.47168,0.08789 0.644532,0.257812 z m 0,0"
         style="fill:#000000;fill-opacity:1;fill-rule:nonzero;stroke:none" />
      <path
         id="path153"
         d="m 35.334961,-9.2198838 -0.46875,-0.7382812 c 0.202148,-0.146484 0.480469,-0.295898 0.832031,-0.445313 0.351563,-0.155273 0.776367,-0.234375 1.277344,-0.234375 0.632812,0 1.142578,0.146485 1.535156,0.433594 0.389649,0.2900393 0.585938,0.7031252 0.585938,1.2421877 v 3.9609375 h -0.960938 v -0.796875 c -0.164062,0.2988282 -0.416015,0.5244141 -0.75,0.6796875 -0.336914,0.1552735 -0.711914,0.234375 -1.125,0.234375 -0.351562,0 -0.673828,-0.064453 -0.960937,-0.1875 -0.28125,-0.1318359 -0.509766,-0.3222656 -0.679688,-0.5742187 -0.172851,-0.2490234 -0.257812,-0.5625 -0.257812,-0.9375 0,-0.5859375 0.205078,-1.0371094 0.621093,-1.359375 0.421875,-0.328125 0.996094,-0.4921875 1.722657,-0.4921875 0.319336,0 0.600586,0.043945 0.84375,0.1289062 0.240234,0.079102 0.436523,0.1699219 0.585937,0.2695313 v -0.9257813 c 0,-0.28125 -0.117187,-0.4921875 -0.351562,-0.6328125 -0.234375,-0.140625 -0.503907,-0.2109375 -0.808594,-0.2109375 -0.392578,0 -0.732422,0.076172 -1.019531,0.2226563 -0.28125,0.140625 -0.489258,0.2636719 -0.621094,0.3632812 z m 0,2.6015625 c 0,0.2988282 0.111328,0.5214844 0.339844,0.6679688 0.225586,0.1494141 0.498047,0.2226562 0.820312,0.2226562 0.47461,0 0.867188,-0.1083984 1.171875,-0.328125 0.310547,-0.2255859 0.46875,-0.5917968 0.46875,-1.1015625 V -7.38004 c -0.407226,-0.2109375 -0.864258,-0.3164063 -1.371094,-0.3164063 -0.492187,0 -0.855468,0.099609 -1.089843,0.2929688 -0.228516,0.1875 -0.339844,0.4511719 -0.339844,0.7851562 z m 8.926758,-1.7460937 c 0,-0.9140625 -0.392578,-1.3710938 -1.171875,-1.3710938 -0.421875,0 -0.761719,0.1289063 -1.019532,0.3867188 -0.257812,0.2578125 -0.386718,0.5859375 -0.386718,0.984375 v 3.3632812 h -0.960938 v -5.5195312 h 0.960938 v 0.8789062 c 0.164062,-0.3046875 0.386718,-0.5449222 0.667968,-0.7265622 0.28711,-0.178711 0.612305,-0.269532 0.972657,-0.269532 0.568359,0 1.02539,0.184571 1.371093,0.550782 0.351563,0.3603513 0.527344,0.8964841 0.527344,1.6054685 v 3.4804687 h -0.960937 z m 0,0"
         style="fill:#000000;fill-opacity:1;fill-rule:nonzero;stroke:none" />
    </g>
  </g>
</svg>
