<?xml version="1.0" encoding="UTF-8" standalone="no"?>
<!-- Created with Inkscape (http://www.inkscape.org/) -->

<svg
   version="1.1"
   id="svg1"
   width="26.891399"
   height="24.437332"
   viewBox="0 0 26.891399 24.437332"
   xmlns="http://www.w3.org/2000/svg"
   xmlns:svg="http://www.w3.org/2000/svg">
  <defs
     id="defs1" />
  <g
     id="g372"
     transform="translate(-30505.213,-196.844)">
    <path
       id="path379"
       d="m 317.578,147.832 9.152,7.324 c 0.204,0.16 0.317,0.364 0.34,0.621 0.032,0.258 -0.031,0.481 -0.187,0.668 -0.16,0.207 -0.363,0.325 -0.621,0.352 -0.254,0.023 -0.477,-0.039 -0.668,-0.199 l -0.797,-0.645 v 7.535 c 0,0.653 -0.223,1.215 -0.668,1.7 -0.445,0.476 -0.996,0.734 -1.652,0.773 h -10.805 c -0.652,0 -1.215,-0.223 -1.688,-0.668 -0.468,-0.445 -0.722,-0.988 -0.761,-1.629 l -0.024,-0.176 v -7.535 l -0.797,0.645 c -0.172,0.14 -0.371,0.207 -0.597,0.199 -0.227,-0.004 -0.426,-0.098 -0.598,-0.27 l -0.094,-0.082 c -0.156,-0.187 -0.222,-0.41 -0.199,-0.668 0.031,-0.257 0.148,-0.461 0.352,-0.621 l 9.152,-7.324 c 0.172,-0.133 0.363,-0.199 0.574,-0.199 0.219,0 0.414,0.066 0.586,0.199 z m -0.574,1.887 -5.953,4.769 v 9 c 0,0.137 0.035,0.254 0.105,0.364 0.071,0.101 0.164,0.183 0.282,0.246 l 0.082,0.011 h 0.07 l 0.082,0.024 h 10.652 c 0.133,0 0.25,-0.039 0.352,-0.117 0.109,-0.075 0.187,-0.168 0.234,-0.27 l 0.012,-0.082 0.023,-0.082 v -9.094 z m 2.297,10.746 c 0.242,0 0.449,0.09 0.633,0.269 0.179,0.184 0.269,0.399 0.269,0.657 0,0.211 -0.074,0.406 -0.223,0.574 -0.14,0.172 -0.335,0.281 -0.574,0.328 h -4.711 c -0.242,0 -0.453,-0.086 -0.633,-0.27 -0.183,-0.179 -0.269,-0.39 -0.269,-0.632 0,-0.235 0.07,-0.438 0.211,-0.61 0.144,-0.168 0.344,-0.273 0.586,-0.316 z"
       style="fill:#000000;fill-opacity:1;fill-rule:nonzero;stroke:none"
       transform="matrix(1.3333333,0,0,1.3333333,30096,0)" />
  </g>
</svg>
