<?xml version="1.0" encoding="UTF-8" standalone="no"?>
<!-- Created with Inkscape (http://www.inkscape.org/) -->

<svg
   version="1.1"
   id="svg1"
   width="18.63072"
   height="25.311392"
   viewBox="0 0 18.63072 25.311392"
   xmlns="http://www.w3.org/2000/svg"
   xmlns:svg="http://www.w3.org/2000/svg">
  <defs
     id="defs1" />
  <g
     id="g3"
     transform="translate(-937.34209,-481.91517)">
    <g
       id="g29"
       aria-label="&#10;j"
       transform="matrix(1.3333333,0,0,1.3333333,932,506.50672)">
      <path
         id="path30"
         d="m 17.015625,-6.8898056 c 0.210937,0 0.389648,0.076172 0.539062,0.2226562 0.155274,0.1494141 0.234375,0.3339844 0.234375,0.5507813 0,0.7822265 -0.128906,1.5234375 -0.386718,2.2265625 -0.257813,0.703125 -0.615235,1.3417968 -1.066407,1.9101562 -0.454101,0.5625 -0.993164,1.04296877 -1.617187,1.44140627 -0.618164,0.3984375 -1.294922,0.69140625 -2.027344,0.87890625 -0.111328,0.0292969 -0.240234,0.0585938 -0.386718,0.0820313 -0.140625,0.0292969 -0.29004,0.0527344 -0.445313,0.0703125 -0.134766,0.0146484 -0.266602,0.0263672 -0.398437,0.0351563 -0.125977,0.005859 -0.251954,0.0117188 -0.375,0.0117188 -0.03223,0 -0.06445,0 -0.09375,0 -0.02344,0 -0.05274,0 -0.08203,0 h -0.1875 c -0.134765,0 -0.266601,-0.005859 -0.398437,-0.0117188 C 10.198242,0.51937406 10.081055,0.50765531 9.9726563,0.49300687 9.7998047,0.47542875 9.6386719,0.45199125 9.4921875,0.42269437 9.3515625,0.39925687 9.2285156,0.36996 9.1289063,0.34066312 8.4023438,0.15316312 7.7226562,-0.13980563 7.0898437,-0.53824313 6.4716797,-0.93668063 5.9326172,-1.4171494 5.4726562,-1.9796494 5.0185547,-2.5480088 4.6640625,-3.1866806 4.40625,-3.8898056 4.1484375,-4.5929306 4.0195312,-5.3341416 4.0195312,-6.1163681 c 0,-0.2167969 0.076172,-0.4013672 0.234375,-0.5507813 0.1552735,-0.1464844 0.3427735,-0.2226562 0.5625,-0.2226562 0.2109375,0 0.3896485,0.076172 0.5390625,0.2226562 0.1552735,0.1494141 0.234375,0.3339844 0.234375,0.5507813 0,0.6884765 0.1289063,1.3330078 0.3867188,1.9335937 0.2578125,0.6035156 0.6035156,1.1337891 1.0429687,1.59375 0.4453125,0.4541016 0.9667969,0.8173828 1.5703126,1.0898438 0.6005859,0.28125 1.2451171,0.430664 1.9335942,0.4453125 l 0.386718,0.023437 0.386719,-0.023437 c 0.65625,-0.014648 1.280273,-0.1552735 1.875,-0.421875 0.585938,-0.2578125 1.095703,-0.6035157 1.535156,-1.0429688 0.445313,-0.4365234 0.796875,-0.9492187 1.054688,-1.5351562 0.272461,-0.5771485 0.424804,-1.1953125 0.457031,-1.8515625 v -0.2109375 c 0,-0.2167969 0.07324,-0.4013672 0.222656,-0.5507813 0.146485,-0.1464844 0.339844,-0.2226562 0.574219,-0.2226562 z M 6.7617187,-17.823399 c 0.5917969,-0.08496 1.1191407,0.04687 1.5820313,0.398437 0.46875,0.345703 0.7382813,0.805664 0.8085938,1.382813 l 0.8554692,5.472656 c 0.0293,0.219726 -0.020508,0.416015 -0.1523442,0.5859374 -0.1259766,0.1728515 -0.2988282,0.2695312 -0.515625,0.2929687 C 9.1289063,-9.6583603 8.9355469,-9.7052353 8.765625,-9.8312119 8.5927734,-9.9630478 8.4902344,-10.138829 8.4609375,-10.358556 l -0.8554688,-5.472656 c -0.017578,-0.140625 -0.087891,-0.251953 -0.2109375,-0.339844 -0.1171875,-0.08496 -0.2548828,-0.120117 -0.4101562,-0.105468 -0.1494141,0.02344 -0.2695313,0.09375 -0.3632813,0.210937 -0.087891,0.117188 -0.1171875,0.254883 -0.09375,0.410156 l 0.7148438,6.9609379 C 7.265625,-8.4835556 7.2099609,-8.2872666 7.078125,-8.1085556 6.9433594,-7.926915 6.7675781,-7.8214463 6.5507812,-7.7921494 6.3398437,-7.7687119 6.1464844,-7.8185166 5.9765625,-7.9444931 5.8037109,-8.0763291 5.7011719,-8.25504 5.671875,-8.4835556 L 4.9570312,-15.596837 c -0.041016,-0.553711 0.1171875,-1.045898 0.46875,-1.476562 0.3515625,-0.427735 0.796875,-0.679688 1.3359375,-0.75 z m 6.4453123,5.085937 c 0.328125,0 0.635742,0.07031 0.925782,0.210938 0.287109,0.134765 0.530273,0.322265 0.726562,0.5625 0.164063,-0.08496 0.339844,-0.146485 0.527344,-0.1875 0.193359,-0.04687 0.392578,-0.06152 0.597656,-0.04687 0.568359,0.03223 1.048828,0.263671 1.441406,0.691406 0.398438,0.421875 0.580078,0.922851 0.550781,1.5 l -0.1875,4.3359374 c -0.01758,0.2197265 -0.102539,0.3984375 -0.257812,0.5390625 -0.158203,0.140625 -0.345703,0.2050781 -0.5625,0.1875 -0.228516,-0.00586 -0.416016,-0.087891 -0.5625,-0.2460938 -0.140625,-0.1640625 -0.205078,-0.3515625 -0.1875,-0.5625 l 0.1875,-4.3242191 c 0,-0.155273 -0.05273,-0.284179 -0.152344,-0.386718 -0.09375,-0.108399 -0.216797,-0.164063 -0.363281,-0.164063 -0.158203,-0.01465 -0.290039,0.0293 -0.398437,0.128906 -0.10254,0.09375 -0.161133,0.216797 -0.175782,0.363282 v -0.02344 1.2656251 c 0,0.2050781 -0.06738,0.3808594 -0.199218,0.5273438 -0.125977,0.149414 -0.29004,0.2402343 -0.492188,0.2695312 h -0.08203 c -0.219727,0 -0.407227,-0.073242 -0.5625,-0.2226562 -0.158203,-0.1552735 -0.234375,-0.3457032 -0.234375,-0.5742188 v -1.7343751 c 0,-0.164062 -0.05566,-0.292969 -0.164063,-0.386719 -0.102539,-0.09961 -0.228515,-0.152343 -0.375,-0.152343 -0.158203,0 -0.287109,0.05273 -0.386718,0.152343 -0.10254,0.09375 -0.152344,0.222657 -0.152344,0.386719 v 1.7343751 c 0,0.2197266 -0.0791,0.4042969 -0.234375,0.5507813 -0.158203,0.149414 -0.339844,0.2226562 -0.550781,0.2226562 -0.219727,0 -0.407227,-0.073242 -0.5625,-0.2226562 -0.158204,-0.1464844 -0.234375,-0.3310547 -0.234375,-0.5507813 v -1.7343751 c 0,-0.585937 0.205078,-1.081055 0.621093,-1.488281 0.413086,-0.413086 0.914063,-0.621094 1.5,-0.621094 z m 2.027344,4.1718751 c -0.01758,0.140625 0.02344,0.2666016 0.117188,0.375 0.09961,0.1025391 0.234375,0.1611328 0.398437,0.1757813 0.140625,0 0.263672,-0.046875 0.375,-0.140625 0.117187,-0.099609 0.175781,-0.225586 0.175781,-0.375 l 0.105469,-1.7343754 c 0,-0.234375 0.08203,-0.421875 0.246094,-0.5625 0.169922,-0.140625 0.363281,-0.202148 0.574218,-0.1875 0.216797,0.0088 0.398438,0.09375 0.539063,0.257813 0.140625,0.158203 0.210937,0.339844 0.210937,0.550781 l -0.105468,1.7695314 c -0.03223,0.5859375 -0.263672,1.0751953 -0.691407,1.4648437 -0.430664,0.3837891 -0.9375,0.5595703 -1.523437,0.5273438 -0.369141,-0.029297 -0.700195,-0.1347657 -0.996094,-0.3164063 -0.298828,-0.1875 -0.536133,-0.4248047 -0.714843,-0.7148437 z m -2.027344,0.4453125 c 0.146485,0 0.272461,-0.049805 0.375,-0.1523437 0.108399,-0.099609 0.164063,-0.2226563 0.164063,-0.3632813 v -1.7578126 c 0,-0.216797 0.07617,-0.404297 0.234375,-0.5625 0.155273,-0.155273 0.342773,-0.234375 0.5625,-0.234375 0.210937,0 0.389648,0.0791 0.539062,0.234375 0.155274,0.158203 0.234375,0.345703 0.234375,0.5625 v 1.7578126 c 0,0.5712891 -0.208008,1.0664063 -0.621093,1.4882813 -0.407227,0.4160156 -0.902344,0.6210937 -1.488282,0.6210937 -0.140625,0 -0.27539,-0.014648 -0.398437,-0.046875 -0.117188,-0.029297 -0.243164,-0.064453 -0.375,-0.1054687 z m 0.175782,0.4335938 c 0.03808,0.5859375 -0.128907,1.1015625 -0.503907,1.546875 -0.36914,0.4453125 -0.84375,0.6884765 -1.429687,0.7265625 l -3.3046877,0.5390625 c -0.2343751,0.017578 -0.4335938,-0.041016 -0.5976563,-0.1757813 -0.1640625,-0.140625 -0.2578125,-0.3193359 -0.28125,-0.5390625 -0.017578,-0.1933594 0.035156,-0.375 0.1523437,-0.5390625 0.1230469,-0.1640625 0.28125,-0.2607422 0.46875,-0.2929687 l 3.4101563,-0.5625 c 0.155273,0 0.28418,-0.052734 0.386719,-0.1640625 0.09961,-0.1171875 0.143554,-0.2519532 0.128906,-0.4101563 -0.01758,-0.1464844 -0.08203,-0.2695312 -0.199219,-0.3632812 -0.111328,-0.099609 -0.234375,-0.1435547 -0.375,-0.1289063 l -2.7773435,0.234375 -0.3867187,0.035156 c -0.1582032,0.017578 -0.3017579,0.035156 -0.4335938,0.058594 -0.1259766,0.023437 -0.2402344,0.043945 -0.3398438,0.058594 l -0.1289062,0.011719 -0.3164063,0.070312 c -0.430664,0.1171875 -0.7207031,0.2285156 -0.8671875,0.328125 -0.140625,0.09375 -0.2402343,0.2871094 -0.2929687,0.5742188 l -0.046875,0.2578125 c -0.055664,0.328125 -0.046875,0.7001953 0.023437,1.1132812 0.070312,0.4072266 0.2050781,0.8378906 0.4101562,1.2890625 0.084961,0.2197266 0.087891,0.4306641 0.011719,0.6328125 -0.079102,0.1962891 -0.2285156,0.3369141 -0.4453125,0.421875 -0.2050781,0.087891 -0.4101563,0.09082 -0.6210938,0.011719 C 4.8222656,-3.0284775 4.6787109,-3.1691025 4.59375,-3.3741806 4.3359375,-3.9747666 4.1630859,-4.5489853 4.078125,-5.0968369 3.9902344,-5.6505478 3.984375,-6.1778916 4.0546875,-6.6788681 4.171875,-7.41129 4.40625,-7.9503525 4.7578125,-8.2960556 c 0.3515625,-0.3515625 0.9140625,-0.6269532 1.6875,-0.8320313 0.1699219,-0.046875 0.3515625,-0.084961 0.5390625,-0.1171875 0.1875,-0.038086 0.4101562,-0.070312 0.6679687,-0.09375 l 0.7734376,-0.09375 0.4453125,-0.035156 0.2578125,-0.023437 c 0.046875,-0.014648 0.087891,-0.017578 0.1289062,-0.011719 0.046875,0.00879 0.087891,0.020508 0.1289063,0.035156 l 1.7226562,-0.1523438 c 0.568359,-0.046875 1.078125,0.1171875 1.523438,0.4921875 0.445312,0.375 0.694335,0.8554688 0.75,1.4414061 z M 9.796875,-16.710118 c 0.099609,-0.56836 0.389648,-1.019531 0.867188,-1.347656 0.474609,-0.333985 1.001953,-0.451172 1.582031,-0.351563 0.568359,0.102539 1.022461,0.395508 1.359375,0.878906 0.333984,0.477539 0.451172,1.001953 0.351562,1.570313 -0.158203,0.914062 -0.298828,1.722656 -0.421875,2.425781 -0.117187,0.703125 -0.210937,1.286133 -0.28125,1.746094 l -1.675781,0.445312 c 0.08496,-0.539062 0.199219,-1.21289 0.339844,-2.027343 0.146484,-0.820313 0.310547,-1.775391 0.492187,-2.871094 0.0293,-0.140625 0.0029,-0.269531 -0.08203,-0.386719 -0.08789,-0.123047 -0.208008,-0.202148 -0.363281,-0.234375 -0.140625,-0.0293 -0.275391,-0.0029 -0.398438,0.08203 -0.125976,0.08789 -0.199218,0.205078 -0.222656,0.351563 l -1.289062,6.058594 c -0.04687,0.210937 -0.1611333,0.380859 -0.3398442,0.5039059 -0.1728516,0.1171875 -0.3603516,0.1640625 -0.5625,0.140625 C 8.9326172,-9.7726181 8.7568359,-9.8839463 8.625,-10.065587 c -0.1259766,-0.178711 -0.1640625,-0.375 -0.1171875,-0.585937 z m 0,0"
         style="fill:#000000;fill-opacity:1;fill-rule:nonzero;stroke:none" />
      <path
         id="path31"
         d="m 34.78418,-12.804845 c 0,-0.178711 0.06152,-0.331054 0.1875,-0.457031 0.131836,-0.131836 0.287109,-0.199219 0.46875,-0.199219 0.178711,0 0.331054,0.06738 0.457031,0.199219 0.131836,0.125977 0.199219,0.27832 0.199219,0.457031 0,0.181641 -0.06738,0.336914 -0.199219,0.46875 -0.125977,0.134766 -0.27832,0.199219 -0.457031,0.199219 -0.181641,0 -0.336914,-0.06445 -0.46875,-0.199219 -0.125977,-0.131836 -0.1875,-0.287109 -0.1875,-0.46875 z m -0.984375,9.1757816 c 0.08789,0.1318359 0.18164,0.2138671 0.28125,0.2460937 0.09961,0.038086 0.202148,0.058594 0.304687,0.058594 0.178711,0 0.319336,-0.082031 0.421875,-0.2460938 0.09961,-0.1640625 0.152344,-0.4423828 0.152344,-0.8320312 v -6.1171873 h 0.960937 v 6.2343748 c 0,0.65625 -0.140625,1.1396484 -0.421875,1.453125 -0.28125,0.3105468 -0.673828,0.46875 -1.171875,0.46875 -0.257812,0 -0.474609,-0.052734 -0.65625,-0.1523438 -0.178711,-0.09375 -0.310546,-0.2050781 -0.398437,-0.328125 z m 0,0"
         style="fill:#000000;fill-opacity:1;fill-rule:nonzero;stroke:none" />
    </g>
  </g>
</svg>
