<?xml version="1.0" encoding="UTF-8" standalone="no"?>
<!-- Created with Inkscape (http://www.inkscape.org/) -->

<svg
   version="1.1"
   id="svg1"
   width="24.453333"
   height="22.594666"
   viewBox="0 0 24.453333 22.594666"
   xmlns="http://www.w3.org/2000/svg"
   xmlns:svg="http://www.w3.org/2000/svg">
  <defs
     id="defs1" />
  <g
     id="g372"
     transform="translate(-30662.437,-197.76533)">
    <path
       id="path381"
       d="m 434.004,157.758 c 1.152,0 2.285,0.129 3.387,0.387 1.101,0.242 2.078,0.585 2.929,1.031 0.848,0.445 1.535,0.961 2.051,1.547 0.531,0.586 0.797,1.215 0.797,1.886 v 0.469 c 0,0.606 -0.219,1.121 -0.645,1.547 -0.429,0.43 -0.957,0.645 -1.57,0.645 h -13.91 c -0.617,0 -1.145,-0.215 -1.57,-0.645 -0.43,-0.426 -0.645,-0.941 -0.645,-1.547 v -0.469 c 0,-0.671 0.262,-1.3 0.797,-1.886 0.516,-0.586 1.199,-1.102 2.051,-1.547 0.847,-0.446 1.828,-0.789 2.929,-1.031 1.102,-0.258 2.231,-0.387 3.399,-0.387 z m 0,1.781 c -0.852,0 -1.699,0.09 -2.543,0.258 -0.828,0.172 -1.59,0.398 -2.285,0.68 -0.699,0.277 -1.274,0.582 -1.735,0.925 -0.453,0.348 -0.714,0.688 -0.785,1.032 l -0.023,0.093 v 0.551 c 0,0.09 0.023,0.172 0.07,0.246 0.051,0.071 0.117,0.117 0.188,0.141 l 0.058,0.023 h 14.004 c 0.102,0 0.188,-0.023 0.258,-0.07 0.074,-0.051 0.121,-0.121 0.129,-0.211 l 0.023,-0.059 v -0.539 c 0,-0.343 -0.215,-0.703 -0.644,-1.078 -0.446,-0.351 -1.02,-0.672 -1.723,-0.972 -0.695,-0.297 -1.48,-0.532 -2.355,-0.715 -0.875,-0.203 -1.754,-0.305 -2.637,-0.305 z m 0,-11.215 c 0.59,0 1.152,0.114 1.687,0.34 0.532,0.219 0.997,0.527 1.395,0.926 0.402,0.394 0.723,0.851 0.949,1.383 0.227,0.515 0.34,1.074 0.34,1.675 0,0.586 -0.113,1.145 -0.34,1.676 -0.226,0.524 -0.547,0.981 -0.949,1.371 -0.398,0.383 -0.863,0.692 -1.395,0.926 -0.535,0.231 -1.097,0.34 -1.687,0.34 -0.602,0 -1.168,-0.109 -1.699,-0.34 -0.535,-0.234 -1.004,-0.543 -1.407,-0.926 -0.398,-0.39 -0.71,-0.847 -0.937,-1.371 -0.231,-0.531 -0.34,-1.09 -0.34,-1.676 0,-0.601 0.109,-1.16 0.34,-1.675 0.227,-0.532 0.539,-0.989 0.937,-1.383 0.403,-0.399 0.872,-0.707 1.407,-0.926 0.531,-0.226 1.097,-0.34 1.699,-0.34 z m 0,1.781 c -0.723,0 -1.332,0.254 -1.84,0.75 -0.512,0.493 -0.762,1.09 -0.762,1.793 0,0.688 0.25,1.286 0.762,1.782 0.508,0.5 1.117,0.75 1.84,0.75 0.711,0 1.32,-0.25 1.828,-0.75 0.508,-0.496 0.762,-1.094 0.762,-1.782 0,-0.703 -0.254,-1.3 -0.762,-1.793 -0.508,-0.496 -1.117,-0.75 -1.828,-0.75 z"
       style="fill:#000000;fill-opacity:1;fill-rule:nonzero;stroke:none"
       transform="matrix(1.3333333,0,0,1.3333333,30096,0)" />
  </g>
</svg>
