<?xml version="1.0" encoding="UTF-8" standalone="no"?>
<!-- Created with Inkscape (http://www.inkscape.org/) -->

<svg
   version="1.1"
   id="svg1"
   width="26.897905"
   height="20.776049"
   viewBox="0 0 26.897905 20.776049"
   xmlns="http://www.w3.org/2000/svg"
   xmlns:svg="http://www.w3.org/2000/svg">
  <defs
     id="defs1" />
  <g
     id="g372"
     transform="translate(-30505.215,-244.01061)">
    <path
       id="path387"
       d="m 317.215,183.039 h 0.023 l 0.012,0.012 0.117,0.047 9.235,4.687 c 0.296,0.156 0.457,0.406 0.48,0.75 0.023,0.344 -0.102,0.613 -0.375,0.809 l -0.105,0.07 -0.774,0.363 v 2.883 c 0,0.211 -0.07,0.399 -0.211,0.563 -0.133,0.156 -0.305,0.254 -0.515,0.293 l -0.118,0.023 c -0.226,0 -0.422,-0.086 -0.586,-0.258 -0.164,-0.172 -0.246,-0.379 -0.246,-0.621 v -2.062 l -0.714,0.34 0.281,4.101 c 0,0.5 -0.164,0.965 -0.492,1.395 -0.329,0.429 -0.786,0.804 -1.372,1.125 -0.578,0.312 -1.257,0.554 -2.039,0.726 -0.789,0.188 -1.648,0.289 -2.578,0.305 h -0.234 c -0.938,0 -1.805,-0.086 -2.602,-0.258 -0.804,-0.156 -1.507,-0.387 -2.109,-0.691 -0.605,-0.313 -1.086,-0.676 -1.441,-1.09 -0.348,-0.43 -0.536,-0.899 -0.575,-1.406 v -0.165 l 0.282,-4.042 -3.164,-1.524 c -0.29,-0.141 -0.454,-0.383 -0.481,-0.726 -0.023,-0.344 0.098,-0.626 0.375,-0.844 l 0.106,-0.059 9.234,-4.687 c 0.086,-0.039 0.18,-0.067 0.293,-0.082 0.109,-0.016 0.203,-0.008 0.293,0.023 z m 4.594,8.695 -4.465,2.168 c -0.063,0.032 -0.125,0.055 -0.176,0.071 -0.055,0.007 -0.117,0.011 -0.188,0.011 l -0.105,-0.011 -0.129,-0.024 -0.094,-0.047 -4.464,-2.168 -0.235,3.305 c 0,0.375 0.434,0.742 1.301,1.102 0.867,0.359 1.887,0.574 3.058,0.644 h 0.211 l 0.235,0.024 h 0.246 c 1.195,0 2.285,-0.161 3.269,-0.481 0.985,-0.328 1.563,-0.683 1.735,-1.066 l 0.012,-0.094 0.023,-0.035 v -0.024 z m -4.805,-6.855 -7.266,3.703 7.266,3.539 7.254,-3.539 z"
       style="fill:#000000;fill-opacity:1;fill-rule:nonzero;stroke:none"
       transform="matrix(1.3333333,0,0,1.3333333,30096,0)" />
  </g>
</svg>
