<?xml version="1.0" encoding="UTF-8" standalone="no"?>
<!-- Created with Inkscape (http://www.inkscape.org/) -->

<svg
   version="1.1"
   id="svg1"
   width="26.858665"
   height="22.483505"
   viewBox="0 0 26.858665 22.483505"
   xmlns="http://www.w3.org/2000/svg"
   xmlns:svg="http://www.w3.org/2000/svg">
  <defs
     id="defs1" />
  <g
     id="g372"
     transform="translate(-30193.235,-288.49515)">
    <path
       id="path391"
       d="m 79.945,216.578 c 0.414,-0.211 0.848,-0.258 1.301,-0.152 0.449,0.105 0.809,0.34 1.066,0.715 l 0.598,0.832 c 0.117,0.187 0.168,0.398 0.152,0.621 -0.019,0.222 -0.101,0.41 -0.257,0.562 -0.141,0.16 -0.254,0.336 -0.34,0.528 -0.086,0.199 -0.129,0.398 -0.129,0.609 0,0.445 0.156,0.832 0.469,1.148 0.308,0.317 0.691,0.469 1.136,0.469 0.118,0 0.227,-0.012 0.34,-0.043 0.117,-0.031 0.227,-0.066 0.328,-0.105 0.203,-0.102 0.411,-0.121 0.621,-0.059 0.219,0.055 0.391,0.176 0.516,0.363 l 2.988,4.266 h 0.903 c 0.914,0 1.703,0.316 2.367,0.949 0.672,0.633 1.023,1.407 1.066,2.321 v 1.781 c 0,0.515 -0.183,0.953 -0.539,1.312 -0.351,0.36 -0.781,0.539 -1.289,0.539 h -7.453 c -0.301,0 -0.582,-0.066 -0.844,-0.199 -0.265,-0.144 -0.488,-0.344 -0.656,-0.601 l -7.172,-10.243 c -0.289,-0.421 -0.394,-0.879 -0.305,-1.382 0.086,-0.497 0.333,-0.891 0.75,-1.184 l 4.231,-2.965 z m -0.422,14.18 c 0.258,0 0.473,0.094 0.645,0.269 0.18,0.184 0.27,0.399 0.27,0.657 0,0.23 -0.079,0.429 -0.235,0.597 -0.16,0.176 -0.348,0.278 -0.574,0.305 h -3.27 c -0.242,0 -0.453,-0.086 -0.632,-0.27 -0.184,-0.175 -0.27,-0.386 -0.27,-0.632 0,-0.239 0.074,-0.446 0.223,-0.622 0.156,-0.167 0.343,-0.269 0.574,-0.304 z m 1.289,-12.551 -0.046,0.027 -4.149,2.903 7.172,10.242 h 7.453 v -1.606 c 0,-0.445 -0.16,-0.82 -0.469,-1.136 -0.312,-0.317 -0.691,-0.481 -1.136,-0.481 h -1.371 c -0.164,0 -0.313,-0.027 -0.446,-0.094 -0.125,-0.058 -0.23,-0.156 -0.316,-0.292 l -0.082,-0.129 -1.992,0.492 c -0.25,0.066 -0.485,0.035 -0.703,-0.094 -0.211,-0.129 -0.352,-0.32 -0.422,-0.574 -0.055,-0.223 -0.032,-0.438 0.082,-0.645 0.117,-0.211 0.285,-0.351 0.504,-0.422 l 0.105,-0.046 1.289,-0.317 -0.199,-0.281 -1.91,0.492 c -0.258,0.059 -0.5,0.024 -0.715,-0.105 -0.211,-0.129 -0.348,-0.317 -0.399,-0.563 -0.054,-0.223 -0.031,-0.437 0.071,-0.644 0.109,-0.211 0.273,-0.356 0.492,-0.446 l 0.105,-0.023 1.243,-0.328 -0.34,-0.469 -0.047,0.027 c -0.07,0 -0.141,0.008 -0.211,0.024 -0.07,0.008 -0.145,0.011 -0.223,0.011 h -0.211 c -0.945,0 -1.753,-0.335 -2.425,-1.007 -0.672,-0.672 -1.008,-1.481 -1.008,-2.426 0,-0.313 0.039,-0.617 0.117,-0.914 0.078,-0.305 0.203,-0.594 0.375,-0.867 v -0.024 z m -2.566,10.02 c 0.258,0 0.473,0.093 0.656,0.269 0.18,0.176 0.27,0.387 0.27,0.645 0,0.234 -0.078,0.445 -0.234,0.621 -0.161,0.183 -0.348,0.277 -0.575,0.281 l -0.117,0.023 h -3.152 c -0.242,0 -0.457,-0.086 -0.645,-0.269 -0.187,-0.176 -0.281,-0.399 -0.281,-0.656 0,-0.239 0.078,-0.446 0.234,-0.621 0.157,-0.168 0.352,-0.27 0.586,-0.293 z m -1.242,-2.543 c 0.238,0 0.449,0.093 0.633,0.269 0.179,0.184 0.269,0.399 0.269,0.656 0,0.246 -0.078,0.453 -0.234,0.621 -0.16,0.176 -0.348,0.278 -0.563,0.305 h -3.281 c -0.242,0 -0.453,-0.086 -0.633,-0.269 -0.183,-0.176 -0.269,-0.399 -0.269,-0.657 0,-0.222 0.074,-0.425 0.234,-0.609 0.156,-0.176 0.344,-0.273 0.563,-0.293 l 0.105,-0.023 z"
       style="fill:#000000;fill-opacity:1;fill-rule:nonzero;stroke:none"
       transform="matrix(1.3333333,0,0,1.3333333,30096,0)" />
  </g>
</svg>
