<?xml version="1.0" encoding="UTF-8" standalone="no"?>
<!-- Created with Inkscape (http://www.inkscape.org/) -->

<svg
   version="1.1"
   id="svg1"
   width="29.630995"
   height="24.361588"
   viewBox="0 0 29.630995 24.361588"
   xmlns="http://www.w3.org/2000/svg"
   xmlns:svg="http://www.w3.org/2000/svg">
  <defs
     id="defs1" />
  <g
     id="g372"
     transform="translate(-30659.848,-332.87466)">
    <path
       id="path405"
       d="m 440.742,254.66 c 0.305,0.063 0.567,0.195 0.797,0.387 0.227,0.187 0.379,0.43 0.469,0.715 0.062,0 0.117,0.008 0.164,0.011 0.047,0.008 0.094,0.012 0.14,0.012 0.426,0.09 0.774,0.301 1.032,0.645 0.258,0.347 0.363,0.734 0.316,1.16 0.016,0 0.031,0 0.047,0 0.016,0 0.027,0 0.047,0 0.445,0.09 0.797,0.324 1.055,0.703 0.261,0.375 0.355,0.785 0.269,1.23 l -0.785,4.524 c -0.117,0.633 -0.34,1.215 -0.668,1.746 -0.348,0.516 -0.758,0.945 -1.242,1.289 -0.477,0.348 -1.016,0.586 -1.617,0.727 -0.606,0.14 -1.219,0.156 -1.852,0.046 -0.945,-0.167 -1.707,-0.484 -2.273,-0.949 -0.563,-0.468 -1.043,-1.176 -1.442,-2.121 -0.019,-0.015 -0.023,-0.027 -0.023,-0.035 0,-0.004 -0.008,-0.027 -0.024,-0.059 l -0.011,-0.035 c -0.032,-0.07 -0.059,-0.133 -0.082,-0.199 -0.024,-0.07 -0.047,-0.141 -0.071,-0.211 -0.019,0 -0.023,0 -0.023,0 0,0 0.008,0 0.023,0 l -0.984,-2.473 -0.996,2.473 c -0.024,0.07 -0.047,0.141 -0.07,0.211 -0.024,0.066 -0.055,0.125 -0.083,0.176 l -0.011,0.058 c -0.02,0.032 -0.024,0.047 -0.024,0.047 0,0 0,0.008 0,0.024 -0.418,0.961 -0.902,1.676 -1.465,2.144 -0.558,0.465 -1.312,0.782 -2.273,0.949 -0.633,0.11 -1.25,0.094 -1.852,-0.046 -0.605,-0.141 -1.144,-0.379 -1.628,-0.727 -0.477,-0.344 -0.887,-0.773 -1.231,-1.289 -0.328,-0.531 -0.551,-1.113 -0.668,-1.746 v -0.035 l -0.785,-4.489 c -0.086,-0.445 0,-0.855 0.258,-1.23 0.262,-0.379 0.621,-0.613 1.066,-0.703 0.016,0 0.031,0 0.047,0 0.016,0 0.031,0 0.047,0 -0.047,-0.426 0.059,-0.813 0.316,-1.16 0.258,-0.344 0.602,-0.555 1.032,-0.645 0.046,0 0.093,-0.004 0.14,-0.012 0.047,-0.007 0.098,-0.011 0.164,-0.011 0.086,-0.289 0.239,-0.528 0.469,-0.715 0.227,-0.192 0.492,-0.324 0.797,-0.387 0.375,-0.051 0.726,0.008 1.055,0.188 0.328,0.179 0.566,0.433 0.726,0.761 0.016,0 0.027,-0.004 0.047,-0.011 0.023,-0.008 0.051,-0.012 0.082,-0.012 0.445,-0.07 0.848,0.023 1.219,0.281 0.375,0.258 0.601,0.617 0.691,1.078 l 0.41,2.321 c 0.239,-0.274 0.516,-0.446 0.821,-0.516 0.308,-0.074 0.633,-0.051 0.961,0.082 0.144,0.055 0.281,0.125 0.398,0.211 0.121,0.09 0.238,0.195 0.34,0.328 0.094,-0.133 0.199,-0.238 0.316,-0.328 0.121,-0.086 0.262,-0.156 0.41,-0.211 0.329,-0.133 0.645,-0.156 0.95,-0.082 0.308,0.07 0.59,0.242 0.832,0.516 l 0.41,-2.321 c 0.086,-0.461 0.308,-0.82 0.68,-1.078 0.375,-0.258 0.785,-0.351 1.23,-0.281 0.031,0 0.055,0.008 0.07,0.012 0.024,0.007 0.039,0.011 0.059,0.011 0.156,-0.328 0.398,-0.578 0.727,-0.761 0.328,-0.18 0.679,-0.239 1.054,-0.188 z m -0.258,1.547 c -0.019,0 -0.035,0.008 -0.058,0.012 -0.016,0.008 -0.024,0.019 -0.024,0.035 l -0.023,0.047 -0.715,4.054 c -0.043,0.219 -0.148,0.395 -0.316,0.516 -0.172,0.117 -0.371,0.16 -0.586,0.129 -0.196,-0.039 -0.36,-0.133 -0.481,-0.293 -0.117,-0.164 -0.172,-0.34 -0.164,-0.527 v -0.106 l 0.516,-2.836 c 0,-0.023 -0.008,-0.047 -0.024,-0.07 -0.007,-0.023 -0.031,-0.035 -0.058,-0.035 -0.02,0 -0.031,0.008 -0.047,0.012 -0.008,0.007 -0.02,0.019 -0.035,0.035 v 0.035 l -0.645,3.703 0.106,0.152 c 0.05,0.008 0.105,0.012 0.152,0.012 0.055,0 0.109,0.008 0.164,0.023 0.531,0.102 0.981,0.36 1.348,0.762 0.367,0.399 0.578,0.867 0.633,1.406 0.015,0.219 -0.047,0.411 -0.188,0.575 -0.133,0.164 -0.305,0.265 -0.516,0.293 -0.218,0.019 -0.41,-0.039 -0.574,-0.176 -0.164,-0.141 -0.254,-0.32 -0.269,-0.539 -0.032,-0.192 -0.114,-0.364 -0.246,-0.504 -0.125,-0.145 -0.278,-0.238 -0.457,-0.27 -0.047,-0.015 -0.094,-0.023 -0.141,-0.023 -0.043,0 -0.086,0.008 -0.141,0.023 -0.031,0 -0.07,0 -0.117,0 -0.043,0 -0.074,0 -0.105,0 -0.086,-0.015 -0.168,-0.039 -0.246,-0.07 -0.079,-0.039 -0.153,-0.086 -0.223,-0.141 l -0.059,-0.082 -1.465,-1.921 c -0.07,-0.086 -0.113,-0.133 -0.128,-0.141 -0.016,-0.016 -0.043,-0.012 -0.082,0.012 -0.016,0 -0.036,0.019 -0.059,0.058 -0.023,0.043 -0.043,0.071 -0.059,0.094 v 0.023 l 1.442,3.563 c 0.304,0.75 0.636,1.285 0.996,1.605 0.367,0.325 0.902,0.539 1.605,0.657 0.774,0.14 1.493,0 2.157,-0.422 0.671,-0.422 1.113,-1.012 1.324,-1.77 l 0.047,-0.176 0.035,-0.164 v -0.023 l 0.797,-4.512 c 0,-0.015 -0.008,-0.035 -0.024,-0.058 -0.008,-0.024 -0.027,-0.039 -0.058,-0.047 -0.016,0 -0.032,0.008 -0.047,0.011 -0.016,0 -0.028,0.008 -0.035,0.024 v 0.047 l -0.411,2.367 c -0.046,0.195 -0.16,0.359 -0.339,0.492 -0.18,0.125 -0.368,0.172 -0.563,0.129 -0.203,-0.027 -0.367,-0.121 -0.492,-0.281 -0.117,-0.156 -0.168,-0.332 -0.152,-0.539 v -0.082 l 0.679,-3.867 c 0,-0.028 -0.008,-0.051 -0.023,-0.071 -0.008,-0.015 -0.028,-0.027 -0.059,-0.035 -0.015,0 -0.031,0.008 -0.047,0.012 -0.007,0 -0.019,0.008 -0.035,0.023 v 0.047 l -0.586,3.27 c -0.023,0.211 -0.125,0.382 -0.304,0.504 -0.18,0.117 -0.379,0.16 -0.598,0.117 -0.195,-0.028 -0.356,-0.121 -0.481,-0.282 -0.125,-0.156 -0.179,-0.328 -0.164,-0.515 l 0.024,-0.106 0.715,-4.078 c 0,-0.027 -0.008,-0.051 -0.024,-0.07 -0.015,-0.016 -0.031,-0.027 -0.047,-0.047 z m -12.972,0 c -0.02,0 -0.032,0.008 -0.047,0.023 -0.02,0.02 -0.024,0.043 -0.024,0.071 v 0.023 l 0.715,4.078 c 0.039,0.211 -0.008,0.407 -0.129,0.586 -0.117,0.184 -0.281,0.289 -0.492,0.317 -0.207,0.043 -0.387,0.007 -0.551,-0.094 -0.164,-0.109 -0.277,-0.258 -0.328,-0.445 l -0.023,-0.082 -0.586,-3.27 c 0,-0.027 -0.012,-0.051 -0.035,-0.059 -0.016,-0.015 -0.032,-0.023 -0.047,-0.023 -0.031,0 -0.051,0.008 -0.059,0.023 -0.008,0.008 -0.015,0.02 -0.023,0.036 v 0.047 l 0.679,3.867 c 0.032,0.211 -0.015,0.406 -0.14,0.586 -0.117,0.183 -0.289,0.289 -0.504,0.316 -0.188,0.043 -0.371,0.008 -0.539,-0.094 -0.172,-0.109 -0.289,-0.258 -0.34,-0.445 l -0.023,-0.082 -0.411,-2.367 c 0,-0.028 -0.011,-0.051 -0.035,-0.059 -0.015,-0.015 -0.031,-0.023 -0.047,-0.023 -0.031,0.008 -0.05,0.019 -0.058,0.023 0,0.008 -0.008,0.031 -0.024,0.059 v 0.023 l 0.797,4.535 c 0.157,0.844 0.582,1.52 1.278,2.016 0.695,0.5 1.457,0.676 2.285,0.516 0.656,-0.118 1.168,-0.321 1.535,-0.61 0.367,-0.297 0.699,-0.777 0.996,-1.453 l 0.07,-0.176 1.442,-3.562 c 0,-0.028 -0.012,-0.07 -0.035,-0.117 -0.024,-0.051 -0.051,-0.082 -0.082,-0.082 -0.024,-0.024 -0.047,-0.028 -0.071,-0.024 -0.023,0.008 -0.054,0.047 -0.094,0.117 l -0.046,0.036 -1.465,1.921 c -0.071,0.09 -0.149,0.153 -0.235,0.2 -0.089,0.046 -0.183,0.078 -0.281,0.093 -0.043,0 -0.082,0 -0.129,0 -0.043,0 -0.078,0 -0.105,0 -0.055,-0.015 -0.106,-0.023 -0.153,-0.023 -0.043,0 -0.082,0.008 -0.128,0.023 -0.184,0.032 -0.336,0.125 -0.469,0.27 -0.125,0.14 -0.207,0.312 -0.235,0.504 -0.019,0.219 -0.105,0.398 -0.269,0.539 -0.164,0.137 -0.359,0.195 -0.574,0.176 -0.211,-0.028 -0.387,-0.129 -0.528,-0.293 -0.136,-0.164 -0.195,-0.356 -0.175,-0.575 0.05,-0.539 0.261,-1.007 0.632,-1.406 0.368,-0.402 0.813,-0.66 1.348,-0.762 l 0.141,-0.023 0.175,-0.012 0.106,-0.152 -0.645,-3.703 c 0,-0.024 -0.011,-0.043 -0.035,-0.059 -0.015,-0.015 -0.031,-0.023 -0.047,-0.023 -0.031,0 -0.05,0.008 -0.058,0.023 -0.008,0.02 -0.02,0.032 -0.024,0.047 v 0.035 l 0.516,2.836 c 0.023,0.219 -0.027,0.418 -0.152,0.598 -0.118,0.183 -0.282,0.289 -0.493,0.328 -0.207,0.031 -0.386,-0.004 -0.55,-0.117 -0.164,-0.11 -0.278,-0.258 -0.34,-0.445 l -0.012,-0.083 -0.715,-4.054 c 0,-0.031 -0.012,-0.051 -0.035,-0.071 -0.016,-0.015 -0.043,-0.023 -0.07,-0.023 z m 10.336,-5.391 c 0.168,0.137 0.273,0.305 0.304,0.516 0.039,0.207 0,0.398 -0.117,0.586 l -0.926,1.289 c -0.113,0.188 -0.277,0.301 -0.492,0.34 -0.211,0.031 -0.402,-0.016 -0.574,-0.152 -0.172,-0.122 -0.281,-0.286 -0.328,-0.493 -0.043,-0.211 0.004,-0.41 0.129,-0.597 l 0.902,-1.289 c 0.133,-0.188 0.297,-0.297 0.504,-0.328 0.211,-0.04 0.41,0.007 0.598,0.128 z m -6.575,0.2 0.903,1.289 c 0.109,0.187 0.144,0.386 0.105,0.597 -0.031,0.207 -0.136,0.371 -0.304,0.493 -0.188,0.136 -0.387,0.183 -0.598,0.152 -0.207,-0.039 -0.371,-0.152 -0.492,-0.34 l -0.903,-1.289 c -0.136,-0.188 -0.183,-0.379 -0.14,-0.586 0.047,-0.211 0.156,-0.379 0.328,-0.516 0.168,-0.121 0.363,-0.168 0.574,-0.128 0.215,0.031 0.391,0.14 0.527,0.328 z m 2.731,-1.36 c 0.211,0 0.391,0.082 0.551,0.246 0.156,0.16 0.234,0.34 0.234,0.551 v 2.004 c 0,0.211 -0.078,0.395 -0.234,0.551 -0.16,0.148 -0.34,0.222 -0.551,0.222 -0.219,0 -0.406,-0.074 -0.551,-0.222 -0.148,-0.156 -0.223,-0.34 -0.223,-0.551 v -2.004 c 0,-0.211 0.075,-0.391 0.223,-0.551 0.145,-0.164 0.332,-0.246 0.551,-0.246 z"
       style="fill:#000000;fill-opacity:1;fill-rule:nonzero;stroke:none"
       transform="matrix(1.3333333,0,0,1.3333333,30096,0)" />
  </g>
</svg>
