<?xml version="1.0" encoding="UTF-8" standalone="no"?>
<!-- Created with Inkscape (http://www.inkscape.org/) -->

<svg
   version="1.1"
   id="svg1"
   width="18.631918"
   height="25.31284"
   viewBox="0 0 18.631918 25.31284"
   xmlns="http://www.w3.org/2000/svg"
   xmlns:svg="http://www.w3.org/2000/svg">
  <defs
     id="defs1" />
  <g
     id="g372"
     transform="translate(-30197.341,-378.02048)">
    <path
       id="path407"
       d="m 89.016,295.07 c 0.211,0 0.39,0.075 0.539,0.223 0.156,0.148 0.234,0.332 0.234,0.551 0,0.781 -0.129,1.523 -0.387,2.226 -0.257,0.703 -0.617,1.34 -1.066,1.91 -0.453,0.563 -0.992,1.043 -1.617,1.442 -0.617,0.398 -1.297,0.691 -2.028,0.879 -0.113,0.027 -0.242,0.058 -0.386,0.082 -0.141,0.027 -0.289,0.051 -0.446,0.07 -0.136,0.016 -0.265,0.027 -0.398,0.035 -0.125,0.004 -0.254,0.012 -0.375,0.012 -0.031,0 -0.063,0 -0.094,0 -0.023,0 -0.054,0 -0.082,0 h -0.187 c -0.133,0 -0.266,-0.008 -0.399,-0.012 -0.125,-0.011 -0.242,-0.023 -0.351,-0.035 -0.172,-0.019 -0.336,-0.043 -0.481,-0.07 -0.14,-0.024 -0.265,-0.055 -0.363,-0.082 -0.727,-0.188 -1.406,-0.481 -2.039,-0.879 -0.617,-0.399 -1.156,-0.879 -1.617,-1.442 -0.453,-0.57 -0.809,-1.207 -1.067,-1.91 -0.258,-0.703 -0.386,-1.445 -0.386,-2.226 0,-0.219 0.074,-0.403 0.234,-0.551 0.156,-0.148 0.344,-0.223 0.562,-0.223 0.211,0 0.391,0.075 0.539,0.223 0.157,0.148 0.235,0.332 0.235,0.551 0,0.687 0.129,1.332 0.387,1.933 0.257,0.602 0.601,1.133 1.043,1.594 0.445,0.453 0.964,0.817 1.57,1.09 0.601,0.281 1.246,0.43 1.933,0.445 l 0.387,0.024 0.387,-0.024 c 0.656,-0.015 1.281,-0.156 1.875,-0.422 0.586,-0.257 1.094,-0.605 1.535,-1.043 0.445,-0.437 0.797,-0.949 1.055,-1.535 0.273,-0.578 0.426,-1.195 0.457,-1.851 v -0.211 c 0,-0.219 0.074,-0.403 0.222,-0.551 0.145,-0.148 0.34,-0.223 0.575,-0.223 z M 78.762,284.137 c 0.59,-0.086 1.117,0.047 1.582,0.398 0.468,0.344 0.738,0.805 0.808,1.383 l 0.856,5.473 c 0.031,0.218 -0.02,0.414 -0.153,0.586 -0.125,0.171 -0.3,0.269 -0.515,0.293 -0.211,0.031 -0.406,-0.016 -0.574,-0.141 -0.172,-0.133 -0.278,-0.309 -0.305,-0.527 l -0.856,-5.473 c -0.019,-0.141 -0.089,-0.254 -0.21,-0.34 -0.118,-0.086 -0.254,-0.121 -0.411,-0.105 -0.148,0.023 -0.269,0.093 -0.363,0.211 -0.09,0.117 -0.117,0.253 -0.094,0.41 l 0.715,6.961 c 0.024,0.211 -0.031,0.406 -0.164,0.586 -0.137,0.179 -0.312,0.285 -0.527,0.316 -0.211,0.023 -0.406,-0.027 -0.574,-0.152 -0.172,-0.133 -0.278,-0.313 -0.305,-0.539 l -0.715,-7.114 c -0.043,-0.554 0.117,-1.047 0.469,-1.476 0.351,-0.43 0.797,-0.68 1.336,-0.75 z m 6.445,5.086 c 0.328,0 0.637,0.07 0.926,0.211 0.285,0.132 0.531,0.32 0.726,0.562 0.164,-0.086 0.34,-0.148 0.528,-0.187 0.191,-0.047 0.39,-0.063 0.597,-0.047 0.567,0.031 1.047,0.261 1.442,0.691 0.398,0.422 0.578,0.922 0.551,1.5 l -0.188,4.336 c -0.019,0.219 -0.101,0.399 -0.258,0.539 -0.16,0.141 -0.347,0.203 -0.562,0.188 -0.231,-0.008 -0.418,-0.09 -0.563,-0.246 -0.14,-0.165 -0.207,-0.352 -0.187,-0.563 l 0.187,-4.324 c 0,-0.156 -0.051,-0.285 -0.152,-0.387 -0.094,-0.109 -0.219,-0.164 -0.363,-0.164 -0.161,-0.016 -0.289,0.027 -0.399,0.129 -0.101,0.094 -0.16,0.215 -0.176,0.363 v -0.023 1.265 c 0,0.204 -0.066,0.379 -0.199,0.528 -0.125,0.148 -0.289,0.238 -0.492,0.269 h -0.082 c -0.219,0 -0.406,-0.074 -0.563,-0.222 -0.156,-0.157 -0.234,-0.348 -0.234,-0.575 v -1.734 c 0,-0.164 -0.055,-0.293 -0.164,-0.387 -0.102,-0.101 -0.227,-0.152 -0.375,-0.152 -0.156,0 -0.285,0.051 -0.387,0.152 -0.101,0.094 -0.152,0.223 -0.152,0.387 v 1.734 c 0,0.219 -0.078,0.403 -0.234,0.551 -0.157,0.149 -0.34,0.223 -0.551,0.223 -0.219,0 -0.406,-0.074 -0.563,-0.223 -0.156,-0.148 -0.234,-0.332 -0.234,-0.551 v -1.734 c 0,-0.586 0.207,-1.082 0.621,-1.488 0.414,-0.414 0.914,-0.621 1.5,-0.621 z m 2.027,4.172 c -0.019,0.14 0.024,0.265 0.118,0.375 0.101,0.101 0.234,0.16 0.398,0.175 0.141,0 0.262,-0.047 0.375,-0.14 0.117,-0.102 0.176,-0.227 0.176,-0.375 l 0.105,-1.735 c 0,-0.234 0.082,-0.422 0.246,-0.562 0.168,-0.141 0.364,-0.203 0.575,-0.188 0.214,0.008 0.398,0.094 0.539,0.258 0.14,0.156 0.211,0.34 0.211,0.551 l -0.106,1.769 c -0.031,0.586 -0.266,1.075 -0.691,1.465 -0.43,0.383 -0.938,0.559 -1.524,0.528 -0.371,-0.032 -0.699,-0.137 -0.996,-0.317 -0.301,-0.187 -0.535,-0.426 -0.715,-0.715 z m -2.027,0.445 c 0.148,0 0.273,-0.051 0.375,-0.152 0.109,-0.102 0.164,-0.223 0.164,-0.364 v -1.758 c 0,-0.218 0.074,-0.406 0.234,-0.562 0.157,-0.156 0.344,-0.234 0.563,-0.234 0.211,0 0.391,0.078 0.539,0.234 0.156,0.156 0.234,0.344 0.234,0.562 v 1.758 c 0,0.571 -0.207,1.067 -0.621,1.488 -0.406,0.415 -0.902,0.622 -1.488,0.622 -0.141,0 -0.273,-0.016 -0.398,-0.047 -0.118,-0.032 -0.243,-0.067 -0.375,-0.106 z m 0.176,0.433 c 0.039,0.586 -0.129,1.102 -0.504,1.547 -0.367,0.446 -0.844,0.688 -1.43,0.727 l -3.304,0.539 c -0.235,0.016 -0.434,-0.043 -0.598,-0.176 -0.164,-0.14 -0.258,-0.32 -0.281,-0.539 -0.02,-0.195 0.035,-0.375 0.152,-0.539 0.121,-0.164 0.281,-0.262 0.469,-0.293 l 3.41,-0.562 c 0.156,0 0.285,-0.055 0.387,-0.165 0.101,-0.117 0.144,-0.253 0.128,-0.41 -0.019,-0.148 -0.082,-0.269 -0.199,-0.363 -0.113,-0.101 -0.234,-0.144 -0.375,-0.129 l -2.777,0.235 -0.387,0.035 c -0.16,0.015 -0.301,0.035 -0.433,0.058 -0.125,0.024 -0.243,0.043 -0.34,0.059 l -0.129,0.012 -0.317,0.07 c -0.429,0.117 -0.722,0.226 -0.867,0.328 -0.14,0.094 -0.242,0.285 -0.293,0.574 l -0.047,0.258 c -0.054,0.328 -0.046,0.699 0.024,1.113 0.07,0.407 0.203,0.836 0.41,1.289 0.086,0.219 0.086,0.43 0.012,0.633 -0.078,0.196 -0.231,0.336 -0.446,0.422 -0.207,0.086 -0.41,0.09 -0.621,0.012 -0.207,-0.078 -0.347,-0.219 -0.433,-0.422 -0.258,-0.602 -0.43,-1.176 -0.516,-1.723 -0.09,-0.554 -0.094,-1.082 -0.023,-1.582 0.117,-0.734 0.351,-1.273 0.703,-1.617 0.351,-0.352 0.914,-0.629 1.687,-0.832 0.168,-0.047 0.352,-0.086 0.539,-0.117 0.188,-0.039 0.411,-0.07 0.668,-0.094 l 0.774,-0.094 0.445,-0.035 0.258,-0.023 c 0.047,-0.016 0.09,-0.02 0.129,-0.012 0.047,0.008 0.09,0.02 0.129,0.035 l 1.722,-0.152 c 0.567,-0.047 1.079,0.117 1.524,0.492 0.445,0.375 0.695,0.856 0.75,1.441 z m -3.586,-9.023 c 0.098,-0.57 0.391,-1.02 0.867,-1.348 0.473,-0.336 1.004,-0.453 1.582,-0.351 0.566,0.101 1.024,0.394 1.359,0.879 0.333,0.476 0.454,1 0.352,1.57 -0.16,0.914 -0.301,1.723 -0.422,2.426 -0.117,0.703 -0.211,1.285 -0.281,1.746 l -1.676,0.445 c 0.086,-0.539 0.199,-1.215 0.34,-2.027 0.144,-0.82 0.312,-1.778 0.492,-2.871 0.031,-0.141 0.004,-0.27 -0.082,-0.387 -0.086,-0.125 -0.207,-0.203 -0.363,-0.234 -0.141,-0.032 -0.274,-0.004 -0.399,0.082 -0.125,0.086 -0.199,0.203 -0.222,0.351 l -1.289,6.059 c -0.047,0.211 -0.16,0.379 -0.34,0.504 -0.172,0.117 -0.36,0.164 -0.563,0.14 -0.218,-0.046 -0.394,-0.16 -0.527,-0.339 -0.125,-0.18 -0.164,-0.375 -0.117,-0.586 z"
       style="fill:#000000;fill-opacity:1;fill-rule:nonzero;stroke:none"
       transform="matrix(1.3333333,0,0,1.3333333,30096,0)" />
  </g>
</svg>
