<?xml version="1.0" encoding="UTF-8" standalone="no"?>
<!-- Created with Inkscape (http://www.inkscape.org/) -->

<svg
   version="1.1"
   id="svg1"
   width="26.276175"
   height="25.062958"
   viewBox="0 0 26.276175 25.062958"
   xmlns="http://www.w3.org/2000/svg"
   xmlns:svg="http://www.w3.org/2000/svg">
  <defs
     id="defs1" />
  <g
     id="g372"
     transform="translate(-30661.525,-497.80665)">
    <path
       id="path422"
       d="m 434.004,373.355 c 1.211,0 2.355,0.231 3.434,0.692 1.054,0.469 1.984,1.101 2.789,1.898 0.8,0.797 1.433,1.731 1.886,2.801 0.461,1.063 0.692,2.203 0.692,3.422 0,0.172 -0.008,0.336 -0.012,0.492 -0.008,0.16 -0.02,0.313 -0.035,0.469 -0.024,0.234 -0.125,0.43 -0.293,0.574 -0.172,0.149 -0.371,0.223 -0.586,0.223 0.117,0.09 0.226,0.176 0.34,0.269 0.117,0.094 0.226,0.2 0.328,0.317 0.473,0.468 0.824,1.015 1.043,1.629 0.215,0.617 0.297,1.25 0.246,1.886 -0.055,0.618 -0.231,1.192 -0.516,1.723 -0.289,0.535 -0.664,0.984 -1.113,1.359 -0.445,0.371 -0.961,0.645 -1.547,0.832 -0.582,0.188 -1.18,0.25 -1.805,0.188 -0.773,-0.07 -1.335,-0.531 -1.687,-1.395 -0.352,-0.859 -0.469,-1.961 -0.352,-3.304 0.11,-1.36 0.414,-2.43 0.914,-3.223 0.508,-0.789 1.141,-1.148 1.899,-1.078 0.258,0.031 0.508,0.078 0.762,0.141 0.25,0.054 0.484,0.128 0.714,0.222 -0.054,-0.07 -0.093,-0.152 -0.117,-0.246 -0.023,-0.098 -0.031,-0.203 -0.011,-0.305 0.015,-0.132 0.027,-0.261 0.035,-0.386 0.008,-0.133 0.011,-0.262 0.011,-0.387 0,-0.961 -0.187,-1.867 -0.562,-2.73 -0.371,-0.844 -0.867,-1.583 -1.5,-2.215 -0.633,-0.637 -1.379,-1.149 -2.238,-1.524 -0.844,-0.355 -1.754,-0.539 -2.719,-0.539 -0.981,0 -1.887,0.184 -2.731,0.539 -0.863,0.375 -1.605,0.887 -2.238,1.524 -0.633,0.632 -1.133,1.371 -1.5,2.215 -0.375,0.863 -0.562,1.769 -0.562,2.73 0,0.125 0.004,0.254 0.011,0.387 0.004,0.125 0.016,0.254 0.036,0.386 0.015,0.102 0.011,0.207 -0.012,0.305 -0.024,0.094 -0.067,0.176 -0.117,0.246 0.226,-0.094 0.461,-0.168 0.714,-0.222 0.25,-0.063 0.504,-0.11 0.762,-0.141 0.754,-0.07 1.387,0.289 1.887,1.078 0.508,0.793 0.812,1.863 0.926,3.223 0.117,1.343 0,2.445 -0.352,3.304 -0.351,0.864 -0.914,1.325 -1.687,1.395 -0.629,0.062 -1.227,0 -1.805,-0.188 -0.586,-0.187 -1.109,-0.461 -1.559,-0.832 -0.445,-0.375 -0.816,-0.824 -1.101,-1.359 -0.289,-0.531 -0.465,-1.105 -0.516,-1.723 -0.055,-0.636 0.028,-1.269 0.246,-1.886 0.215,-0.614 0.567,-1.161 1.043,-1.629 0.071,-0.086 0.153,-0.168 0.246,-0.246 0.094,-0.086 0.18,-0.164 0.27,-0.235 l 0.258,-0.105 c -0.243,0.031 -0.465,-0.028 -0.657,-0.188 -0.195,-0.164 -0.304,-0.367 -0.328,-0.609 -0.015,-0.156 -0.031,-0.309 -0.035,-0.469 -0.008,-0.156 -0.012,-0.32 -0.012,-0.492 0,-1.219 0.227,-2.359 0.692,-3.422 0.449,-1.07 1.082,-2.004 1.887,-2.801 0.8,-0.797 1.734,-1.429 2.789,-1.898 1.078,-0.461 2.226,-0.692 3.445,-0.692 z m 5.473,11.555 c -0.118,0 -0.278,0.266 -0.481,0.797 -0.195,0.535 -0.328,1.156 -0.398,1.875 -0.063,0.703 -0.039,1.336 0.07,1.898 0.109,0.563 0.223,0.844 0.34,0.844 0.18,0.031 0.363,0.043 0.551,0.024 0.187,-0.024 0.367,-0.063 0.539,-0.129 -0.211,-0.379 -0.36,-0.789 -0.446,-1.231 -0.09,-0.437 -0.113,-0.879 -0.07,-1.324 0.047,-0.445 0.145,-0.871 0.305,-1.289 0.156,-0.414 0.367,-0.801 0.644,-1.16 -0.16,-0.07 -0.324,-0.129 -0.504,-0.176 -0.183,-0.051 -0.363,-0.098 -0.55,-0.129 z m -10.981,0 c -0.187,0.031 -0.371,0.078 -0.539,0.129 -0.172,0.047 -0.336,0.106 -0.492,0.176 0.273,0.359 0.484,0.746 0.644,1.16 0.157,0.418 0.258,0.844 0.305,1.289 0.039,0.445 0.016,0.887 -0.07,1.324 -0.09,0.442 -0.235,0.852 -0.446,1.231 0.172,0.066 0.352,0.105 0.54,0.129 0.187,0.019 0.371,0.007 0.55,-0.024 0.117,0 0.231,-0.281 0.34,-0.844 0.11,-0.562 0.133,-1.195 0.07,-1.898 -0.054,-0.613 -0.164,-1.176 -0.328,-1.676 -0.164,-0.496 -0.324,-0.808 -0.48,-0.926 l -0.047,-0.046 h -0.023 z m -2.297,1.617 c -0.101,0.211 -0.176,0.434 -0.222,0.668 -0.043,0.231 -0.051,0.453 -0.036,0.68 0.032,0.234 0.086,0.465 0.164,0.68 0.079,0.211 0.18,0.418 0.305,0.609 0.086,-0.211 0.149,-0.426 0.188,-0.656 0.039,-0.235 0.05,-0.461 0.035,-0.692 -0.031,-0.226 -0.082,-0.449 -0.153,-0.668 -0.07,-0.226 -0.164,-0.433 -0.281,-0.621 z m 15.598,0 c -0.117,0.188 -0.211,0.395 -0.281,0.621 -0.071,0.219 -0.125,0.442 -0.153,0.668 -0.019,0.231 -0.008,0.457 0.035,0.692 0.04,0.23 0.102,0.445 0.188,0.656 0.125,-0.18 0.226,-0.379 0.305,-0.598 0.078,-0.226 0.132,-0.457 0.164,-0.691 0.015,-0.227 0,-0.449 -0.047,-0.68 -0.039,-0.234 -0.11,-0.457 -0.211,-0.668 z"
       style="fill:#000000;fill-opacity:1;fill-rule:nonzero;stroke:none"
       transform="matrix(1.3333333,0,0,1.3333333,30096,0)" />
  </g>
</svg>
