<?xml version="1.0" encoding="UTF-8" standalone="no"?>
<!-- Created with Inkscape (http://www.inkscape.org/) -->

<svg
   version="1.1"
   id="svg1"
   width="23.240324"
   height="26.514666"
   viewBox="0 0 23.240324 26.514666"
   xmlns="http://www.w3.org/2000/svg"
   xmlns:svg="http://www.w3.org/2000/svg">
  <defs
     id="defs1" />
  <g
     id="g372"
     transform="translate(-30351.044,-542.41199)">
    <path
       id="path426"
       d="m 200.004,406.809 c 0.57,0 1.113,0.105 1.629,0.316 0.515,0.219 0.965,0.516 1.347,0.891 0.391,0.367 0.696,0.8 0.926,1.3 0.239,0.5 0.379,1.039 0.41,1.618 v 0.515 h 1.008 c 0.586,0 1.094,0.196 1.535,0.586 0.438,0.391 0.684,0.875 0.739,1.453 l 1.101,10.7 c 0.071,0.671 -0.125,1.257 -0.586,1.757 -0.453,0.496 -1.015,0.75 -1.687,0.75 H 193.57 c -0.675,0 -1.238,-0.254 -1.699,-0.75 -0.453,-0.5 -0.644,-1.086 -0.574,-1.757 l 1.101,-10.7 c 0.051,-0.578 0.297,-1.062 0.739,-1.453 0.437,-0.39 0.949,-0.586 1.535,-0.586 h 1.008 v -0.328 c 0,-1.117 0.375,-2.086 1.125,-2.906 0.754,-0.828 1.687,-1.293 2.789,-1.395 h 0.211 z m -4.324,6.457 h -1.008 c -0.102,0 -0.195,0.035 -0.281,0.105 -0.09,0.063 -0.149,0.145 -0.176,0.246 v 0.059 l -1.09,10.699 c -0.016,0.117 0.012,0.227 0.082,0.328 0.07,0.094 0.164,0.149 0.281,0.164 h 12.938 c 0.109,0 0.211,-0.039 0.304,-0.117 0.094,-0.078 0.141,-0.176 0.141,-0.293 v -0.082 l -1.09,-10.699 c 0,-0.102 -0.043,-0.188 -0.117,-0.258 -0.07,-0.07 -0.16,-0.121 -0.258,-0.152 h -1.09 v 1.535 c 0,0.195 -0.07,0.375 -0.211,0.539 -0.136,0.164 -0.3,0.277 -0.503,0.34 l -0.106,0.011 h -0.105 c -0.211,0 -0.407,-0.062 -0.575,-0.187 -0.164,-0.133 -0.265,-0.305 -0.304,-0.516 l -0.024,-0.082 v -1.64 h -4.98 v 1.535 c 0,0.195 -0.067,0.375 -0.199,0.539 -0.125,0.164 -0.289,0.277 -0.493,0.34 l -0.105,0.011 h -0.106 c -0.218,0 -0.41,-0.062 -0.574,-0.187 -0.164,-0.133 -0.277,-0.305 -0.328,-0.516 v -0.082 l -0.023,-0.105 z m 6.808,5.695 c 0.242,0 0.45,0.086 0.633,0.258 0.18,0.172 0.27,0.386 0.27,0.644 0,0.258 -0.09,0.477 -0.27,0.657 -0.183,0.179 -0.391,0.269 -0.633,0.269 h -4.98 c -0.242,0 -0.453,-0.09 -0.633,-0.269 -0.184,-0.18 -0.27,-0.399 -0.27,-0.657 0,-0.258 0.09,-0.472 0.27,-0.644 0.18,-0.172 0.391,-0.258 0.633,-0.258 z m -2.484,-10.313 c -0.664,0 -1.238,0.227 -1.723,0.68 -0.476,0.453 -0.726,1 -0.75,1.641 l -0.023,0.152 v 0.328 h 4.98 v -0.328 c 0,-0.656 -0.226,-1.223 -0.679,-1.699 -0.446,-0.484 -1,-0.742 -1.664,-0.774 z"
       style="fill:#000000;fill-opacity:1;fill-rule:nonzero;stroke:none"
       transform="matrix(1.3333333,0,0,1.3333333,30096,0)" />
  </g>
</svg>
