<?xml version="1.0" encoding="UTF-8" standalone="no"?>
<!-- Created with Inkscape (http://www.inkscape.org/) -->

<svg
   version="1.1"
   id="svg1"
   width="26.703999"
   height="26.688"
   viewBox="0 0 26.703999 26.688"
   xmlns="http://www.w3.org/2000/svg"
   xmlns:svg="http://www.w3.org/2000/svg">
  <defs
     id="defs1" />
  <g
     id="g372"
     transform="translate(-30193.312,-752.93198)">
    <path
       id="path445"
       d="m 83.004,564.699 c 1.383,0 2.676,0.266 3.879,0.797 1.219,0.516 2.277,1.231 3.187,2.145 0.914,0.906 1.633,1.968 2.168,3.187 0.516,1.211 0.774,2.504 0.774,3.879 0,1.391 -0.258,2.695 -0.774,3.914 -0.535,1.219 -1.254,2.281 -2.168,3.188 -0.91,0.898 -1.968,1.609 -3.187,2.132 -1.203,0.516 -2.496,0.774 -3.879,0.774 -1.391,0 -2.692,-0.258 -3.891,-0.774 -1.218,-0.523 -2.285,-1.234 -3.199,-2.132 -0.91,-0.907 -1.625,-1.969 -2.156,-3.188 -0.516,-1.219 -0.774,-2.523 -0.774,-3.914 0,-1.375 0.258,-2.668 0.774,-3.879 0.531,-1.219 1.246,-2.281 2.156,-3.187 0.914,-0.914 1.981,-1.629 3.199,-2.145 1.199,-0.531 2.5,-0.797 3.891,-0.797 z m 0,1.547 c -1.18,0 -2.281,0.223 -3.293,0.668 -1.031,0.445 -1.93,1.051 -2.695,1.816 -0.77,0.766 -1.371,1.665 -1.817,2.696 -0.445,1.031 -0.668,2.125 -0.668,3.281 0,1.18 0.223,2.285 0.668,3.316 0.446,1.016 1.047,1.907 1.817,2.672 0.765,0.766 1.664,1.371 2.695,1.817 1.012,0.445 2.113,0.668 3.293,0.668 1.172,0 2.266,-0.223 3.281,-0.668 1.031,-0.446 1.926,-1.051 2.695,-1.817 0.766,-0.765 1.372,-1.656 1.817,-2.672 0.445,-1.031 0.668,-2.136 0.668,-3.316 0,-1.156 -0.223,-2.25 -0.668,-3.281 -0.445,-1.031 -1.051,-1.93 -1.817,-2.696 -0.769,-0.765 -1.664,-1.371 -2.695,-1.816 -1.015,-0.445 -2.109,-0.668 -3.281,-0.668 z m 0,11.66 c 0.867,0 1.504,0.153 1.91,0.457 0.414,0.297 0.621,0.77 0.621,1.418 v 0.106 c 0,0.258 -0.031,0.457 -0.094,0.597 -0.054,0.133 -0.16,0.258 -0.316,0.375 -0.187,0.11 -0.453,0.196 -0.797,0.258 -0.348,0.055 -0.785,0.082 -1.324,0.082 -0.863,0 -1.488,-0.082 -1.887,-0.246 -0.394,-0.164 -0.609,-0.433 -0.656,-0.808 0,-0.04 0,-0.079 0,-0.118 0,-0.039 0,-0.093 0,-0.164 0,-0.023 0,-0.039 0,-0.047 0,-0.007 0,-0.019 0,-0.035 0,-0.648 0.203,-1.121 0.609,-1.418 0.414,-0.304 1.059,-0.457 1.934,-0.457 z m -5.098,-3.867 c 0.156,0.164 0.239,0.356 0.258,0.574 0.016,0.211 -0.055,0.403 -0.211,0.575 -0.277,0.312 -0.371,0.687 -0.293,1.124 0.074,0.438 0.297,0.743 0.656,0.915 0.141,0.07 0.332,0.062 0.586,-0.024 0.25,-0.086 0.438,-0.215 0.575,-0.387 0.14,-0.218 0.211,-0.394 0.211,-0.527 0,-0.133 -0.055,-0.238 -0.165,-0.316 -0.031,-0.008 -0.07,0.011 -0.117,0.058 -0.043,0.039 -0.058,0.094 -0.058,0.164 0.027,0.211 -0.032,0.403 -0.176,0.575 -0.141,0.171 -0.324,0.273 -0.539,0.304 -0.231,0.016 -0.43,-0.047 -0.598,-0.187 -0.172,-0.149 -0.265,-0.328 -0.281,-0.539 -0.055,-0.719 0.215,-1.282 0.808,-1.688 0.59,-0.414 1.188,-0.433 1.793,-0.058 0.532,0.328 0.836,0.785 0.915,1.371 0.074,0.578 -0.082,1.168 -0.481,1.769 -0.359,0.469 -0.828,0.797 -1.406,0.985 -0.571,0.187 -1.11,0.187 -1.606,0 l -0.152,-0.047 c -0.844,-0.399 -1.359,-1.078 -1.547,-2.039 -0.187,-0.969 0.043,-1.813 0.692,-2.532 0.14,-0.171 0.32,-0.261 0.539,-0.269 0.226,-0.008 0.425,0.058 0.597,0.199 z m 8.696,0 c 0.164,0.164 0.25,0.356 0.257,0.574 0.016,0.211 -0.047,0.403 -0.187,0.575 -0.289,0.312 -0.395,0.687 -0.317,1.124 0.075,0.438 0.297,0.743 0.657,0.915 0.156,0.07 0.355,0.062 0.597,-0.024 0.25,-0.086 0.446,-0.215 0.586,-0.387 0.133,-0.218 0.2,-0.394 0.2,-0.527 0,-0.133 -0.051,-0.238 -0.153,-0.316 -0.031,-0.008 -0.074,0.011 -0.129,0.058 -0.047,0.039 -0.062,0.094 -0.047,0.164 0.016,0.211 -0.05,0.403 -0.199,0.575 -0.14,0.171 -0.316,0.273 -0.527,0.304 -0.235,0.016 -0.434,-0.047 -0.598,-0.187 -0.164,-0.149 -0.258,-0.328 -0.281,-0.539 -0.063,-0.719 0.203,-1.282 0.797,-1.688 0.594,-0.414 1.199,-0.433 1.816,-0.058 0.516,0.328 0.813,0.785 0.891,1.371 0.078,0.578 -0.082,1.168 -0.481,1.769 -0.359,0.469 -0.824,0.797 -1.394,0.985 -0.57,0.187 -1.11,0.187 -1.617,0 l -0.141,-0.047 c -0.852,-0.399 -1.371,-1.078 -1.559,-2.039 -0.179,-0.969 0.051,-1.813 0.692,-2.532 0.156,-0.171 0.344,-0.261 0.562,-0.269 0.227,-0.008 0.418,0.058 0.575,0.199 z"
       style="fill:#000000;fill-opacity:1;fill-rule:nonzero;stroke:none"
       transform="matrix(1.3333333,0,0,1.3333333,30096,0)" />
  </g>
</svg>
