<?xml version="1.0" encoding="UTF-8" standalone="no"?>
<!-- Created with Inkscape (http://www.inkscape.org/) -->

<svg
   version="1.1"
   id="svg1"
   width="28.093332"
   height="27.791277"
   viewBox="0 0 28.093332 27.791277"
   xmlns="http://www.w3.org/2000/svg"
   xmlns:svg="http://www.w3.org/2000/svg">
  <defs
     id="defs1" />
  <g
     id="g372"
     transform="translate(-30661.235,-541.63065)">
    <path
       id="path430"
       d="m 433.934,421.223 c 0.211,0.07 0.375,0.207 0.492,0.41 0.117,0.195 0.152,0.406 0.105,0.633 l -0.023,0.117 -1.371,4.055 c -0.071,0.238 -0.219,0.414 -0.446,0.527 -0.218,0.117 -0.453,0.133 -0.691,0.047 -0.211,-0.071 -0.375,-0.207 -0.492,-0.41 -0.117,-0.196 -0.153,-0.407 -0.106,-0.633 l 0.024,-0.094 1.347,-4.078 c 0.086,-0.242 0.239,-0.418 0.457,-0.527 0.227,-0.11 0.461,-0.125 0.704,-0.047 z m -2.039,-2.028 c 0.21,0.071 0.375,0.203 0.492,0.399 0.117,0.195 0.152,0.406 0.105,0.633 l -0.023,0.105 -1.348,4.09 c -0.09,0.226 -0.242,0.398 -0.469,0.516 -0.218,0.109 -0.453,0.121 -0.691,0.035 -0.219,-0.071 -0.387,-0.2 -0.504,-0.387 -0.113,-0.195 -0.141,-0.41 -0.094,-0.645 l 1.395,-4.183 c 0.07,-0.227 0.215,-0.399 0.445,-0.516 0.235,-0.117 0.461,-0.133 0.692,-0.047 z m 5.437,0 c 0.211,0.071 0.367,0.203 0.48,0.399 0.118,0.195 0.157,0.406 0.118,0.633 l -0.024,0.105 -1.371,4.09 c -0.07,0.226 -0.219,0.398 -0.445,0.516 -0.219,0.109 -0.453,0.121 -0.692,0.035 -0.218,-0.071 -0.386,-0.2 -0.503,-0.387 -0.114,-0.195 -0.149,-0.41 -0.106,-0.645 l 0.023,-0.105 1.36,-4.078 c 0.086,-0.227 0.238,-0.399 0.457,-0.516 0.219,-0.117 0.453,-0.133 0.703,-0.047 z m -5.613,-10.218 c 0.672,0 1.324,0.097 1.957,0.293 0.633,0.187 1.219,0.468 1.758,0.843 0.359,-0.289 0.754,-0.515 1.195,-0.679 0.437,-0.164 0.891,-0.246 1.359,-0.246 1.117,0 2.067,0.398 2.848,1.195 0.777,0.797 1.172,1.758 1.172,2.883 0,0.289 -0.031,0.582 -0.082,0.879 -0.055,0.289 -0.149,0.562 -0.281,0.82 0.742,0.461 1.332,1.074 1.769,1.84 0.438,0.765 0.656,1.593 0.656,2.484 0,0.695 -0.129,1.352 -0.386,1.969 -0.274,0.617 -0.637,1.156 -1.09,1.617 -0.446,0.453 -0.977,0.809 -1.594,1.066 -0.617,0.274 -1.277,0.411 -1.98,0.411 -0.243,0 -0.454,-0.09 -0.633,-0.27 -0.18,-0.18 -0.27,-0.398 -0.27,-0.656 0,-0.242 0.09,-0.453 0.27,-0.633 0.179,-0.18 0.39,-0.27 0.633,-0.27 0.906,0 1.671,-0.312 2.296,-0.937 0.633,-0.633 0.95,-1.398 0.95,-2.297 0,-0.859 -0.297,-1.601 -0.891,-2.227 -0.594,-0.624 -1.32,-0.957 -2.18,-0.996 h -1.804 c -0.243,0 -0.45,-0.082 -0.621,-0.246 -0.172,-0.172 -0.266,-0.371 -0.282,-0.597 -0.054,-0.625 -0.211,-1.211 -0.468,-1.758 -0.274,-0.531 -0.622,-0.996 -1.043,-1.395 -0.422,-0.406 -0.915,-0.722 -1.477,-0.949 -0.555,-0.226 -1.148,-0.34 -1.781,-0.34 -0.657,0 -1.27,0.129 -1.84,0.387 -0.594,0.242 -1.106,0.578 -1.535,1.008 -0.43,0.429 -0.774,0.937 -1.032,1.523 -0.242,0.571 -0.363,1.188 -0.363,1.852 0,0.258 0.02,0.511 0.059,0.761 0.047,0.25 0.105,0.497 0.176,0.739 0.078,0.203 0.078,0.402 0,0.597 -0.071,0.188 -0.192,0.34 -0.364,0.457 -0.343,0.227 -0.613,0.516 -0.808,0.868 -0.188,0.351 -0.282,0.734 -0.282,1.148 0,0.656 0.235,1.223 0.704,1.699 0.476,0.469 1.043,0.703 1.699,0.703 0.258,0 0.472,0.09 0.644,0.27 0.172,0.18 0.258,0.391 0.258,0.633 0,0.258 -0.086,0.476 -0.258,0.656 -0.172,0.18 -0.386,0.27 -0.644,0.27 -0.571,0 -1.113,-0.114 -1.629,-0.34 -0.516,-0.219 -0.969,-0.52 -1.348,-0.903 -0.375,-0.39 -0.679,-0.836 -0.914,-1.336 -0.211,-0.515 -0.316,-1.066 -0.316,-1.652 0,-0.601 0.117,-1.172 0.351,-1.711 0.235,-0.547 0.575,-1.015 1.02,-1.406 -0.055,-0.242 -0.098,-0.484 -0.129,-0.727 -0.031,-0.242 -0.047,-0.484 -0.047,-0.726 0,-0.906 0.18,-1.758 0.539,-2.555 0.344,-0.805 0.813,-1.504 1.406,-2.098 0.59,-0.593 1.293,-1.062 2.098,-1.406 0.801,-0.344 1.656,-0.515 2.555,-0.515 z m 6.269,2.085 c -0.195,0 -0.394,0.028 -0.597,0.083 -0.207,0.054 -0.395,0.14 -0.563,0.257 0.305,0.36 0.563,0.75 0.774,1.172 0.214,0.422 0.386,0.864 0.503,1.324 l 0.059,0.317 v 0.023 h 0.856 c 0.164,0 0.316,0.008 0.457,0.024 0.14,0.015 0.285,0.035 0.433,0.058 0.086,-0.156 0.152,-0.324 0.199,-0.504 0.047,-0.179 0.071,-0.363 0.071,-0.55 0,-0.61 -0.219,-1.129 -0.645,-1.559 -0.43,-0.43 -0.945,-0.645 -1.547,-0.645 z m 6.082,1.348 c 0.258,0 0.473,0.09 0.657,0.27 0.179,0.179 0.269,0.39 0.269,0.632 0,0.258 -0.09,0.477 -0.269,0.657 -0.184,0.179 -0.399,0.269 -0.657,0.269 h -0.902 c -0.258,0 -0.477,-0.09 -0.656,-0.269 -0.184,-0.18 -0.27,-0.399 -0.27,-0.657 0,-0.242 0.086,-0.453 0.27,-0.632 0.179,-0.18 0.398,-0.27 0.656,-0.27 z m -0.386,-4.277 c 0.187,0.187 0.273,0.41 0.269,0.668 -0.008,0.258 -0.105,0.48 -0.293,0.668 l -0.914,0.926 c -0.187,0.187 -0.41,0.285 -0.668,0.293 -0.258,0 -0.476,-0.09 -0.644,-0.27 -0.188,-0.188 -0.278,-0.406 -0.27,-0.656 0.008,-0.25 0.106,-0.469 0.293,-0.657 l 0.914,-0.949 c 0.188,-0.172 0.41,-0.261 0.668,-0.269 0.258,-0.008 0.473,0.074 0.645,0.246 z m -5.473,-1.91 c 0.227,0 0.426,0.078 0.598,0.234 0.168,0.148 0.281,0.336 0.328,0.563 v 1.031 c 0,0.258 -0.09,0.476 -0.27,0.656 -0.183,0.18 -0.398,0.27 -0.656,0.27 -0.234,0 -0.441,-0.079 -0.609,-0.235 -0.172,-0.164 -0.27,-0.359 -0.293,-0.586 v -1.031 c 0,-0.242 0.086,-0.453 0.269,-0.633 0.18,-0.18 0.391,-0.269 0.633,-0.269 z"
       style="fill:#000000;fill-opacity:1;fill-rule:nonzero;stroke:none"
       transform="matrix(1.3333333,0,0,1.3333333,30096,0)" />
  </g>
</svg>
