<?xml version="1.0" encoding="UTF-8" standalone="no"?>
<!-- Created with Inkscape (http://www.inkscape.org/) -->

<svg
   version="1.1"
   id="svg1"
   width="20.797333"
   height="25.073097"
   viewBox="0 0 20.797333 25.073097"
   xmlns="http://www.w3.org/2000/svg"
   xmlns:svg="http://www.w3.org/2000/svg">
  <defs
     id="defs1" />
  <g
     id="g372"
     transform="translate(-30352.265,-588.46289)">
    <path
       id="path434"
       d="m 199.488,441.594 0.317,0.258 c 0.445,0.406 0.832,0.843 1.16,1.312 0.312,0.477 0.574,0.984 0.785,1.524 0.215,0.531 0.387,1.105 0.504,1.722 0.117,0.633 0.176,1.297 0.176,2 0,0.141 0.039,0.27 0.129,0.375 0.093,0.106 0.214,0.164 0.363,0.18 h 0.058 c 0.157,0 0.286,-0.047 0.387,-0.141 0.098,-0.094 0.156,-0.211 0.176,-0.351 v -0.211 c 0,-0.133 0,-0.246 0,-0.34 0,-0.094 0.008,-0.168 0.023,-0.223 0,-0.5 0.223,-0.84 0.668,-1.023 0.45,-0.176 0.86,-0.094 1.219,0.25 0.742,0.82 1.317,1.73 1.723,2.73 0.414,1 0.621,2.024 0.621,3.071 0,0.914 -0.207,1.828 -0.621,2.742 -0.418,0.906 -1.004,1.719 -1.77,2.437 -0.746,0.711 -1.59,1.266 -2.531,1.664 -0.945,0.387 -1.906,0.582 -2.871,0.582 -0.961,0 -1.918,-0.195 -2.859,-0.582 -0.946,-0.398 -1.801,-0.953 -2.555,-1.664 -0.77,-0.718 -1.356,-1.531 -1.77,-2.437 -0.418,-0.914 -0.621,-1.828 -0.621,-2.742 0,-1.133 0.227,-2.153 0.68,-3.059 0.449,-0.914 1.281,-2.059 2.496,-3.434 0.719,-0.796 1.27,-1.523 1.664,-2.179 0.399,-0.664 0.625,-1.239 0.68,-1.723 0.062,-0.43 0.285,-0.727 0.679,-0.891 0.391,-0.164 0.754,-0.113 1.09,0.153 z m -0.351,2.004 c -0.196,0.554 -0.504,1.148 -0.926,1.781 -0.418,0.633 -0.934,1.305 -1.559,2.016 -1.078,1.187 -1.812,2.152 -2.191,2.894 -0.375,0.734 -0.563,1.547 -0.563,2.438 0,0.687 0.157,1.375 0.481,2.062 0.32,0.688 0.777,1.309 1.371,1.863 0.602,0.578 1.27,1.024 2.016,1.336 0.742,0.305 1.488,0.457 2.238,0.457 0.758,0 1.504,-0.152 2.238,-0.457 0.731,-0.312 1.399,-0.758 2.004,-1.336 0.59,-0.554 1.047,-1.175 1.371,-1.863 0.321,-0.687 0.481,-1.375 0.481,-2.062 0,-0.602 -0.09,-1.196 -0.258,-1.782 -0.172,-0.586 -0.422,-1.152 -0.75,-1.699 -0.172,0.43 -0.453,0.777 -0.832,1.043 -0.375,0.266 -0.805,0.399 -1.278,0.399 -0.042,0 -0.074,0 -0.105,0 -0.031,0 -0.059,0 -0.082,0 -0.047,0 -0.09,-0.004 -0.129,-0.012 -0.031,-0.008 -0.055,-0.02 -0.07,-0.035 -0.539,-0.086 -0.985,-0.34 -1.336,-0.762 -0.352,-0.422 -0.528,-0.906 -0.528,-1.453 -0.015,-1.039 -0.152,-1.953 -0.41,-2.742 -0.258,-0.789 -0.652,-1.485 -1.183,-2.086 z m 1.16,7.3 0.281,0.282 0.082,0.058 c 0,0.016 0.004,0.02 0.012,0.02 0.008,0 0.012,0.012 0.012,0.023 0.046,0.047 0.089,0.094 0.128,0.141 0.047,0.043 0.09,0.082 0.129,0.117 0.157,0.16 0.297,0.316 0.422,0.481 0.133,0.16 0.266,0.304 0.399,0.445 0.14,0.176 0.265,0.34 0.375,0.504 0.117,0.164 0.226,0.328 0.328,0.48 0.187,0.328 0.332,0.633 0.433,0.914 0.102,0.282 0.153,0.547 0.153,0.785 0,0.864 -0.297,1.594 -0.891,2.204 -0.594,0.609 -1.312,0.914 -2.156,0.914 -0.852,0 -1.574,-0.305 -2.168,-0.914 -0.594,-0.61 -0.891,-1.34 -0.891,-2.204 0,-0.238 0.047,-0.503 0.141,-0.785 0.094,-0.281 0.242,-0.586 0.445,-0.914 0.086,-0.152 0.188,-0.316 0.305,-0.48 0.125,-0.164 0.258,-0.328 0.398,-0.504 0.118,-0.141 0.243,-0.285 0.375,-0.445 0.141,-0.165 0.282,-0.321 0.422,-0.481 0.047,-0.035 0.09,-0.074 0.129,-0.117 0.047,-0.047 0.086,-0.094 0.129,-0.141 l 0.387,-0.386 c 0.086,-0.083 0.187,-0.129 0.304,-0.129 0.125,0 0.231,0.046 0.317,0.129 z m -0.75,2.649 c -0.117,0.141 -0.223,0.281 -0.317,0.422 -0.085,0.133 -0.171,0.261 -0.257,0.386 -0.102,0.172 -0.184,0.333 -0.246,0.481 -0.055,0.141 -0.082,0.246 -0.082,0.316 0,0.391 0.132,0.723 0.398,0.996 0.266,0.266 0.586,0.399 0.961,0.399 0.367,0 0.684,-0.133 0.949,-0.399 0.262,-0.273 0.399,-0.605 0.399,-0.996 0,-0.07 -0.032,-0.175 -0.094,-0.316 -0.055,-0.148 -0.137,-0.309 -0.246,-0.481 -0.078,-0.125 -0.172,-0.253 -0.27,-0.386 -0.094,-0.141 -0.199,-0.281 -0.316,-0.422 -0.055,-0.086 -0.125,-0.172 -0.199,-0.258 -0.079,-0.086 -0.153,-0.172 -0.223,-0.258 -0.086,0.086 -0.172,0.172 -0.246,0.258 -0.07,0.086 -0.141,0.172 -0.211,0.258 z"
       style="fill:#000000;fill-opacity:1;fill-rule:nonzero;stroke:none"
       transform="matrix(1.3333333,0,0,1.3333333,30096,0)" />
  </g>
</svg>
