<?xml version="1.0" encoding="UTF-8" standalone="no"?>
<!-- Created with Inkscape (http://www.inkscape.org/) -->

<svg
   version="1.1"
   id="svg1"
   width="20.171875"
   height="27.156248"
   viewBox="0 0 20.171875 27.156248"
   xmlns="http://www.w3.org/2000/svg"
   xmlns:svg="http://www.w3.org/2000/svg">
  <defs
     id="defs1" />
  <g
     id="g3"
     transform="translate(-1248.5781,-315.30469)">
    <g
       id="g16"
       aria-label="&#10;d"
       transform="matrix(1.3333333,0,0,1.3333333,1244,341.22672)">
      <path
         id="path17"
         d="m 13.148438,-19.441524 0.105468,0.02344 3.152344,0.492188 c 0.249023,0.04687 0.448242,0.172851 0.597656,0.375 0.146485,0.196289 0.202149,0.421875 0.164063,0.679687 -0.04687,0.228516 -0.161133,0.416016 -0.339844,0.5625 -0.181641,0.140625 -0.383789,0.210938 -0.609375,0.210938 l -0.105469,-0.02344 -2.519531,-0.386719 -0.08203,0.175782 c 0.615234,0.257812 1.174804,0.615234 1.675781,1.066406 0.498047,0.445312 0.919922,0.960937 1.265625,1.546875 0.585937,0.01758 1.081055,0.234375 1.488281,0.65625 0.413086,0.421875 0.621094,0.93164 0.621094,1.523437 v 0.363282 c 0,0.533203 -0.169922,0.993164 -0.503906,1.382812 -0.328125,0.392578 -0.735352,0.644531 -1.21875,0.761719 L 15.9375,-1.0548056 c -0.04102,0.54785154 -0.254883,1.0019531 -0.644531,1.35937497 -0.383789,0.36621094 -0.832031,0.56542969 -1.347656,0.59765625 l -0.152344,0.0234375 H 8.203125 c -0.5332031,0 -0.9960938,-0.17578125 -1.3945313,-0.52734375 C 6.4101562,0.04675687 6.1669922,-0.38683688 6.0820312,-0.90246188 L 6.0585937,-1.0548056 5.15625,-10.031368 c -0.4863281,-0.117188 -0.8964844,-0.369141 -1.2304687,-0.761719 -0.328125,-0.389648 -0.4921875,-0.849609 -0.4921875,-1.382812 v -0.363282 c 0,-0.600586 0.2109375,-1.113281 0.6328124,-1.535156 0.421875,-0.427734 0.9316407,-0.644531 1.5351563,-0.644531 h -0.058594 c 0.553711,-0.952149 1.3154297,-1.713867 2.2851563,-2.285156 0.9667969,-0.577149 2.0273438,-0.867188 3.1757812,-0.867188 0.108399,0 0.216797,0.0059 0.328125,0.01172 0.117188,0.0088 0.234375,0.02051 0.351563,0.03516 l 0.644531,-1.148437 c 0.07031,-0.140625 0.178711,-0.251953 0.328125,-0.339844 0.155273,-0.08496 0.319336,-0.128906 0.492188,-0.128906 z m 1.839843,9.4570309 H 7.0078125 l 0.8554687,8.765625 c 0.014648,0.070312 0.046875,0.1347656 0.09375,0.1875 0.052734,0.055664 0.1171876,0.0908203 0.1875001,0.10546872 h 5.6484377 c 0.07031,0 0.134765,-0.0175781 0.199219,-0.0585938 0.06152,-0.046875 0.09961,-0.10546882 0.117187,-0.17578132 l 0.02344,-0.058594 z m 1.40625,-2.9062499 H 5.6015625 c -0.09375,0 -0.1757813,0.04101 -0.2460938,0.117187 -0.064453,0.07031 -0.09375,0.149414 -0.09375,0.234375 v 0.363282 c 0,0.102539 0.029297,0.18457 0.09375,0.246093 0.070312,0.06445 0.1523438,0.09375 0.2460938,0.09375 H 16.394531 c 0.09375,0 0.169922,-0.0293 0.234375,-0.09375 0.07031,-0.06152 0.105469,-0.143554 0.105469,-0.246093 v -0.363282 c 0,-0.08496 -0.03516,-0.164062 -0.105469,-0.234375 -0.06445,-0.07617 -0.140625,-0.117187 -0.234375,-0.117187 z m -8.5546873,-1.828125 h 2.1093751 c 0,0 0.00293,0 0.011719,0 0.00586,0 0.011719,0 0.011719,0 l 0.035157,-0.105469 0.667968,-1.195312 c -0.547851,0.04102 -1.0634773,0.175781 -1.5468757,0.410156 -0.4863282,0.228515 -0.9140625,0.524414 -1.2890626,0.890625 z m 4.7695313,-1.007813 -0.5625,1.007813 h 2.109375 c -0.219727,-0.210938 -0.462891,-0.401367 -0.726562,-0.574219 -0.257813,-0.169922 -0.533204,-0.316406 -0.820313,-0.433594 z m 0,0"
         style="fill:#000000;fill-opacity:1;fill-rule:nonzero;stroke:none" />
      <path
         id="path18"
         d="m 34.420898,-7.7667197 c 0,-0.5917969 0.120118,-1.1044922 0.363282,-1.5351562 0.249023,-0.4277344 0.580078,-0.7558591 0.996093,-0.9843751 0.421875,-0.234375 0.878907,-0.351562 1.371094,-0.351562 0.413086,0 0.779297,0.09375 1.101563,0.28125 0.319336,0.18164 0.580078,0.4423824 0.785156,0.7851558 v -4.7929688 h 0.960937 v 9.3632813 h -0.960937 v -0.9492187 c -0.205078,0.3457031 -0.46582,0.609375 -0.785156,0.796875 -0.322266,0.1787109 -0.688477,0.2695312 -1.101563,0.2695312 -0.492187,0 -0.949219,-0.1142578 -1.371094,-0.3398437 -0.416015,-0.234375 -0.74707,-0.5654297 -0.996093,-0.9960938 -0.243164,-0.4365234 -0.363282,-0.9521484 -0.363282,-1.546875 z m 0.972657,0 c 0,0.4306641 0.08496,0.7939453 0.257812,1.0898438 0.169922,0.2988281 0.401367,0.5214843 0.691406,0.6679687 0.28711,0.1494141 0.600586,0.2226563 0.9375,0.2226563 0.272461,0 0.544922,-0.073242 0.820313,-0.2226563 0.272461,-0.1464844 0.495117,-0.3691406 0.667969,-0.6679687 0.178711,-0.2958985 0.269531,-0.6591797 0.269531,-1.0898438 0,-0.421875 -0.09082,-0.7792969 -0.269531,-1.078125 -0.172852,-0.2958984 -0.395508,-0.5185547 -0.667969,-0.6679687 -0.275391,-0.1464844 -0.547852,-0.2226563 -0.820313,-0.2226563 -0.336914,0 -0.65039,0.076172 -0.9375,0.2226563 -0.290039,0.149414 -0.521484,0.3720703 -0.691406,0.6679687 -0.172851,0.2988281 -0.257812,0.65625 -0.257812,1.078125 z m 0,0"
         style="fill:#000000;fill-opacity:1;fill-rule:nonzero;stroke:none" />
    </g>
  </g>
</svg>
