<?xml version="1.0" encoding="UTF-8" standalone="no"?>
<!-- Created with Inkscape (http://www.inkscape.org/) -->

<svg
   version="1.1"
   id="svg1"
   width="18.333176"
   height="25.671875"
   viewBox="0 0 18.333176 25.671875"
   xmlns="http://www.w3.org/2000/svg"
   xmlns:svg="http://www.w3.org/2000/svg">
  <defs
     id="defs1" />
  <g
     id="g3"
     transform="translate(-1093.496,-436.73438)">
    <g
       id="g23"
       aria-label="&#10;a"
       transform="matrix(1.3333333,0,0,1.3333333,1088,461.17339)">
      <path
         id="path24"
         d="m 15.632813,-18.329259 c 0.591796,0 1.101562,0.19336 1.523437,0.574219 0.421875,0.383789 0.644531,0.84375 0.667969,1.382813 0.07617,1.133789 0.06152,2.24707 -0.04687,3.339843 -0.111328,1.086914 -0.336914,2.106446 -0.679688,3.058594 -0.210937,0.6181641 -0.486328,1.1835938 -0.820312,1.6992188 -0.328125,0.515625 -0.708985,0.9667968 -1.136719,1.3476562 -0.430664,0.375 -0.914062,0.6796875 -1.453125,0.9140625 -0.533203,0.2285156 -1.12207,0.3837891 -1.769531,0.46875 v 4.640625 H 14.4375 c 0.240234,0 0.451172,0.0878906 0.632813,0.2578125 0.17871,0.17285156 0.269531,0.38671875 0.269531,0.64453125 0,0.22558594 -0.0791,0.42773438 -0.234375,0.609375 -0.149414,0.17871094 -0.336914,0.27539063 -0.5625,0.29296875 L 14.4375,0.9246475 H 7.5585937 c -0.243164,0 -0.4541015,-0.0908203 -0.6328125,-0.26953125 C 6.7441406,0.47347563 6.65625,0.25667875 6.65625,-0.00113375 c 0,-0.22558594 0.073242,-0.42480469 0.2226562,-0.59765625 0.1552735,-0.16992187 0.3457032,-0.27246094 0.5742188,-0.3046875 h 2.625 v -4.640625 C 8.8271484,-5.6993759 7.78125,-6.1358994 6.9375,-6.8566025 6.09375,-7.583165 5.4404297,-8.5382431 4.9804687,-9.7276962 L 4.8984375,-9.97379 c -0.3457031,-0.952148 -0.5712891,-1.97168 -0.6796875,-3.058594 -0.1113281,-1.092773 -0.1259766,-2.206054 -0.046875,-3.339843 0.023437,-0.539063 0.2460937,-0.999024 0.6679687,-1.382813 0.421875,-0.380859 0.928711,-0.574219 1.5234375,-0.574219 z m 0.351562,5.074219 H 6.0117187 c 0.084961,0.890625 0.2460938,1.699219 0.4804688,2.425781 0.2255859,0.735352 0.5390625,1.3593753 0.9375,1.8750003 0.4042969,0.515625 0.9082031,0.9140625 1.5117188,1.1953125 0.5859375,0.290039 1.2714847,0.4335937 2.0624997,0.4335937 0.779297,0 1.470703,-0.1435547 2.074219,-0.4335937 0.585938,-0.28125 1.078125,-0.6796875 1.476563,-1.1953125 0.404296,-0.515625 0.720703,-1.1396483 0.949218,-1.8750003 0.234375,-0.726562 0.392578,-1.535156 0.480469,-2.425781 z m -0.410156,-3.246094 H 6.421875 c -0.1171875,0 -0.2167969,0.04102 -0.2929688,0.117188 -0.079102,0.07031 -0.1259765,0.161133 -0.140625,0.269531 0,0.172852 -0.00586,0.345703 -0.011719,0.515625 0,0.172852 -0.00879,0.345703 -0.023437,0.515625 H 16.042969 c -0.01758,-0.169922 -0.0293,-0.342773 -0.03516,-0.515625 0,-0.169922 0,-0.342773 0,-0.515625 -0.01758,-0.108398 -0.06445,-0.199219 -0.140624,-0.269531 -0.0791,-0.07617 -0.175782,-0.117188 -0.292969,-0.117188 z m 0,0"
         style="fill:#000000;fill-opacity:1;fill-rule:nonzero;stroke:none" />
      <path
         id="path25"
         d="m 35.334961,-9.2179306 -0.46875,-0.7382813 c 0.202148,-0.1464841 0.480469,-0.2958981 0.832031,-0.4453121 0.351563,-0.155274 0.776367,-0.234375 1.277344,-0.234375 0.632812,0 1.142578,0.146484 1.535156,0.433593 0.389649,0.2900394 0.585938,0.7031254 0.585938,1.2421879 v 3.9609375 h -0.960938 v -0.796875 c -0.164062,0.2988281 -0.416015,0.524414 -0.75,0.6796875 -0.336914,0.1552734 -0.711914,0.234375 -1.125,0.234375 -0.351562,0 -0.673828,-0.064453 -0.960937,-0.1875 -0.28125,-0.131836 -0.509766,-0.3222656 -0.679688,-0.5742188 -0.172851,-0.2490234 -0.257812,-0.5625 -0.257812,-0.9375 0,-0.5859375 0.205078,-1.0371093 0.621093,-1.359375 0.421875,-0.328125 0.996094,-0.4921875 1.722657,-0.4921875 0.319336,0 0.600586,0.043945 0.84375,0.1289063 0.240234,0.079102 0.436523,0.1699219 0.585937,0.2695312 v -0.9257812 c 0,-0.28125 -0.117187,-0.4921875 -0.351562,-0.6328125 -0.234375,-0.140625 -0.503907,-0.2109375 -0.808594,-0.2109375 -0.392578,0 -0.732422,0.076172 -1.019531,0.2226562 -0.28125,0.140625 -0.489258,0.2636719 -0.621094,0.3632813 z m 0,2.6015625 c 0,0.2988281 0.111328,0.5214844 0.339844,0.6679687 0.225586,0.1494141 0.498047,0.2226563 0.820312,0.2226563 0.47461,0 0.867188,-0.1083985 1.171875,-0.328125 0.310547,-0.225586 0.46875,-0.5917969 0.46875,-1.1015625 v -0.2226563 c -0.407226,-0.2109375 -0.864258,-0.3164062 -1.371094,-0.3164062 -0.492187,0 -0.855468,0.099609 -1.089843,0.2929687 -0.228516,0.1875 -0.339844,0.4511719 -0.339844,0.7851563 z m 0,0"
         style="fill:#000000;fill-opacity:1;fill-rule:nonzero;stroke:none" />
    </g>
  </g>
</svg>
