<?xml version="1.0" encoding="UTF-8" standalone="no"?>
<!-- Created with Inkscape (http://www.inkscape.org/) -->

<svg
   version="1.1"
   id="svg1"
   width="23.207853"
   height="23.833002"
   viewBox="0 0 23.207853 23.833002"
   xmlns="http://www.w3.org/2000/svg"
   xmlns:svg="http://www.w3.org/2000/svg">
  <defs
     id="defs1" />
  <g
     id="g3"
     transform="translate(-1247.0625,-437.33888)">
    <g
       id="g25"
       aria-label="&#10;f"
       transform="matrix(1.3333333,0,0,1.3333333,1244,461.17339)">
      <path
         id="path26"
         d="m 8.8242188,-17.227696 c 0.4042968,-0.398438 0.8818359,-0.612305 1.4296872,-0.644531 0.553711,-0.0293 1.03711,0.117187 1.453125,0.445312 0.530274,-0.193359 1.072266,-0.322266 1.628907,-0.386719 0.577148,-0.03809 1.136718,-0.0029 1.675781,0.105469 0.544922,0.102539 1.069336,0.28125 1.570312,0.539063 0.498047,0.27539 0.955078,0.618164 1.371094,1.03125 0.421875,0.421875 0.764648,0.884765 1.03125,1.382812 0.257812,0.515625 0.445312,1.048828 0.5625,1.59375 0.117187,0.539063 0.143555,1.089844 0.08203,1.652344 -0.04102,0.55664 -0.169922,1.098633 -0.386719,1.628906 0.333985,0.4306641 0.486329,0.9228516 0.457032,1.4765625 -0.03223,0.5478516 -0.240235,1.0195313 -0.621094,1.4179688 l -0.152344,0.1289062 c -0.392578,0.3925781 -0.864258,0.6064453 -1.417969,0.6445313 -0.547851,0.032226 -1.037109,-0.1230469 -1.464843,-0.46875 -0.703125,0.290039 -1.435547,0.4335937 -2.191406,0.4335937 -0.75879,0 -1.482422,-0.1435547 -2.167969,-0.4335937 h -0.02344 l -6.0703123,6.11718745 c -0.3925781,0.375 -0.852539,0.5625 -1.3828125,0.5625 -0.5332031,0 -0.9814453,-0.19042969 -1.3476562,-0.57421875 -0.375,-0.375 -0.5625,-0.8261719 -0.5625,-1.359375 0,-0.5302734 0.1875,-0.9785156 0.5625,-1.3476562 L 8.8125,-9.2589462 C 8.390625,-10.014806 8.15625,-10.832188 8.109375,-11.708165 8.0625,-12.581212 8.203125,-13.419102 8.53125,-14.215977 8.1855469,-14.643712 8.0302734,-15.135899 8.0625,-15.69254 c 0.038086,-0.553711 0.2490234,-1.022461 0.6328125,-1.40625 z m 0.7617187,9.7734373 -5.4375,5.4609375 c -0.017578,0.00879 -0.023437,0.029297 -0.023437,0.058594 0,0.032227 0.00586,0.055664 0.023437,0.070312 0.023437,0.00879 0.046875,0.017578 0.070312,0.023437 0.023437,0.00879 0.041016,0 0.058594,-0.023437 l 5.4492188,-5.4609375 z m 1.0312505,-8.4843753 c -0.06445,-0.05273 -0.146485,-0.08203 -0.246094,-0.08203 -0.09375,0 -0.172852,0.0293 -0.234375,0.08203 l -0.128906,0.128907 c -0.070313,0.07031 -0.1054692,0.152343 -0.1054692,0.246093 0,0.09375 0.035156,0.175782 0.1054692,0.246094 l 7.136718,7.1484375 c 0.07031,0.079102 0.152344,0.1171875 0.246094,0.1171875 0.09375,0 0.175781,-0.038086 0.246094,-0.1171875 l 0.128906,-0.1289062 c 0.07031,-0.070312 0.105469,-0.1523438 0.105469,-0.2460938 0,-0.09375 -0.03516,-0.1757812 -0.105469,-0.2460937 z m 0.03516,6.1640628 c 0.06152,0.102539 0.131836,0.196289 0.210937,0.28125 0.07617,0.087891 0.152344,0.1728515 0.222657,0.2578125 0.09961,0.102539 0.199218,0.1933593 0.292968,0.2695312 0.09961,0.079102 0.210938,0.1611328 0.328125,0.2460938 0.427735,0.2753906 0.890625,0.4628906 1.382813,0.5625 0.492187,0.09375 0.984375,0.099609 1.476562,0.011719 L 9.984379,-12.715977 c -0.087891,0.500976 -0.076172,1.007812 0.035156,1.523437 0.108399,0.515625 0.319336,0.990234 0.632813,1.4179688 z m 2.554687,-6.1640628 4.558594,4.558594 c 0.117187,-0.615234 0.07617,-1.230469 -0.117188,-1.839844 -0.196289,-0.609375 -0.524414,-1.151367 -0.984375,-1.628906 -0.46875,-0.451172 -1.007812,-0.773437 -1.617187,-0.960937 -0.609375,-0.1875 -1.224609,-0.228516 -1.839844,-0.128907 z m 0,0"
         style="fill:#000000;fill-opacity:1;fill-rule:nonzero;stroke:none" />
      <path
         id="path27"
         d="m 34.479492,-10.518712 h 0.539063 v -2.039062 c 0,-0.65625 0.140625,-1.139649 0.421875,-1.453125 0.28125,-0.310547 0.670898,-0.46875 1.171875,-0.46875 0.257812,0 0.474609,0.05273 0.65625,0.152343 0.178711,0.102539 0.310547,0.210938 0.398437,0.328125 l -0.527344,0.796875 c -0.0791,-0.140625 -0.172851,-0.225586 -0.28125,-0.257812 -0.111328,-0.03809 -0.210937,-0.05859 -0.304687,-0.05859 -0.172852,0 -0.313477,0.08203 -0.421875,0.246094 -0.102539,0.158203 -0.152344,0.433594 -0.152344,0.832031 v 1.921875 h 1.253906 v 0.9023439 h -1.253906 v 4.6171875 h -0.960937 v -4.6171875 h -0.539063 z m 0,0"
         style="fill:#000000;fill-opacity:1;fill-rule:nonzero;stroke:none" />
    </g>
  </g>
</svg>
