<?xml version="1.0" encoding="UTF-8" standalone="no"?>
<!-- Created with Inkscape (http://www.inkscape.org/) -->

<svg
   version="1.1"
   id="svg1"
   width="26.296879"
   height="24.4375"
   viewBox="0 0 26.296879 24.4375"
   xmlns="http://www.w3.org/2000/svg"
   xmlns:svg="http://www.w3.org/2000/svg">
  <defs
     id="defs1" />
  <g
     id="g3"
     transform="translate(-1401.5156,-436.73438)">
    <g
       id="g27"
       aria-label="&#10;g"
       transform="matrix(1.3333333,0,0,1.3333333,1400,461.17339)">
      <path
         id="path28"
         d="m 11.003906,-18.329259 c 0.225586,0 0.427735,0.0791 0.609375,0.234375 0.178711,0.149414 0.272461,0.336914 0.28125,0.5625 l 0.02344,0.105469 v 3.222656 h 4.558593 c 0.585938,0 1.136719,0.111328 1.652344,0.328125 0.515625,0.210938 0.966797,0.509766 1.359375,0.890625 0.398438,0.383789 0.717774,0.832032 0.960938,1.347657 0.240234,0.500976 0.36914,1.042968 0.386718,1.628906 l 0.02344,0.1874998 v 5.4375 c 0,0.6035156 -0.114258,1.1689453 -0.339844,1.6992187 -0.234375,0.5478516 -0.550781,1.0166016 -0.949219,1.40625 -0.398437,0.39257813 -0.864257,0.703125 -1.394531,0.9375 -0.533203,0.22851563 -1.098633,0.33984375 -1.699219,0.33984375 -1.063476,0 -1.992187,-0.32226562 -2.789062,-0.97265625 -0.791016,-0.65625 -1.294922,-1.4765625 -1.511719,-2.4609375 l -0.02344,-0.1523437 H 9.84375 L 9.820313,-3.4347275 C 9.6005864,-2.47379 9.117188,-1.6681259 8.367188,-1.020665 c -0.75,0.64160156 -1.6289063,0.98144531 -2.6367188,1.01953125 h -0.1875 c -0.618164,0 -1.1923828,-0.11132812 -1.7226562,-0.33984375 -0.5332031,-0.234375 -0.9960937,-0.54492187 -1.3945312,-0.9375 C 2.0273438,-1.6681259 1.7109375,-2.1368759 1.4765625,-2.6847275 1.2480469,-3.2150009 1.1367187,-3.7804306 1.1367187,-4.3839462 v -5.4375 c 0,-0.6005858 0.1113282,-1.1630858 0.3398438,-1.6874998 0.234375,-0.544922 0.5507813,-1.013672 0.9492188,-1.40625 0.3984375,-0.398438 0.8613281,-0.708985 1.3945312,-0.9375 0.5302734,-0.234375 1.1044922,-0.351563 1.7226562,-0.351563 h 4.5351563 v -3.222656 c 0,-0.240234 0.08789,-0.451172 0.269531,-0.632812 0.178711,-0.178711 0.398438,-0.269532 0.65625,-0.269532 z m 5.472656,5.953125 H 5.5429687 c -0.7207031,0 -1.3242187,0.251953 -1.8164062,0.75 -0.4921875,0.500977 -0.7382812,1.101563 -0.7382812,1.8046878 v 5.4375 c 0,0.703125 0.2460937,1.3066406 0.7382812,1.8046875 0.4921875,0.5009765 1.0957031,0.75 1.8164062,0.75 0.703125,0 1.3007813,-0.2490235 1.7929688,-0.75 0.4921875,-0.4980469 0.7382813,-1.1015625 0.7382813,-1.8046875 v -0.1289063 c 0,-0.2402344 0.087891,-0.4511719 0.2695312,-0.6328125 C 8.5224609,-5.3243759 8.7421875,-5.4151962 9,-5.4151962 h 3.996094 c 0.257812,0 0.474609,0.09082 0.65625,0.2695312 0.178711,0.1816406 0.269531,0.3925781 0.269531,0.6328125 v 0.1289063 c 0,0.703125 0.246094,1.3066406 0.738281,1.8046875 0.492188,0.5009765 1.095703,0.75 1.816406,0.75 0.703125,0 1.300782,-0.2490235 1.792969,-0.75 0.492188,-0.4980469 0.738281,-1.1015625 0.738281,-1.8046875 v -5.4375 c 0,-0.7031248 -0.246093,-1.3037108 -0.738281,-1.8046878 -0.492187,-0.498047 -1.089844,-0.75 -1.792969,-0.75 z m -9.9726558,1.417969 c 0.2490235,0 0.459961,0.0791 0.6328125,0.234375 0.1699219,0.158203 0.2695313,0.351563 0.2929688,0.585938 v 0.8789058 l 0.7734375,0.023437 c 0.2578125,0 0.4746094,0.09082 0.65625,0.2695312 0.1787109,0.1816406 0.2695313,0.3925781 0.2695313,0.6328125 0,0.2431641 -0.079102,0.4511719 -0.234375,0.6210938 -0.1582032,0.1728515 -0.3515625,0.2753906 -0.5859375,0.3046875 H 7.4296875 v 0.7734375 c 0,0.2578125 -0.09082,0.477539 -0.2695313,0.65625 -0.1816406,0.1728515 -0.3984375,0.2578125 -0.65625,0.2578125 -0.2285156,0 -0.4277343,-0.076172 -0.5976562,-0.234375 C 5.7333984,-6.1095322 5.6308594,-6.2999619 5.6015625,-6.5284775 V -7.4073837 H 4.8164062 c -0.2578125,0 -0.477539,-0.087891 -0.65625,-0.2695313 -0.1816406,-0.1787109 -0.2695312,-0.3984375 -0.2695312,-0.65625 0,-0.234375 0.076172,-0.4365234 0.234375,-0.609375 0.1552734,-0.1699219 0.3457031,-0.2695312 0.5742187,-0.2929687 h 0.1171875 l 0.7851563,-0.023437 v -0.7734373 c 0,-0.257812 0.087891,-0.474609 0.2695312,-0.65625 0.178711,-0.178711 0.3896485,-0.269531 0.6328125,-0.269532 z m 9.1992188,0.304688 c 0.632812,0 1.166016,0.222656 1.605469,0.6679683 0.445312,0.4394531 0.667968,0.9726562 0.667968,1.6054687 0,0.6328125 -0.222656,1.1777344 -0.667968,1.6289063 -0.439453,0.4453125 -0.972657,0.6679687 -1.605469,0.6679687 -0.632812,0 -1.177734,-0.2226562 -1.628906,-0.6679687 -0.445313,-0.4511719 -0.667969,-0.9960938 -0.667969,-1.6289063 0,-0.6328125 0.222656,-1.1660156 0.667969,-1.6054687 0.451172,-0.4453123 0.996094,-0.6679683 1.628906,-0.6679683 z m 0,1.8281245 c -0.134766,0 -0.246094,0.043945 -0.339844,0.1289063 -0.08789,0.087891 -0.128906,0.1933593 -0.128906,0.3164062 0,0.1347656 0.04102,0.2460938 0.128906,0.3398438 0.09375,0.087891 0.205078,0.1289062 0.339844,0.1289062 0.123047,0 0.228516,-0.041016 0.316406,-0.1289062 0.08496,-0.09375 0.128906,-0.2050782 0.128906,-0.3398438 0,-0.1230469 -0.04395,-0.2285156 -0.128906,-0.3164062 -0.08789,-0.084961 -0.193359,-0.1289063 -0.316406,-0.1289063 z m 0,0"
         style="fill:#000000;fill-opacity:1;fill-rule:nonzero;stroke:none" />
      <path
         id="path29"
         d="m 34.526367,-4.6358994 h 0.972656 c 0,0.2636719 0.07031,0.5097657 0.210938,0.7382813 0.146484,0.2255859 0.351562,0.4101562 0.609375,0.5507812 0.263672,0.140625 0.580078,0.2109375 0.949219,0.2109375 0.272461,0 0.544922,-0.070312 0.820312,-0.2109375 0.272461,-0.1347656 0.498047,-0.3486328 0.679688,-0.6445312 0.178711,-0.2900391 0.269531,-0.6650391 0.269531,-1.125 v -0.8320313 c -0.205078,0.3457032 -0.46582,0.609375 -0.785156,0.796875 -0.322266,0.178711 -0.688477,0.2695313 -1.101563,0.2695313 -0.492187,0 -0.949219,-0.1142578 -1.371094,-0.3398438 -0.416015,-0.234375 -0.74707,-0.5654297 -0.996093,-0.9960937 -0.243164,-0.4365235 -0.363282,-0.9521485 -0.363282,-1.546875 0,-0.5917969 0.120118,-1.1044922 0.363282,-1.5351563 0.249023,-0.4277343 0.580078,-0.7558591 0.996093,-0.9843751 0.421875,-0.234375 0.878907,-0.351562 1.371094,-0.351562 0.413086,0 0.779297,0.09375 1.101563,0.28125 0.319336,0.18164 0.580078,0.4423824 0.785156,0.7851559 v -0.9492189 h 0.960937 v 5.4023439 c 0,0.6328125 -0.134765,1.1601562 -0.398437,1.5820312 -0.266602,0.4277344 -0.606445,0.7529297 -1.019531,0.9726563 -0.416016,0.2167969 -0.852539,0.328125 -1.3125,0.328125 -0.539063,0 -1.016602,-0.1025391 -1.429688,-0.3046875 -0.416015,-0.2050781 -0.738281,-0.4892578 -0.972656,-0.8554688 -0.228516,-0.3603515 -0.339844,-0.7734375 -0.339844,-1.2421875 z m 0.867188,-3.1289062 c 0,0.430664 0.08496,0.7939453 0.257812,1.0898437 0.169922,0.2988282 0.401367,0.5214844 0.691406,0.6679688 0.28711,0.149414 0.600586,0.2226562 0.9375,0.2226562 0.272461,0 0.544922,-0.073242 0.820313,-0.2226562 0.272461,-0.1464844 0.495117,-0.3691406 0.667969,-0.6679688 0.178711,-0.2958984 0.269531,-0.6591797 0.269531,-1.0898437 0,-0.421875 -0.09082,-0.7792969 -0.269531,-1.078125 -0.172852,-0.2958985 -0.395508,-0.5185547 -0.667969,-0.6679688 -0.275391,-0.1464843 -0.547852,-0.2226562 -0.820313,-0.2226562 -0.336914,0 -0.65039,0.076172 -0.9375,0.2226562 -0.290039,0.1494141 -0.521484,0.3720703 -0.691406,0.6679688 -0.172851,0.2988281 -0.257812,0.65625 -0.257812,1.078125 z m 0,0"
         style="fill:#000000;fill-opacity:1;fill-rule:nonzero;stroke:none" />
    </g>
  </g>
</svg>
