<?xml version="1.0" encoding="UTF-8" standalone="no"?>
<!-- Created with Inkscape (http://www.inkscape.org/) -->

<svg
   version="1.1"
   id="svg1"
   width="17.006403"
   height="28.21875"
   viewBox="0 0 17.006403 28.21875"
   xmlns="http://www.w3.org/2000/svg"
   xmlns:svg="http://www.w3.org/2000/svg">
  <defs
     id="defs1" />
  <g
     id="g3"
     transform="translate(-1094.1655,-600.125)">
    <g
       id="g36"
       aria-label="&#10;h"
       transform="matrix(1.3333333,0,0,1.3333333,1088,626.45337)">
      <path
         id="path37"
         d="m 13.816406,-19.74628 c 0.240235,0 0.451172,0.09082 0.632813,0.269531 0.1875,0.181641 0.28125,0.392578 0.28125,0.632813 v 2.777344 l 2.34375,2.25 c 0.08496,0.0791 0.146484,0.169921 0.1875,0.269531 0.04687,0.09375 0.07617,0.193359 0.09375,0.292969 l 0.02344,0.105468 V 0.51543875 c 0,0.24023438 -0.09375,0.45117188 -0.28125,0.63281255 -0.1875,0.1787109 -0.404297,0.2695312 -0.644531,0.2695312 H 5.5429687 c -0.243164,0 -0.4541015,-0.09082 -0.6328125,-0.2695312 C 4.7285156,0.96661063 4.640625,0.75567313 4.640625,0.51543875 V -11.015811 c -0.017578,-0.01465 -0.020508,-0.03516 -0.011719,-0.05859 0.00586,-0.0293 0.011719,-0.05273 0.011719,-0.07031 v -2.003907 c 0,-0.123047 0.023437,-0.246093 0.070312,-0.363281 0.052734,-0.117187 0.1230469,-0.216797 0.2109375,-0.304687 l 2.3554687,-2.25 v -2.777344 c 0,-0.225586 0.076172,-0.424805 0.234375,-0.597656 0.1640625,-0.169922 0.3515625,-0.272461 0.5625001,-0.304688 z m 1.453125,8.964844 -0.292968,0.316406 c -0.445313,0.4921875 -0.864258,0.8496094 -1.253907,1.0664063 -0.383789,0.2109375 -0.864258,0.3164062 -1.441406,0.3164062 -0.454102,0 -0.84375,-0.061523 -1.171875,-0.1875 -0.322266,-0.1318359 -0.65332,-0.3427734 -0.996094,-0.6328125 L 9.75,-10.230655 c -0.28125,-0.257812 -0.5507812,-0.433594 -0.8085937,-0.527344 -0.2519532,-0.09961 -0.5830079,-0.152343 -0.9960938,-0.152343 -0.2753906,0 -0.5214844,0.01172 -0.7382813,0.03516 -0.2109375,0.01758 -0.3955078,0.04101 -0.5507812,0.07031 -0.023437,0.01758 -0.052734,0.0293 -0.082031,0.03516 -0.032227,0.0088 -0.055664,0.01172 -0.070312,0.01172 H 6.46875 v 10.3476565 h 9.058594 V -11.039249 c -0.04102,0.04102 -0.08203,0.0791 -0.128906,0.117188 -0.04102,0.03223 -0.08203,0.0791 -0.128907,0.140625 z m -2.121093,-4.253906 H 8.8476563 l -0.023437,0.02344 -2.3554688,2.25 v 0.128906 c 0.2109375,-0.03809 0.4365234,-0.06445 0.6796875,-0.08203 0.2490234,-0.01465 0.515625,-0.02344 0.796875,-0.02344 0.6328125,0 1.1630859,0.08203 1.59375,0.246093 0.4277344,0.164063 0.84961,0.418946 1.265626,0.761719 l 0.363281,0.328125 c 0.225586,0.196289 0.410156,0.328125 0.550781,0.398438 0.146484,0.06445 0.333984,0.09375 0.5625,0.09375 0.234375,0 0.433594,-0.04102 0.597656,-0.128907 0.164063,-0.08496 0.357422,-0.257812 0.585938,-0.515625 l 0.234375,-0.234375 c 0.287109,-0.319336 0.553711,-0.574218 0.796875,-0.761718 0.240234,-0.19336 0.506836,-0.333985 0.796875,-0.421875 l -2.121094,-2.039063 c 0,0 -0.0088,-0.0059 -0.02344,-0.02344 z m -0.257813,-2.882813 H 9.1054688 v 1.054688 h 3.7851562 z m 0,0"
         style="fill:#000000;fill-opacity:1;fill-rule:nonzero;stroke:none" />
      <path
         id="path38"
         d="m 38.44043,-8.3644441 c 0,-0.9140625 -0.392578,-1.3710937 -1.171875,-1.3710937 -0.421875,0 -0.761719,0.1289062 -1.019532,0.3867187 -0.257812,0.2578125 -0.386718,0.5859375 -0.386718,0.984375 v 3.3632813 h -0.960938 v -9.3632812 h 0.960938 v 4.7226562 c 0.164062,-0.3046875 0.386718,-0.5449222 0.667968,-0.7265622 0.28711,-0.178711 0.612305,-0.269532 0.972657,-0.269532 0.568359,0 1.02539,0.184571 1.371093,0.550782 0.351563,0.3603513 0.527344,0.8964841 0.527344,1.6054684 v 3.4804688 H 38.44043 Z m 0,0"
         style="fill:#000000;fill-opacity:1;fill-rule:nonzero;stroke:none" />
    </g>
  </g>
</svg>
