<?xml version="1.0" encoding="UTF-8" standalone="no"?>
<!-- Created with Inkscape (http://www.inkscape.org/) -->

<svg
   version="1.1"
   id="svg1"
   width="25.806599"
   height="23.34375"
   viewBox="0 0 25.806599 23.34375"
   xmlns="http://www.w3.org/2000/svg"
   xmlns:svg="http://www.w3.org/2000/svg">
  <defs
     id="defs1" />
  <g
     id="g3"
     transform="translate(-1401.7499,-602.5625)">
    <g
       id="g40"
       aria-label="&#10;l"
       transform="matrix(1.3333333,0,0,1.3333333,1400,626.45337)">
      <path
         id="path41"
         d="m 9.0820313,-17.918155 c 0.9199217,0 1.7812497,0.210938 2.5781247,0.632813 0.802735,0.416015 1.464844,0.978515 1.980469,1.6875 l 0.05859,0.128906 0.175781,-0.02344 c 0.04687,-0.0059 0.08496,-0.01172 0.117188,-0.01172 0.03808,0 0.07617,0 0.117187,0 l 0.234375,-0.02344 c 0.919922,0 1.740234,0.266602 2.460937,0.796875 0.726563,0.524414 1.22461,1.204102 1.5,2.039063 l 0.03516,0.128906 0.128906,0.03516 c 0.5625,0.172852 1.022461,0.480469 1.382812,0.925781 0.366211,0.430664 0.612305,0.919922 0.738282,1.464844 0.123047,0.5390625 0.09961,1.0986328 -0.07031,1.6757813 -0.164062,0.571289 -0.503906,1.086914 -1.019531,1.546875 L 19.371094,-6.80878 c -0.210938,0.1582031 -0.433594,0.2929688 -0.667969,0.4101563 -0.228516,0.1113281 -0.46875,0.196289 -0.726563,0.2578125 L 17.25,-2.12128 c -0.08789,0.46875 -0.310547,0.8642578 -0.667969,1.18359375 -0.360351,0.31347656 -0.773437,0.48925781 -1.242187,0.52734375 H 6.65625 c -0.4863281,0 -0.9199219,-0.14648437 -1.3007813,-0.4453125 -0.375,-0.3046875 -0.6210937,-0.6826172 -0.7382812,-1.1367187 L 4.59375,-2.1447175 3.9140625,-6.1642487 3.7617188,-6.1876862 C 3.2138672,-6.3283112 2.7363281,-6.5919831 2.3320313,-6.9845612 1.9248047,-7.3829987 1.640625,-7.8546784 1.4765625,-8.40253 l -0.058594,-0.1640625 c -0.2050781,-0.8496094 -0.1113281,-1.6347655 0.28125,-2.3554685 0.3984376,-0.726563 0.9667969,-1.236328 1.7109376,-1.535156 l 0.09375,-0.02344 v -0.05859 c 0.023437,-0.732422 0.1787109,-1.420898 0.46875,-2.0625 0.3046874,-0.632812 0.6943359,-1.189453 1.1718749,-1.675781 0.4746094,-0.492187 1.0371094,-0.878906 1.6875,-1.160156 0.6386719,-0.28711 1.3271485,-0.448242 2.0625001,-0.480469 z m -3.0234376,11.5429688 -0.1757812,0.058594 c -0.017578,0.017578 -0.041016,0.029297 -0.070312,0.035156 -0.023437,0.00879 -0.043945,0.020508 -0.058594,0.035156 l 0.6445313,3.7734375 c 0,0.064453 0.014648,0.1142578 0.046875,0.1523438 0.038086,0.032226 0.087891,0.055664 0.1523437,0.070312 l 0.058594,0.011719 h 0.867187 L 7.21875,-4.0197175 C 7.171875,-4.230655 7.2011719,-4.4298737 7.3125,-4.6173737 7.4208984,-4.8048737 7.5761719,-4.93378 7.78125,-5.0040925 7.4443359,-5.1447175 7.1308594,-5.3263581 6.84375,-5.5548737 6.5625,-5.7892487 6.3164062,-6.0412019 6.1054687,-6.3165925 Z m 7.5117193,-0.890625 -0.05859,0.1171875 c -0.328125,0.7265625 -0.829102,1.321289 -1.5,1.78125 -0.673828,0.4541015 -1.426758,0.703125 -2.261719,0.75 H 9.5625 c -0.1171875,0 -0.234375,-0.00293 -0.3515625,-0.011719 -0.1113281,-0.00586 -0.2226562,-0.026367 -0.3398437,-0.058594 0.029297,0.046875 0.052734,0.09375 0.070312,0.140625 0.023437,0.041016 0.041016,0.079102 0.058594,0.1171875 l 0.023437,0.1171875 0.3398438,2.0742187 h 3.2695314 l 0.363281,-2.0742187 c 0.03809,-0.234375 0.146484,-0.421875 0.328125,-0.5625 0.178711,-0.140625 0.386719,-0.2050782 0.621094,-0.1992188 h 0.105468 c 0.225586,0.046875 0.410157,0.1640625 0.550782,0.3515625 0.146484,0.1875 0.213867,0.3955078 0.199218,0.6210938 v 0.082031 l -0.304687,1.78125 H 15.1875 c 0.05273,0 0.09961,-0.011719 0.140625,-0.035156 0.04687,-0.029297 0.08496,-0.073242 0.117188,-0.1289063 v -0.046875 l 0.703124,-3.84375 c -0.228515,-0.099609 -0.445312,-0.2226562 -0.656249,-0.3632812 -0.205079,-0.1464844 -0.392579,-0.3076172 -0.5625,-0.4804688 l -0.07031,-0.082031 -0.03516,0.023437 c -0.03223,0 -0.07031,0 -0.117188,0 -0.04101,0 -0.0791,0.00879 -0.117187,0.023437 H 14.34375 c -0.111328,0 -0.222656,-0.00293 -0.339844,-0.011719 -0.117187,-0.00586 -0.231445,-0.026367 -0.339843,-0.058594 z M 9.0820313,-16.09003 c -1.03125,0 -1.9160157,0.369141 -2.6484376,1.101563 -0.7265625,0.726562 -1.0898437,1.614257 -1.0898437,2.660156 0,0.07031 0,0.140625 0,0.210937 0,0.07031 0.00586,0.149414 0.023437,0.234375 0.029297,0.257813 -0.035156,0.489258 -0.1992188,0.691407 -0.1640625,0.205078 -0.375,0.316406 -0.6328125,0.339843 l -0.1289062,0.02344 c -0.4160156,0.05566 -0.7470703,0.263672 -0.9960937,0.621094 -0.2431641,0.3603511 -0.3134766,0.7617183 -0.2109375,1.2070308 0.070312,0.243164 0.1992187,0.4628906 0.3867187,0.65625 0.1875,0.196289 0.4013672,0.328125 0.6445312,0.3984375 0.1875,0.041016 0.375,0.052734 0.5625,0.035156 0.1875,-0.023437 0.3574219,-0.070312 0.515625,-0.140625 l 0.023437,0.140625 c -0.046874,-0.2255877 -0.076171,-0.457033 -0.08203,-0.691408 -0.00879,-0.234375 0.00293,-0.46875 0.035156,-0.703125 l 0.023437,-0.1640625 c 0,-0.014648 0,-0.029297 0,-0.046875 0,-0.014648 0.00586,-0.023437 0.023437,-0.023437 0.038086,-0.2578125 0.1582032,-0.4570313 0.3632813,-0.5976568 0.2109375,-0.146483 0.4365234,-0.199218 0.6796875,-0.152343 0.234375,0.04102 0.421875,0.152343 0.5625,0.3398435 0.140625,0.1875 0.2050781,0.3955078 0.1992187,0.6210938 l -0.023437,0.2460937 c -0.017578,0.1259766 -0.023437,0.2666016 -0.023437,0.421875 0,0.1494141 0.014648,0.2871094 0.046875,0.4101563 l 0.011719,0.070312 c 0.014648,0.023437 0.026367,0.046875 0.035156,0.070312 0.00586,0.023437 0.017578,0.043945 0.035156,0.058594 0.1875,0.4863281 0.4951172,0.8759766 0.9257813,1.171875 0.4277343,0.2900391 0.9023437,0.4335938 1.4179687,0.4335938 0.6152333,0 1.1601563,-0.1992188 1.6289063,-0.5976563 0.46875,-0.4042969 0.752929,-0.9082031 0.855469,-1.5117187 l 0.02344,-0.1054688 c 0.08496,-0.2724609 0.251953,-0.4628906 0.503906,-0.5742187 0.249023,-0.1171875 0.509765,-0.1171875 0.785156,0 l 0.199219,0.082031 c 0.123047,0.046875 0.249023,0.087891 0.375,0.1171875 0.131836,0.023437 0.269531,0.035156 0.410156,0.035156 0.117188,0 0.228516,-0.011719 0.339844,-0.035156 0.108398,-0.023437 0.216797,-0.046875 0.328125,-0.070312 0.202148,-0.061523 0.401367,-0.049805 0.597656,0.035156 0.202148,0.079102 0.354492,0.2080078 0.45703,0.3867187 l 0.08203,0.1289063 c 0.131836,0.2050781 0.304688,0.3632812 0.515625,0.4804687 0.216797,0.1113281 0.448244,0.1640625 0.691408,0.1640625 0.140625,0 0.284179,-0.026367 0.433592,-0.082031 0.155274,-0.052734 0.295899,-0.140625 0.421875,-0.2578125 0.544922,-0.4277344 0.738283,-0.9433594 0.574219,-1.546875 -0.164062,-0.6005858 -0.512695,-0.9433598 -1.042969,-1.0312498 l -0.128906,-0.04687 c -0.257812,-0.05274 -0.474609,-0.169922 -0.644531,-0.351563 -0.172852,-0.1875 -0.287109,-0.404297 -0.339844,-0.65625 l -0.04687,-0.164062 c -0.140625,-0.47461 -0.421875,-0.867188 -0.843749,-1.171875 -0.416015,-0.310547 -0.878906,-0.46875 -1.394531,-0.46875 -0.125977,0 -0.254883,0.01172 -0.386719,0.03516 -0.125976,0.02344 -0.254883,0.05566 -0.386718,0.09375 l -0.105469,0.02344 c -0.196289,0.04687 -0.392578,0.0293 -0.585938,-0.05859 -0.196289,-0.08496 -0.336914,-0.222656 -0.421875,-0.410156 -0.313476,-0.632813 -0.770508,-1.136719 -1.371093,-1.511719 -0.603516,-0.38086 -1.2714852,-0.574219 -2.003907,-0.574219 z m 0,0"
         style="fill:#000000;fill-opacity:1;fill-rule:nonzero;stroke:none" />
      <path
         id="path42"
         d="m 34.901367,-14.364444 h 0.960938 v 9.3632812 h -0.960938 z m 0,0"
         style="fill:#000000;fill-opacity:1;fill-rule:nonzero;stroke:none" />
    </g>
  </g>
</svg>
