<?xml version="1.0" encoding="UTF-8" standalone="no"?>
<!-- Created with Inkscape (http://www.inkscape.org/) -->

<svg
   version="1.1"
   id="svg1"
   width="28.234373"
   height="22.000004"
   viewBox="0 0 28.234373 22.000004"
   xmlns="http://www.w3.org/2000/svg"
   xmlns:svg="http://www.w3.org/2000/svg">
  <defs
     id="defs1" />
  <g
     id="g3"
     transform="translate(-932.54687,-649.19141)">
    <g
       id="g42"
       aria-label="&#10;q"
       transform="matrix(1.3333333,0,0,1.3333333,932,671.78671)">
      <path
         id="path43"
         d="m 14.496094,-16.946475 c 1.101562,0 2.088867,0.114258 2.964843,0.339843 0.873047,0.228516 1.617188,0.550782 2.226563,0.972657 0.609375,0.416015 1.078125,0.899414 1.40625,1.453125 0.328125,0.5625 0.492187,1.171875 0.492187,1.828125 0,0.416015 -0.105468,0.802734 -0.316406,1.160156 -0.205078,0.360352 -0.498047,0.697266 -0.878906,1.007812 l -0.152344,0.128907 v 7.3007809 c 0,0.6035157 -0.208008,1.125 -0.621094,1.5703125 -0.407226,0.44531254 -0.911132,0.68554691 -1.511718,0.71484379 l -0.152344,0.0234375 H 4.2304687 c -0.6328124,0 -1.1718749,-0.22558594 -1.6171874,-0.67968749 C 2.1738281,-1.5773347 1.9570312,-2.1222566 1.9570312,-2.7550691 V -10.032413 L 1.6992187,-10.24335 c -0.4160156,-0.333985 -0.72656245,-0.647461 -0.93749995,-0.9375 -0.2109375,-0.295899 -0.328125,-0.635742 -0.3515625,-1.019532 v -0.152343 c 0,-0.600586 0.20507812,-1.166016 0.62109375,-1.699219 0.4130859,-0.539063 0.9609375,-1.010742 1.640625,-1.417969 0.6796875,-0.413086 1.4648437,-0.741211 2.3554687,-0.984375 0.890625,-0.240234 1.8105469,-0.363281 2.765625,-0.363281 0.131836,0 0.2695313,0.0059 0.4101563,0.01172 0.1464844,0.0088 0.2841797,0.01758 0.4101563,0.02344 l 0.1054687,-0.01172 c 0.2402344,-0.04687 0.5625,-0.07617 0.9609375,-0.09375 0.4042965,-0.02344 0.8818355,-0.03516 1.4296875,-0.03516 l 1.160156,-0.02344 c 0.155274,0 0.307617,0 0.457032,0 0.146484,0 0.307617,0 0.480468,0 z m 0,1.828125 h -0.9375 c 0.539062,0.383789 0.966797,0.814453 1.289062,1.289062 0.328125,0.46875 0.492188,0.960938 0.492188,1.476563 0,0.398437 -0.102539,0.782226 -0.304688,1.148437 -0.205078,0.369141 -0.477539,0.708985 -0.820312,1.019531 l -0.140625,0.128907 v 7.3007809 c 0,0.079102 -0.0059,0.1582032 -0.01172,0.234375 -0.0088,0.079102 -0.02051,0.1523438 -0.03516,0.2226563 h 3.925781 c 0.117187,0 0.216797,-0.035156 0.304687,-0.1054688 0.08496,-0.070312 0.134766,-0.1552734 0.152344,-0.2578125 v -6.75 H 15.89062 c -0.243164,0 -0.454102,-0.087891 -0.632812,-0.2695312 -0.181641,-0.1787109 -0.269532,-0.3984377 -0.269532,-0.6562497 0,-0.225586 0.07324,-0.424805 0.222657,-0.597657 0.155273,-0.169921 0.345703,-0.27246 0.574218,-0.304687 h 0.105469 l 2.90625,-0.01172 0.128906,-0.09375 c 0.272461,-0.210937 0.480469,-0.401367 0.621094,-0.574219 0.140625,-0.169921 0.210937,-0.316406 0.210937,-0.433593 0,-0.717774 -0.416015,-1.347657 -1.242187,-1.886719 -0.829102,-0.544922 -2.068359,-0.837891 -3.714844,-0.878906 z m -6.7031253,0.140625 c -0.7441406,0 -1.4501953,0.08789 -2.1210937,0.257812 -0.65625,0.172852 -1.2421875,0.386719 -1.7578125,0.644531 -0.5097656,0.257813 -0.9199219,0.539063 -1.2304687,0.84375 -0.2988282,0.313477 -0.4453125,0.606446 -0.4453125,0.878907 0,0.05566 0.064453,0.161133 0.1992187,0.316406 0.1318359,0.149414 0.3427734,0.328125 0.6328125,0.539062 L 3.375,-11.2746 c 0.1230469,0.102539 0.2226563,0.228515 0.2929688,0.375 0.076172,0.149414 0.1171875,0.301758 0.1171875,0.457031 v 7.6874999 c 0,0.1347657 0.041016,0.2431641 0.1289062,0.328125 0.09375,0.087891 0.1992187,0.1289063 0.3164062,0.1289063 h 7.5585943 c 0.117187,0 0.222656,-0.041016 0.316406,-0.1289063 0.09375,-0.084961 0.140625,-0.1933593 0.140625,-0.328125 v -7.7460939 c 0,-0.146484 0.0293,-0.284179 0.09375,-0.410156 0.06152,-0.131836 0.152344,-0.240234 0.269531,-0.328125 0.295898,-0.210938 0.518555,-0.413086 0.667969,-0.609375 0.155273,-0.202148 0.234375,-0.369141 0.234375,-0.503906 0,-0.272461 -0.164063,-0.556641 -0.492188,-0.855469 -0.322265,-0.319336 -0.74707,-0.609375 -1.277343,-0.867188 -0.524415,-0.257812 -1.13086,-0.471679 -1.8164067,-0.644531 -0.6884766,-0.169922 -1.4003907,-0.257812 -2.1328126,-0.257812 z m 0,0"
         style="fill:#000000;fill-opacity:1;fill-rule:nonzero;stroke:none" />
      <path
         id="path44"
         d="m 34.420898,-7.7648347 c 0,-0.5917969 0.120118,-1.1044922 0.363282,-1.5351562 0.249023,-0.4277344 0.580078,-0.7558591 0.996093,-0.9843751 0.421875,-0.234375 0.878907,-0.351562 1.371094,-0.351562 0.413086,0 0.779297,0.09375 1.101563,0.28125 0.319336,0.18164 0.580078,0.4423824 0.785156,0.7851558 v -0.9492188 h 0.960937 v 8.1562501 h -0.960937 v -3.5859375 c -0.205078,0.3457031 -0.46582,0.609375 -0.785156,0.796875 -0.322266,0.1787109 -0.688477,0.2695312 -1.101563,0.2695312 -0.492187,0 -0.949219,-0.1142578 -1.371094,-0.3398437 -0.416015,-0.234375 -0.74707,-0.5654297 -0.996093,-0.9960938 -0.243164,-0.4365234 -0.363282,-0.9521484 -0.363282,-1.546875 z m 0.972657,0 c 0,0.4306641 0.08496,0.7939453 0.257812,1.0898438 0.169922,0.2988281 0.401367,0.5214843 0.691406,0.6679687 0.28711,0.1494141 0.600586,0.2226563 0.9375,0.2226563 0.272461,0 0.544922,-0.073242 0.820313,-0.2226563 0.272461,-0.1464844 0.495117,-0.3691406 0.667969,-0.6679687 0.178711,-0.2958985 0.269531,-0.6591797 0.269531,-1.0898438 0,-0.421875 -0.09082,-0.7792969 -0.269531,-1.078125 -0.172852,-0.2958984 -0.395508,-0.5185547 -0.667969,-0.6679687 -0.275391,-0.1464844 -0.547852,-0.2226563 -0.820313,-0.2226563 -0.336914,0 -0.65039,0.076172 -0.9375,0.2226563 -0.290039,0.149414 -0.521484,0.3720703 -0.691406,0.6679687 -0.172851,0.2988281 -0.257812,0.65625 -0.257812,1.078125 z m 0,0"
         style="fill:#000000;fill-opacity:1;fill-rule:nonzero;stroke:none" />
    </g>
  </g>
</svg>
