<?xml version="1.0" encoding="UTF-8" standalone="no"?>
<!-- Created with Inkscape (http://www.inkscape.org/) -->

<svg
   version="1.1"
   id="svg1"
   width="22.684143"
   height="24.647217"
   viewBox="0 0 22.684143 24.647217"
   xmlns="http://www.w3.org/2000/svg"
   xmlns:svg="http://www.w3.org/2000/svg">
  <defs
     id="defs1" />
  <g
     id="g3"
     transform="translate(-1090.8694,-647.52879)">
    <g
       id="g44"
       aria-label="&#10;w"
       transform="matrix(1.3333333,0,0,1.3333333,1088,671.78671)">
      <path
         id="path45"
         d="m 17.742187,-17.872257 c 0.498047,0.29004 0.870118,0.832032 1.113282,1.628907 0.234375,0.791015 0.333984,1.664062 0.304687,2.625 -0.03223,0.960937 -0.205078,1.916015 -0.515625,2.859375 -0.313476,0.9550778 -0.761719,1.7402341 -1.347656,2.3554684 l -0.09375,0.09375 c 0.01465,0.023437 0.02637,0.055664 0.03516,0.09375 0.0059,0.032227 0.01172,0.064453 0.01172,0.09375 l 0.02344,0.2109375 c 0.02344,0.5332032 -0.105468,1.0195313 -0.386718,1.4648438 -0.275391,0.4453125 -0.653321,0.7705078 -1.136719,0.9726562 -0.06445,0.023437 -0.125977,0.041016 -0.1875,0.046875 -0.06445,0.00879 -0.125977,0.011719 -0.1875,0.011719 l -0.105469,0.1289062 -0.703125,0.7734375 c -0.375,0.4306641 -0.852539,0.6738282 -1.429687,0.7265625 -0.571289,0.046875 -1.075196,-0.1083984 -1.511719,-0.46875 l -0.04687,-0.046875 -4.9804688,4.11328129 C 6.2050781,0.12188406 5.7568359,0.28301688 5.25,0.29180594 4.7402344,0.29766531 4.2890625,0.15118094 3.890625,-0.15350656 L 3.7617188,-0.25897531 2.8828125,-1.0792878 C 2.4902344,-1.4220612 2.2558594,-1.8527253 2.1796875,-2.3683503 2.1005859,-2.8839753 2.1914063,-3.3585847 2.4492188,-3.7980378 L 2.5546875,-3.9269441 6.1875,-9.1300691 6.1054687,-9.2003816 C 5.6748047,-9.5812409 5.4375,-10.05878 5.390625,-10.630069 c -0.041016,-0.577148 0.1113281,-1.083984 0.4570312,-1.523438 l 0.1054688,-0.128906 0.6796875,-0.773437 c 0.046875,-0.04687 0.09668,-0.09375 0.1523437,-0.140625 0.061523,-0.05274 0.1113282,-0.09961 0.1523438,-0.140625 0.046875,-0.615235 0.2929687,-1.151367 0.7382812,-1.605469 0.4511719,-0.451172 0.9960938,-0.697266 1.6289063,-0.738281 0.099609,0 0.2021484,0.0059 0.3046875,0.01172 0.1083984,0.0088 0.2050781,0.02051 0.2929688,0.03516 l 0.1054692,0.01172 0.257812,-0.269531 c 0.304688,-0.319336 0.585938,-0.568359 0.84375,-0.75 0.257813,-0.178711 0.556641,-0.310547 0.902344,-0.398437 0.427734,-0.09375 0.808594,-0.143555 1.136719,-0.152344 0.328125,-0.0059 0.662109,0.02344 1.007812,0.09375 l 0.316406,0.05859 c 0,0 0.0029,0 0.01172,0 0.0059,0 0.01758,0 0.03516,0 0.04687,0 0.08789,0 0.128907,0 0.04687,-0.0059 0.09668,-0.02637 0.152343,-0.05859 0.03809,-0.0293 0.08203,-0.05859 0.128907,-0.08203 0.05273,-0.0293 0.105468,-0.07031 0.152343,-0.117188 l 0.421875,-0.398437 c 0.01465,0 0.02637,-0.0029 0.03516,-0.01172 0.0059,-0.0059 0.01172,-0.01758 0.01172,-0.03516 0.310547,-0.272461 0.650391,-0.421875 1.019531,-0.445313 0.366211,-0.0293 0.75586,0.07617 1.171875,0.316406 z m -9.6914057,5.988282 -0.035156,0.04687 -0.7148438,0.796875 c -0.055664,0.05566 -0.082031,0.123047 -0.082031,0.199218 0,0.0791 0.017578,0.149415 0.058594,0.210938 l 0.046875,0.05859 2.1914063,1.9804684 c 0.1875,0.1582032 0.2871094,0.3632813 0.3046875,0.6210938 0.014648,0.2578125 -0.064453,0.4804687 -0.234375,0.6679687 C 9.421875,-7.1290925 9.2255859,-7.0265534 9,-6.9972566 8.7714844,-6.9738191 8.5664063,-7.0324128 8.3789063,-7.1730378 L 8.296875,-7.2433503 7.5585937,-7.8878816 4.0546875,-2.8839753 c -0.041016,0.064453 -0.058594,0.1289062 -0.058594,0.1992187 0,0.070312 0.017578,0.1347657 0.058594,0.1875 l 0.046875,0.070312 0.8789062,0.796875 c 0.061523,0.055664 0.1289063,0.087891 0.1992188,0.09375 0.070312,0.00879 0.1318359,-0.011719 0.1875,-0.058594 L 5.4375,-1.6066316 10.183594,-5.5206941 9.75,-5.9074128 C 9.5625,-6.0773347 9.4599609,-6.2882722 9.4453125,-6.5402253 c -0.00879,-0.2490234 0.073242,-0.46875 0.2460938,-0.65625 0.1552734,-0.1875 0.3457027,-0.2871094 0.5742187,-0.3046875 0.234375,-0.023437 0.439453,0.029297 0.621094,0.1523437 l 0.117187,0.070312 1.710938,1.5585938 c 0.07031,0.064453 0.143554,0.09375 0.222656,0.09375 0.07617,0 0.146484,-0.023437 0.210938,-0.070312 l 0.05859,-0.035156 0.714844,-0.7734375 c 0.03809,-0.076172 0.06152,-0.1552734 0.07031,-0.234375 0.0059,-0.076172 -0.0088,-0.1435546 -0.04687,-0.1992187 L 13.875,-7.0089753 8.484375,-11.860538 c -0.055664,-0.05273 -0.1230469,-0.08203 -0.1992187,-0.08203 -0.079102,0 -0.1582032,0.02051 -0.234375,0.05859 z m 8.7070307,-4.464844 -0.328125,0.328125 c -0.140625,0.125977 -0.27832,0.234375 -0.410156,0.328125 -0.125976,0.09375 -0.257812,0.175781 -0.398437,0.246094 -0.234375,0.102539 -0.462891,0.172851 -0.679688,0.210937 -0.210937,0.03223 -0.430664,0.04102 -0.65625,0.02344 l -0.08203,-0.02344 -0.257812,-0.03516 c -0.03223,-0.01465 -0.06445,-0.02344 -0.09375,-0.02344 -0.02344,0 -0.03516,0 -0.03516,0 -0.234375,-0.05273 -0.454101,-0.07617 -0.65625,-0.07031 -0.196289,0 -0.445312,0.04102 -0.75,0.117187 -0.09375,0.02344 -0.196289,0.07617 -0.304687,0.152344 -0.111328,0.07031 -0.234375,0.184571 -0.375,0.339844 l -0.328125,0.339844 c -0.05566,0.05566 -0.102539,0.102539 -0.140625,0.140625 -0.03223,0.04101 -0.07031,0.0791 -0.117188,0.117187 -0.07031,0.07031 -0.137695,0.137696 -0.199218,0.199219 -0.06445,0.05566 -0.128907,0.102539 -0.199219,0.140625 -0.134766,0.102539 -0.278321,0.161133 -0.433594,0.175781 -0.158203,0.01758 -0.310547,-0.0029 -0.4570312,-0.05859 L 9.75,-13.747257 c -0.041016,-0.0293 -0.09375,-0.05273 -0.1640625,-0.07031 -0.064453,-0.02344 -0.1230469,-0.02637 -0.1757812,-0.01172 -0.087891,0 -0.1640625,0.02051 -0.234375,0.05859 -0.070312,0.03223 -0.1376954,0.06738 -0.1992188,0.105469 0.1171875,0.04687 0.2255859,0.09961 0.328125,0.152343 0.099609,0.05566 0.1992188,0.123047 0.2929688,0.199219 l 0.1171875,0.105469 5.4023442,4.8515624 c 0.0293,0.032227 0.06152,0.067383 0.09375,0.1054688 0.03808,0.032227 0.08203,0.067383 0.128906,0.1054687 -0.134766,-0.1933593 -0.172852,-0.4130859 -0.117188,-0.65625 0.06152,-0.2490234 0.19336,-0.4365234 0.398438,-0.5625 0.498047,-0.3427734 0.893554,-0.8671879 1.183593,-1.5703129 0.295899,-0.703125 0.459961,-1.502929 0.492188,-2.402343 0.02344,-0.732422 -0.03223,-1.397461 -0.164063,-1.992188 -0.125976,-0.591797 -0.240234,-0.916992 -0.339843,-0.972656 l -0.01172,-0.02344 z m 0,0"
         style="fill:#000000;fill-opacity:1;fill-rule:nonzero;stroke:none" />
      <path
         id="path46"
         d="m 34.057617,-10.518741 h 1.078125 l 1.382813,3.5859376 1.5,-4.0078126 1.605468,4.0312501 1.394532,-3.6093751 h 1.078125 l -2.402344,5.9414063 -1.664063,-4.0195312 -1.570312,4.0195312 z m 0,0"
         style="fill:#000000;fill-opacity:1;fill-rule:nonzero;stroke:none" />
    </g>
  </g>
</svg>
