<?xml version="1.0" encoding="UTF-8" standalone="no"?>
<!-- Created with Inkscape (http://www.inkscape.org/) -->

<svg
   version="1.1"
   id="svg1"
   width="27.297333"
   height="26.688"
   viewBox="0 0 27.297333 26.688"
   xmlns="http://www.w3.org/2000/svg"
   xmlns:svg="http://www.w3.org/2000/svg">
  <defs
     id="defs1" />
  <g
     id="g372"
     transform="translate(-30661.312,-707.59332)">
    <path
       id="path443"
       d="m 434.004,530.695 c 0.883,0 1.742,0.117 2.578,0.352 0.844,0.226 1.645,0.555 2.402,0.984 l 0.036,0.164 -0.727,1.102 -0.129,0.047 c -0.898,-0.36 -1.695,-0.633 -2.391,-0.821 -0.695,-0.187 -1.285,-0.281 -1.769,-0.281 -1.18,0 -2.277,0.223 -3.293,0.668 -1.031,0.445 -1.93,1.051 -2.695,1.817 -0.766,0.765 -1.371,1.664 -1.817,2.695 -0.445,1.031 -0.668,2.125 -0.668,3.281 0,1.18 0.223,2.285 0.668,3.317 0.446,1.015 1.051,1.906 1.817,2.671 0.765,0.766 1.664,1.371 2.695,1.817 1.016,0.445 2.113,0.668 3.293,0.668 1.172,0 2.266,-0.223 3.281,-0.668 1.031,-0.446 1.93,-1.051 2.695,-1.817 0.766,-0.765 1.372,-1.656 1.817,-2.671 0.445,-1.032 0.668,-2.137 0.668,-3.317 0,-0.07 -0.008,-0.168 -0.012,-0.293 -0.008,-0.133 -0.012,-0.277 -0.012,-0.433 l 0.047,-0.106 1.242,-0.715 0.176,0.094 c 0.039,0.242 0.063,0.484 0.082,0.727 0.016,0.242 0.024,0.484 0.024,0.726 0,1.391 -0.258,2.695 -0.774,3.914 -0.535,1.219 -1.254,2.281 -2.168,3.188 -0.91,0.898 -1.968,1.609 -3.187,2.133 -1.203,0.515 -2.496,0.773 -3.879,0.773 -1.391,0 -2.692,-0.258 -3.891,-0.773 -1.218,-0.524 -2.285,-1.235 -3.199,-2.133 -0.91,-0.907 -1.625,-1.969 -2.156,-3.188 -0.516,-1.219 -0.774,-2.523 -0.774,-3.914 0,-1.375 0.258,-2.668 0.774,-3.879 0.531,-1.219 1.246,-2.281 2.156,-3.187 0.914,-0.914 1.981,-1.629 3.199,-2.145 1.199,-0.531 2.5,-0.797 3.891,-0.797 z m -1.02,11.391 h 1.489 c 0.601,0 1.011,0.008 1.242,0.023 0.226,0.008 0.414,0.036 0.562,0.082 0.239,0.055 0.414,0.161 0.516,0.317 0.109,0.148 0.164,0.351 0.164,0.609 0,0.656 -0.289,1.199 -0.855,1.629 -0.571,0.43 -1.293,0.645 -2.168,0.645 -0.86,0 -1.559,-0.211 -2.098,-0.633 -0.535,-0.422 -0.797,-0.969 -0.797,-1.641 0,-0.273 0.043,-0.48 0.129,-0.621 0.086,-0.148 0.234,-0.25 0.445,-0.305 0.133,-0.046 0.285,-0.074 0.457,-0.082 0.168,-0.015 0.473,-0.023 0.914,-0.023 z m -3.925,-2.109 c 0.355,0 0.668,0.128 0.925,0.386 0.258,0.258 0.387,0.575 0.387,0.949 0,0.157 -0.043,0.29 -0.117,0.399 -0.07,0.101 -0.176,0.168 -0.316,0.199 -0.043,0 -0.09,0 -0.141,0 -0.047,0 -0.102,-0.008 -0.164,-0.023 -0.008,-0.016 -0.02,-0.024 -0.035,-0.024 -0.016,0 -0.043,-0.008 -0.071,-0.023 l -0.105,-0.012 c -0.09,-0.031 -0.16,-0.055 -0.223,-0.07 -0.054,-0.016 -0.101,-0.024 -0.14,-0.024 -0.055,0 -0.114,0.008 -0.176,0.024 -0.055,0.015 -0.125,0.039 -0.211,0.07 l -0.106,0.012 c -0.019,0.015 -0.035,0.023 -0.058,0.023 -0.024,0 -0.043,0.008 -0.047,0.024 -0.066,0.015 -0.125,0.023 -0.176,0.023 -0.047,0 -0.09,0 -0.129,0 -0.14,-0.031 -0.254,-0.098 -0.328,-0.199 -0.07,-0.109 -0.105,-0.242 -0.105,-0.399 0,-0.374 0.129,-0.691 0.386,-0.949 0.258,-0.258 0.575,-0.386 0.95,-0.386 z m 9.879,0 c 0.374,0 0.691,0.128 0.949,0.386 0.258,0.258 0.386,0.575 0.386,0.949 0,0.157 -0.043,0.29 -0.117,0.399 -0.07,0.101 -0.176,0.168 -0.316,0.199 -0.043,0 -0.086,0 -0.141,0 -0.047,0 -0.101,-0.008 -0.164,-0.023 -0.008,-0.016 -0.023,-0.024 -0.047,-0.024 -0.023,0 -0.043,-0.008 -0.058,-0.023 l -0.106,-0.012 c -0.086,-0.031 -0.16,-0.055 -0.222,-0.07 -0.055,-0.016 -0.11,-0.024 -0.164,-0.024 -0.04,0 -0.09,0.008 -0.153,0.024 -0.055,0.015 -0.125,0.039 -0.211,0.07 l -0.105,0.012 c -0.031,0.015 -0.055,0.023 -0.071,0.023 -0.015,0 -0.027,0.008 -0.035,0.024 -0.062,0.015 -0.121,0.023 -0.175,0.023 -0.047,0 -0.09,0 -0.129,0 -0.141,-0.031 -0.25,-0.098 -0.329,-0.199 -0.07,-0.109 -0.105,-0.242 -0.105,-0.399 0,-0.374 0.129,-0.691 0.387,-0.949 0.258,-0.258 0.566,-0.386 0.926,-0.386 z m 2.167,-8.895 0.481,0.457 c 0.008,0.008 0.023,0.023 0.047,0.047 0.023,0.023 0.051,0.051 0.082,0.082 0.039,0.039 0.082,0.09 0.129,0.152 0.051,0.055 0.109,0.11 0.164,0.164 0.168,0.188 0.332,0.371 0.492,0.551 0.164,0.18 0.316,0.363 0.457,0.551 0.168,0.195 0.32,0.391 0.457,0.586 0.141,0.195 0.262,0.387 0.375,0.574 0.215,0.367 0.379,0.711 0.492,1.031 0.117,0.313 0.176,0.606 0.176,0.879 0,0.961 -0.336,1.782 -0.996,2.461 -0.664,0.68 -1.473,1.02 -2.414,1.02 -0.945,0 -1.754,-0.34 -2.426,-1.02 -0.664,-0.679 -0.996,-1.5 -0.996,-2.461 0,-0.273 0.051,-0.566 0.164,-0.879 0.109,-0.32 0.273,-0.664 0.504,-1.031 0.098,-0.187 0.223,-0.379 0.363,-0.574 0.145,-0.195 0.297,-0.391 0.457,-0.586 0.141,-0.188 0.285,-0.371 0.446,-0.551 0.156,-0.18 0.32,-0.363 0.492,-0.551 0.062,-0.054 0.117,-0.109 0.164,-0.164 0.051,-0.062 0.109,-0.113 0.164,-0.152 0.027,-0.031 0.051,-0.059 0.07,-0.082 0.024,-0.024 0.039,-0.039 0.059,-0.047 l 0.445,-0.457 z m -0.058,2.133 c -0.133,0.14 -0.262,0.281 -0.387,0.422 -0.117,0.133 -0.234,0.269 -0.351,0.41 -0.141,0.172 -0.27,0.344 -0.387,0.515 -0.11,0.172 -0.215,0.329 -0.317,0.469 -0.14,0.25 -0.25,0.473 -0.328,0.668 -0.07,0.188 -0.105,0.34 -0.105,0.457 0,0.532 0.183,0.989 0.551,1.371 0.367,0.375 0.808,0.563 1.324,0.563 0.515,0 0.953,-0.188 1.312,-0.563 0.368,-0.382 0.551,-0.839 0.551,-1.371 0,-0.117 -0.043,-0.269 -0.117,-0.457 -0.078,-0.195 -0.188,-0.418 -0.328,-0.668 -0.086,-0.14 -0.192,-0.297 -0.317,-0.469 -0.117,-0.171 -0.25,-0.343 -0.398,-0.515 -0.109,-0.141 -0.223,-0.277 -0.34,-0.41 -0.117,-0.141 -0.238,-0.282 -0.363,-0.422 z"
       style="fill:#000000;fill-opacity:1;fill-rule:nonzero;stroke:none"
       transform="matrix(1.3333333,0,0,1.3333333,30096,0)" />
  </g>
</svg>
