<?xml version="1.0" encoding="UTF-8" standalone="no"?>
<!-- Created with Inkscape (http://www.inkscape.org/) -->

<svg
   version="1.1"
   id="svg1"
   width="19.546881"
   height="28.093754"
   viewBox="0 0 19.546881 28.093754"
   xmlns="http://www.w3.org/2000/svg"
   xmlns:svg="http://www.w3.org/2000/svg">
  <defs
     id="defs1" />
  <g
     id="g3"
     transform="translate(-1248.8906,-645.51953)">
    <g
       id="g46"
       aria-label="&#10;e"
       transform="matrix(1.3333333,0,0,1.3333333,1244,671.78671)">
      <path
         id="path47"
         d="m 11.0625,-19.676944 c 0.169922,0.03223 0.363281,0.102539 0.574219,0.210937 0.216797,0.10254 0.433594,0.246094 0.644531,0.433594 0.08496,0.07031 0.166992,0.146485 0.246094,0.222656 0.08496,0.0791 0.164062,0.169922 0.234375,0.269532 0.240234,-0.123047 0.483398,-0.210938 0.726562,-0.257813 0.240235,-0.05273 0.480469,-0.08203 0.714844,-0.08203 h 0.164063 l 0.105468,0.02344 c 0.07617,0.0088 0.146485,0.02344 0.210938,0.04687 0.06152,0.02344 0.120117,0.05567 0.175781,0.09375 0.08496,0.06445 0.19043,0.152344 0.316406,0.269532 0.123047,0.111328 0.240235,0.243164 0.351563,0.398437 0.328125,0.430664 0.530273,0.931641 0.609375,1.5 0.08496,0.5625 0,1.171875 -0.257813,1.828125 l -0.04687,0.09375 c 0.741211,0.383789 1.341797,0.9375 1.804688,1.664063 0.459961,0.720703 0.691406,1.523437 0.691406,2.414062 v 7.3476564 c 0,0.6328125 -0.117188,1.2275391 -0.351563,1.78125 -0.243164,0.56250004 -0.571289,1.04882816 -0.984375,1.45312504 -0.416015,0.40429687 -0.902343,0.72949219 -1.464843,0.97265626 -0.556641,0.2402344 -1.148438,0.3632812 -1.78125,0.3632812 H 8.25 c -0.6328125,0 -1.2275391,-0.1230468 -1.78125,-0.3632812 C 5.90625,0.76348563 5.4169922,0.43829031 5.0039062,0.03399344 4.5878906,-0.37030344 4.2597656,-0.85663156 4.0195312,-1.4191316 3.7851563,-1.9728425 3.6679688,-2.5675691 3.6679688,-3.2003816 v -7.3476564 c 0,-0.811523 0.1992187,-1.561523 0.5976562,-2.25 0.4042969,-0.685547 0.9316406,-1.233398 1.5820312,-1.640625 -0.017578,-0.05273 -0.035156,-0.09961 -0.058594,-0.140625 -0.023437,-0.04687 -0.043945,-0.09375 -0.058594,-0.140625 -0.2578125,-0.65625 -0.3486328,-1.265625 -0.2695312,-1.828125 0.084961,-0.568359 0.2929687,-1.069336 0.6210937,-1.5 0.1083985,-0.155273 0.225586,-0.287109 0.3515625,-0.398437 0.1230469,-0.117188 0.2285157,-0.205078 0.3164063,-0.269532 0.052734,-0.03808 0.1113281,-0.07031 0.1757812,-0.09375 0.061523,-0.02344 0.131836,-0.03808 0.2109375,-0.04687 l 0.1054688,-0.02344 c 0.2578125,-0.01465 0.5302734,0.0059 0.8203125,0.05859 0.2958984,0.04687 0.5888672,0.149414 0.8789063,0.304687 0.070312,-0.08496 0.1464843,-0.175781 0.234375,-0.269531 0.084961,-0.09375 0.1699218,-0.175781 0.2578125,-0.246094 0.2255859,-0.1875 0.4394531,-0.331054 0.6445317,-0.433594 0.210938,-0.108398 0.401367,-0.17871 0.574218,-0.210937 0.07031,-0.01465 0.134765,-0.02344 0.199219,-0.02344 0.07031,0 0.140625,0.0088 0.210937,0.02344 z m 2.683594,6.375 H 8.25 c -0.7587891,0 -1.40625,0.269531 -1.9453125,0.808594 -0.5390625,0.539062 -0.8085938,1.189453 -0.8085938,1.945312 v 7.3476564 c 0,0.7587891 0.2695313,1.40625 0.8085938,1.9453125 C 6.84375,-0.71600656 7.4912109,-0.44647531 8.25,-0.44647531 h 5.496094 c 0.755859,0 1.40625,-0.26953125 1.945312,-0.80859379 C 16.230469,-1.7941316 16.5,-2.4415925 16.5,-3.2003816 v -7.3476564 c 0,-0.755859 -0.269531,-1.40625 -0.808594,-1.945312 -0.539062,-0.539063 -1.189453,-0.808594 -1.945312,-0.808594 z m -5.6484377,8.0624999 0.082031,0.082031 0.5390625,0.5976562 0.609375,-0.5273437 c 0.1933594,-0.1640625 0.4160156,-0.2373047 0.6679688,-0.2226563 0.2490234,0.017578 0.4570314,0.1259766 0.6210944,0.328125 0.155273,0.1728516 0.234375,0.3720704 0.234375,0.5976563 0,0.2285156 -0.0791,0.4277344 -0.234375,0.5976562 l -0.09375,0.09375 -0.5976569,0.5390625 0.5156249,0.5976563 c 0.169922,0.1875 0.249024,0.4101562 0.234375,0.6679687 -0.01758,0.2578125 -0.123047,0.4658204 -0.316406,0.6210938 -0.172852,0.1582031 -0.3750002,0.2314453 -0.6093752,0.2226562 -0.2285156,-0.00586 -0.4277344,-0.082031 -0.5976562,-0.2226562 L 9.0703125,-1.3488191 8.53125,-1.9816316 7.921875,-1.4425691 c -0.1962891,0.1728516 -0.4189453,0.2519532 -0.6679688,0.234375 -0.2519531,-0.023437 -0.4570312,-0.1289062 -0.6210937,-0.3164062 -0.1582031,-0.1699219 -0.234375,-0.375 -0.234375,-0.609375 0,-0.2402344 0.076172,-0.4394531 0.234375,-0.5976563 l 0.09375,-0.082031 0.5976562,-0.5390625 -0.515625,-0.6210938 c -0.1728515,-0.1875 -0.2519531,-0.4042968 -0.234375,-0.65625 0.014648,-0.2490234 0.1201172,-0.4599609 0.3164063,-0.6328125 0.1699219,-0.140625 0.3691406,-0.2109375 0.5976562,-0.2109375 0.234375,0 0.4365235,0.079102 0.6093751,0.2343748 z m 4.6406247,-3.328125 0.08203,0.082031 0.539062,0.6210937 0.621094,-0.5390625 c 0.1875,-0.1699218 0.404297,-0.2460937 0.65625,-0.2226562 0.249023,0.023437 0.459961,0.1289062 0.632812,0.3164062 0.146485,0.1728516 0.222657,0.375 0.222657,0.609375 0,0.234375 -0.08203,0.4306641 -0.246094,0.5859375 l -0.05859,0.09375 -0.621094,0.5273438 0.539063,0.6328125 c 0.155273,0.1816406 0.225586,0.3984375 0.210937,0.65625 -0.01758,0.2519531 -0.117187,0.4628906 -0.304687,0.6328125 -0.1875,0.140625 -0.395508,0.2109375 -0.621094,0.2109375 -0.228516,0 -0.427734,-0.076172 -0.597656,-0.234375 l -0.09375,-0.070312 -0.515625,-0.6210938 -0.621094,0.5390625 c -0.1875,0.1582032 -0.410156,0.2285157 -0.667969,0.2109375 -0.257812,-0.014648 -0.46582,-0.1113281 -0.621093,-0.2929687 -0.158204,-0.1875 -0.231446,-0.3925781 -0.222657,-0.6210938 0.0059,-0.234375 0.08203,-0.4365234 0.222657,-0.609375 l 0.09375,-0.082031 0.621093,-0.515625 -0.539062,-0.6210938 c -0.172852,-0.1875 -0.251953,-0.4101562 -0.234375,-0.6679687 0.02344,-0.2578125 0.128906,-0.4628906 0.316406,-0.6210938 0.169922,-0.1640625 0.375,-0.2402343 0.609375,-0.234375 0.240234,0.00879 0.439453,0.087891 0.597656,0.234375 z m -4.8281248,-3.9726559 0.058594,0.08203 0.5390625,0.597656 0.6210938,-0.539062 c 0.1875,-0.155274 0.4042968,-0.225586 0.65625,-0.210938 0.2490235,0.01758 0.4599605,0.125977 0.6328125,0.328125 0.155273,0.172852 0.228515,0.372071 0.222656,0.597656 -0.0088,0.228516 -0.08203,0.427735 -0.222656,0.597657 l -0.08203,0.08203 -0.621094,0.539062 0.527344,0.6093754 c 0.169921,0.1962891 0.246093,0.4189454 0.222656,0.6679688 -0.01758,0.2519531 -0.117188,0.4570312 -0.304688,0.6210937 -0.1874995,0.1582032 -0.3955074,0.234375 -0.6210933,0.234375 -0.2285156,0 -0.4277344,-0.076172 -0.5976562,-0.234375 l -0.09375,-0.09375 -0.515625,-0.5976562 -0.6210938,0.515625 c -0.1875,0.1728516 -0.4072266,0.2519531 -0.65625,0.234375 C 6.8027344,-8.5236237 6.5917969,-8.6290925 6.421875,-8.8253816 6.2636719,-8.9953034 6.1904297,-9.1945222 6.1992187,-9.4230378 6.2050781,-9.6574128 6.28125,-9.8595612 6.421875,-10.032413 l 0.082031,-0.08203 0.6328125,-0.539063 -0.5390625,-0.597656 c -0.1728515,-0.202148 -0.2519531,-0.427734 -0.234375,-0.679687 0.023437,-0.249024 0.1289063,-0.459961 0.3164063,-0.632813 0.1875,-0.146484 0.3925781,-0.222656 0.6210937,-0.222656 0.234375,0 0.4365235,0.08203 0.609375,0.246094 z m -0.3046875,-4.5 -0.070312,0.09375 c -0.140625,0.1875 -0.2285156,0.410156 -0.2578125,0.667968 -0.023437,0.257813 0.026367,0.559571 0.1523438,0.902344 0.029297,0.05566 0.052734,0.111328 0.070312,0.164063 0.023437,0.04687 0.049805,0.09082 0.082031,0.128906 0.1171875,-0.01465 0.225586,-0.02344 0.328125,-0.02344 0.1083985,-0.0059 0.2226563,-0.01172 0.3398438,-0.01172 h 0.1875 c -0.055664,-0.1875 -0.099609,-0.38086 -0.1289062,-0.585938 -0.023437,-0.202148 -0.035156,-0.410156 -0.035156,-0.621094 0,-0.07031 0.00293,-0.140625 0.011719,-0.210937 0.00586,-0.07617 0.011719,-0.143555 0.011719,-0.199219 -0.017578,-0.0293 -0.041016,-0.0498 -0.070312,-0.05859 -0.032227,-0.01465 -0.052734,-0.0293 -0.058594,-0.04687 -0.087891,-0.04687 -0.1728516,-0.08496 -0.2578126,-0.117187 -0.079102,-0.03809 -0.1523437,-0.06445 -0.2226562,-0.08203 z m 6.3984373,0 h -0.08203 c -0.06445,0.01758 -0.123047,0.03516 -0.175781,0.05859 -0.05566,0.02344 -0.114258,0.04687 -0.175781,0.07031 l -0.128907,0.07031 -0.01172,0.02344 c 0,0.08789 0,0.169922 0,0.246094 0.0059,0.0791 0.01172,0.161133 0.01172,0.246093 0,0.210938 -0.01758,0.418946 -0.04687,0.621094 -0.02344,0.205078 -0.06445,0.398438 -0.117187,0.585938 h 0.46875 c 0.04687,0 0.09375,0 0.140625,0 0.04687,0 0.09961,0 0.164062,0 0.01465,-0.0293 0.0293,-0.07031 0.04687,-0.117188 0.02344,-0.05273 0.04102,-0.09961 0.05859,-0.140625 0.140625,-0.342773 0.193359,-0.644531 0.164063,-0.902344 -0.02344,-0.257812 -0.114258,-0.480468 -0.269532,-0.667968 z m -3.128906,-0.773438 -0.07031,0.04687 -0.08203,0.04687 -0.105468,0.08203 c -0.10254,0.08789 -0.19336,0.19629 -0.269532,0.328125 -0.0791,0.125977 -0.140625,0.28125 -0.1875,0.46875 -0.01758,0.08789 -0.0293,0.169922 -0.03516,0.246094 -0.0088,0.0791 -0.01172,0.169922 -0.01172,0.269531 0,0.243165 0.02344,0.462891 0.07031,0.65625 0.05273,0.19629 0.131836,0.38086 0.234375,0.550782 h 0.878906 c 0.09961,-0.164063 0.175781,-0.342774 0.222656,-0.539063 0.05274,-0.202148 0.08203,-0.424804 0.08203,-0.667969 0,-0.09961 -0.0059,-0.199218 -0.01172,-0.292968 -0.0088,-0.09375 -0.02051,-0.175782 -0.03516,-0.246094 -0.01758,-0.01465 -0.02344,-0.02637 -0.02344,-0.03516 0,-0.01465 0,-0.0293 0,-0.04687 -0.04102,-0.155274 -0.09961,-0.28711 -0.175781,-0.398438 -0.07031,-0.108398 -0.152344,-0.205078 -0.246094,-0.292969 -0.03223,-0.0293 -0.06738,-0.05273 -0.105469,-0.07031 -0.03223,-0.02344 -0.06445,-0.04102 -0.09375,-0.05859 z m 0,0"
         style="fill:#000000;fill-opacity:1;fill-rule:nonzero;stroke:none" />
      <path
         id="path48"
         d="m 39.65918,-6.2882722 c -0.181641,0.28125 -0.383789,0.5332031 -0.609375,0.75 -0.228516,0.2109375 -0.500977,0.375 -0.820313,0.4921875 -0.313476,0.1083985 -0.711914,0.1640625 -1.195312,0.1640625 -0.492188,0 -0.9375,-0.1201172 -1.335938,-0.3632812 -0.398437,-0.2490235 -0.711914,-0.5917969 -0.9375,-1.03125 -0.228515,-0.4365235 -0.339844,-0.9316407 -0.339844,-1.4882813 0,-0.099609 0.0029,-0.1992187 0.01172,-0.2929687 0.0059,-0.09375 0.01758,-0.1904297 0.03516,-0.2929688 0.07617,-0.4511719 0.237305,-0.8496094 0.480469,-1.1953125 0.240235,-0.3427734 0.550781,-0.6093753 0.925781,-0.7968753 0.38086,-0.193359 0.808594,-0.292968 1.277344,-0.292968 0.521485,0 0.978516,0.117187 1.371094,0.351562 0.389648,0.228516 0.694336,0.5507813 0.914062,0.9726563 0.216797,0.421875 0.328125,0.9228516 0.328125,1.5 0,0.055664 0,0.1054688 0,0.1523438 0,0.046875 -0.0088,0.09375 -0.02344,0.140625 h -4.335938 c 0.03809,0.5625 0.213868,0.993164 0.527344,1.2890625 0.310547,0.2988281 0.717774,0.4453125 1.21875,0.4453125 0.404297,0 0.75,-0.087891 1.03125,-0.2695313 0.28125,-0.1875 0.515625,-0.4277344 0.703125,-0.7265625 z m -2.507813,-3.515625 c -0.445312,0 -0.832031,0.1347656 -1.160156,0.3984375 -0.328125,0.2578125 -0.515625,0.6152344 -0.5625,1.0664063 h 3.28125 c -0.04687,-0.4277344 -0.199219,-0.7792969 -0.457031,-1.0546875 -0.251953,-0.272461 -0.618164,-0.4101563 -1.101563,-0.4101563 z m 0,0"
         style="fill:#000000;fill-opacity:1;fill-rule:nonzero;stroke:none" />
    </g>
  </g>
</svg>
