<?xml version="1.0" encoding="UTF-8" standalone="no"?>
<!-- Created with Inkscape (http://www.inkscape.org/) -->

<svg
   version="1.1"
   id="svg1"
   width="28.703121"
   height="25.640961"
   viewBox="0 0 28.703121 25.640961"
   xmlns="http://www.w3.org/2000/svg"
   xmlns:svg="http://www.w3.org/2000/svg">
  <defs
     id="defs1" />
  <g
     id="g82"
     transform="translate(-1924.3125,-233.56607)">
    <g
       id="g101"
       aria-label="&#10;at"
       transform="matrix(1.3333333,0,0,1.3333333,1924,258.61336)">
      <path
         id="path102"
         d="m 11.507813,-18.339903 0.07031,0.08203 1.992188,4.3125 c 0.04687,0.08789 0.07617,0.172852 0.09375,0.257813 0.01465,0.08789 0.01465,0.172851 0,0.257812 h 6.503906 c 0.445312,0 0.820312,0.161133 1.125,0.480469 0.310547,0.313477 0.46875,0.691406 0.46875,1.136719 v 4.1249999 c 0,0.2285157 -0.04102,0.4394532 -0.117188,0.6328125 -0.0791,0.1962891 -0.193359,0.3632813 -0.339844,0.5039063 l -0.08203,0.058594 0.02344,0.1171875 v 5.92968754 c 0,0.24316406 -0.09082,0.44824218 -0.269532,0.62109375 -0.18164,0.17871093 -0.398437,0.26953125 -0.65625,0.26953125 -0.228515,0 -0.427734,-0.0761719 -0.597656,-0.22265625 -0.172851,-0.14941407 -0.27539,-0.33398438 -0.304687,-0.5625 L 19.39453,-0.44537226 V -6.0820903 h -6.761718 c -0.416016,0 -0.779297,-0.140625 -1.089844,-0.421875 -0.304688,-0.2871094 -0.47461,-0.6386719 -0.503906,-1.0546875 v -1.265625 H 2.0625 v 8.37890624 c 0,0.24316406 -0.09082,0.44824218 -0.2695313,0.62109375 -0.1816406,0.17871093 -0.3984375,0.26953125 -0.65625,0.26953125 -0.22851557,0 -0.42773433,-0.0761719 -0.5976562,-0.22265625 -0.17285156,-0.14941407 -0.27539062,-0.33398438 -0.3046875,-0.5625 V -12.152403 c 0,-0.0293 0,-0.05859 0,-0.08203 0,-0.0293 0,-0.06152 0,-0.09375 0,-0.0293 0,-0.05859 0,-0.08203 0,-0.0293 0,-0.06152 0,-0.09375 0,-0.225586 0.0732422,-0.427735 0.22265625,-0.609375 0.15527344,-0.178711 0.34570313,-0.275391 0.57421875,-0.292969 l 0.1054687,-0.02344 h 0.234375 v -4.183593 c 0,-0.225586 0.076172,-0.424805 0.234375,-0.597657 0.1640625,-0.169921 0.3515625,-0.272461 0.5625001,-0.304687 h 2.4023437 c 0.076172,0 0.1552734,0.0088 0.234375,0.02344 0.076172,0.01758 0.1523437,0.04395 0.2226562,0.08203 0.038086,-0.0293 0.087891,-0.05273 0.1523438,-0.07031 0.070312,-0.02344 0.1318359,-0.04102 0.1875,-0.05859 h 2.390625 c 0.2109375,0 0.3925781,0.06445 0.5507813,0.1875 0.1640625,0.117188 0.2724609,0.269532 0.328125,0.457032 l 1.7226562,-0.820313 c 0.210938,-0.08496 0.424805,-0.09375 0.644531,-0.02344 0.225586,0.06445 0.392578,0.196289 0.503907,0.398437 z m 8.425781,6.761719 h -7.066406 v 1.8046874 c 0,0.017578 0,0.023437 0,0.023437 v 1.8398438 h 7.066406 z m -2.367188,0.902344 c 0.257813,0 0.47461,0.09082 0.65625,0.269531 0.178711,0.181641 0.269531,0.398437 0.269531,0.6562499 0,0.2285157 -0.0791,0.4306641 -0.234375,0.609375 -0.158203,0.1816407 -0.348632,0.2783203 -0.574218,0.2929688 l -0.117188,0.023437 h -2.273437 c -0.243164,0 -0.454102,-0.087891 -0.632813,-0.2695313 -0.18164,-0.1787109 -0.269531,-0.3984375 -0.269531,-0.65625 0,-0.234375 0.07324,-0.4365234 0.222656,-0.6093754 0.155274,-0.178711 0.345703,-0.275391 0.574219,-0.292969 l 0.105469,-0.02344 z m -6.527343,-0.902344 H 2.0625 v 0.902344 h 8.976563 z m 0.773437,-1.851563 -1.5,-3.222656 -0.4335937,0.199219 1.4179687,3.023437 z m -2.53125,0 -0.5976562,-1.300781 v 1.300781 z M 6.8554687,-16.687559 H 6.3984375 v 3.257812 h 0.4570312 z m -3.1992187,0 H 3.1992188 v 3.257812 H 3.65625 Z m 0,0"
         style="fill:#000000;fill-opacity:1;fill-rule:nonzero;stroke:none" />
      <path
         id="path103"
         d="m 35.334961,-9.2197856 -0.46875,-0.7382813 c 0.202148,-0.1464841 0.480469,-0.2958981 0.832031,-0.4453121 0.351563,-0.155274 0.776367,-0.234375 1.277344,-0.234375 0.632812,0 1.142578,0.146484 1.535156,0.433593 0.389649,0.2900394 0.585938,0.7031254 0.585938,1.2421879 v 3.9609375 h -0.960938 v -0.796875 c -0.164062,0.2988281 -0.416015,0.524414 -0.75,0.6796875 -0.336914,0.1552734 -0.711914,0.234375 -1.125,0.234375 -0.351562,0 -0.673828,-0.064453 -0.960937,-0.1875 -0.28125,-0.131836 -0.509766,-0.3222657 -0.679688,-0.5742188 -0.172851,-0.2490234 -0.257812,-0.5625 -0.257812,-0.9375 0,-0.5859375 0.205078,-1.0371094 0.621093,-1.359375 0.421875,-0.328125 0.996094,-0.4921875 1.722657,-0.4921875 0.319336,0 0.600586,0.043945 0.84375,0.1289063 0.240234,0.079102 0.436523,0.1699218 0.585937,0.2695312 v -0.9257812 c 0,-0.28125 -0.117187,-0.4921875 -0.351562,-0.6328125 -0.234375,-0.140625 -0.503907,-0.2109375 -0.808594,-0.2109375 -0.392578,0 -0.732422,0.076172 -1.019531,0.2226562 -0.28125,0.140625 -0.489258,0.2636719 -0.621094,0.3632813 z m 0,2.6015625 c 0,0.2988281 0.111328,0.5214843 0.339844,0.6679687 0.225586,0.1494141 0.498047,0.2226563 0.820312,0.2226563 0.47461,0 0.867188,-0.1083985 1.171875,-0.328125 0.310547,-0.225586 0.46875,-0.5917969 0.46875,-1.1015625 v -0.2226563 c -0.407226,-0.2109375 -0.864258,-0.3164062 -1.371094,-0.3164062 -0.492187,0 -0.855468,0.099609 -1.089843,0.2929687 -0.228516,0.1875 -0.339844,0.4511719 -0.339844,0.7851563 z m 4.543945,-3.9023439 h 0.902344 v -1.921875 h 0.960937 v 1.921875 h 0.902344 v 0.9023439 h -0.902344 v 4.6171875 H 40.78125 v -4.6171875 h -0.902344 z m 0,0"
         style="fill:#000000;fill-opacity:1;fill-rule:nonzero;stroke:none" />
    </g>
  </g>
</svg>
