<?xml version="1.0" encoding="UTF-8" standalone="no"?>
<!-- Created with Inkscape (http://www.inkscape.org/) -->

<svg
   version="1.1"
   id="svg1"
   width="24.453125"
   height="26.890625"
   viewBox="0 0 24.453125 26.890625"
   xmlns="http://www.w3.org/2000/svg"
   xmlns:svg="http://www.w3.org/2000/svg">
  <defs
     id="defs1" />
  <g
     id="g82"
     transform="translate(-2082.4375,-232.95703)">
    <g
       id="g103"
       aria-label="&#10;ay"
       transform="matrix(1.3333333,0,0,1.3333333,2080,258.61336)">
      <path
         id="path104"
         d="m 15.785156,-18.984434 c 0.169922,-0.169922 0.386719,-0.257813 0.644531,-0.257813 0.257813,0 0.47168,0.08789 0.644532,0.257813 l 1.464843,1.453125 c 0.169922,0.1875 0.257813,0.407226 0.257813,0.65625 0,0.251953 -0.08789,0.46875 -0.257813,0.65625 l -0.84375,0.820312 c 0.117188,0.172852 0.158204,0.363282 0.128907,0.574219 -0.02344,0.205078 -0.111328,0.383789 -0.257813,0.539063 l -1.042969,1.054687 v 3.8437502 c 0.56836,0.1875 1.042969,0.524414 1.417969,1.0078125 0.38086,0.4863281 0.597656,1.0371094 0.644531,1.6523437 v 0.1757813 c 0,0.8144531 -0.292968,1.5117187 -0.878906,2.0976562 -0.580078,0.5800782 -1.283203,0.8671875 -2.109375,0.8671875 -0.102539,0 -0.208008,-0.00293 -0.316406,-0.011719 -0.111328,-0.00586 -0.210937,-0.026367 -0.304687,-0.058594 l 0.105468,-0.082031 c -0.117187,0.1171875 -0.234375,0.2285156 -0.351562,0.328125 -0.111328,0.09375 -0.222656,0.1933594 -0.339844,0.2929687 h 4.851562 c 0.257813,0 0.47461,0.09082 0.65625,0.2695313 0.178711,0.1816406 0.269532,0.3984375 0.269532,0.65625 V -5.90625e-5 c 0,0.2578125025 -0.09082,0.4746093725 -0.269532,0.6562500025 C 19.716797,0.83490187 19.5,0.92572219 19.242187,0.92572219 H 2.7539063 c -0.2578125,0 -0.4775391,-0.0908203 -0.65625,-0.26953125 C 1.9160156,0.47455031 1.828125,0.25775344 1.828125,-5.90625e-5 V -2.1914653 c 0,-0.2578125 0.087891,-0.4746094 0.2695313,-0.65625 0.1787109,-0.178711 0.3984375,-0.2695313 0.65625,-0.2695313 H 7.6875 C 7.4765625,-3.2871684 7.2714844,-3.4717388 7.078125,-3.6680278 6.8818359,-3.8701763 6.6972656,-4.0840434 6.5273437,-4.3125591 c -0.023437,-0.046875 -0.046875,-0.09375 -0.070312,-0.140625 -0.023437,-0.052734 -0.043945,-0.099609 -0.058594,-0.140625 H 3.4335938 c -0.2578125,0 -0.4775391,-0.087891 -0.65625,-0.2695312 -0.1816407,-0.178711 -0.2695313,-0.3984375 -0.2695313,-0.65625 v -2.2617188 c 0,-0.2578125 0.087891,-0.4716797 0.2695313,-0.6445312 0.1787109,-0.178711 0.3984375,-0.2695313 0.65625,-0.2695313 h 7.1367192 c 0.257812,0 0.474609,0.09082 0.65625,0.2695313 0.17871,0.1728515 0.269531,0.3867187 0.269531,0.6445312 v 2.2617188 c 0,0.2578125 -0.09082,0.477539 -0.269531,0.65625 -0.181641,0.1816406 -0.398438,0.2695312 -0.65625,0.2695312 H 8.7421875 c 0.328125,0.2431641 0.6826172,0.4394532 1.0664063,0.5859375 0.3896482,0.140625 0.7998042,0.2109375 1.2304692,0.2109375 0.427734,0 0.83789,-0.070312 1.230468,-0.2109375 0.398438,-0.1464843 0.75293,-0.3515625 1.066407,-0.609375 -0.228516,-0.2578125 -0.404297,-0.5507812 -0.527344,-0.8789062 -0.117188,-0.328125 -0.175781,-0.6796875 -0.175781,-1.0546875 0,-0.65625 0.190429,-1.2421875 0.574218,-1.7578125 0.389649,-0.515625 0.884766,-0.8730469 1.488282,-1.078125 v -2.0156252 l -1.980469,1.9687502 c -0.172852,0.1582031 -0.375,0.243164 -0.609375,0.2578125 -0.228516,0.017578 -0.427735,-0.046875 -0.597656,-0.1875 l -0.08203,-0.070312 -2.4492185,-2.4257807 c -0.1728516,-0.1875 -0.2578125,-0.404297 -0.2578125,-0.65625 0,-0.249024 0.084961,-0.459961 0.2578125,-0.632813 l 4.8515625,-4.851562 c 0.164063,-0.155274 0.345703,-0.246094 0.550781,-0.269531 0.210938,-0.02344 0.401367,0.01758 0.574219,0.117187 z m 2.542969,17.6953124 H 3.6679688 v 0.36328129 H 18.328125 Z m -2.730469,-6.3984375 c -0.322265,0 -0.591797,0.1142578 -0.808593,0.3398438 -0.219727,0.2197265 -0.328125,0.4863281 -0.328125,0.796875 0,0.3134765 0.108398,0.5830078 0.328125,0.8085937 0.216796,0.2197266 0.486328,0.328125 0.808593,0.328125 0.310547,0 0.580078,-0.1083984 0.808594,-0.328125 0.234375,-0.2255859 0.351562,-0.4951172 0.351562,-0.8085937 0,-0.3105469 -0.117187,-0.5771485 -0.351562,-0.796875 -0.228516,-0.225586 -0.498047,-0.3398438 -0.808594,-0.3398438 z M 9.6679688,-6.8789653 H 4.359375 v 0.4335937 h 5.3085938 z m 4.8281252,-9.1874997 -3.5625,3.5625 1.136719,1.125 3.550781,-3.550782 z m 0,0"
         style="fill:#000000;fill-opacity:1;fill-rule:nonzero;stroke:none" />
      <path
         id="path105"
         d="m 35.334961,-9.2197856 -0.46875,-0.7382813 c 0.202148,-0.1464841 0.480469,-0.2958981 0.832031,-0.4453121 0.351563,-0.155274 0.776367,-0.234375 1.277344,-0.234375 0.632812,0 1.142578,0.146484 1.535156,0.433593 0.389649,0.2900394 0.585938,0.7031254 0.585938,1.2421879 v 3.9609375 h -0.960938 v -0.796875 c -0.164062,0.2988281 -0.416015,0.524414 -0.75,0.6796875 -0.336914,0.1552734 -0.711914,0.234375 -1.125,0.234375 -0.351562,0 -0.673828,-0.064453 -0.960937,-0.1875 -0.28125,-0.131836 -0.509766,-0.3222657 -0.679688,-0.5742188 -0.172851,-0.2490234 -0.257812,-0.5625 -0.257812,-0.9375 0,-0.5859375 0.205078,-1.0371094 0.621093,-1.359375 0.421875,-0.328125 0.996094,-0.4921875 1.722657,-0.4921875 0.319336,0 0.600586,0.043945 0.84375,0.1289063 0.240234,0.079102 0.436523,0.1699218 0.585937,0.2695312 v -0.9257812 c 0,-0.28125 -0.117187,-0.4921875 -0.351562,-0.6328125 -0.234375,-0.140625 -0.503907,-0.2109375 -0.808594,-0.2109375 -0.392578,0 -0.732422,0.076172 -1.019531,0.2226562 -0.28125,0.140625 -0.489258,0.2636719 -0.621094,0.3632813 z m 0,2.6015625 c 0,0.2988281 0.111328,0.5214843 0.339844,0.6679687 0.225586,0.1494141 0.498047,0.2226563 0.820312,0.2226563 0.47461,0 0.867188,-0.1083985 1.171875,-0.328125 0.310547,-0.225586 0.46875,-0.5917969 0.46875,-1.1015625 v -0.2226563 c -0.407226,-0.2109375 -0.864258,-0.3164062 -1.371094,-0.3164062 -0.492187,0 -0.855468,0.099609 -1.089843,0.2929687 -0.228516,0.1875 -0.339844,0.4511719 -0.339844,0.7851563 z m 9.770508,-3.9023439 -3.609375,8.1562501 h -1.078125 l 1.511718,-3.421875 -2.109375,-4.7343751 h 1.136719 l 1.546875,3.8085939 1.511719,-3.8085939 z m 0,0"
         style="fill:#000000;fill-opacity:1;fill-rule:nonzero;stroke:none" />
    </g>
  </g>
</svg>
