<?xml version="1.0" encoding="UTF-8" standalone="no"?>
<!-- Created with Inkscape (http://www.inkscape.org/) -->

<svg
   version="1.1"
   id="svg1"
   width="26.296875"
   height="26.265625"
   viewBox="0 0 26.296875 26.265625"
   xmlns="http://www.w3.org/2000/svg"
   xmlns:svg="http://www.w3.org/2000/svg">
  <defs
     id="defs1" />
  <g
     id="g82"
     transform="translate(-1925.5156,-353.21484)">
    <g
       id="g110"
       aria-label="&#10;au"
       transform="matrix(1.3333333,0,0,1.3333333,1924,378.56005)">
      <path
         id="path111"
         d="m 8.5664063,-19.008907 c 0.4599609,0 0.8964843,0.09082 1.3125,0.269531 0.4130857,0.181641 0.7734377,0.433594 1.0781247,0.761719 0.310547,-0.328125 0.673828,-0.580078 1.089844,-0.761719 0.413086,-0.178711 0.849609,-0.269531 1.3125,-0.269531 h 1.03125 c 0.632813,0 1.166016,0.222656 1.605469,0.667969 0.445312,0.439453 0.667968,0.972656 0.667968,1.605468 0,0.219727 -0.02344,0.427735 -0.07031,0.621094 -0.04687,0.1875 -0.123047,0.369141 -0.222656,0.539063 H 18.5625 c 0.624023,0 1.163086,0.222656 1.617187,0.667968 0.451172,0.445313 0.679688,0.981446 0.679688,1.605469 v 0.691406 c 0,0.360352 -0.0791,0.700196 -0.234375,1.019532 -0.158203,0.322265 -0.380859,0.591796 -0.667969,0.808593 0.07031,0.140625 0.120117,0.290039 0.152344,0.445313 0.03809,0.158203 0.05859,0.316406 0.05859,0.4804686 v 8.25 c 0,0.64160152 -0.222657,1.18359371 -0.667969,1.62890621 -0.439453,0.4453125 -0.972656,0.66796875 -1.605469,0.66796875 H 4.1015625 c -0.6328125,0 -1.171875,-0.22265625 -1.6171875,-0.66796875 -0.4394531,-0.4453125 -0.65625,-0.98730469 -0.65625,-1.62890621 v -8.25 c 0,-0.1640626 0.014648,-0.3222656 0.046875,-0.4804686 0.038086,-0.155274 0.09375,-0.304688 0.1640625,-0.445313 -0.2900391,-0.216797 -0.5126953,-0.486328 -0.6679688,-0.808593 -0.1582031,-0.319336 -0.234375,-0.65918 -0.234375,-1.019532 v -0.691406 c 0,-0.624023 0.225586,-1.160156 0.6796875,-1.605469 0.4511719,-0.445312 0.9902344,-0.667968 1.6171876,-0.667968 h 2.1328124 c -0.102539,-0.169922 -0.1816406,-0.351563 -0.234375,-0.539063 -0.046875,-0.193359 -0.070312,-0.401367 -0.070312,-0.621094 0,-0.600586 0.2021485,-1.11914 0.609375,-1.558593 0.413086,-0.436524 0.9199219,-0.673829 1.5234375,-0.714844 z m 1.4882817,8.695312 H 4.1015625 c -0.1025391,0 -0.1962891,0.03516 -0.28125,0.105469 -0.087891,0.07031 -0.1376953,0.158203 -0.1523437,0.2578126 l -0.011719,0.09375 v 8.25 c 0,0.1113281 0.035156,0.2080078 0.1054688,0.2929687 0.070312,0.087891 0.1640625,0.1376953 0.2812499,0.1523438 l 0.058594,0.023437 h 5.9531255 z m 1.828125,0 v 9.1757816 h 6.011718 c 0.09961,0 0.19336,-0.035156 0.28125,-0.1054688 0.08496,-0.070312 0.134766,-0.1640625 0.152344,-0.28125 l 0.01172,-0.082031 v -8.25 c 0,-0.1171875 -0.03516,-0.2138678 -0.105469,-0.2929688 -0.07031,-0.07617 -0.164063,-0.131836 -0.28125,-0.164063 z m -1.828125,-3.433593 H 3.4335938 c -0.1113282,0 -0.2080079,0.03516 -0.2929688,0.105468 -0.087891,0.07031 -0.1376953,0.158203 -0.1523437,0.257813 l -0.023437,0.08203 v 0.691406 c 0,0.117188 0.035156,0.219727 0.1054687,0.304688 0.070312,0.08789 0.1640625,0.137695 0.28125,0.152344 l 0.082031,0.01172 h 6.621094 z m 8.507812,0 h -6.679687 v 1.605468 H 18.5625 c 0.108398,0 0.205078,-0.03516 0.292969,-0.105468 0.08496,-0.07031 0.134765,-0.164063 0.152343,-0.28125 l 0.02344,-0.08203 v -0.691406 c 0,-0.123047 -0.04687,-0.228516 -0.140625,-0.316406 -0.09375,-0.08496 -0.205078,-0.128906 -0.328125,-0.128906 z M 8.5664063,-17.180782 H 7.5351562 c -0.1259765,0 -0.2314453,0.04395 -0.3164062,0.128906 -0.087891,0.08789 -0.1289063,0.193359 -0.1289063,0.316406 0,0.102539 0.026367,0.19336 0.082031,0.269532 0.061523,0.0791 0.1347656,0.140625 0.2226562,0.1875 h 0.058594 l 0.082031,0.01172 H 9.925781 C 9.8232419,-16.53039 9.6474606,-16.750116 9.3984372,-16.922968 9.1464841,-17.09289 8.8710935,-17.18078 8.566406,-17.18078 Z m 4.7929687,0 c -0.313477,0 -0.594727,0.08789 -0.84375,0.257812 -0.243164,0.172852 -0.418945,0.392578 -0.527344,0.65625 h 2.402344 c 0.117188,0 0.222656,-0.04102 0.316406,-0.128906 0.09375,-0.09375 0.140625,-0.205078 0.140625,-0.339844 0,-0.123047 -0.04687,-0.228515 -0.140625,-0.316406 -0.09375,-0.08496 -0.199218,-0.128906 -0.316406,-0.128906 z m 0,0"
         style="fill:#000000;fill-opacity:1;fill-rule:nonzero;stroke:none" />
      <path
         id="path112"
         d="m 35.334961,-9.2178916 -0.46875,-0.7382812 c 0.202148,-0.1464842 0.480469,-0.2958982 0.832031,-0.4453122 0.351563,-0.155274 0.776367,-0.234375 1.277344,-0.234375 0.632812,0 1.142578,0.146484 1.535156,0.433593 0.389649,0.2900395 0.585938,0.7031254 0.585938,1.2421879 v 3.9609375 h -0.960938 v -0.796875 c -0.164062,0.2988282 -0.416015,0.5244141 -0.75,0.6796875 -0.336914,0.1552735 -0.711914,0.234375 -1.125,0.234375 -0.351562,0 -0.673828,-0.064453 -0.960937,-0.1875 -0.28125,-0.1318359 -0.509766,-0.3222656 -0.679688,-0.5742187 -0.172851,-0.2490235 -0.257812,-0.5625 -0.257812,-0.9375 0,-0.5859375 0.205078,-1.0371094 0.621093,-1.359375 0.421875,-0.328125 0.996094,-0.4921875 1.722657,-0.4921875 0.319336,0 0.600586,0.043945 0.84375,0.1289062 0.240234,0.079102 0.436523,0.1699219 0.585937,0.2695313 v -0.9257813 c 0,-0.28125 -0.117187,-0.4921875 -0.351562,-0.6328125 -0.234375,-0.140625 -0.503907,-0.2109375 -0.808594,-0.2109375 -0.392578,0 -0.732422,0.076172 -1.019531,0.2226563 -0.28125,0.140625 -0.489258,0.2636719 -0.621094,0.3632812 z m 0,2.6015625 c 0,0.2988282 0.111328,0.5214844 0.339844,0.6679688 0.225586,0.149414 0.498047,0.2226562 0.820312,0.2226562 0.47461,0 0.867188,-0.1083984 1.171875,-0.328125 0.310547,-0.2255859 0.46875,-0.5917968 0.46875,-1.1015625 v -0.2226562 c -0.407226,-0.2109375 -0.864258,-0.3164063 -1.371094,-0.3164063 -0.492187,0 -0.855468,0.099609 -1.089843,0.2929688 -0.228516,0.1875 -0.339844,0.4511719 -0.339844,0.7851562 z m 6.348633,-0.5390625 c 0,0.9140625 0.389648,1.3710938 1.171875,1.3710938 0.421875,0 0.761718,-0.1289063 1.019531,-0.3867188 0.257812,-0.2636718 0.386719,-0.5917968 0.386719,-0.984375 v -3.3632814 h 0.960937 v 5.5195314 h -0.960937 v -0.8789062 c -0.172852,0.3046875 -0.398438,0.5478515 -0.679688,0.7265625 -0.28125,0.1787109 -0.603515,0.2695312 -0.960937,0.2695312 -0.571289,0 -1.03125,-0.1787109 -1.382813,-0.5390625 -0.345703,-0.3662109 -0.515625,-0.9052734 -0.515625,-1.6171875 v -3.4804689 h 0.960938 z m 0,0"
         style="fill:#000000;fill-opacity:1;fill-rule:nonzero;stroke:none" />
    </g>
  </g>
</svg>
