<?xml version="1.0" encoding="UTF-8" standalone="no"?>
<!-- Created with Inkscape (http://www.inkscape.org/) -->

<svg
   version="1.1"
   id="svg1"
   width="24.664045"
   height="23.837862"
   viewBox="0 0 24.664045 23.837862"
   xmlns="http://www.w3.org/2000/svg"
   xmlns:svg="http://www.w3.org/2000/svg">
  <defs
     id="defs1" />
  <g
     id="g82"
     transform="translate(-2082.3253,-354.42878)">
    <g
       id="g112"
       aria-label="&#10;ai"
       transform="matrix(1.3333333,0,0,1.3333333,2080,378.56005)">
      <path
         id="path113"
         d="m 12.65625,-16.887813 c 0.451172,-0.427735 0.960938,-0.741211 1.523438,-0.9375 0.568359,-0.202149 1.139648,-0.292969 1.710937,-0.269532 0.577148,0.01758 1.142578,0.149414 1.699219,0.398438 0.544922,0.228515 1.02539,0.571289 1.441406,1.03125 0.427734,0.454101 0.744141,0.960937 0.949219,1.523437 0.193359,0.571289 0.28125,1.145508 0.257812,1.722657 -0.01758,0.571289 -0.137695,1.125 -0.363281,1.664062 -0.251953,0.5625 -0.603516,1.051758 -1.054688,1.464844 L 9.3398438,-1.4425009 C 8.8857422,-1.0118369 8.3789063,-0.69543063 7.8164062,-0.49328219 7.2451172,-0.28820406 6.6708984,-0.20031344 6.09375,-0.22375094 5.5224609,-0.24718844 4.9599609,-0.37902438 4.40625,-0.62218844 3.8583984,-0.86242281 3.3779297,-1.2139853 2.9648438,-1.6768759 2.5341797,-2.1221884 2.2177734,-2.6290244 2.015625,-3.2003134 c -0.1962891,-0.5625 -0.2871094,-1.1308594 -0.2695313,-1.7109375 0.023437,-0.5771485 0.1464844,-1.1396485 0.3750001,-1.6875 0.2490234,-0.5390625 0.6005859,-1.022461 1.0546875,-1.453125 z m -4.125,6.363281 -4.1015625,3.8203123 c -0.5478516,0.5009766 -0.8378906,1.125 -0.8671875,1.875 -0.023437,0.7441406 0.2226563,1.3798828 0.7382812,1.9101563 0.4980469,0.5390625 1.1191407,0.8261718 1.8632813,0.8554687 0.7412109,0.032227 1.3857422,-0.2021484 1.9335938,-0.703125 l 4.0546877,-3.8085937 z m 2.449219,3.4101561 c 0.155273,0.1728515 0.228515,0.3808593 0.222656,0.6210937 -0.0088,0.234375 -0.08203,0.4394531 -0.222656,0.609375 l -0.09375,0.058594 -3.4101565,2.9882812 C 7.2714844,-2.6641806 7.0458984,-2.5850791 6.796875,-2.6026572 6.5449219,-2.6260947 6.3427734,-2.7315634 6.1875,-2.9190634 c -0.1582031,-0.1699219 -0.234375,-0.375 -0.234375,-0.609375 0,-0.2402344 0.076172,-0.4394532 0.234375,-0.5976563 l 0.082031,-0.082031 3.4218751,-2.9882813 c 0.1933593,-0.1699219 0.4160159,-0.2460937 0.6679689,-0.2226562 0.257813,0.017578 0.462891,0.1171875 0.621094,0.3046873 z m 6.714843,-8.3085941 c -0.500976,-0.544922 -1.12207,-0.826172 -1.863281,-0.84375 -0.74414,-0.02344 -1.388672,0.216797 -1.933593,0.714844 l -4.0429692,3.785156 3.6562502,3.9492191 4.054687,-3.8085941 c 0.515625,-0.483398 0.796875,-1.078125 0.84375,-1.78125 0.05273,-0.708984 -0.140625,-1.338867 -0.585937,-1.886718 z m 0,0"
         style="fill:#000000;fill-opacity:1;fill-rule:nonzero;stroke:none" />
      <path
         id="path114"
         d="m 35.334961,-9.2178916 -0.46875,-0.7382812 c 0.202148,-0.1464842 0.480469,-0.2958982 0.832031,-0.4453122 0.351563,-0.155274 0.776367,-0.234375 1.277344,-0.234375 0.632812,0 1.142578,0.146484 1.535156,0.433593 0.389649,0.2900395 0.585938,0.7031254 0.585938,1.2421879 v 3.9609375 h -0.960938 v -0.796875 c -0.164062,0.2988282 -0.416015,0.5244141 -0.75,0.6796875 -0.336914,0.1552735 -0.711914,0.234375 -1.125,0.234375 -0.351562,0 -0.673828,-0.064453 -0.960937,-0.1875 -0.28125,-0.1318359 -0.509766,-0.3222656 -0.679688,-0.5742187 -0.172851,-0.2490235 -0.257812,-0.5625 -0.257812,-0.9375 0,-0.5859375 0.205078,-1.0371094 0.621093,-1.359375 0.421875,-0.328125 0.996094,-0.4921875 1.722657,-0.4921875 0.319336,0 0.600586,0.043945 0.84375,0.1289062 0.240234,0.079102 0.436523,0.1699219 0.585937,0.2695313 v -0.9257813 c 0,-0.28125 -0.117187,-0.4921875 -0.351562,-0.6328125 -0.234375,-0.140625 -0.503907,-0.2109375 -0.808594,-0.2109375 -0.392578,0 -0.732422,0.076172 -1.019531,0.2226563 -0.28125,0.140625 -0.489258,0.2636719 -0.621094,0.3632812 z m 0,2.6015625 c 0,0.2988282 0.111328,0.5214844 0.339844,0.6679688 0.225586,0.149414 0.498047,0.2226562 0.820312,0.2226562 0.47461,0 0.867188,-0.1083984 1.171875,-0.328125 0.310547,-0.2255859 0.46875,-0.5917968 0.46875,-1.1015625 v -0.2226562 c -0.407226,-0.2109375 -0.864258,-0.3164063 -1.371094,-0.3164063 -0.492187,0 -0.855468,0.099609 -1.089843,0.2929688 -0.228516,0.1875 -0.339844,0.4511719 -0.339844,0.7851562 z m 5.387695,-6.1874999 c 0,-0.178711 0.06445,-0.331055 0.199219,-0.457031 0.131836,-0.131836 0.28418,-0.199219 0.457031,-0.199219 0.1875,0 0.342774,0.06738 0.46875,0.199219 0.123047,0.125976 0.1875,0.27832 0.1875,0.457031 0,0.181641 -0.06445,0.336914 -0.1875,0.46875 -0.125976,0.134766 -0.28125,0.199219 -0.46875,0.199219 -0.172851,0 -0.325195,-0.06445 -0.457031,-0.199219 -0.134766,-0.131836 -0.199219,-0.287109 -0.199219,-0.46875 z m 0.175781,2.285156 h 0.960938 v 5.5195314 h -0.960938 z m 0,0"
         style="fill:#000000;fill-opacity:1;fill-rule:nonzero;stroke:none" />
    </g>
  </g>
</svg>
