<?xml version="1.0" encoding="UTF-8" standalone="no"?>
<!-- Created with Inkscape (http://www.inkscape.org/) -->

<svg
   version="1.1"
   id="svg1"
   width="24.453127"
   height="24.4375"
   viewBox="0 0 24.453127 24.4375"
   xmlns="http://www.w3.org/2000/svg"
   xmlns:svg="http://www.w3.org/2000/svg">
  <defs
     id="defs1" />
  <g
     id="g82"
     transform="translate(-2238.4375,-354.12109)">
    <g
       id="g114"
       aria-label="î†&#10;ao"
       transform="matrix(1.3333333,0,0,1.3333333,2236,378.56005)">
      <path
         id="path115"
         d="m 10.875,-18.32922 c 0.585938,0 1.089844,0.216797 1.511719,0.644532 0.421875,0.421875 0.632812,0.93457 0.632812,1.535156 0,0.571289 -0.196289,1.063476 -0.585937,1.476562 -0.383789,0.416016 -0.855469,0.644532 -1.417969,0.691407 h -0.9375 v 1.394531 c 0,0.641601 0.298828,1.297851 0.902344,1.96875 0.600586,0.6650389 1.529297,1.3330076 2.789062,2.0039061 l 0.28125,0.1523437 c 0.07031,0.023437 0.140625,0.035156 0.210938,0.035156 0.07031,0 0.140625,-0.011719 0.210937,-0.035156 1.280274,-0.6708984 2.232422,-1.3417969 2.859375,-2.0156248 0.632813,-0.679688 0.966797,-1.330078 1.007813,-1.957031 v -1.546875 h -0.75 c -0.571289,0 -1.063477,-0.19336 -1.476563,-0.585938 -0.407226,-0.398437 -0.629883,-0.878906 -0.667968,-1.441406 v -0.140625 c 0,-0.577149 0.190429,-1.072266 0.574218,-1.488281 0.389649,-0.413086 0.870117,-0.644532 1.441406,-0.691407 h 1.78125 c 0.249024,0 0.459961,0.0791 0.632813,0.234375 0.169922,0.149414 0.260742,0.336914 0.269531,0.5625 l 0.02344,0.105469 v 4.839844 c 0,0.547851 -0.105469,1.075195 -0.316407,1.582031 -0.205078,0.509766 -0.509765,1.001953 -0.914062,1.4765626 -0.407227,0.477539 -0.911133,0.9375 -1.511719,1.3828125 -0.603515,0.4453125 -1.30664,0.8759765 -2.109375,1.2890625 l -0.105468,0.070312 v 2.4257812 c 0,1.03125 -0.369141,1.9160156 -1.101563,2.6484375 -0.726562,0.72656251 -1.605469,1.08984376 -2.636719,1.08984376 -1.001953,0 -1.8603513,-0.34277344 -2.5781247,-1.03124996 C 8.1738281,-2.3389853 7.7958984,-3.1798056 7.7578125,-4.1729697 l -0.023437,-0.1875 v -0.7148437 c 0,-0.366211 -0.1289063,-0.6826172 -0.3867188,-0.9492188 C 7.0898437,-6.2882041 6.7646484,-6.4229697 6.375,-6.4229697 c -0.3457031,0 -0.6445313,0.1171875 -0.9023438,0.3515625 -0.2578125,0.234375 -0.3984375,0.5244141 -0.421875,0.8671875 v 0.796875 c 0.3984375,0.1875 0.7265625,0.46875 0.984375,0.84375 0.2578125,0.3691406 0.3867188,0.7910156 0.3867188,1.265625 0,0.6416016 -0.2285156,1.1835938 -0.6796875,1.62890626 -0.4453125,0.4453125 -0.984375,0.66796875 -1.6171875,0.66796875 -0.6328125,0 -1.1777344,-0.22265625 -1.6289062,-0.66796875 C 2.0507813,-1.1143759 1.828125,-1.6563681 1.828125,-2.2979697 c 0,-0.4599609 0.1289062,-0.8789062 0.3867188,-1.2539062 0.2578125,-0.3808594 0.5859375,-0.6591797 0.984375,-0.8320313 v -0.6914062 c 0,-0.881836 0.3105468,-1.631836 0.9374999,-2.25 0.6240235,-0.6152344 1.3710938,-0.9257813 2.2382813,-0.9257813 0.8583984,0 1.59375,0.2929688 2.203125,0.8789063 0.609375,0.5800781 0.9375,1.2890625 0.984375,2.1328125 l 0.023437,0.1640625 v 0.7148437 c 0,0.5332031 0.1816406,0.984375 0.550781,1.359375 0.375,0.3691406 0.820312,0.5507813 1.335937,0.5507813 0.498047,0 0.928711,-0.1699219 1.289063,-0.515625 0.366211,-0.3427735 0.574219,-0.7558594 0.621094,-1.2421875 v -2.5546875 c -0.03223,-0.014648 -0.06445,-0.026367 -0.09375,-0.035156 -0.02344,-0.00586 -0.04395,-0.017578 -0.05859,-0.035156 -0.805664,-0.413086 -1.508789,-0.834961 -2.109375,-1.265625 C 10.526367,-8.5264853 10.013672,-8.9688681 9.5859375,-9.4229697 9.1640625,-9.8829306 8.8476563,-10.366329 8.6367188,-10.876095 8.4082031,-11.359493 8.2792969,-11.86047 8.25,-12.376095 v -5.050781 c 0,-0.225586 0.076172,-0.424805 0.234375,-0.597656 0.1552734,-0.169922 0.3427734,-0.272461 0.5625,-0.304688 z m -6.75,15.5742191 c -0.1347656,0 -0.2431641,0.043945 -0.328125,0.1289062 -0.087891,0.087891 -0.1289062,0.1962891 -0.1289062,0.328125 0,0.1259766 0.041016,0.234375 0.1289062,0.328125 0.084961,0.09375 0.1933594,0.140625 0.328125,0.140625 0.1230469,0 0.2285156,-0.046875 0.3164062,-0.140625 0.084961,-0.09375 0.1289063,-0.2021484 0.1289063,-0.328125 0,-0.1318359 -0.043945,-0.2402344 -0.1289063,-0.328125 C 4.3535156,-2.7110556 4.2480469,-2.7550009 4.125,-2.7550009 Z M 18.339844,-16.501095 h -0.75 c -0.07031,0 -0.137696,0.0293 -0.199219,0.08203 -0.06445,0.04687 -0.102539,0.114257 -0.117188,0.199218 v 0.07031 c 0,0.08789 0.02344,0.161133 0.07031,0.222656 0.05273,0.06445 0.117187,0.102539 0.1875,0.117188 h 0.808594 z m -7.464844,0 h -0.796875 v 0.691407 H 10.875 c 0.08496,0 0.164063,-0.0293 0.234375,-0.09375 0.07031,-0.07031 0.105469,-0.152344 0.105469,-0.246094 0,-0.08496 -0.03223,-0.158203 -0.09375,-0.222656 -0.05566,-0.07031 -0.117188,-0.111329 -0.1875,-0.128907 z m 0,0"
         style="fill:#000000;fill-opacity:1;fill-rule:nonzero;stroke:none" />
      <path
         id="path116"
         d="m 35.334961,-9.2178916 -0.46875,-0.7382812 c 0.202148,-0.1464842 0.480469,-0.2958982 0.832031,-0.4453122 0.351563,-0.155274 0.776367,-0.234375 1.277344,-0.234375 0.632812,0 1.142578,0.146484 1.535156,0.433593 0.389649,0.2900395 0.585938,0.7031254 0.585938,1.2421879 v 3.9609375 h -0.960938 v -0.796875 c -0.164062,0.2988282 -0.416015,0.5244141 -0.75,0.6796875 -0.336914,0.1552735 -0.711914,0.234375 -1.125,0.234375 -0.351562,0 -0.673828,-0.064453 -0.960937,-0.1875 -0.28125,-0.1318359 -0.509766,-0.3222656 -0.679688,-0.5742187 -0.172851,-0.2490235 -0.257812,-0.5625 -0.257812,-0.9375 0,-0.5859375 0.205078,-1.0371094 0.621093,-1.359375 0.421875,-0.328125 0.996094,-0.4921875 1.722657,-0.4921875 0.319336,0 0.600586,0.043945 0.84375,0.1289062 0.240234,0.079102 0.436523,0.1699219 0.585937,0.2695313 v -0.9257813 c 0,-0.28125 -0.117187,-0.4921875 -0.351562,-0.6328125 -0.234375,-0.140625 -0.503907,-0.2109375 -0.808594,-0.2109375 -0.392578,0 -0.732422,0.076172 -1.019531,0.2226563 -0.28125,0.140625 -0.489258,0.2636719 -0.621094,0.3632812 z m 0,2.6015625 c 0,0.2988282 0.111328,0.5214844 0.339844,0.6679688 0.225586,0.149414 0.498047,0.2226562 0.820312,0.2226562 0.47461,0 0.867188,-0.1083984 1.171875,-0.328125 0.310547,-0.2255859 0.46875,-0.5917968 0.46875,-1.1015625 v -0.2226562 c -0.407226,-0.2109375 -0.864258,-0.3164063 -1.371094,-0.3164063 -0.492187,0 -0.855468,0.099609 -1.089843,0.2929688 -0.228516,0.1875 -0.339844,0.4511719 -0.339844,0.7851562 z m 4.907226,-1.1484375 c 0,-0.5537109 0.123047,-1.0458984 0.375,-1.4765625 0.249024,-0.4365234 0.588868,-0.7763669 1.019532,-1.0195309 0.436523,-0.249024 0.925781,-0.375 1.464843,-0.375 0.539063,0 1.022461,0.125976 1.453125,0.375 0.427735,0.243164 0.767579,0.5830075 1.019532,1.0195309 0.249023,0.4306641 0.375,0.9228516 0.375,1.4765625 0,0.5566407 -0.125977,1.0517578 -0.375,1.4882813 -0.251953,0.4394531 -0.591797,0.7822265 -1.019532,1.03125 -0.430664,0.243164 -0.914062,0.3632812 -1.453125,0.3632812 -0.539062,0 -1.02832,-0.1201172 -1.464843,-0.3632812 -0.430664,-0.2490235 -0.770508,-0.5917969 -1.019532,-1.03125 -0.251953,-0.4365235 -0.375,-0.9316406 -0.375,-1.4882813 z m 0.972657,0 c 0,0.3925782 0.08203,0.7353516 0.246093,1.03125 0.164063,0.2900391 0.386719,0.5214844 0.667969,0.6914063 0.28125,0.1728515 0.603516,0.2578125 0.972656,0.2578125 0.357422,0 0.679688,-0.084961 0.960938,-0.2578125 0.28125,-0.1699219 0.503906,-0.4013672 0.667969,-0.6914063 0.164062,-0.2958984 0.246093,-0.6386718 0.246093,-1.03125 0,-0.3808593 -0.08203,-0.7207031 -0.246093,-1.0195312 -0.164063,-0.2958985 -0.386719,-0.5273438 -0.667969,-0.6914063 -0.28125,-0.1699218 -0.603516,-0.2578125 -0.960938,-0.2578125 -0.36914,0 -0.691406,0.087891 -0.972656,0.2578125 -0.28125,0.1640625 -0.503906,0.3955078 -0.667969,0.6914063 -0.164062,0.2988281 -0.246093,0.6386719 -0.246093,1.0195312 z m 0,0"
         style="fill:#000000;fill-opacity:1;fill-rule:nonzero;stroke:none" />
    </g>
  </g>
</svg>
