<?xml version="1.0" encoding="UTF-8" standalone="no"?>
<!-- Created with Inkscape (http://www.inkscape.org/) -->

<svg
   version="1.1"
   id="svg1"
   width="28.140619"
   height="28.093748"
   viewBox="0 0 28.140619 28.093748"
   xmlns="http://www.w3.org/2000/svg"
   xmlns:svg="http://www.w3.org/2000/svg">
  <defs
     id="defs1" />
  <g
     id="g82"
     transform="translate(-1768.5937,-397.62891)">
    <g
       id="g116"
       aria-label="&#10;ap"
       transform="matrix(1.3333333,0,0,1.3333333,1768,423.89339)">
      <path
         id="path117"
         d="m 8.9414063,-19.69836 c 0.6005859,0 1.1630857,0.114258 1.6874997,0.339843 0.530274,0.234375 0.990235,0.550782 1.382813,0.949219 0.398437,0.392578 0.708984,0.84375 0.9375,1.359375 0.234375,0.524414 0.351562,1.086914 0.351562,1.6875 0,0.603516 -0.117187,1.168946 -0.351562,1.699219 -0.228516,0.533203 -0.539063,0.996094 -0.9375,1.394531 -0.392578,0.392578 -0.852539,0.700196 -1.382813,0.925781 -0.524414,0.228516 -1.0869138,0.339844 -1.6874997,0.339844 H 7.7929687 v 1.4882814 c 0,1.1484375 0.3896485,2.1328125 1.1718751,2.953125 0.7792968,0.8144532 1.7373042,1.2392579 2.8710942,1.2773438 l 0.1875,0.023437 H 14.4375 c 0.483398,0 0.902344,-0.1640625 1.253906,-0.4921875 0.351563,-0.328125 0.541992,-0.7294922 0.574219,-1.2070313 v -1.9804687 h -0.117188 c -0.884765,0 -1.646484,-0.2988281 -2.285156,-0.9023438 -0.632812,-0.6093759 -0.972656,-1.3505859 -1.019531,-2.2265629 l -0.02344,-0.199219 c 0,-0.914062 0.322265,-1.690429 0.972656,-2.332031 0.65625,-0.647461 1.441406,-0.972656 2.355468,-0.972656 h 2.0625 c 0.919922,0 1.705079,0.325195 2.355469,0.972656 0.65625,0.641602 0.984375,1.417969 0.984375,2.332031 0,0.922852 -0.328125,1.708008 -0.984375,2.3554694 -0.65039,0.6503907 -1.435547,0.9726563 -2.355469,0.9726563 h -0.105468 v 1.828125 c 0,0.3457031 -0.04395,0.6738281 -0.128907,0.984375 -0.08789,0.3046875 -0.208007,0.5947266 -0.363281,0.8671875 h 1.628906 c 0.333985,0 0.588868,0.1376953 0.761719,0.4101562 0.178711,0.2753907 0.205078,0.5595704 0.08203,0.8554688 l -2.0625,4.81640624 C 17.953125,0.99109281 17.838867,1.1258584 17.683594,1.2196084 17.53418,1.3192178 17.367187,1.3719522 17.179687,1.3719522 H 4.8164062 c -0.1875,0 -0.3603515,-0.052734 -0.515625,-0.1523438 C 4.1513672,1.1258584 4.0429687,0.99109281 3.9726563,0.82117094 L 1.9101562,-3.9952353 C 1.7841797,-4.2911337 1.8076172,-4.5753134 1.9804687,-4.8507041 2.1591797,-5.123165 2.4169922,-5.2608603 2.7539063,-5.2608603 H 7.6875 C 7.2890625,-5.6739462 6.9521484,-6.1309775 6.6796875,-6.6319541 6.4042969,-7.13879 6.2050781,-7.6778525 6.0820312,-8.2491416 H 6.1875 c -0.7910156,0 -1.4736328,-0.2695312 -2.0507813,-0.8085937 -0.571289,-0.5449219 -0.8759765,-1.2128907 -0.9140624,-2.0039067 l -0.023437,-0.175781 v -0.05859 C 2.3935547,-11.606563 1.734375,-12.128048 1.21875,-12.85461 c -0.515625,-0.732422 -0.7734375,-1.570313 -0.7734375,-2.507813 0,-0.600586 0.1171875,-1.163086 0.3515625,-1.6875 0.2255859,-0.515625 0.5332031,-0.966797 0.9257812,-1.359375 0.3984376,-0.398437 0.8613282,-0.714844 1.3945313,-0.949219 0.5302734,-0.225585 1.0957031,-0.339843 1.6992187,-0.339843 z M 17.847656,-3.4327353 H 4.1484375 l 1.265625,2.98828124 H 16.582031 Z M 5.953125,-10.100704 v -0.902344 H 5.0742187 c 0.038086,0.234375 0.140625,0.430664 0.3046875,0.585938 0.1640625,0.158203 0.3544922,0.263672 0.5742188,0.316406 z m 12.257812,-3.644531 h -2.0625 c -0.416015,0 -0.767578,0.149414 -1.054687,0.445312 -0.28125,0.290039 -0.421875,0.632813 -0.421875,1.03125 0,0.421875 0.140625,0.782227 0.421875,1.078125 0.287109,0.290039 0.638672,0.433594 1.054687,0.433594 h 2.0625 c 0.421875,0 0.773438,-0.143555 1.054688,-0.433594 0.287109,-0.295898 0.433594,-0.65625 0.433594,-1.078125 0,-0.398437 -0.146485,-0.741211 -0.433594,-1.03125 -0.28125,-0.295898 -0.632813,-0.445312 -1.054688,-0.445312 z m -9.2695307,-4.125 H 4.8164062 c -0.703125,0 -1.3007812,0.246093 -1.7929687,0.738281 -0.4863281,0.492187 -0.7265625,1.083984 -0.7265625,1.769531 0,0.703125 0.2402344,1.306641 0.7265625,1.804688 0.4921875,0.492187 1.0898437,0.738281 1.7929687,0.738281 h 4.1250001 c 0.6943359,0 1.2832027,-0.246094 1.7695317,-0.738281 0.492187,-0.498047 0.738281,-1.101563 0.738281,-1.804688 0,-0.685547 -0.246094,-1.277344 -0.738281,-1.769531 -0.486329,-0.492188 -1.0751958,-0.738281 -1.7695317,-0.738281 z m 0,0"
         style="fill:#000000;fill-opacity:1;fill-rule:nonzero;stroke:none" />
      <path
         id="path118"
         d="m 35.334961,-9.2188681 -0.46875,-0.7382813 c 0.202148,-0.1464846 0.480469,-0.2958986 0.832031,-0.4453126 0.351563,-0.155273 0.776367,-0.234375 1.277344,-0.234375 0.632812,0 1.142578,0.146485 1.535156,0.433594 0.389649,0.2900389 0.585938,0.7031249 0.585938,1.2421874 v 3.9609375 h -0.960938 v -0.796875 c -0.164062,0.2988281 -0.416015,0.524414 -0.75,0.6796875 -0.336914,0.1552734 -0.711914,0.234375 -1.125,0.234375 -0.351562,0 -0.673828,-0.064453 -0.960937,-0.1875 -0.28125,-0.131836 -0.509766,-0.3222656 -0.679688,-0.5742188 -0.172851,-0.2490234 -0.257812,-0.5625 -0.257812,-0.9375 0,-0.5859375 0.205078,-1.0371093 0.621093,-1.359375 0.421875,-0.328125 0.996094,-0.4921875 1.722657,-0.4921875 0.319336,0 0.600586,0.043945 0.84375,0.1289063 0.240234,0.079102 0.436523,0.1699219 0.585937,0.2695312 v -0.9257812 c 0,-0.28125 -0.117187,-0.4921875 -0.351562,-0.6328125 -0.234375,-0.140625 -0.503907,-0.2109375 -0.808594,-0.2109375 -0.392578,0 -0.732422,0.076172 -1.019531,0.2226562 -0.28125,0.140625 -0.489258,0.2636719 -0.621094,0.3632813 z m 0,2.6015625 c 0,0.2988281 0.111328,0.5214844 0.339844,0.6679687 0.225586,0.1494141 0.498047,0.2226563 0.820312,0.2226563 0.47461,0 0.867188,-0.1083985 1.171875,-0.328125 0.310547,-0.225586 0.46875,-0.5917969 0.46875,-1.1015625 v -0.2226563 c -0.407226,-0.2109375 -0.864258,-0.3164062 -1.371094,-0.3164062 -0.492187,0 -0.855468,0.099609 -1.089843,0.2929687 -0.228516,0.1875 -0.339844,0.4511719 -0.339844,0.7851563 z M 41.625,-2.3633994 H 40.664062 V -10.519649 H 41.625 v 0.9492184 c 0.193359,-0.3427735 0.451172,-0.6035154 0.773437,-0.7851564 0.328125,-0.1875 0.694336,-0.28125 1.101563,-0.28125 0.506836,0 0.963867,0.117188 1.371094,0.351563 0.413086,0.228515 0.74414,0.5566403 0.996093,0.9843746 0.249024,0.4306641 0.375,0.9433594 0.375,1.5351563 0,0.5947265 -0.125976,1.1103515 -0.375,1.546875 -0.251953,0.430664 -0.583007,0.7617187 -0.996093,0.9960937 -0.407227,0.225586 -0.864258,0.3398438 -1.371094,0.3398438 -0.407227,0 -0.773438,-0.09082 -1.101563,-0.2695313 -0.322265,-0.1875 -0.580078,-0.4511718 -0.773437,-0.796875 z m 3.644531,-5.4023437 c 0,-0.421875 -0.08789,-0.7792969 -0.257812,-1.078125 -0.172852,-0.2958985 -0.404297,-0.5185547 -0.691407,-0.6679688 -0.28125,-0.1464843 -0.594726,-0.2226562 -0.9375,-0.2226562 -0.28125,0 -0.55957,0.076172 -0.832031,0.2226562 -0.266601,0.1494141 -0.489258,0.3720703 -0.667969,0.6679688 -0.172851,0.2988281 -0.257812,0.65625 -0.257812,1.078125 0,0.430664 0.08496,0.7939453 0.257812,1.0898437 0.178711,0.2988282 0.401368,0.5214844 0.667969,0.6679688 0.272461,0.149414 0.550781,0.2226562 0.832031,0.2226562 0.342774,0 0.65625,-0.073242 0.9375,-0.2226562 0.28711,-0.1464844 0.518555,-0.3691406 0.691407,-0.6679688 0.169922,-0.2958984 0.257812,-0.6591797 0.257812,-1.0898437 z m 0,0"
         style="fill:#000000;fill-opacity:1;fill-rule:nonzero;stroke:none" />
    </g>
  </g>
</svg>
