<?xml version="1.0" encoding="UTF-8" standalone="no"?>
<!-- Created with Inkscape (http://www.inkscape.org/) -->

<svg
   version="1.1"
   id="svg1"
   width="22.586327"
   height="23.515625"
   viewBox="0 0 22.586327 23.515625"
   xmlns="http://www.w3.org/2000/svg"
   xmlns:svg="http://www.w3.org/2000/svg">
  <defs
     id="defs1" />
  <g
     id="g82"
     transform="translate(-1927.3672,-399.45703)">
    <g
       id="g118"
       aria-label="&#10;as"
       transform="matrix(1.3333333,0,0,1.3333333,1924,423.89339)">
      <path
         id="path119"
         d="m 11.003906,-13.51086 c 0.779297,0 1.523438,0.152343 2.226563,0.457031 0.685547,0.298828 1.291992,0.703125 1.816406,1.21875 0.521484,0.515625 0.931641,1.125 1.230469,1.828125 0.304687,0.6884765 0.457031,1.4267578 0.457031,2.2148437 v 6.1875 c 0,0.2578125 -0.09082,0.4775391 -0.269531,0.65624999 -0.181641,0.17285156 -0.398438,0.2578125 -0.65625,0.2578125 H 6.1875 c -0.2578125,0 -0.4775391,-0.0849609 -0.65625,-0.2578125 C 5.3496094,-1.1270712 5.2617187,-1.3467978 5.2617187,-1.6046103 v -6.1875 c 0,-0.7880859 0.1523438,-1.5263672 0.4570313,-2.2148437 0.2958984,-0.703125 0.7060547,-1.3125 1.2304687,-1.828125 0.5214844,-0.515625 1.1279297,-0.919922 1.8164063,-1.21875 0.703125,-0.304688 1.447266,-0.457031 2.238281,-0.457031 z m 3.878907,10.0781247 H 7.1132812 v 0.9257812 h 7.7695318 z m -3.878907,-8.2499997 c -1.0781247,0 -1.9980466,0.380859 -2.753906,1.136718 -0.7587891,0.7587895 -1.1367188,1.6757817 -1.1367188,2.7539067 v 2.53125 H 10.078125 V -5.6944541 C 9.703125,-5.8643759 9.3896484,-6.1221884 9.140625,-6.4678916 8.8886719,-6.810665 8.7480469,-7.2061728 8.71875,-7.6514853 l -0.023437,-0.140625 c 0,-0.6328125 0.2255859,-1.171875 0.6796875,-1.6171875 0.4511719,-0.4453125 0.9960945,-0.6679692 1.6289065,-0.6679692 0.624024,0 1.163086,0.2226567 1.617188,0.6679692 0.451172,0.4453125 0.679687,0.984375 0.679687,1.6171875 0,0.46875 -0.128906,0.8964844 -0.386718,1.2773437 -0.257813,0.375 -0.591797,0.6503907 -0.996094,0.8203125 v 0.4335938 h 2.964844 v -2.53125 c 0,-1.0078125 -0.339844,-1.8808594 -1.019532,-2.6249997 -0.679687,-0.741211 -1.511718,-1.154297 -2.496093,-1.242188 l -0.175782,-0.02344 z m 0,3.4335934 c -0.134765,0 -0.243164,0.043945 -0.328125,0.1289063 -0.08789,0.087891 -0.128906,0.1962891 -0.128906,0.328125 0,0.1259766 0.04102,0.234375 0.128906,0.328125 0.08496,0.09375 0.19336,0.140625 0.328125,0.140625 0.123047,0 0.228516,-0.046875 0.316407,-0.140625 0.08496,-0.09375 0.128906,-0.2021484 0.128906,-0.328125 0,-0.1318359 -0.04395,-0.2402344 -0.128906,-0.328125 -0.08789,-0.084961 -0.19336,-0.1289063 -0.316407,-0.1289063 z m 7.148438,-5.8593754 c 0.202148,-0.09961 0.413086,-0.120117 0.632812,-0.05859 0.216797,0.05566 0.401367,0.18164 0.550781,0.375 0.123047,0.205078 0.158204,0.430664 0.105469,0.679687 -0.04687,0.251953 -0.169922,0.445313 -0.363281,0.585938 l -1.265625,0.84375 -0.09375,0.04687 c -0.196289,0.111328 -0.410156,0.137695 -0.644531,0.08203 -0.228516,-0.05273 -0.407227,-0.181641 -0.539063,-0.386719 -0.140625,-0.216797 -0.1875,-0.448242 -0.140625,-0.691406 0.05273,-0.240234 0.1875,-0.433594 0.398438,-0.574219 l 1.253906,-0.84375 z m -14.308594,0 0.1054688,0.05859 1.2539062,0.84375 c 0.2109375,0.140625 0.3398437,0.333985 0.3867187,0.574219 0.052734,0.243164 0.011719,0.474609 -0.1289062,0.691406 -0.1347656,0.205078 -0.3164063,0.333985 -0.5507813,0.386719 -0.2285156,0.05566 -0.4394531,0.0293 -0.6328125,-0.08203 l -0.09375,-0.04687 -1.2656249,-0.84375 c -0.1962891,-0.140625 -0.3222657,-0.333985 -0.375,-0.585938 -0.046875,-0.249023 0,-0.474609 0.140625,-0.679687 0.1318359,-0.19336 0.3076171,-0.319336 0.5273437,-0.375 0.2167969,-0.06152 0.4277344,-0.04102 0.6328125,0.05859 z m 3.046875,-2.425781 0.070312,0.08203 0.8554687,1.289063 c 0.1464844,0.210937 0.1933594,0.445312 0.140625,0.703125 -0.046875,0.251953 -0.1816406,0.439453 -0.3984375,0.5625 -0.196289,0.140625 -0.4101562,0.196289 -0.6445312,0.164062 -0.2285156,-0.03808 -0.4101563,-0.143554 -0.5507813,-0.316406 l -0.070312,-0.08203 -0.8554687,-1.3125 c -0.1494141,-0.202148 -0.1992188,-0.427734 -0.1523438,-0.679688 0.052734,-0.249023 0.1816407,-0.445312 0.3867188,-0.585937 0.2021484,-0.131836 0.4160156,-0.178711 0.6445312,-0.140625 0.225586,0.04102 0.4160157,0.146484 0.5742188,0.316406 z m 8.214844,0 c 0.155273,-0.169922 0.345703,-0.27539 0.574219,-0.316406 0.225585,-0.03809 0.439453,0.0088 0.644531,0.140625 0.202148,0.140625 0.328125,0.336914 0.375,0.585937 0.05273,0.251954 0.01465,0.47754 -0.117188,0.679688 l -0.878906,1.3125 -0.07031,0.08203 c -0.140625,0.172852 -0.328125,0.278321 -0.5625,0.316406 -0.228516,0.03223 -0.439454,-0.02344 -0.632813,-0.164062 -0.219727,-0.123047 -0.357422,-0.310547 -0.410156,-0.5625 -0.04687,-0.257813 0.0029,-0.492188 0.152344,-0.703125 l 0.855468,-1.289063 z m -4.101563,-1.792969 c 0.225586,0 0.427735,0.0791 0.609375,0.234375 0.178711,0.149415 0.272461,0.336915 0.28125,0.5625 l 0.02344,0.105469 v 2.0625 c 0,0.257813 -0.09082,0.477539 -0.269531,0.65625 -0.181641,0.181641 -0.395508,0.269531 -0.644532,0.269531 -0.234375,0 -0.442383,-0.07617 -0.621093,-0.234375 -0.181641,-0.155273 -0.275391,-0.345703 -0.28125,-0.574218 l -0.02344,-0.117188 v -2.0625 c 0,-0.240234 0.08789,-0.451172 0.269531,-0.632812 0.178711,-0.178711 0.398438,-0.269532 0.65625,-0.269532 z m 0,0"
         style="fill:#000000;fill-opacity:1;fill-rule:nonzero;stroke:none" />
      <path
         id="path120"
         d="m 35.334961,-9.2188681 -0.46875,-0.7382813 c 0.202148,-0.1464846 0.480469,-0.2958986 0.832031,-0.4453126 0.351563,-0.155273 0.776367,-0.234375 1.277344,-0.234375 0.632812,0 1.142578,0.146485 1.535156,0.433594 0.389649,0.2900389 0.585938,0.7031249 0.585938,1.2421874 v 3.9609375 h -0.960938 v -0.796875 c -0.164062,0.2988281 -0.416015,0.524414 -0.75,0.6796875 -0.336914,0.1552734 -0.711914,0.234375 -1.125,0.234375 -0.351562,0 -0.673828,-0.064453 -0.960937,-0.1875 -0.28125,-0.131836 -0.509766,-0.3222656 -0.679688,-0.5742188 -0.172851,-0.2490234 -0.257812,-0.5625 -0.257812,-0.9375 0,-0.5859375 0.205078,-1.0371093 0.621093,-1.359375 0.421875,-0.328125 0.996094,-0.4921875 1.722657,-0.4921875 0.319336,0 0.600586,0.043945 0.84375,0.1289063 0.240234,0.079102 0.436523,0.1699219 0.585937,0.2695312 v -0.9257812 c 0,-0.28125 -0.117187,-0.4921875 -0.351562,-0.6328125 -0.234375,-0.140625 -0.503907,-0.2109375 -0.808594,-0.2109375 -0.392578,0 -0.732422,0.076172 -1.019531,0.2226562 -0.28125,0.140625 -0.489258,0.2636719 -0.621094,0.3632813 z m 0,2.6015625 c 0,0.2988281 0.111328,0.5214844 0.339844,0.6679687 0.225586,0.1494141 0.498047,0.2226563 0.820312,0.2226563 0.47461,0 0.867188,-0.1083985 1.171875,-0.328125 0.310547,-0.225586 0.46875,-0.5917969 0.46875,-1.1015625 v -0.2226563 c -0.407226,-0.2109375 -0.864258,-0.3164062 -1.371094,-0.3164062 -0.492187,0 -0.855468,0.099609 -1.089843,0.2929687 -0.228516,0.1875 -0.339844,0.4511719 -0.339844,0.7851563 z M 40.875,-6.9454306 c 0.193359,0.336914 0.427734,0.6152344 0.703125,0.8320312 0.28125,0.2197266 0.553711,0.328125 0.820312,0.328125 0.257813,0 0.47168,-0.049805 0.644532,-0.1523437 0.169922,-0.1083985 0.257812,-0.28125 0.257812,-0.515625 0,-0.1875 -0.06445,-0.3427735 -0.1875,-0.46875 -0.117187,-0.131836 -0.269531,-0.2460938 -0.457031,-0.3398438 -0.1875,-0.099609 -0.392578,-0.1904297 -0.609375,-0.2695312 -0.243164,-0.099609 -0.489258,-0.2109375 -0.738281,-0.328125 -0.243164,-0.1171875 -0.445313,-0.272461 -0.609375,-0.46875 -0.158203,-0.2021485 -0.234375,-0.4746094 -0.234375,-0.8203125 0,-0.3427735 0.08496,-0.6240235 0.257812,-0.84375 0.178711,-0.2255864 0.404297,-0.3896484 0.679688,-0.4921874 0.272461,-0.09961 0.55664,-0.152344 0.855468,-0.152344 0.436524,0 0.834961,0.105469 1.195313,0.316406 0.357422,0.205079 0.624023,0.4570316 0.796875,0.7617191 l -0.773438,0.4921875 c -0.125976,-0.1875 -0.301757,-0.3515625 -0.527343,-0.4921875 -0.228516,-0.140625 -0.454102,-0.2109375 -0.679688,-0.2109375 -0.243164,0 -0.451172,0.043945 -0.621094,0.1289063 -0.164062,0.087891 -0.246093,0.2402344 -0.246093,0.4570312 0,0.1728516 0.07031,0.3134766 0.210937,0.421875 0.146485,0.1113282 0.328125,0.2050782 0.539063,0.28125 0.210937,0.070312 0.416015,0.1523438 0.621093,0.2460938 0.263672,0.102539 0.509766,0.2285156 0.738282,0.375 0.234375,0.140625 0.421875,0.3164062 0.5625,0.5273437 0.146484,0.2050782 0.222656,0.4628907 0.222656,0.7734375 0,0.5947266 -0.18457,1.0253907 -0.550781,1.2890625 -0.360352,0.2578125 -0.808594,0.3867188 -1.347657,0.3867188 -0.509765,0 -0.966796,-0.1523438 -1.371093,-0.4570313 C 40.628906,-5.6505087 40.327148,-6.0313681 40.125,-6.4766806 Z m 0,0"
         style="fill:#000000;fill-opacity:1;fill-rule:nonzero;stroke:none" />
    </g>
  </g>
</svg>
