<?xml version="1.0" encoding="UTF-8" standalone="no"?>
<!-- Created with Inkscape (http://www.inkscape.org/) -->

<svg
   version="1.1"
   id="svg1"
   width="27.61875"
   height="27.499998"
   viewBox="0 0 27.61875 27.499998"
   xmlns="http://www.w3.org/2000/svg"
   xmlns:svg="http://www.w3.org/2000/svg">
  <defs
     id="defs1" />
  <g
     id="g82"
     transform="translate(-2236.8457,-397.62891)">
    <g
       id="g122"
       aria-label="&#10;af"
       transform="matrix(1.3333333,0,0,1.3333333,2236,423.89339)">
      <path
         id="path123"
         d="m 9.796875,-19.69836 c 0.568359,0 1.113281,0.111328 1.628906,0.328125 0.515625,0.210937 0.966797,0.503906 1.359375,0.878906 0.398438,0.369141 0.708985,0.805664 0.9375,1.3125 0.240235,0.515625 0.37793,1.060547 0.410157,1.628906 v 1.933594 l 0.644531,-0.433594 c 0.202148,-0.140625 0.427734,-0.18164 0.679687,-0.128906 0.249024,0.04687 0.445313,0.175781 0.585938,0.386719 0.131836,0.1875 0.178711,0.398437 0.140625,0.632812 -0.03223,0.228516 -0.134766,0.418946 -0.304688,0.574219 l -0.09375,0.05859 -1.652343,1.101562 v 4.6757814 c 0.530273,-0.7558593 1.236328,-1.3066406 2.121093,-1.6523437 0.890625,-0.3427734 1.807617,-0.3984375 2.753906,-0.1640625 l 0.199219,0.035156 1.476563,0.4335938 c 0.240234,0.070312 0.424804,0.2197266 0.550781,0.4453125 0.123047,0.2197266 0.146484,0.4511719 0.07031,0.6914062 l -0.398437,1.4882813 c -0.1875,0.609375 -0.477539,1.1601562 -0.867188,1.6523437 -0.383789,0.46875 -0.83789,0.8496094 -1.359375,1.1367188 -0.524414,0.2900391 -1.095703,0.4775391 -1.710937,0.5625 -0.603516,0.070312 -1.212891,0.020508 -1.828125,-0.1523438 l -1.00781,-0.3046833 V 8.584375e-4 c 0,0.2578125025 -0.09082,0.4746093725 -0.269532,0.6562500025 -0.18164,0.17871094 -0.398437,0.26953125 -0.65625,0.26953125 -0.228515,0 -0.427734,-0.0820313 -0.597656,-0.24609375 C 12.436523,0.52234281 12.333984,0.33191313 12.304688,0.10632719 V -15.362423 c 0,-0.65625 -0.231446,-1.224609 -0.691407,-1.710937 -0.454101,-0.492188 -1.007812,-0.75586 -1.6640622,-0.796875 h -0.84375 c -0.3691407,0 -0.703125,0.102539 -1.0078125,0.304687 -0.2988282,0.196289 -0.5214844,0.457031 -0.6679688,0.785156 0.6005859,0.205079 1.1132813,0.550782 1.5351563,1.042969 0.421875,0.486328 0.6738281,1.054688 0.7617187,1.710938 0.1171875,0.791015 0.2255859,1.461914 0.3281255,2.015625 0.09961,0.547851 0.193359,0.984375 0.28125,1.3125 l 0.05859,0.234375 c 0.117188,0.360351 0.28711,0.7031247 0.515625,1.0312497 0.225586,0.328125 0.509766,0.6445312 0.855469,0.9492187 0,0.017578 0.0029,0.023437 0.01172,0.023437 0.0059,0 0.01172,0.00879 0.01172,0.023437 0,0 0.0029,0 0.01172,0 0.0059,0 0.01172,0 0.01172,0 0.117188,0.1113282 0.19043,0.2314454 0.222656,0.3632813 0.03809,0.1259766 0.0498,0.2548828 0.03516,0.3867187 v -0.1054687 c 0,0.055664 0,0.1142578 0,0.1757812 0,0.064453 -0.0088,0.1259766 -0.02344,0.1875 -0.102539,0.7587891 -0.457031,1.3798829 -1.066406,1.8632813 -0.603516,0.4775391 -1.2832034,0.6650391 -2.0390627,0.5625 -0.1025391,-0.014648 -0.1933594,-0.026367 -0.2695313,-0.035156 -0.079102,-0.00586 -0.1611328,-0.011719 -0.2460937,-0.011719 -0.1494141,0 -0.2548829,0.00879 -0.3164063,0.023437 -0.064453,0.017578 -0.1289063,0.052734 -0.1992188,0.1054687 l -0.1171875,0.09375 c -0.2109375,0.1582032 -0.4277343,0.2753907 -0.6445312,0.3515625 -0.2109375,0.079102 -0.4746094,0.1171875 -0.7851563,0.1171875 -0.2753906,0 -0.5126953,-0.026367 -0.7148437,-0.082031 -0.2050781,-0.061523 -0.4101563,-0.1552734 -0.6210938,-0.28125 L 4.8515625,-4.8507041 C 4.7402344,-4.935665 4.6552734,-4.9913291 4.59375,-5.0147666 c -0.055664,-0.023437 -0.1523438,-0.035156 -0.2929688,-0.035156 -0.046875,0 -0.099609,0.00586 -0.1523437,0.011719 -0.046875,0.00879 -0.099609,0.011719 -0.1523437,0.011719 l -0.1757813,0.023437 c -0.055664,0.017578 -0.1171875,0.023437 -0.1875,0.023437 -0.064453,0 -0.1230469,0 -0.1757812,0 C 2.6982422,-4.9796103 2.0449219,-5.2403525 1.5,-5.7647666 0.9609375,-6.2862509 0.67382812,-6.9278525 0.64453125,-7.6866416 0.62695312,-7.7862509 0.6328125,-7.88879 0.65625,-7.9913291 0.6855469,-8.0909381 0.7324219,-8.1934775 0.796875,-8.2960166 l -0.0234375,0.046875 c 0,-0.014648 0.00293,-0.026367 0.0117188,-0.035156 0.005859,-0.00586 0.0117188,-0.011719 0.0117188,-0.011719 l 0.0585938,-0.1054687 c 0.4980467,-0.7265625 0.908203,-1.5058594 1.2304686,-2.3437497 0.328125,-0.84375 0.5625,-1.699219 0.703125,-2.566407 l 0.1289063,-0.714843 c 0.1171875,-0.703125 0.4130859,-1.306641 0.890625,-1.816407 0.4833984,-0.506835 1.0605468,-0.846679 1.7343749,-1.019531 0.1699219,-0.788086 0.5654297,-1.444336 1.1835938,-1.96875 0.6240234,-0.530273 1.3535156,-0.820312 2.1914063,-0.867187 z m 8.917969,12.9374997 c -0.767578,-0.2167969 -1.488282,-0.1347656 -2.167969,0.2460937 -0.679687,0.375 -1.125,0.9375 -1.335937,1.6875 l -0.175782,0.6210938 0.597657,0.1640625 c 0.732421,0.2050781 1.429687,0.1347656 2.085937,-0.2109375 0.662109,-0.3427734 1.116211,-0.8671875 1.359375,-1.5703125 l 0.05859,-0.1523438 0.175781,-0.6210937 z M 6.3632812,-8.9405478 c -0.046875,0 -0.1054687,0.032227 -0.1757812,0.09375 -0.070312,0.055664 -0.1728516,0.1523437 -0.3046875,0.2929687 l -0.2929688,0.3867188 c -0.032227,0.032227 -0.064453,0.064453 -0.09375,0.09375 -0.023437,0.023437 -0.052734,0.052734 -0.082031,0.082031 -0.140625,0.140625 -0.2929688,0.2548829 -0.4570313,0.3398438 -0.1582031,0.087891 -0.328125,0.1376953 -0.515625,0.1523437 -0.2666015,0.032227 -0.5478515,0.076172 -0.8437499,0.1289063 -0.2988282,0.046875 -0.6035157,0.1142578 -0.9140625,0.1992187 0.099609,0.1113282 0.2138671,0.1992188 0.3398437,0.2695313 0.1318359,0.064453 0.2753906,0.09375 0.4335938,0.09375 h 0.070312 l 0.058594,-0.023437 c 0.1171875,-0.014648 0.234375,-0.026367 0.3515625,-0.035156 0.1230469,-0.00586 0.2460937,-0.011719 0.3632812,-0.011719 0.3105469,0 0.5771485,0.035156 0.796875,0.1054687 0.225586,0.064453 0.4453125,0.1640625 0.65625,0.3046875 l 0.1757813,0.1289063 c 0.084961,0.064453 0.1464844,0.1054687 0.1875,0.1289062 0.046875,0.017578 0.09668,0.023437 0.1523437,0.023437 h 0.09375 c 0.070312,0 0.1171875,-0.00293 0.140625,-0.011719 0.029297,-0.00586 0.073242,-0.023437 0.1289063,-0.046875 L 6.75,-6.3389853 c 0.2402344,-0.1875 0.4863281,-0.3222656 0.7382812,-0.4101563 0.2490235,-0.084961 0.5625001,-0.1289062 0.9375001,-0.1289062 0.1083984,0 0.2255859,0.00586 0.3515625,0.011719 0.1318359,0.00879 0.2578125,0.020508 0.375,0.035156 0.1699218,0.032227 0.3339843,0.017578 0.4921875,-0.046875 C 9.7998047,-6.9483603 9.9287109,-7.04504 10.03125,-7.1710166 9.7177734,-7.2559775 9.421875,-7.3233603 9.140625,-7.3702353 8.859375,-7.4229697 8.5810547,-7.466915 8.3085938,-7.4991416 8.1269531,-7.51379 7.9599609,-7.560665 7.8046875,-7.6397666 7.6552734,-7.7159384 7.5117187,-7.8184775 7.3710937,-7.9444541 7.3242187,-7.9913291 7.2714844,-8.0382041 7.21875,-8.0850791 7.171875,-8.1378134 7.1279297,-8.1934775 7.0898437,-8.2491416 L 6.7617187,-8.6358603 C 6.6679687,-8.7530478 6.5859375,-8.8292197 6.515625,-8.8702353 6.451172,-8.9171103 6.4013672,-8.9405473 6.3632812,-8.9405478 Z m 0,-6.1757812 c -0.421875,0 -0.7851562,0.134766 -1.0898437,0.398437 -0.2988281,0.257813 -0.4804688,0.591797 -0.5507813,0.996094 L 4.59375,-13.018673 c -0.1025391,0.603516 -0.2402344,1.195313 -0.4101563,1.78125 -0.1728515,0.585938 -0.3808593,1.160156 -0.6210937,1.7226564 l -0.1523437,0.3046875 0.1757812,-0.023437 c 0.052734,-0.014648 0.1083984,-0.026367 0.1640625,-0.035156 0.061523,-0.00586 0.1289063,-0.011719 0.1992188,-0.011719 l 0.1992187,-0.023437 0.035156,-0.058594 0.4335938,-0.515625 c 0.2724609,-0.2871089 0.5419922,-0.5068359 0.8085937,-0.6562499 0.2636719,-0.146484 0.5771485,-0.222656 0.9375,-0.222656 0.3808594,0 0.7148438,0.08789 0.9960938,0.257812 0.2871094,0.172852 0.5771484,0.430665 0.8671875,0.7734376 0.029297,0.023437 0.073242,0.070312 0.1289063,0.140625 0.052734,0.064453 0.087891,0.1054688 0.1054687,0.1289063 l 0.1054688,0.1289062 0.046875,0.023437 0.1992187,0.023437 h 0.1054688 l -0.070312,-0.1289062 c -0.017578,-0.038086 -0.035156,-0.076172 -0.058594,-0.1171875 -0.017578,-0.038086 -0.032227,-0.076172 -0.046875,-0.1171875 l -0.082031,-0.28125 C 8.5576172,-10.212032 8.4609375,-10.598751 8.3671875,-11.085079 8.2734375,-11.568477 8.1679688,-12.145626 8.0507813,-12.819454 L 7.921875,-13.768673 c -0.055664,-0.380859 -0.2314453,-0.703125 -0.5273438,-0.960937 -0.290039,-0.257813 -0.6328125,-0.386719 -1.03125,-0.386719 z m 0,0"
         style="fill:#000000;fill-opacity:1;fill-rule:nonzero;stroke:none" />
      <path
         id="path124"
         d="m 35.334961,-9.2188681 -0.46875,-0.7382813 c 0.202148,-0.1464846 0.480469,-0.2958986 0.832031,-0.4453126 0.351563,-0.155273 0.776367,-0.234375 1.277344,-0.234375 0.632812,0 1.142578,0.146485 1.535156,0.433594 0.389649,0.2900389 0.585938,0.7031249 0.585938,1.2421874 v 3.9609375 h -0.960938 v -0.796875 c -0.164062,0.2988281 -0.416015,0.524414 -0.75,0.6796875 -0.336914,0.1552734 -0.711914,0.234375 -1.125,0.234375 -0.351562,0 -0.673828,-0.064453 -0.960937,-0.1875 -0.28125,-0.131836 -0.509766,-0.3222656 -0.679688,-0.5742188 -0.172851,-0.2490234 -0.257812,-0.5625 -0.257812,-0.9375 0,-0.5859375 0.205078,-1.0371093 0.621093,-1.359375 0.421875,-0.328125 0.996094,-0.4921875 1.722657,-0.4921875 0.319336,0 0.600586,0.043945 0.84375,0.1289063 0.240234,0.079102 0.436523,0.1699219 0.585937,0.2695312 v -0.9257812 c 0,-0.28125 -0.117187,-0.4921875 -0.351562,-0.6328125 -0.234375,-0.140625 -0.503907,-0.2109375 -0.808594,-0.2109375 -0.392578,0 -0.732422,0.076172 -1.019531,0.2226562 -0.28125,0.140625 -0.489258,0.2636719 -0.621094,0.3632813 z m 0,2.6015625 c 0,0.2988281 0.111328,0.5214844 0.339844,0.6679687 0.225586,0.1494141 0.498047,0.2226563 0.820312,0.2226563 0.47461,0 0.867188,-0.1083985 1.171875,-0.328125 0.310547,-0.225586 0.46875,-0.5917969 0.46875,-1.1015625 v -0.2226563 c -0.407226,-0.2109375 -0.864258,-0.3164062 -1.371094,-0.3164062 -0.492187,0 -0.855468,0.099609 -1.089843,0.2929687 -0.228516,0.1875 -0.339844,0.4511719 -0.339844,0.7851563 z m 4.96582,-3.9023434 h 0.539063 v -2.039063 c 0,-0.65625 0.140625,-1.139648 0.421875,-1.453125 0.28125,-0.310547 0.670898,-0.46875 1.171875,-0.46875 0.257812,0 0.474609,0.05274 0.65625,0.152344 0.178711,0.102539 0.310547,0.210937 0.398437,0.328125 l -0.527344,0.796875 c -0.0791,-0.140625 -0.172851,-0.225586 -0.28125,-0.257813 -0.111328,-0.03809 -0.210937,-0.05859 -0.304687,-0.05859 -0.172852,0 -0.313477,0.08203 -0.421875,0.246093 -0.102539,0.158204 -0.152344,0.433594 -0.152344,0.832032 v 1.921875 h 1.253906 v 0.9023434 h -1.253906 v 4.6171875 h -0.960937 v -4.6171875 h -0.539063 z m 0,0"
         style="fill:#000000;fill-opacity:1;fill-rule:nonzero;stroke:none" />
    </g>
  </g>
</svg>
