<?xml version="1.0" encoding="UTF-8" standalone="no"?>
<!-- Created with Inkscape (http://www.inkscape.org/) -->

<svg
   version="1.1"
   id="svg1"
   width="28.132381"
   height="28.093761"
   viewBox="0 0 28.132381 28.093761"
   xmlns="http://www.w3.org/2000/svg"
   xmlns:svg="http://www.w3.org/2000/svg">
  <defs
     id="defs1" />
  <g
     id="g82"
     transform="translate(-1768.5936,-442.96093)">
    <g
       id="g124"
       aria-label="&#10;ag"
       transform="matrix(1.3333333,0,0,1.3333333,1768,469.22672)">
      <path
         id="path125"
         d="m 11.003906,-19.699337 h 0.03516 c 0.01465,0 0.02637,0 0.03516,0 0.0059,0 0.01758,0 0.03516,0 0.0059,0 0.01465,0 0.02344,0 0.0059,0 0.01758,0 0.03516,0 0,0.01758 0.0029,0.02344 0.01172,0.02344 0.0059,0 0.01172,0 0.01172,0 0.01465,0 0.02637,0 0.03516,0 0.01465,0 0.0293,0.0088 0.04687,0.02344 0,0 0.0059,0 0.02344,0 0,0 0.0059,0.0059 0.02344,0.01172 0.01465,0.0088 0.0293,0.01172 0.04687,0.01172 0,0 0,0.0059 0,0.01172 0.0059,0 0.01172,0 0.01172,0 0,0 0.0029,0 0.01172,0 0.0059,0 0.01172,0 0.01172,0 0.09961,0.06445 0.1875,0.128907 0.257812,0.199219 0.07031,0.07031 0.128907,0.158203 0.175782,0.257813 l 1.734375,3.480468 3.468749,-0.585937 h 0.105469 c 0.295899,-0.0059 0.544922,0.105469 0.75,0.339844 0.202149,0.234375 0.260742,0.503906 0.175781,0.808593 l -1.078125,4.359375 h 3.738282 c 0.357422,0.02344 0.603515,0.208008 0.738281,0.550782 0.140625,0.3457028 0.08496,0.662109 -0.164063,0.9492184 l -3.75,4.3828125 1.171875,2.9179687 0.02344,0.1054688 c 0.09961,0.3457031 0.02344,0.6445312 -0.234375,0.90234373 -0.257813,0.2578125 -0.55957,0.33398437 -0.902344,0.22265625 L 11.917969,-2.4258994 v 2.87109378 c 0,0.2578125 -0.09082,0.47460937 -0.269531,0.65625002 -0.181641,0.1787109 -0.395508,0.2695312 -0.644532,0.2695312 -0.234375,0 -0.442383,-0.079101 -0.621093,-0.234375 -0.181641,-0.1582031 -0.275391,-0.34863279 -0.28125,-0.57421872 l -0.02344,-0.1171875 V -2.4258994 L 4.3828125,-0.72668062 C 4.0371094,-0.6153525 3.7382813,-0.69152437 3.4804688,-0.94933687 3.2226563,-1.2071494 3.1435547,-1.5059775 3.2460938,-1.8516806 L 3.2695313,-1.9571494 4.4414062,-4.8751181 0.69140625,-9.2579306 C 0.43945313,-9.54504 0.38085938,-9.8614462 0.515625,-10.207149 c 0.140625,-0.342774 0.38964844,-0.527344 0.75,-0.550782 h 3.7382812 l -1.0781249,-4.359375 c -0.087891,-0.304687 -0.029297,-0.574218 0.1757812,-0.808593 0.2021484,-0.234375 0.4511719,-0.345703 0.75,-0.339844 h 0.1054687 l 3.4687501,0.585937 1.7343747,-3.480468 c 0.01465,-0.04687 0.0293,-0.08203 0.04687,-0.105469 0.02344,-0.0293 0.0498,-0.06445 0.08203,-0.105469 0,0 0.0059,0 0.02344,0 0.0293,-0.06152 0.07031,-0.108398 0.117188,-0.140625 0.04687,-0.03809 0.09961,-0.07324 0.164062,-0.105469 0,0 0.0059,0 0.02344,0 0.0059,-0.0059 0.01172,-0.01172 0.01172,-0.01172 0.01465,0 0.0293,-0.0029 0.04687,-0.01172 0.01465,-0.0059 0.02344,-0.01172 0.02344,-0.01172 0,0 0.0029,0 0.01172,0 0.0059,0 0.01172,0 0.01172,0 0.01465,-0.01465 0.02637,-0.02344 0.03516,-0.02344 0.01465,0 0.0293,0 0.04687,0 0,0 0.0059,-0.0059 0.02344,-0.02344 0.01465,0 0.02637,0 0.03516,0 0.0059,0 0.01465,0 0.02344,0 0.01465,0 0.02637,0 0.03516,0 0.0059,0 0.01172,0 0.01172,0 0.01465,0 0.02637,0 0.03516,0 0.0059,0 0.01758,0 0.03516,0 z m 0,2.964844 L 9.75,-14.261837 c -0.087891,0.172852 -0.2050781,0.304688 -0.3515625,0.398438 -0.1494141,0.09375 -0.3164062,0.134765 -0.5039062,0.117187 l -0.1054688,-0.02344 -2.7539063,-0.445313 1.03125,4.136719 c 0.070312,0.2753905 0.026367,0.5273436 -0.1289062,0.7617186 -0.1582031,0.2285157 -0.3720703,0.3515625 -0.6445313,0.375 H 3.375 l 2.8125,3.3164063 c 0.099609,0.1113281 0.1669922,0.2402344 0.1992187,0.3867187 0.038086,0.140625 0.035156,0.28125 -0.011719,0.421875 l -0.011719,0.1171875 -0.6914062,1.6757813 4.4062505,-1.3125 V -5.2149619 L 7.0898437,-7.0079306 c -0.2197265,-0.1230469 -0.3603515,-0.3076172 -0.421875,-0.5507813 -0.064453,-0.2402343 -0.032227,-0.4804687 0.09375,-0.7148437 0.131836,-0.1933594 0.3076172,-0.3222656 0.5273438,-0.3867188 0.2255859,-0.070312 0.4453125,-0.061523 0.65625,0.023437 l 0.09375,0.070312 2.0390625,1.21875 V -11.2384 c 0,-0.240235 0.08789,-0.451172 0.269531,-0.632813 0.178711,-0.178711 0.398438,-0.269531 0.65625,-0.269531 0.225586,0 0.427735,0.0791 0.609375,0.234375 0.178711,0.149414 0.272461,0.336914 0.28125,0.5625 l 0.02344,0.105469 v 3.8906246 l 2.039062,-1.21875 c 0.216797,-0.1318359 0.448242,-0.1669922 0.691407,-0.1054687 0.240234,0.055664 0.436523,0.1875 0.585937,0.3984375 0.108398,0.2050781 0.140625,0.421875 0.09375,0.65625 -0.04102,0.2285156 -0.152344,0.4101562 -0.339844,0.5507812 l -0.08203,0.058594 -2.988281,1.7929687 v 0.8789063 l 4.382812,1.3125 -0.667968,-1.6757813 -0.01172,-0.1171875 c -0.04687,-0.140625 -0.05566,-0.28125 -0.02344,-0.421875 0.03809,-0.1464843 0.108399,-0.2753906 0.210938,-0.3867187 l 2.8125,-3.3164063 h -2.917969 c -0.275391,-0.023437 -0.489258,-0.1464843 -0.644531,-0.375 -0.158203,-0.234375 -0.199219,-0.4863281 -0.128906,-0.7617188 l 1.03125,-4.136719 -2.753907,0.445313 -0.105468,0.02344 c -0.1875,0.01758 -0.360352,-0.02344 -0.515625,-0.117187 -0.158204,-0.09375 -0.269532,-0.225586 -0.339844,-0.398438 z m 0,0"
         style="fill:#000000;fill-opacity:1;fill-rule:nonzero;stroke:none" />
      <path
         id="path126"
         d="m 35.334961,-9.2198447 -0.46875,-0.7382812 c 0.202148,-0.1464841 0.480469,-0.2958981 0.832031,-0.4453121 0.351563,-0.155274 0.776367,-0.234375 1.277344,-0.234375 0.632812,0 1.142578,0.146484 1.535156,0.433593 0.389649,0.2900394 0.585938,0.7031253 0.585938,1.2421878 v 3.9609375 h -0.960938 v -0.796875 c -0.164062,0.2988281 -0.416015,0.5244141 -0.75,0.6796875 -0.336914,0.1552735 -0.711914,0.234375 -1.125,0.234375 -0.351562,0 -0.673828,-0.064453 -0.960937,-0.1875 -0.28125,-0.1318359 -0.509766,-0.3222656 -0.679688,-0.5742187 -0.172851,-0.2490235 -0.257812,-0.5625 -0.257812,-0.9375 0,-0.5859375 0.205078,-1.0371094 0.621093,-1.359375 0.421875,-0.328125 0.996094,-0.4921875 1.722657,-0.4921875 0.319336,0 0.600586,0.043945 0.84375,0.1289062 0.240234,0.079102 0.436523,0.1699219 0.585937,0.2695313 v -0.9257813 c 0,-0.28125 -0.117187,-0.4921875 -0.351562,-0.6328125 -0.234375,-0.140625 -0.503907,-0.2109375 -0.808594,-0.2109375 -0.392578,0 -0.732422,0.076172 -1.019531,0.2226563 -0.28125,0.140625 -0.489258,0.2636718 -0.621094,0.3632812 z m 0,2.6015625 c 0,0.2988281 0.111328,0.5214844 0.339844,0.6679688 0.225586,0.149414 0.498047,0.2226562 0.820312,0.2226562 0.47461,0 0.867188,-0.1083984 1.171875,-0.328125 0.310547,-0.2255859 0.46875,-0.5917969 0.46875,-1.1015625 v -0.2226562 c -0.407226,-0.2109375 -0.864258,-0.3164063 -1.371094,-0.3164063 -0.492187,0 -0.855468,0.099609 -1.089843,0.2929688 -0.228516,0.1875 -0.339844,0.4511718 -0.339844,0.7851562 z m 5.012695,1.9804688 h 0.972656 c 0,0.2636718 0.07031,0.5097656 0.210938,0.7382812 0.146484,0.225586 0.351562,0.4101563 0.609375,0.5507813 0.263672,0.140625 0.580078,0.2109375 0.949219,0.2109375 0.272461,0 0.544922,-0.070312 0.820312,-0.2109375 0.272461,-0.1347657 0.498047,-0.3486328 0.679688,-0.6445313 0.178711,-0.290039 0.269531,-0.665039 0.269531,-1.125 v -0.8320312 c -0.205078,0.3457031 -0.46582,0.609375 -0.785156,0.796875 -0.322266,0.1787109 -0.688477,0.2695312 -1.101563,0.2695312 -0.492187,0 -0.949219,-0.1142578 -1.371094,-0.3398437 -0.416015,-0.234375 -0.74707,-0.5654297 -0.996093,-0.9960938 -0.243164,-0.4365234 -0.363282,-0.9521484 -0.363282,-1.546875 0,-0.5917969 0.120118,-1.1044922 0.363282,-1.5351562 0.249023,-0.4277344 0.580078,-0.7558591 0.996093,-0.9843751 0.421875,-0.234375 0.878907,-0.351562 1.371094,-0.351562 0.413086,0 0.779297,0.09375 1.101563,0.28125 0.319336,0.18164 0.580078,0.4423824 0.785156,0.7851558 v -0.9492188 h 0.960937 v 5.4023438 c 0,0.6328125 -0.134765,1.1601563 -0.398437,1.5820313 -0.266602,0.4277343 -0.606445,0.7529297 -1.019531,0.9726562 -0.416016,0.2167969 -0.852539,0.328125 -1.3125,0.328125 -0.539063,0 -1.016602,-0.102539 -1.429688,-0.3046875 C 41.244141,-2.7452353 40.921875,-3.029415 40.6875,-3.3956259 40.458984,-3.7559775 40.347656,-4.1690634 40.347656,-4.6378134 Z m 0.867188,-3.1289063 c 0,0.4306641 0.08496,0.7939453 0.257812,1.0898438 0.169922,0.2988281 0.401367,0.5214843 0.691406,0.6679687 0.28711,0.1494141 0.600586,0.2226563 0.9375,0.2226563 0.272461,0 0.544922,-0.073242 0.820313,-0.2226563 0.272461,-0.1464844 0.495117,-0.3691406 0.667969,-0.6679687 0.178711,-0.2958985 0.269531,-0.6591797 0.269531,-1.0898438 0,-0.421875 -0.09082,-0.7792969 -0.269531,-1.078125 -0.172852,-0.2958984 -0.395508,-0.5185547 -0.667969,-0.6679687 -0.275391,-0.1464844 -0.547852,-0.2226563 -0.820313,-0.2226563 -0.336914,0 -0.65039,0.076172 -0.9375,0.2226563 -0.290039,0.149414 -0.521484,0.3720703 -0.691406,0.6679687 -0.172851,0.2988281 -0.257812,0.65625 -0.257812,1.078125 z m 0,0"
         style="fill:#000000;fill-opacity:1;fill-rule:nonzero;stroke:none" />
    </g>
  </g>
</svg>
