<?xml version="1.0" encoding="UTF-8" standalone="no"?>
<!-- Created with Inkscape (http://www.inkscape.org/) -->

<svg
   version="1.1"
   id="svg1"
   width="26.61834"
   height="26.662817"
   viewBox="0 0 26.61834 26.662817"
   xmlns="http://www.w3.org/2000/svg"
   xmlns:svg="http://www.w3.org/2000/svg">
  <defs
     id="defs1" />
  <g
     id="g82"
     transform="translate(-1925.3535,-443.79812)">
    <g
       id="g126"
       aria-label="&#10;ah"
       transform="matrix(1.3333333,0,0,1.3333333,1924,469.22672)">
      <path
         id="path127"
         d="m 6.9375,-19.031368 2.8125,0.820312 c 0.319336,0.09375 0.574219,0.175782 0.761719,0.246094 0.193359,0.06445 0.328125,0.111328 0.398437,0.140625 0.09961,-0.04687 0.199219,-0.08496 0.292969,-0.117187 0.09375,-0.03809 0.19043,-0.07324 0.292969,-0.105469 l 0.257812,-0.08203 3.304688,-0.902344 c 0.272461,-0.07031 0.527344,-0.02637 0.761719,0.128906 0.234374,0.158203 0.36621,0.37207 0.398437,0.644531 v 5.472657 c 0,0.594726 -0.114258,1.154297 -0.339844,1.675781 -0.219726,0.515625 -0.524414,0.969726 -0.914062,1.3593749 -0.383789,0.383789 -0.840821,0.6914062 -1.371094,0.9257812 -0.515625,0.2109375 -1.066406,0.3164063 -1.652344,0.3164063 h -0.04687 l -0.03516,8.507812475 c 0,0.257812505 -0.09082,0.474609375 -0.269531,0.656250005 -0.181641,0.17871093 -0.398438,0.26953125 -0.65625,0.26953125 -0.228516,0 -0.427735,-0.0820313 -0.597656,-0.24609375 C 10.163086,0.52136625 10.060547,0.33093656 10.03125,0.10535063 V -1.18125e-4 L 10.07812,-8.5079306 c -0.03223,0 -0.05859,0 -0.082031,0 -0.017578,0 -0.041016,0 -0.070312,0 -1.1191407,0 -2.0742188,-0.3925781 -2.8710938,-1.1835938 -0.796875,-0.7968746 -1.2246094,-1.7607426 -1.2773438,-2.8945316 v -5.566406 c 0,-0.295898 0.1201172,-0.539062 0.3632813,-0.726562 0.2402344,-0.1875 0.5068359,-0.237305 0.796875,-0.152344 z M 3.1523438,-7.9454306 c 0.6152343,-0.1699219 1.2333984,-0.2226563 1.8515624,-0.1523438 0.600586,0.087891 1.163086,0.2753907 1.6875,0.5625 0.5214844,0.28125 0.975586,0.6679688 1.3593751,1.1601563 0.4042968,0.46875 0.6943359,1.0136719 0.8671875,1.6289062 l 0.421875,1.4765625 c 0.076172,0.2519532 0.049805,0.4863282 -0.082031,0.703125 C 9.1318359,-2.3467978 8.953125,-2.1973837 8.71875,-2.1212119 l -1.5,0.421875 C 6.6005859,-1.5264853 5.9912109,-1.48254 5.390625,-1.5704306 4.7724609,-1.6407431 4.2011719,-1.8165244 3.6796875,-2.0977744 3.1552734,-2.3848837 2.7011719,-2.7774619 2.3203125,-3.2696494 1.9277344,-3.7383994 1.6435547,-4.2803916 1.4648437,-4.8985556 L 1.0546875,-6.3751181 C 0.984375,-6.6241416 1.0078125,-6.8585166 1.125,-7.0782431 1.2480469,-7.29504 1.4326172,-7.4444541 1.6757812,-7.5235556 Z m 9.9257812,3.1992187 c 0.169922,-0.6152343 0.459961,-1.1601562 0.867188,-1.6289062 0.380859,-0.4921875 0.83496,-0.8789063 1.359375,-1.1601563 0.521484,-0.2871093 1.083984,-0.4746093 1.687499,-0.5625 0.615235,-0.070312 1.233399,-0.017578 1.851563,0.1523438 l 1.476562,0.421875 c 0.240235,0.079102 0.421875,0.2285156 0.539063,0.4453125 0.123047,0.2197265 0.152344,0.4541015 0.08203,0.703125 l -0.410156,1.4765625 c -0.181641,0.618164 -0.46582,1.1601562 -0.855469,1.6289062 -0.383789,0.4921875 -0.83789,0.8847657 -1.359375,1.171875 -0.524414,0.28125 -1.095703,0.4570313 -1.710937,0.5273438 -0.603516,0.087891 -1.212891,0.043945 -1.828125,-0.1289063 l -1.5,-0.421875 c -0.234375,-0.076172 -0.418946,-0.2255859 -0.550781,-0.4453125 -0.125977,-0.2167968 -0.149415,-0.4511718 -0.07031,-0.703125 z m 5.261719,-1.4414062 c -0.758789,-0.2109375 -1.476563,-0.1230469 -2.15625,0.2578125 -0.679688,0.375 -1.125,0.9345703 -1.335938,1.6757812 l -0.175781,0.6210938 0.597656,0.1757812 c 0.732422,0.2050782 1.429688,0.1347657 2.085938,-0.2109375 0.65625,-0.3427734 1.107422,-0.8671875 1.359375,-1.5703125 l 0.05859,-0.1523437 0.175782,-0.6210938 z M 7.1484375,-4.2540244 C 6.9375,-4.9952353 6.4921875,-5.5548056 5.8125,-5.9298056 5.1328125,-6.310665 4.4121094,-6.3985556 3.65625,-6.1876181 l -0.609375,0.1757812 0.1757813,0.6210938 C 3.4335938,-4.67004 3.8583984,-4.1192587 4.5,-3.7383994 c 0.6474609,0.375 1.3300781,0.4863282 2.0507812,0.328125 l 0.1757813,-0.046875 0.5976562,-0.1757812 z m 7.2421875,-12.6914066 -2.167969,0.574219 c -0.445312,0.134766 -0.861328,0.339844 -1.242187,0.621094 -0.375,0.275391 -0.685547,0.606445 -0.925781,0.996094 l -0.1054692,0.1875 c -0.1171875,0.219726 -0.2988282,0.363281 -0.5390625,0.433593 -0.2431641,0.07031 -0.4804688,0.04395 -0.7148438,-0.08203 -0.2109375,-0.117187 -0.3515625,-0.295898 -0.421875,-0.539062 -0.070312,-0.240235 -0.043945,-0.480469 0.082031,-0.714844 0.099609,-0.1875 0.2109375,-0.366211 0.328125,-0.539063 0.1230468,-0.169921 0.2578125,-0.333984 0.3984375,-0.492187 L 8.1679685,-16.75793 7.6054684,-16.921992 v 4.136719 c 0,0.665039 0.2109375,1.230468 0.6328126,1.699218 0.421875,0.462891 0.9404296,0.711914 1.5585937,0.75 H 9.925781 c 0.638672,0 1.189453,-0.234375 1.652344,-0.703125 0.459961,-0.474609 0.691406,-1.057617 0.691406,-1.746093 0,-0.257813 0.08496,-0.47168 0.257813,-0.644532 0.178711,-0.169921 0.392578,-0.257812 0.644531,-0.257812 0.257813,0 0.47168,0.08789 0.644531,0.257812 0.178711,0.172852 0.269532,0.386719 0.269532,0.644532 0,0.290039 -0.0293,0.571289 -0.08203,0.84375 -0.05566,0.27539 -0.134765,0.539062 -0.234375,0.796875 0.1875,-0.202149 0.328125,-0.427735 0.421875,-0.679688 0.09961,-0.249023 0.166992,-0.518555 0.199219,-0.808594 z m 0,0"
         style="fill:#000000;fill-opacity:1;fill-rule:nonzero;stroke:none" />
      <path
         id="path128"
         d="m 35.334961,-9.2198447 -0.46875,-0.7382812 c 0.202148,-0.1464841 0.480469,-0.2958981 0.832031,-0.4453121 0.351563,-0.155274 0.776367,-0.234375 1.277344,-0.234375 0.632812,0 1.142578,0.146484 1.535156,0.433593 0.389649,0.2900394 0.585938,0.7031253 0.585938,1.2421878 v 3.9609375 h -0.960938 v -0.796875 c -0.164062,0.2988281 -0.416015,0.5244141 -0.75,0.6796875 -0.336914,0.1552735 -0.711914,0.234375 -1.125,0.234375 -0.351562,0 -0.673828,-0.064453 -0.960937,-0.1875 -0.28125,-0.1318359 -0.509766,-0.3222656 -0.679688,-0.5742187 -0.172851,-0.2490235 -0.257812,-0.5625 -0.257812,-0.9375 0,-0.5859375 0.205078,-1.0371094 0.621093,-1.359375 0.421875,-0.328125 0.996094,-0.4921875 1.722657,-0.4921875 0.319336,0 0.600586,0.043945 0.84375,0.1289062 0.240234,0.079102 0.436523,0.1699219 0.585937,0.2695313 v -0.9257813 c 0,-0.28125 -0.117187,-0.4921875 -0.351562,-0.6328125 -0.234375,-0.140625 -0.503907,-0.2109375 -0.808594,-0.2109375 -0.392578,0 -0.732422,0.076172 -1.019531,0.2226563 -0.28125,0.140625 -0.489258,0.2636718 -0.621094,0.3632812 z m 0,2.6015625 c 0,0.2988281 0.111328,0.5214844 0.339844,0.6679688 0.225586,0.149414 0.498047,0.2226562 0.820312,0.2226562 0.47461,0 0.867188,-0.1083984 1.171875,-0.328125 0.310547,-0.2255859 0.46875,-0.5917969 0.46875,-1.1015625 v -0.2226562 c -0.407226,-0.2109375 -0.864258,-0.3164063 -1.371094,-0.3164063 -0.492187,0 -0.855468,0.099609 -1.089843,0.2929688 -0.228516,0.1875 -0.339844,0.4511718 -0.339844,0.7851562 z m 8.926758,-1.7460937 c 0,-0.9140625 -0.392578,-1.3710938 -1.171875,-1.3710938 -0.421875,0 -0.761719,0.1289063 -1.019532,0.3867188 -0.257812,0.2578125 -0.386718,0.5859375 -0.386718,0.984375 v 3.3632812 h -0.960938 v -9.3632813 h 0.960938 v 4.7226563 c 0.164062,-0.3046875 0.386718,-0.5449223 0.667968,-0.7265623 0.28711,-0.178711 0.612305,-0.269531 0.972657,-0.269531 0.568359,0 1.02539,0.18457 1.371093,0.550781 0.351563,0.3603514 0.527344,0.8964842 0.527344,1.6054686 v 3.4804687 h -0.960937 z m 0,0"
         style="fill:#000000;fill-opacity:1;fill-rule:nonzero;stroke:none" />
    </g>
  </g>
</svg>
