<?xml version="1.0" encoding="UTF-8" standalone="no"?>
<!-- Created with Inkscape (http://www.inkscape.org/) -->

<svg
   version="1.1"
   id="svg1"
   width="28.148212"
   height="21.109365"
   viewBox="0 0 28.148212 21.109365"
   xmlns="http://www.w3.org/2000/svg"
   xmlns:svg="http://www.w3.org/2000/svg">
  <defs
     id="defs1" />
  <g
     id="g82"
     transform="translate(-2080.583,-446.88282)">
    <g
       id="g128"
       aria-label="î‡&#10;aj"
       transform="matrix(1.3333333,0,0,1.3333333,2080,469.22672)">
      <path
         id="path129"
         d="m 9.6210938,-2.7540244 c 0.2578125,0 0.4746092,0.09082 0.6562502,0.2695313 0.178711,0.1816406 0.269531,0.3984375 0.269531,0.65625 0,0.234375 -0.0791,0.4394531 -0.234375,0.609375 -0.158203,0.1728515 -0.3515625,0.26953123 -0.5859375,0.29296873 H 5.4960937 c -0.2578125,0 -0.477539,-0.0878906 -0.65625,-0.26953123 -0.1816406,-0.178711 -0.2695312,-0.3896485 -0.2695312,-0.6328125 0,-0.2402344 0.076172,-0.4482422 0.234375,-0.6210938 C 4.96875,-2.6192587 5.1621094,-2.7217978 5.390625,-2.7540244 Z m -6.1875,0 c 0.2578125,0 0.4746093,0.09082 0.6562499,0.2695313 0.178711,0.1816406 0.2695313,0.3984375 0.2695313,0.65625 0,0.234375 -0.079102,0.4394531 -0.234375,0.609375 -0.1582031,0.1728515 -0.3515625,0.26953123 -0.5859375,0.29296873 H 2.7539063 c -0.2578125,0 -0.4775391,-0.0878906 -0.65625,-0.26953123 -0.1816407,-0.178711 -0.2695313,-0.3896485 -0.2695313,-0.6328125 0,-0.2402344 0.076172,-0.4482422 0.234375,-0.6210938 0.1552734,-0.1699218 0.3457031,-0.2724609 0.5742188,-0.3046875 z m 15.8085932,0 c 0.257813,0 0.47461,0.09082 0.65625,0.2695313 0.178711,0.1816406 0.269532,0.3984375 0.269532,0.65625 0,0.234375 -0.0791,0.4394531 -0.234375,0.609375 -0.158203,0.1728515 -0.348633,0.26953123 -0.574219,0.29296873 H 18.5625 c -0.257813,0 -0.477539,-0.0878906 -0.65625,-0.26953123 -0.181641,-0.178711 -0.269531,-0.3896485 -0.269531,-0.6328125 0,-0.2402344 0.07617,-0.4482422 0.234375,-0.6210938 0.155273,-0.1699218 0.351562,-0.2724609 0.585937,-0.3046875 z m -2.742187,0 c 0.257812,0 0.474609,0.09082 0.65625,0.2695313 0.178711,0.1816406 0.269531,0.3984375 0.269531,0.65625 0,0.234375 -0.08203,0.4394531 -0.246094,0.609375 -0.158203,0.1728515 -0.348632,0.26953123 -0.574218,0.29296873 H 12.375 c -0.257812,0 -0.477539,-0.0878906 -0.65625,-0.26953123 -0.181641,-0.178711 -0.269531,-0.3896485 -0.269531,-0.6328125 0,-0.2402344 0.07617,-0.4482422 0.234375,-0.6210938 0.155273,-0.1699218 0.351562,-0.2724609 0.585937,-0.3046875 z m -4.769531,-13.6406246 0.292969,0.433593 c 0.169921,0.219727 0.319335,0.421875 0.445312,0.609375 0.131836,0.181641 0.249023,0.348633 0.351563,0.503907 0.04687,-0.03809 0.08789,-0.07617 0.128906,-0.117188 0.04687,-0.04687 0.09668,-0.08496 0.152344,-0.117187 0.216796,-0.19336 0.46875,-0.269532 0.75,-0.222657 0.287109,0.04102 0.503906,0.1875 0.644531,0.445313 0.240234,0.416016 0.457031,0.826172 0.644531,1.230469 0.1875,0.407226 0.339844,0.814453 0.457031,1.21875 l 1.699219,-0.996094 0.105469,-0.03516 c 0.28125,-0.117188 0.55664,-0.09668 0.832031,0.05859 0.272461,0.158204 0.416016,0.395508 0.433594,0.714844 0.03809,0.524414 0.0498,1.02832 0.03516,1.511719 -0.0088,0.477539 -0.05566,0.922851 -0.140625,1.3359374 h 2.0625 c 0.328125,0 0.585937,0.1464844 0.773437,0.4335937 0.1875,0.2900391 0.199219,0.5830078 0.03516,0.8789063 -0.328125,0.7207031 -0.688477,1.3476562 -1.078125,1.8867187 -0.383789,0.5332032 -0.796875,0.984375 -1.242188,1.359375 h 1.054688 c 0.240234,0 0.451172,0.09082 0.632812,0.2695313 0.178711,0.1816406 0.269531,0.3925781 0.269531,0.6328125 0,0.243164 -0.07617,0.4511719 -0.222656,0.6210937 -0.149414,0.1728516 -0.339844,0.2753907 -0.574219,0.3046875 H 1.828125 c -0.2431641,0 -0.4541016,-0.087891 -0.6328125,-0.2695312 -0.1816406,-0.178711 -0.26953125,-0.3984375 -0.26953125,-0.65625 0,-0.225586 0.0732422,-0.4248047 0.22265625,-0.5976563 0.1464844,-0.1699218 0.3398437,-0.2724609 0.5742187,-0.3046875 H 2.8828125 C 2.4375,-5.6368369 2.0185547,-6.0880087 1.6289062,-6.6212119 1.2451172,-7.1602744 0.88183594,-7.7872275 0.5390625,-8.5079306 0.38964844,-8.8038291 0.40429688,-9.0967978 0.5859375,-9.3868369 0.76464844,-9.6739462 1.0253906,-9.8204306 1.3710937,-9.8204306 h 2.4140626 c -0.087891,-0.4130864 -0.1376954,-0.8583984 -0.1523438,-1.3359374 -0.017578,-0.483399 -0.00586,-0.987305 0.035156,-1.511719 0.029297,-0.319336 0.1816406,-0.55664 0.4570312,-0.714844 0.2724609,-0.155273 0.5449219,-0.175781 0.8203125,-0.05859 l 0.1054687,0.03516 1.5234375,0.878906 c 0.1230469,-0.366211 0.2753907,-0.74414 0.4570313,-1.136719 0.1787109,-0.398437 0.3867187,-0.802734 0.6210937,-1.21875 0.140625,-0.257812 0.3544922,-0.404296 0.6445313,-0.445312 0.2958984,-0.04687 0.5537109,0.0293 0.7734375,0.222656 l 0.140625,0.152344 c 0.1318359,-0.1875 0.2841797,-0.398438 0.4570313,-0.632813 0.1699218,-0.234375 0.3691405,-0.503906 0.5976565,-0.808593 0.1875,-0.240235 0.427734,-0.363282 0.726563,-0.363282 0.304687,0 0.550781,0.123047 0.738281,0.363282 z m -8.8125002,8.4257809 0.1289062,0.1523437 c 0.2578125,0.3837891 0.5273438,0.7089844 0.8085938,0.9726563 0.2812499,0.2666015 0.5683593,0.46875 0.8671874,0.609375 0.413086,0.2050781 1.0576172,0.3515625 1.9335938,0.4453125 0.8730469,0.09375 1.9628906,0.1259765 3.2695313,0.09375 h 0.046875 L 9.9257813,-5.8008994 C 9.8935547,-5.9005087 9.8554688,-6.0001181 9.8085938,-6.0938681 9.7675781,-6.1876181 9.7294922,-6.2755087 9.6914063,-6.3633994 9.6035156,-6.4161337 9.5332031,-6.4835166 9.4804688,-6.5626181 9.4335938,-6.63879 9.3925781,-6.7296103 9.3632813,-6.8321494 9.0878906,-7.1602744 8.7568359,-7.4210166 8.3671875,-7.6173056 7.9746094,-7.8194541 7.5585937,-7.9366416 7.1132812,-7.9688681 Z m 16.1367182,0 h -3.480468 c -0.65625,0.032227 -1.242188,0.2519531 -1.757813,0.65625 -0.509765,0.4072265 -0.861328,0.9111328 -1.054687,1.5117187 l -0.04687,0.1054688 h 0.04687 c 1.083984,0.032227 2.003906,0 2.753906,-0.09375 0.755859,-0.09375 1.341797,-0.2402344 1.757812,-0.4453125 0.28125,-0.140625 0.56543,-0.3427735 0.855469,-0.609375 0.28711,-0.2636719 0.5625,-0.5888672 0.820313,-0.9726563 z m -5.589843,-4.9218749 -0.08203,0.09375 c -0.416016,0.46875 -0.747071,0.931641 -0.996094,1.382812 -0.251953,0.445313 -0.427735,0.899414 -0.527344,1.359375 l -0.04687,0.2109379 c -0.01758,0.102539 -0.0293,0.196289 -0.03516,0.28125 -0.0088,0.087891 -0.01758,0.1728515 -0.02344,0.2578125 0.123047,-0.2402344 0.269532,-0.46875 0.433594,-0.6796875 0.164063,-0.2167969 0.345703,-0.4277339 0.550781,-0.6328129 0.140625,-0.123046 0.28711,-0.240234 0.445313,-0.351562 0.164062,-0.117188 0.331054,-0.225586 0.503906,-0.328125 l 0.269531,-0.175781 c -0.04101,-0.210938 -0.09961,-0.421875 -0.175781,-0.632813 -0.0791,-0.216797 -0.169922,-0.445312 -0.269531,-0.679687 z m 3.398437,1.875 -2.261718,1.3007811 -0.128907,0.070312 c 0.202149,-0.052734 0.410157,-0.09668 0.621094,-0.1289062 0.216797,-0.029297 0.436523,-0.046875 0.65625,-0.046875 h 0.9375 c 0.04687,-0.140625 0.07617,-0.2929689 0.09375,-0.4570319 0.02344,-0.164062 0.0498,-0.331055 0.08203,-0.503906 z m -11.3906248,0 0.023437,0.234375 c 0.014648,0.172851 0.035156,0.339844 0.058594,0.503906 0.023437,0.164063 0.052734,0.3164064 0.09375,0.4570314 H 6.9375 c 0.1318359,0 0.2607422,0.00879 0.3867187,0.023437 0.131836,0.017578 0.2519532,0.032227 0.3632813,0.046875 z m 3.2109376,-1.898438 -0.09375,0.222657 c -0.087891,0.1875 -0.1611329,0.380859 -0.2226563,0.574218 -0.064453,0.1875 -0.1171875,0.369141 -0.1640625,0.539063 l 0.4570313,0.28125 c 0.1699218,0.102539 0.3339843,0.210937 0.4921875,0.328125 0.1552734,0.111328 0.3046875,0.228516 0.4453125,0.351562 0.076172,0.0791 0.1523437,0.158204 0.2226562,0.234375 0.070312,0.0791 0.1318359,0.152344 0.1875005,0.222657 v 0.04687 c 0.01465,-0.08496 0.03516,-0.175782 0.05859,-0.269532 0.02344,-0.09375 0.03809,-0.18164 0.04687,-0.269531 l 0.04687,0.152344 c -0.102539,-0.357422 -0.2578122,-0.714844 -0.4687497,-1.066406 -0.2050782,-0.351563 -0.4628907,-0.706055 -0.7734375,-1.066407 z m 2.3203122,-1.371093 -0.28125,0.386718 c -0.04687,0.08789 -0.09082,0.158204 -0.128906,0.210938 -0.03223,0.04687 -0.05566,0.08789 -0.07031,0.117187 0.09961,0.125977 0.199218,0.254883 0.292968,0.386719 0.09375,0.125977 0.181641,0.254883 0.269532,0.386719 0.07031,-0.09961 0.140625,-0.205078 0.210937,-0.316406 0.07031,-0.108399 0.146484,-0.213868 0.234375,-0.316407 -0.01758,-0.0059 -0.02344,-0.01758 -0.02344,-0.03516 0,-0.01465 -0.0059,-0.0293 -0.01172,-0.04687 l -0.02344,-0.05859 c -0.03223,-0.04687 -0.0791,-0.117187 -0.140625,-0.210937 -0.05566,-0.09375 -0.125976,-0.193359 -0.210937,-0.304688 z m 0,0"
         style="fill:#000000;fill-opacity:1;fill-rule:nonzero;stroke:none" />
      <path
         id="path130"
         d="m 35.334961,-9.2198447 -0.46875,-0.7382812 c 0.202148,-0.1464841 0.480469,-0.2958981 0.832031,-0.4453121 0.351563,-0.155274 0.776367,-0.234375 1.277344,-0.234375 0.632812,0 1.142578,0.146484 1.535156,0.433593 0.389649,0.2900394 0.585938,0.7031253 0.585938,1.2421878 v 3.9609375 h -0.960938 v -0.796875 c -0.164062,0.2988281 -0.416015,0.5244141 -0.75,0.6796875 -0.336914,0.1552735 -0.711914,0.234375 -1.125,0.234375 -0.351562,0 -0.673828,-0.064453 -0.960937,-0.1875 -0.28125,-0.1318359 -0.509766,-0.3222656 -0.679688,-0.5742187 -0.172851,-0.2490235 -0.257812,-0.5625 -0.257812,-0.9375 0,-0.5859375 0.205078,-1.0371094 0.621093,-1.359375 0.421875,-0.328125 0.996094,-0.4921875 1.722657,-0.4921875 0.319336,0 0.600586,0.043945 0.84375,0.1289062 0.240234,0.079102 0.436523,0.1699219 0.585937,0.2695313 v -0.9257813 c 0,-0.28125 -0.117187,-0.4921875 -0.351562,-0.6328125 -0.234375,-0.140625 -0.503907,-0.2109375 -0.808594,-0.2109375 -0.392578,0 -0.732422,0.076172 -1.019531,0.2226563 -0.28125,0.140625 -0.489258,0.2636718 -0.621094,0.3632812 z m 0,2.6015625 c 0,0.2988281 0.111328,0.5214844 0.339844,0.6679688 0.225586,0.149414 0.498047,0.2226562 0.820312,0.2226562 0.47461,0 0.867188,-0.1083984 1.171875,-0.328125 0.310547,-0.2255859 0.46875,-0.5917969 0.46875,-1.1015625 v -0.2226562 c -0.407226,-0.2109375 -0.864258,-0.3164063 -1.371094,-0.3164063 -0.492187,0 -0.855468,0.099609 -1.089843,0.2929688 -0.228516,0.1875 -0.339844,0.4511718 -0.339844,0.7851562 z m 5.270508,-6.1874998 c 0,-0.178711 0.06152,-0.331055 0.1875,-0.457031 0.131836,-0.131836 0.287109,-0.199219 0.46875,-0.199219 0.178711,0 0.331054,0.06738 0.457031,0.199219 0.131836,0.125976 0.199219,0.27832 0.199219,0.457031 0,0.18164 -0.06738,0.336914 -0.199219,0.46875 -0.125977,0.134765 -0.27832,0.199219 -0.457031,0.199219 -0.181641,0 -0.336914,-0.06445 -0.46875,-0.199219 -0.125977,-0.131836 -0.1875,-0.28711 -0.1875,-0.46875 z m -0.984375,9.1757811 c 0.08789,0.1318359 0.18164,0.2138672 0.28125,0.2460937 0.09961,0.038086 0.202148,0.058594 0.304687,0.058594 0.178711,0 0.319336,-0.082031 0.421875,-0.2460938 0.09961,-0.1640625 0.152344,-0.4423828 0.152344,-0.8320312 v -6.1171878 h 0.960937 v 6.2343753 c 0,0.65625 -0.140625,1.1396484 -0.421875,1.453125 -0.28125,0.3105468 -0.673828,0.46875 -1.171875,0.46875 -0.257812,0 -0.474609,-0.052734 -0.65625,-0.1523438 -0.17871,-0.09375 -0.310546,-0.2050781 -0.398437,-0.328125 z m 0,0"
         style="fill:#000000;fill-opacity:1;fill-rule:nonzero;stroke:none" />
    </g>
  </g>
</svg>
