<?xml version="1.0" encoding="UTF-8" standalone="no"?>
<!-- Created with Inkscape (http://www.inkscape.org/) -->

<svg
   version="1.1"
   id="svg1"
   width="22.734373"
   height="26.203125"
   viewBox="0 0 22.734373 26.203125"
   xmlns="http://www.w3.org/2000/svg"
   xmlns:svg="http://www.w3.org/2000/svg">
  <defs
     id="defs1" />
  <g
     id="g82"
     transform="translate(-1927.2969,-563.85938)">
    <g
       id="g135"
       aria-label="&#10;ak"
       transform="matrix(1.3333333,0,0,1.3333333,1924,589.17339)">
      <path
         id="path136"
         d="m 11.003906,-18.985509 c 1.154297,0 2.25,0.251953 3.28125,0.75 1.03125,0.515625 1.933594,1.201172 2.707031,2.050782 0.773438,0.852539 1.388672,1.828125 1.851563,2.929687 0.451172,1.119141 0.679687,2.279297 0.679687,3.4804688 0,1.1484375 -0.231445,2.1035156 -0.691406,2.859375 -0.454101,0.758789 -1.125,1.3300781 -2.015625,1.7109375 -0.328125,0.149414 -0.679687,0.2695312 -1.054687,0.3632812 -0.369141,0.09375 -0.782227,0.1699219 -1.242188,0.2226563 l 0.492188,1.8867187 c 0.234375,0.8613281 0.08203,1.640625 -0.457031,2.34375 -0.539063,0.703125 -1.248047,1.0546875 -2.121094,1.0546875 H 9.46875 c -0.8847656,0 -1.59375,-0.3515625 -2.1328125,-1.0546875 -0.5390625,-0.703125 -0.6914063,-1.4824219 -0.4570313,-2.34375 l 0.515625,-1.8867187 C 6.9726562,-4.6710556 6.5888672,-4.7413681 6.2460937,-4.8292587 5.9003906,-4.9142197 5.5722656,-5.0226181 5.2617187,-5.1573837 4.3476562,-5.5382431 3.6503906,-6.1095322 3.1757813,-6.8683212 c -0.46875,-0.7646485 -0.703125,-1.734375 -0.703125,-2.90625 0,-1.2011718 0.2255859,-2.3613278 0.6796875,-3.4804688 0.4599609,-1.101562 1.0781249,-2.077148 1.8515624,-2.929687 0.7734375,-0.84961 1.6757813,-1.535157 2.7070313,-2.050782 1.03125,-0.498047 2.1269531,-0.75 3.2929685,-0.75 z M 9.7734375,-4.489415 H 9.234375 L 8.6367188,-2.2511337 C 8.5810547,-1.9933212 8.625,-1.7530869 8.765625,-1.53629 c 0.140625,0.2109375 0.3398438,0.328125 0.5976563,0.3515625 h 3.0703127 c 0.272461,0 0.495117,-0.1083984 0.667969,-0.328125 0.169921,-0.2255859 0.222656,-0.4716797 0.152343,-0.7382812 L 12.65625,-4.489415 h -0.375 c -0.07031,0 -0.137695,0.00586 -0.199219,0.011719 -0.06445,0.00879 -0.125976,0.011719 -0.1875,0.011719 h -1.242187 c -0.158203,0 -0.310547,0 -0.457031,0 -0.149415,0 -0.2900396,-0.00586 -0.4218755,-0.023437 z m 1.2304685,-12.679687 c -0.890625,0 -1.7402341,0.210937 -2.5429685,0.632812 -0.8144531,0.398438 -1.5292969,0.943359 -2.1445313,1.628906 -0.618164,0.688477 -1.1074218,1.476563 -1.4648437,2.367188 -0.3691406,0.884765 -0.5507813,1.804687 -0.5507813,2.7656248 0,1.3300781 0.3896485,2.2265625 1.171875,2.6953125 0.788086,0.46875 2.2646485,0.7236328 4.4296876,0.7617187 h 2.2500002 c 2.138672,-0.038086 3.597656,-0.2929687 4.371093,-0.7617187 0.779297,-0.4746094 1.171875,-1.3740235 1.171875,-2.6953125 0,-0.3896488 -0.03223,-0.7763668 -0.09375,-1.1601558 -0.06445,-0.38086 -0.152343,-0.75293 -0.269531,-1.113282 -0.196289,0.102539 -0.407226,0.181641 -0.632812,0.234375 -0.219727,0.05566 -0.451172,0.08203 -0.691407,0.08203 -0.767578,0 -1.423828,-0.269532 -1.968749,-0.808594 -0.539063,-0.544922 -0.808594,-1.198242 -0.808594,-1.957031 0,-0.342774 0.05859,-0.670899 0.175781,-0.984375 0.123047,-0.319336 0.295898,-0.609375 0.515625,-0.867188 -0.445312,-0.257812 -0.919922,-0.457031 -1.417969,-0.597656 -0.492187,-0.146485 -0.993164,-0.222656 -1.5,-0.222656 z m -2.472656,3.785156 c 0.7734375,0 1.4238281,0.27539 1.957031,0.820312 0.539063,0.539063 0.808594,1.189453 0.808594,1.945313 0,0.7734373 -0.269531,1.4355466 -0.808594,1.9804685 C 9.9550781,-8.0900009 9.3046875,-7.81754 8.53125,-7.81754 c -0.7734375,0 -1.4296875,-0.2724609 -1.96875,-0.8203125 -0.5390625,-0.5449219 -0.8085938,-1.2070312 -0.8085938,-1.9804685 0,-0.75586 0.2695313,-1.40625 0.8085938,-1.945313 0.5390625,-0.544922 1.1953125,-0.820312 1.96875,-0.820312 z m 0,1.828125 c -0.2578125,0 -0.4804687,0.09375 -0.6679688,0.28125 -0.1875,0.18164 -0.28125,0.398437 -0.28125,0.65625 0,0.27539 0.09375,0.503906 0.28125,0.691406 0.1875001,0.1875 0.4101563,0.28125 0.6679688,0.28125 0.2578125,0 0.4746094,-0.09375 0.65625,-0.28125 0.1875,-0.1875 0.28125,-0.416016 0.28125,-0.691406 0,-0.257813 -0.09375,-0.47461 -0.28125,-0.65625 -0.1816406,-0.1875 -0.3984375,-0.28125 -0.65625,-0.28125 z m 6.84375,-3.65625 -0.01172,0.02344 c -0.08789,0.08789 -0.161133,0.19336 -0.222656,0.316407 -0.05566,0.117187 -0.08203,0.243164 -0.08203,0.375 0,0.257812 0.09375,0.480468 0.28125,0.667968 0.1875,0.181641 0.410156,0.269532 0.667968,0.269532 0.09375,0 0.1875,-0.01172 0.28125,-0.03516 0.09375,-0.0293 0.181641,-0.07324 0.269532,-0.128906 -0.172852,-0.272461 -0.357422,-0.533203 -0.550782,-0.785156 -0.187499,-0.249024 -0.398437,-0.483399 -0.632812,-0.703125 z m 0,0"
         style="fill:#000000;fill-opacity:1;fill-rule:nonzero;stroke:none" />
      <path
         id="path137"
         d="m 35.334961,-9.2179306 -0.46875,-0.7382813 c 0.202148,-0.1464841 0.480469,-0.2958981 0.832031,-0.4453121 0.351563,-0.155274 0.776367,-0.234375 1.277344,-0.234375 0.632812,0 1.142578,0.146484 1.535156,0.433593 0.389649,0.2900394 0.585938,0.7031254 0.585938,1.2421879 v 3.9609375 h -0.960938 v -0.796875 c -0.164062,0.2988281 -0.416015,0.524414 -0.75,0.6796875 -0.336914,0.1552734 -0.711914,0.234375 -1.125,0.234375 -0.351562,0 -0.673828,-0.064453 -0.960937,-0.1875 -0.28125,-0.131836 -0.509766,-0.3222656 -0.679688,-0.5742188 -0.172851,-0.2490234 -0.257812,-0.5625 -0.257812,-0.9375 0,-0.5859375 0.205078,-1.0371093 0.621093,-1.359375 0.421875,-0.328125 0.996094,-0.4921875 1.722657,-0.4921875 0.319336,0 0.600586,0.043945 0.84375,0.1289063 0.240234,0.079102 0.436523,0.1699219 0.585937,0.2695312 v -0.9257812 c 0,-0.28125 -0.117187,-0.4921875 -0.351562,-0.6328125 -0.234375,-0.140625 -0.503907,-0.2109375 -0.808594,-0.2109375 -0.392578,0 -0.732422,0.076172 -1.019531,0.2226562 -0.28125,0.140625 -0.489258,0.2636719 -0.621094,0.3632813 z m 0,2.6015625 c 0,0.2988281 0.111328,0.5214844 0.339844,0.6679687 0.225586,0.1494141 0.498047,0.2226563 0.820312,0.2226563 0.47461,0 0.867188,-0.1083985 1.171875,-0.328125 0.310547,-0.225586 0.46875,-0.5917969 0.46875,-1.1015625 v -0.2226563 c -0.407226,-0.2109375 -0.864258,-0.3164062 -1.371094,-0.3164062 -0.492187,0 -0.855468,0.099609 -1.089843,0.2929687 -0.228516,0.1875 -0.339844,0.4511719 -0.339844,0.7851563 z m 8.329101,-3.9023439 h 1.195313 l -2.402344,2.2851564 2.648438,3.234375 H 43.898437 L 41.625,-7.7999619 v 2.8007813 H 40.664062 V -14.362462 H 41.625 v 5.7773439 z m 0,0"
         style="fill:#000000;fill-opacity:1;fill-rule:nonzero;stroke:none" />
    </g>
  </g>
</svg>
