<?xml version="1.0" encoding="UTF-8" standalone="no"?>
<!-- Created with Inkscape (http://www.inkscape.org/) -->

<svg
   version="1.1"
   id="svg1"
   width="25.049612"
   height="25.94586"
   viewBox="0 0 25.049612 25.94586"
   xmlns="http://www.w3.org/2000/svg"
   xmlns:svg="http://www.w3.org/2000/svg">
  <defs
     id="defs1" />
  <g
     id="g82"
     transform="translate(-2082.1382,-563.81977)">
    <g
       id="g137"
       aria-label="&#10;al"
       transform="matrix(1.3333333,0,0,1.3333333,2080,589.17339)">
      <path
         id="path138"
         d="m 10.875,-17.719884 c 0.240234,-0.492187 0.544922,-0.84375 0.914063,-1.054687 0.375,-0.216797 0.802734,-0.28711 1.289062,-0.210938 0.155273,0.02344 0.319336,0.06738 0.492188,0.128907 0.169921,0.05566 0.351562,0.125976 0.539062,0.210937 0.04687,0.01758 0.08496,0.03223 0.117188,0.04687 0.03808,0.0088 0.07617,0.0293 0.117187,0.05859 l 0.691406,0.328125 0.925782,0.445312 c 0.773437,0.392578 1.294921,0.837891 1.570312,1.335938 0.28125,0.500976 0.237305,1.130859 -0.128906,1.886719 -0.375,0.791015 -0.958008,1.359375 -1.746094,1.710937 -0.791016,0.351563 -1.59082,0.427734 -2.402344,0.222656 -0.430664,0.805664 -0.767578,1.649414 -1.007812,2.53125 -0.234375,0.8759768 -0.363281,1.7695315 -0.386719,2.683594 l -0.02344,0.3867188 v 1.3828125 l 1.992187,-1.4648438 c -0.257812,-0.703125 -0.298828,-1.4208984 -0.117187,-2.15625 0.17871,-0.7412109 0.5625,-1.3623045 1.148437,-1.8632815 l 0.152344,-0.128906 c 0.5625,-0.427734 1.104492,-0.600586 1.628906,-0.515625 0.521484,0.0791 1.001953,0.360352 1.441406,0.84375 0.06152,0.05566 0.111328,0.111328 0.152344,0.164063 0.04687,0.04687 0.08789,0.09961 0.128906,0.152343 l 0.222656,0.257813 c 0.0059,0.03223 0.03516,0.0791 0.08203,0.140625 0.05273,0.06445 0.111328,0.134765 0.175781,0.2109373 L 19.5,-9.13004 l 0.222656,0.3046875 c 0.08496,0.1113281 0.158203,0.2167969 0.222656,0.3164063 0.06152,0.102539 0.117188,0.2050781 0.164063,0.3046875 0.193359,0.3691406 0.287109,0.7324218 0.28125,1.0898437 0,0.3603516 -0.125977,0.7119141 -0.375,1.0546875 -0.07031,0.1025391 -0.152344,0.2050781 -0.246094,0.3046875 -0.09375,0.1025391 -0.196289,0.1962891 -0.304687,0.28125 -0.688477,0.5244141 -1.461914,0.7734375 -2.320313,0.75 -0.861328,-0.029297 -1.614258,-0.3193359 -2.261718,-0.8671875 l -3.046875,2.2382813 v 1.9804687 h 5.109374 c 0.257813,0 0.47461,0.09082 0.65625,0.2695313 0.178711,0.18164058 0.269532,0.39843745 0.269532,0.65624995 0,0.22851563 -0.0791,0.42773438 -0.234375,0.59765625 -0.158203,0.16992188 -0.351563,0.26953125 -0.585938,0.29296875 H 5.0507812 c -0.2578125,0 -0.477539,-0.0908203 -0.65625,-0.26953125 C 4.2128906,0.00179594 4.125,-0.20328219 4.125,-0.44644625 4.125,-0.69546969 4.201172,-0.90640719 4.359375,-1.0792587 4.5146484,-1.2491806 4.7109375,-1.34879 4.9453125,-1.3722275 h 5.0625005 v -2.390625 c 0,-0.014648 0,-0.026367 0,-0.035156 0,-0.014648 0,-0.029297 0,-0.046875 V -6.4933212 L 6.984375,-9.176915 C 6.2958984,-8.6993759 5.5253906,-8.4796494 4.6757812,-8.520665 3.8320313,-8.56754 3.0966797,-8.8780869 2.4726563,-9.458165 L 2.3203125,-9.5870712 C 1.9277344,-9.9679306 1.6992187,-10.375157 1.6289062,-10.805821 c -0.070312,-0.427735 0.00586,-0.858399 0.234375,-1.289063 0.076172,-0.155273 0.1699219,-0.298828 0.2812501,-0.433593 0.1171875,-0.140625 0.2460937,-0.295899 0.3867187,-0.46875 0.014648,-0.01465 0.035156,-0.0293 0.058594,-0.04687 0.029297,-0.02344 0.061523,-0.0498 0.09375,-0.08203 l 1.3710937,-1.394531 c 0.1640625,-0.140625 0.3164062,-0.269531 0.4570312,-0.386719 0.140625,-0.117187 0.2841797,-0.210937 0.4335938,-0.28125 0.4277344,-0.225586 0.8583984,-0.298828 1.2890625,-0.222656 0.4277344,0.0791 0.84375,0.310547 1.2421875,0.691406 0.5537109,0.5625 0.890625,1.22461 1.0078125,1.980469 0.1171875,0.758789 0.011719,1.482422 -0.3164062,2.167969 l 1.96875,1.7460935 c 0.09961,-0.8203125 0.28125,-1.6201175 0.539062,-2.4023435 0.257813,-0.788086 0.577149,-1.549805 0.960938,-2.285156 -0.556641,-0.530274 -0.911133,-1.183594 -1.066406,-1.957032 -0.158204,-0.773437 -0.05567,-1.523437 0.304687,-2.25 z m 5.753906,7.9218753 c -0.08789,-0.084961 -0.152344,-0.131836 -0.199219,-0.140625 -0.04102,-0.00586 -0.09375,0.011719 -0.164062,0.058594 l -0.128906,0.1054688 c -0.392578,0.2988281 -0.618164,0.6972656 -0.679688,1.1953125 -0.06445,0.4921875 0.05274,0.9316406 0.351563,1.3125 0.310547,0.4072265 0.708984,0.6386718 1.195312,0.6914062 0.492188,0.055664 0.9375,-0.064453 1.335938,-0.3632812 0.04687,-0.029297 0.08496,-0.061524 0.117187,-0.09375 0.03809,-0.038086 0.06445,-0.073242 0.08203,-0.1054688 0.0293,-0.038086 0.01758,-0.1083984 -0.03516,-0.2109375 -0.04687,-0.099609 -0.193359,-0.3076172 -0.433594,-0.6210937 L 17.167969,-9.176915 16.945312,-9.41129 c -0.02344,-0.052734 -0.05566,-0.09668 -0.09375,-0.1289062 -0.04102,-0.038086 -0.07031,-0.082031 -0.09375,-0.1289063 z M 6.1640625,-13.430821 c -0.1025391,-0.108399 -0.1728516,-0.166992 -0.2109375,-0.175781 -0.032227,-0.0059 -0.076172,0.0059 -0.1289063,0.03516 l -0.1523437,0.05859 c -0.017578,0.01758 -0.041016,0.03516 -0.070312,0.05859 -0.023437,0.01758 -0.058594,0.04687 -0.1054688,0.09375 l -1.03125,1.03125 c -0.3603515,0.360352 -0.5976562,0.597657 -0.7148437,0.714844 -0.1113281,0.111328 -0.1816406,0.193359 -0.2109375,0.246094 l -0.082031,0.175781 c -0.017578,0.03223 -0.020508,0.06445 -0.011719,0.09375 0.00586,0.02344 0.035156,0.05566 0.082031,0.09375 l 0.1054687,0.117188 c 0.3427734,0.351562 0.7646484,0.527343 1.265625,0.527343 0.4980469,0 0.9199219,-0.175781 1.265625,-0.527343 0.3574219,-0.342774 0.5390625,-0.761719 0.5390625,-1.253907 0,-0.498047 -0.1816406,-0.928711 -0.5390625,-1.289062 z m 6.5976565,-3.75 c -0.04687,0 -0.08203,0.0088 -0.105469,0.02344 -0.01758,0.0088 -0.04102,0.04395 -0.07031,0.105469 l -0.05859,0.128906 c -0.219727,0.439453 -0.251953,0.896485 -0.09375,1.371094 0.155273,0.46875 0.46289,0.814453 0.925781,1.03125 0.445313,0.210938 0.896484,0.240234 1.359375,0.08203 0.46875,-0.155273 0.811523,-0.46289 1.03125,-0.925781 0.07031,-0.140625 0.09668,-0.240234 0.08203,-0.304687 -0.01758,-0.06152 -0.125976,-0.152344 -0.328125,-0.269532 l -0.363281,-0.175781 -1.839844,-0.902344 c -0.102539,-0.03809 -0.18164,-0.07031 -0.234375,-0.09375 -0.04687,-0.02344 -0.09375,-0.04101 -0.140625,-0.05859 z m 0,0"
         style="fill:#000000;fill-opacity:1;fill-rule:nonzero;stroke:none" />
      <path
         id="path139"
         d="m 35.334961,-9.2179306 -0.46875,-0.7382813 c 0.202148,-0.1464841 0.480469,-0.2958981 0.832031,-0.4453121 0.351563,-0.155274 0.776367,-0.234375 1.277344,-0.234375 0.632812,0 1.142578,0.146484 1.535156,0.433593 0.389649,0.2900394 0.585938,0.7031254 0.585938,1.2421879 v 3.9609375 h -0.960938 v -0.796875 c -0.164062,0.2988281 -0.416015,0.524414 -0.75,0.6796875 -0.336914,0.1552734 -0.711914,0.234375 -1.125,0.234375 -0.351562,0 -0.673828,-0.064453 -0.960937,-0.1875 -0.28125,-0.131836 -0.509766,-0.3222656 -0.679688,-0.5742188 -0.172851,-0.2490234 -0.257812,-0.5625 -0.257812,-0.9375 0,-0.5859375 0.205078,-1.0371093 0.621093,-1.359375 0.421875,-0.328125 0.996094,-0.4921875 1.722657,-0.4921875 0.319336,0 0.600586,0.043945 0.84375,0.1289063 0.240234,0.079102 0.436523,0.1699219 0.585937,0.2695312 v -0.9257812 c 0,-0.28125 -0.117187,-0.4921875 -0.351562,-0.6328125 -0.234375,-0.140625 -0.503907,-0.2109375 -0.808594,-0.2109375 -0.392578,0 -0.732422,0.076172 -1.019531,0.2226562 -0.28125,0.140625 -0.489258,0.2636719 -0.621094,0.3632813 z m 0,2.6015625 c 0,0.2988281 0.111328,0.5214844 0.339844,0.6679687 0.225586,0.1494141 0.498047,0.2226563 0.820312,0.2226563 0.47461,0 0.867188,-0.1083985 1.171875,-0.328125 0.310547,-0.225586 0.46875,-0.5917969 0.46875,-1.1015625 v -0.2226563 c -0.407226,-0.2109375 -0.864258,-0.3164062 -1.371094,-0.3164062 -0.492187,0 -0.855468,0.099609 -1.089843,0.2929687 -0.228516,0.1875 -0.339844,0.4511719 -0.339844,0.7851563 z m 5.387695,-7.7460939 h 0.960938 v 9.3632814 h -0.960938 z m 0,0"
         style="fill:#000000;fill-opacity:1;fill-rule:nonzero;stroke:none" />
    </g>
  </g>
</svg>
