<?xml version="1.0" encoding="UTF-8" standalone="no"?>
<!-- Created with Inkscape (http://www.inkscape.org/) -->

<svg
   version="1.1"
   id="svg1"
   width="26.277735"
   height="26.875399"
   viewBox="0 0 26.277735 26.875399"
   xmlns="http://www.w3.org/2000/svg"
   xmlns:svg="http://www.w3.org/2000/svg">
  <defs
     id="defs1" />
  <g
     id="g82"
     transform="translate(-2237.5214,-562.89023)">
    <g
       id="g139"
       aria-label="&#10;ađ"
       transform="matrix(1.3333333,0,0,1.3333333,2236,589.17339)">
      <path
         id="path140"
         d="m 5.4609375,-18.903477 c 0.038086,-0.28711 0.1787109,-0.509766 0.421875,-0.667969 0.2402344,-0.155274 0.5068359,-0.181641 0.796875,-0.08203 0.014648,0.01758 0.038086,0.0293 0.070312,0.03516 0.038086,0 0.073242,0.0088 0.1054687,0.02344 l 0.515625,0.222657 c 0.272461,0.09375 0.5390625,0.199218 0.7968751,0.316406 0.2578125,0.117187 0.5068359,0.231445 0.75,0.339844 0.4130859,0.205078 0.7851562,0.410156 1.1132817,0.621093 0.328125,0.205078 0.609375,0.407227 0.84375,0.609375 0.08496,0.08789 0.166992,0.175782 0.246093,0.269532 0.07617,0.09375 0.143554,0.193359 0.199219,0.292968 0.398437,0.641602 0.550781,1.333008 0.457031,2.074219 -0.09375,0.735352 -0.395508,1.368164 -0.902343,1.898438 0.263671,0.618164 0.492188,1.250976 0.679688,1.898437 0.1875,0.650391 0.322265,1.3066406 0.410156,1.96875 l 1.828125,-1.617187 c -0.243164,-0.624024 -0.292969,-1.268555 -0.152344,-1.933594 0.140625,-0.670899 0.474609,-1.242188 1.007813,-1.710938 0.27246,-0.249023 0.632812,-0.448242 1.078125,-0.597656 0.445312,-0.146484 0.978515,-0.272461 1.605468,-0.375 0.272461,-0.05273 0.55664,-0.09668 0.855469,-0.128906 0.304687,-0.03809 0.609375,-0.07324 0.914062,-0.105469 0.08496,0 0.166993,-0.0029 0.246094,-0.01172 0.07617,-0.0059 0.152344,-0.01172 0.222656,-0.01172 l 0.316407,-0.02344 c 0.287109,-0.01465 0.530273,0.08789 0.726562,0.304688 0.19336,0.210937 0.269531,0.46875 0.222656,0.773437 -0.01758,0.07031 -0.04102,0.172852 -0.07031,0.304688 -0.02344,0.125976 -0.05273,0.27539 -0.08203,0.445312 l -0.105469,0.433594 c -0.04102,0.210937 -0.09082,0.421875 -0.152344,0.632812 -0.05566,0.205078 -0.111328,0.407227 -0.164062,0.609375 -0.1875,0.632813 -0.386719,1.166016 -0.597657,1.59375 -0.205078,0.430664 -0.442382,0.7675784 -0.714843,1.0078128 -0.580078,0.5009765 -1.242188,0.7705078 -1.992188,0.8085937 -0.75,0.032227 -1.417968,-0.1582031 -2.003906,-0.5742187 l -2.859375,2.53125 v 2.6015625 c 0,0.017578 0,0.029297 0,0.035156 0,0.00879 0,0.020508 0,0.035156 l -0.02344,2.6835937 h 4.874999 c 0.257813,0 0.47461,0.09082 0.65625,0.2695313 0.178711,0.18164058 0.269532,0.39843745 0.269532,0.65624995 0,0.22851563 -0.0791,0.42773438 -0.234375,0.59765625 -0.158203,0.16992188 -0.351563,0.26953125 -0.585938,0.29296875 H 5.0507812 c -0.2578125,0 -0.477539,-0.0908203 -0.65625,-0.26953125 C 4.2128906,0.00179594 4.125,-0.20328219 4.125,-0.44644625 4.125,-0.69546969 4.201172,-0.90640719 4.359375,-1.0792587 4.5146484,-1.2491806 4.7109375,-1.34879 4.9453125,-1.3722275 h 5.2968755 v -2.2851562 l -2.2968755,-1.6875 C 7.4912109,-4.9288681 6.9521484,-4.6681259 6.328125,-4.5597275 5.7011719,-4.4571884 5.0888672,-4.53629 4.4882812,-4.7941025 L 4.3359375,-4.8761337 C 3.9902344,-5.0460556 3.6503906,-5.333165 3.3164063,-5.7316025 2.9794922,-6.1358994 2.6396484,-6.6398056 2.296875,-7.2433212 2.0859375,-7.5860947 1.8896484,-7.9288681 1.7109375,-8.2745712 c -0.1816406,-0.3427735 -0.3369141,-0.65625 -0.46875,-0.9375 L 1.21875,-9.2589462 c -0.1113281,-0.272461 -0.1025391,-0.5390625 0.023437,-0.7968748 0.1318359,-0.257813 0.3398437,-0.421875 0.6210937,-0.492188 0.014648,0 0.029297,0 0.046875,0 0.014648,0 0.038086,-0.0059 0.070312,-0.02344 l 0.5156251,-0.08203 c 0.084961,-0.01465 0.1757812,-0.03516 0.2695312,-0.05859 0.099609,-0.02344 0.2021484,-0.03809 0.3046875,-0.04687 0.2578125,-0.0293 0.5068359,-0.06152 0.75,-0.09375 0.2402344,-0.03809 0.4863281,-0.06445 0.7382812,-0.08203 0.5859375,-0.04687 1.1015625,-0.0498 1.546875,-0.01172 0.4511719,0.04101 0.8320313,0.137695 1.1367188,0.292969 0.703125,0.345703 1.2070313,0.8730464 1.5117188,1.5820308 0.3046875,0.703125 0.3574218,1.4238281 0.1640625,2.15625 l 1.3242192,0.984375 V -7.301915 c 0,-0.8203125 -0.08203,-1.6318359 -0.2460942,-2.4375 -0.1640625,-0.811523 -0.4101563,-1.587891 -0.7382813,-2.332031 -0.65625,0.140625 -1.3066406,0.08203 -1.9453125,-0.175781 -0.6328125,-0.257813 -1.1367188,-0.685547 -1.5117188,-1.289063 -0.1875,-0.295898 -0.3164062,-0.670898 -0.3867187,-1.125 -0.070312,-0.451172 -0.1142578,-0.978516 -0.1289063,-1.582031 0,-0.295899 0.00586,-0.597656 0.023437,-0.902344 0.014648,-0.310547 0.035156,-0.624023 0.058594,-0.9375 0.014648,-0.06152 0.023437,-0.120117 0.023437,-0.175781 0,-0.05273 0.00586,-0.111328 0.023437,-0.175781 z M 6.421875,-9.0245712 C 6.3046875,-9.0773056 6.09375,-9.1124619 5.7890625,-9.13004 5.4902344,-9.144688 5.1269531,-9.1359 4.6992187,-9.106603 4.4882812,-9.089025 4.265625,-9.065587 4.03125,-9.036291 3.8027344,-9.012854 3.5771484,-8.980627 3.3515625,-8.942541 l 0.082031,-0.011719 0.1054687,0.234375 0.1757813,0.28125 0.1523437,0.2695312 c 0.2724609,0.4453125 0.5214844,0.8173828 0.75,1.1132813 0.2255859,0.290039 0.4042969,0.4746093 0.5390625,0.5507812 0.3427734,0.1728516 0.6972656,0.1962891 1.0664062,0.070312 0.375,-0.1230469 0.647461,-0.3574219 0.8203125,-0.703125 0.1699219,-0.3427734 0.1933594,-0.6972656 0.070312,-1.0664062 -0.1171875,-0.375 -0.3486328,-0.647461 -0.6914062,-0.8203125 z m 12.351562,-4.6640628 -0.339843,0.04687 c -0.149414,0.03223 -0.290039,0.05566 -0.421875,0.07031 -0.125977,0.0088 -0.251953,0.0293 -0.375,0.05859 -0.462891,0.07031 -0.84961,0.158203 -1.160157,0.257812 -0.304687,0.102539 -0.503906,0.196289 -0.597656,0.28125 -0.304687,0.257813 -0.46875,0.583008 -0.492187,0.972656 -0.01758,0.383789 0.105469,0.714844 0.363281,0.996094 0.257812,0.304688 0.577148,0.46875 0.960937,0.492188 0.389649,0.01758 0.732422,-0.105469 1.03125,-0.363282 0.08496,-0.07031 0.181641,-0.225586 0.292969,-0.46875 0.117188,-0.240234 0.234375,-0.541992 0.351563,-0.902343 l 0.105468,-0.363282 c 0.04687,-0.117187 0.08496,-0.237304 0.117188,-0.363281 0.03809,-0.131836 0.07324,-0.260742 0.105469,-0.386719 z m -11.601562,-3.796875 -0.023437,0.410157 c -0.00879,0.140625 -0.011719,0.28125 -0.011719,0.421875 0,0.134765 0,0.263671 0,0.386718 0,0.445313 0.017578,0.829102 0.058594,1.148438 0.046875,0.313476 0.09668,0.521484 0.1523437,0.621094 0.2109375,0.328125 0.506836,0.539062 0.8906251,0.632812 0.3808593,0.09375 0.7382812,0.04102 1.0664062,-0.164062 0.328125,-0.210938 0.5332031,-0.506836 0.6210938,-0.890625 0.084961,-0.38086 0.026367,-0.738282 -0.1757813,-1.066407 -0.017578,-0.01465 -0.035156,-0.03516 -0.058594,-0.05859 -0.017578,-0.0293 -0.041016,-0.06152 -0.070312,-0.09375 -0.140625,-0.123047 -0.3457032,-0.269532 -0.609375,-0.433594 -0.2666016,-0.164063 -0.5712891,-0.322266 -0.9140625,-0.480469 -0.070312,-0.04687 -0.1406251,-0.08496 -0.2109376,-0.117187 -0.070312,-0.03809 -0.149414,-0.07324 -0.234375,-0.105469 z m 0,0"
         style="fill:#000000;fill-opacity:1;fill-rule:nonzero;stroke:none" />
      <path
         id="path141"
         d="m 35.334961,-9.2179306 -0.46875,-0.7382813 c 0.202148,-0.1464841 0.480469,-0.2958981 0.832031,-0.4453121 0.351563,-0.155274 0.776367,-0.234375 1.277344,-0.234375 0.632812,0 1.142578,0.146484 1.535156,0.433593 0.389649,0.2900394 0.585938,0.7031254 0.585938,1.2421879 v 3.9609375 h -0.960938 v -0.796875 c -0.164062,0.2988281 -0.416015,0.524414 -0.75,0.6796875 -0.336914,0.1552734 -0.711914,0.234375 -1.125,0.234375 -0.351562,0 -0.673828,-0.064453 -0.960937,-0.1875 -0.28125,-0.131836 -0.509766,-0.3222656 -0.679688,-0.5742188 -0.172851,-0.2490234 -0.257812,-0.5625 -0.257812,-0.9375 0,-0.5859375 0.205078,-1.0371093 0.621093,-1.359375 0.421875,-0.328125 0.996094,-0.4921875 1.722657,-0.4921875 0.319336,0 0.600586,0.043945 0.84375,0.1289063 0.240234,0.079102 0.436523,0.1699219 0.585937,0.2695312 v -0.9257812 c 0,-0.28125 -0.117187,-0.4921875 -0.351562,-0.6328125 -0.234375,-0.140625 -0.503907,-0.2109375 -0.808594,-0.2109375 -0.392578,0 -0.732422,0.076172 -1.019531,0.2226562 -0.28125,0.140625 -0.489258,0.2636719 -0.621094,0.3632813 z m 0,2.6015625 c 0,0.2988281 0.111328,0.5214844 0.339844,0.6679687 0.225586,0.1494141 0.498047,0.2226563 0.820312,0.2226563 0.47461,0 0.867188,-0.1083985 1.171875,-0.328125 0.310547,-0.225586 0.46875,-0.5917969 0.46875,-1.1015625 v -0.2226563 c -0.407226,-0.2109375 -0.864258,-0.3164062 -1.371094,-0.3164062 -0.492187,0 -0.855468,0.099609 -1.089843,0.2929687 -0.228516,0.1875 -0.339844,0.4511719 -0.339844,0.7851563 z m 4.907226,-1.1484375 c 0,-0.5917969 0.120118,-1.1044922 0.363282,-1.5351563 0.249023,-0.4277343 0.580078,-0.7558591 0.996093,-0.9843751 0.421875,-0.234375 0.878907,-0.351562 1.371094,-0.351562 0.413086,0 0.779297,0.09375 1.101563,0.28125 0.319336,0.18164 0.580078,0.4423824 0.785156,0.7851559 v -2.5078129 h -1.5 v -0.902343 h 1.5 v -1.382813 h 0.960937 v 1.382813 h 1.136719 v 0.902343 h -1.136719 v 7.0781254 h -0.960937 v -0.9492188 c -0.205078,0.3457032 -0.46582,0.609375 -0.785156,0.796875 -0.322266,0.178711 -0.688477,0.2695313 -1.101563,0.2695313 -0.492187,0 -0.949219,-0.1142578 -1.371094,-0.3398438 -0.416015,-0.234375 -0.74707,-0.5654297 -0.996093,-0.9960937 -0.243164,-0.4365235 -0.363282,-0.9521485 -0.363282,-1.546875 z m 0.972657,0 c 0,0.430664 0.08496,0.7939453 0.257812,1.0898437 0.169922,0.2988282 0.401367,0.5214844 0.691406,0.6679688 0.28711,0.149414 0.600586,0.2226562 0.9375,0.2226562 0.272461,0 0.544922,-0.073242 0.820313,-0.2226562 0.272461,-0.1464844 0.495117,-0.3691406 0.667969,-0.6679688 0.178711,-0.2958984 0.269531,-0.6591797 0.269531,-1.0898437 0,-0.421875 -0.09082,-0.7792969 -0.269531,-1.078125 -0.172852,-0.2958985 -0.395508,-0.5185547 -0.667969,-0.6679688 -0.275391,-0.1464843 -0.547852,-0.2226562 -0.820313,-0.2226562 -0.336914,0 -0.65039,0.076172 -0.9375,0.2226562 -0.290039,0.1494141 -0.521484,0.3720703 -0.691406,0.6679688 -0.172851,0.2988281 -0.257812,0.65625 -0.257812,1.078125 z m 0,0"
         style="fill:#000000;fill-opacity:1;fill-rule:nonzero;stroke:none" />
    </g>
  </g>
</svg>
