<?xml version="1.0" encoding="UTF-8" standalone="no"?>
<!-- Created with Inkscape (http://www.inkscape.org/) -->

<svg
   version="1.1"
   id="svg1"
   width="28.140629"
   height="27.499998"
   viewBox="0 0 28.140629 27.499998"
   xmlns="http://www.w3.org/2000/svg"
   xmlns:svg="http://www.w3.org/2000/svg">
  <defs
     id="defs1" />
  <g
     id="g82"
     transform="translate(-1768.5937,-608.24219)">
    <g
       id="g141"
       aria-label="î‡&#10;az"
       transform="matrix(1.3333333,0,0,1.3333333,1768,634.50672)">
      <path
         id="path142"
         d="m 11.238281,-19.698399 c 0.811524,0 1.541016,0.240234 2.191407,0.714843 0.65625,0.46875 1.113281,1.072266 1.371093,1.804688 0.890625,0.125976 1.640625,0.524414 2.25,1.195312 0.615235,0.665039 0.949219,1.453125 0.996094,2.367188 v 3.7617186 h 1.546875 c 0.530273,0 0.975586,0.1933594 1.335937,0.5742188 0.366211,0.375 0.56543,0.8291015 0.597657,1.359375 l 0.02344,0.1289062 c 0,0.4541016 -0.134765,0.8642578 -0.398437,1.2304688 -0.266602,0.3691406 -0.603516,0.6152343 -1.007813,0.7382812 0.01465,0.046875 0.02344,0.099609 0.02344,0.1523438 0,0.046875 -0.0088,0.09082 -0.02344,0.1289062 l -0.960937,4.1015625 c -0.158206,0.68847659 -0.574222,1.25390627 -1.25391,1.69921877 C 17.25,0.70394437 16.464844,0.92660062 15.574219,0.92660062 H 6.421875 c -0.890625,0 -1.6757813,-0.22265625 -2.3554688,-0.66796875 C 3.3867188,-0.18668063 2.9677734,-0.75211031 2.8125,-1.4405869 L 1.8515625,-5.5421494 c -0.017578,-0.038086 -0.023437,-0.082031 -0.023437,-0.1289062 0,-0.052734 0.00586,-0.1054688 0.023437,-0.1523438 C 1.4443359,-5.9464463 1.1074219,-6.19254 0.84375,-6.5616806 0.57714844,-6.9278916 0.4453125,-7.3380478 0.4453125,-7.7921494 c 0,-0.5625 0.19042969,-1.0458984 0.5742187,-1.453125 0.3808594,-0.4042969 0.84375,-0.609375 1.3828126,-0.609375 h 1.3125 v -3.5859376 c 0,-1.007812 0.3515624,-1.875 1.0546874,-2.601562 0.703125,-0.732422 1.546875,-1.119141 2.53125,-1.160157 L 7.5,-17.225743 c 0.023437,0 0.049805,0 0.082031,0 0.029297,0 0.058594,0.0088 0.082031,0.02344 0.2724609,-0.732422 0.7294922,-1.330078 1.3710938,-1.792968 0.6474609,-0.46875 1.3828132,-0.703125 2.2031252,-0.703125 z m 7.089844,14.2031246 H 3.6679688 l 0.7734374,3.375 c 0.076172,0.328125 0.2753907,0.6064453 0.5976563,0.8320313 0.3193359,0.2197265 0.6855469,0.33984372 1.1015625,0.36328122 h 9.5625 c 0.459961,0 0.861328,-0.10839842 1.207031,-0.32812502 0.342774,-0.2255859 0.556641,-0.515625 0.644531,-0.8671875 z M 19.59375,-8.0148056 H 2.4023438 c -0.017578,0 -0.041016,0.020508 -0.070312,0.058594 -0.023437,0.032227 -0.035156,0.087891 -0.035156,0.1640625 0,0.070312 0.011719,0.1289063 0.035156,0.1757813 0.029297,0.041016 0.052734,0.058594 0.070312,0.058594 H 19.59375 c 0.01465,0 0.03516,-0.017578 0.05859,-0.058594 0.0293,-0.046875 0.04687,-0.1054688 0.04687,-0.1757813 0,-0.076172 -0.01758,-0.1318359 -0.04687,-0.1640625 -0.02344,-0.038086 -0.04395,-0.058594 -0.05859,-0.058594 z m -8.355469,-9.8554684 c -0.407226,0 -0.770508,0.114257 -1.089843,0.339843 -0.3222661,0.219727 -0.5595708,0.500977 -0.7148442,0.84375 0.5537109,0.328125 0.9990232,0.782227 1.3359372,1.359375 0.333985,0.571289 0.503907,1.201172 0.503907,1.886719 v 3.5859376 h 1.898437 v -6.0585936 c 0,-0.544922 -0.193359,-1.007813 -0.574219,-1.382813 -0.383789,-0.380859 -0.83789,-0.574218 -1.359375,-0.574218 z m 3.773438,2.636718 v 5.3789066 h 1.207031 v -3.5859376 c 0,-0.404297 -0.117188,-0.767578 -0.351562,-1.089844 -0.228516,-0.319336 -0.512696,-0.553711 -0.855469,-0.703125 z M 7.5,-15.374181 c -0.5332031,0 -0.9902344,0.19336 -1.3710938,0.574219 -0.375,0.375 -0.5625,0.829102 -0.5625,1.359375 v 0.574219 h 0.8320313 c 0.2578125,0 0.4746094,0.09082 0.65625,0.269531 0.1787109,0.181641 0.2695312,0.392578 0.2695312,0.632813 0,0.243164 -0.079102,0.451171 -0.234375,0.621093 -0.1582031,0.172852 -0.3515625,0.275391 -0.5859375,0.304688 h -0.9375 v 0.796875 h 3.8906251 v -3.199219 c 0,-0.515625 -0.1757813,-0.960937 -0.5273438,-1.335937 -0.3515625,-0.375 -0.7792969,-0.574219 -1.2773438,-0.597657 z m 0,0"
         style="fill:#000000;fill-opacity:1;fill-rule:nonzero;stroke:none" />
      <path
         id="path143"
         d="m 35.334961,-9.2189072 -0.46875,-0.7382812 c 0.202148,-0.1464846 0.480469,-0.2958986 0.832031,-0.4453126 0.351563,-0.155273 0.776367,-0.234375 1.277344,-0.234375 0.632812,0 1.142578,0.146484 1.535156,0.433594 0.389649,0.2900389 0.585938,0.7031248 0.585938,1.2421873 v 3.9609375 h -0.960938 v -0.796875 c -0.164062,0.2988281 -0.416015,0.5244141 -0.75,0.6796875 -0.336914,0.1552734 -0.711914,0.234375 -1.125,0.234375 -0.351562,0 -0.673828,-0.064453 -0.960937,-0.1875 -0.28125,-0.1318359 -0.509766,-0.3222656 -0.679688,-0.5742187 -0.172851,-0.2490235 -0.257812,-0.5625 -0.257812,-0.9375 0,-0.5859375 0.205078,-1.0371094 0.621093,-1.359375 0.421875,-0.328125 0.996094,-0.4921875 1.722657,-0.4921875 0.319336,0 0.600586,0.043945 0.84375,0.1289062 0.240234,0.079102 0.436523,0.1699219 0.585937,0.2695313 v -0.9257813 c 0,-0.28125 -0.117187,-0.4921875 -0.351562,-0.6328125 -0.234375,-0.140625 -0.503907,-0.2109375 -0.808594,-0.2109375 -0.392578,0 -0.732422,0.076172 -1.019531,0.2226563 -0.28125,0.140625 -0.489258,0.2636718 -0.621094,0.3632812 z m 0,2.6015625 c 0,0.2988281 0.111328,0.5214844 0.339844,0.6679688 0.225586,0.149414 0.498047,0.2226562 0.820312,0.2226562 0.47461,0 0.867188,-0.1083984 1.171875,-0.328125 0.310547,-0.2255859 0.46875,-0.5917969 0.46875,-1.1015625 v -0.2226562 c -0.407226,-0.2109375 -0.864258,-0.3164063 -1.371094,-0.3164063 -0.492187,0 -0.855468,0.099609 -1.089843,0.2929688 -0.228516,0.1875 -0.339844,0.4511718 -0.339844,0.7851562 z m 8.083008,-3 h -3.058594 v -0.9023433 h 4.804687 l -3.421875,4.6171871 h 3.175782 v 0.9023437 h -4.921875 z m 0,0"
         style="fill:#000000;fill-opacity:1;fill-rule:nonzero;stroke:none" />
    </g>
  </g>
</svg>
