<?xml version="1.0" encoding="UTF-8" standalone="no"?>
<!-- Created with Inkscape (http://www.inkscape.org/) -->

<svg
   version="1.1"
   id="svg1"
   width="28.140627"
   height="27.21875"
   viewBox="0 0 28.140627 27.21875"
   xmlns="http://www.w3.org/2000/svg"
   xmlns:svg="http://www.w3.org/2000/svg">
  <defs
     id="defs1" />
  <g
     id="g82"
     transform="translate(-1924.5937,-608.52344)">
    <g
       id="g143"
       aria-label="&#10;ax"
       transform="matrix(1.3333333,0,0,1.3333333,1924,634.50672)">
      <path
         id="path144"
         d="m 10.394531,-19.241368 c 0.169922,-0.164063 0.369141,-0.246094 0.597657,-0.246094 0.234375,0 0.436523,0.08203 0.609375,0.246094 0.445312,0.398437 0.826171,0.814453 1.148437,1.242187 0.319336,0.430664 0.580078,0.875977 0.785156,1.335938 0.427735,-0.272461 0.881836,-0.492188 1.359375,-0.65625 0.483399,-0.164063 0.987305,-0.269531 1.511719,-0.316406 h 0.117187 c 0.225586,0 0.424805,0.08203 0.597657,0.246093 0.169922,0.164063 0.263672,0.369141 0.28125,0.609375 0.02344,0.533203 0.01172,1.03711 -0.03516,1.511719 -0.04687,0.46875 -0.146484,0.911133 -0.292968,1.324219 0.427734,0.102539 0.849609,0.243164 1.265625,0.421875 0.421875,0.18164 0.846679,0.416015 1.277343,0.703125 0.178711,0.125976 0.298829,0.301758 0.363282,0.527344 0.07031,0.219726 0.05273,0.439453 -0.04687,0.65625 -0.117188,0.196289 -0.231446,0.386718 -0.339844,0.574218 -0.102539,0.1875 -0.219727,0.360352 -0.351563,0.515625 h 0.351563 c 0.539062,0 0.999023,0.205078 1.382812,0.6093754 0.38086,0.4072265 0.574219,0.890625 0.574219,1.453125 0,0.4863281 -0.146484,0.9199218 -0.433594,1.3007812 -0.290039,0.375 -0.65625,0.6152344 -1.101562,0.7148438 l -0.832031,4.453125 C 19.025391,-1.1534775 18.609375,-0.4503525 17.929687,0.09456937 17.25,0.64828031 16.464844,0.92660062 15.574219,0.92660062 H 6.421875 c -0.890625,0 -1.6757813,-0.27832031 -2.3554688,-0.83203125 C 3.3867188,-0.4503525 2.9677734,-1.1534775 2.8125,-2.0148056 L 1.9804687,-6.4679306 C 1.5351562,-6.56754 1.1660156,-6.8077744 0.87890625,-7.1827744 0.58886719,-7.5636338 0.4453125,-7.9972275 0.4453125,-8.4835556 c 0,-0.5625 0.19042969,-1.0458985 0.5742187,-1.453125 0.3808594,-0.4042974 0.84375,-0.6093754 1.3828126,-0.6093754 h 0.3515625 c -0.1347657,-0.155273 -0.2548829,-0.328125 -0.3632813,-0.515625 -0.1025391,-0.1875 -0.2109375,-0.377929 -0.328125,-0.574218 -0.1025391,-0.216797 -0.1230469,-0.436524 -0.058594,-0.65625 0.070312,-0.225586 0.1933593,-0.401368 0.375,-0.527344 0.4277343,-0.28711 0.8496093,-0.521485 1.265625,-0.703125 0.4218749,-0.178711 0.8466796,-0.319336 1.2773437,-0.421875 -0.1347656,-0.413086 -0.2285156,-0.855469 -0.28125,-1.324219 -0.055664,-0.474609 -0.070312,-0.978516 -0.046875,-1.511719 0.014648,-0.240234 0.1083984,-0.445312 0.28125,-0.609375 0.1699219,-0.164062 0.3691406,-0.246093 0.5976562,-0.246093 h 0.1171875 c 0.5214844,0.04687 1.022461,0.152343 1.5,0.316406 0.4833985,0.164062 0.9492188,0.375 1.3945313,0.632812 0.1875,-0.459961 0.4394531,-0.902343 0.7617188,-1.324218 0.3193359,-0.421875 0.703125,-0.832032 1.1484375,-1.230469 z m 7.757813,12.8203124 H 3.84375 l 0.7734375,4.0546875 c 0.070312,0.4072265 0.2578125,0.7441406 0.5625,1.0078125 0.3105469,0.2666015 0.6738281,0.41015622 1.0898437,0.43359372 h 9.3046878 c 0.445312,0 0.83789,-0.13183592 1.183593,-0.39843752 0.342774,-0.2724609 0.550782,-0.6210937 0.621094,-1.0429687 z M 19.59375,-8.6944931 H 2.4023438 c -0.017578,0 -0.041016,0.020508 -0.070312,0.058594 -0.023437,0.032227 -0.035156,0.082031 -0.035156,0.1523438 0,0.070312 0.011719,0.1289062 0.035156,0.1757812 0.029297,0.041016 0.052734,0.058594 0.070312,0.058594 H 19.59375 c 0.01465,0 0.03516,-0.017578 0.05859,-0.058594 0.0293,-0.046875 0.04687,-0.1054687 0.04687,-0.1757812 0,-0.070312 -0.01758,-0.1201172 -0.04687,-0.1523438 -0.02344,-0.038086 -0.04395,-0.058594 -0.05859,-0.058594 z m -1.910156,-3.1171879 c -0.509766,-0.225586 -1.001953,-0.357422 -1.476563,-0.398437 -0.46875,-0.04687 -0.93164,-0.01465 -1.382812,0.09375 -0.430664,0.134765 -0.832031,0.328125 -1.207031,0.585937 -0.375,0.257813 -0.720704,0.585938 -1.03125,0.984375 h 4.171874 l 0.08203,-0.07031 c 0.117187,-0.08496 0.234375,-0.1875 0.351562,-0.304688 0.123047,-0.123047 0.237305,-0.249023 0.339844,-0.375 l 0.164062,-0.210937 0.152344,-0.222656 z m -13.371094,0 -0.1640625,0.08203 0.1523437,0.222656 c 0.1230469,0.18164 0.2607422,0.348633 0.4101563,0.503906 0.1552734,0.149414 0.3046875,0.27832 0.4453125,0.386719 l 0.082031,0.07031 h 4.1718751 c -0.3134766,-0.398437 -0.65625,-0.726562 -1.03125,-0.984375 -0.375,-0.257812 -0.7792969,-0.451172 -1.2070313,-0.585937 -0.4541016,-0.108399 -0.9199219,-0.140625 -1.3945313,-0.09375 -0.46875,0.04101 -0.9580078,0.172851 -1.4648437,0.398437 z m 6.691406,-5.460937 -0.128906,0.152344 c -0.345703,0.430664 -0.603516,0.867187 -0.773437,1.3125 -0.164063,0.445312 -0.2460942,0.902343 -0.2460942,1.371093 0,0.477539 0.082031,0.9375 0.2460942,1.382813 0.169921,0.439453 0.427734,0.873047 0.773437,1.300781 l 0.128906,0.128906 0.117188,-0.128906 c 0.319336,-0.380859 0.5625,-0.779297 0.726562,-1.195312 0.164063,-0.413086 0.260742,-0.834961 0.292969,-1.265625 v -0.222657 c 0,-0.46875 -0.08789,-0.925781 -0.257812,-1.371093 -0.164063,-0.445313 -0.418946,-0.881836 -0.761719,-1.3125 z m 4.546875,1.652344 -0.210937,0.09375 c -0.149414,0.05566 -0.301758,0.123046 -0.457031,0.199218 -0.158204,0.0791 -0.304688,0.161133 -0.445313,0.246094 -0.08789,0.06445 -0.164062,0.117188 -0.234375,0.164063 -0.06445,0.04101 -0.146484,0.09375 -0.246094,0.164062 0,0.04102 0.0029,0.09082 0.01172,0.152344 0.0059,0.05566 0.01172,0.111328 0.01172,0.164062 0,0.117188 -0.0059,0.234375 -0.01172,0.351563 -0.0088,0.111328 -0.01758,0.222656 -0.02344,0.339844 l 0.164062,-0.07031 0.234375,-0.05859 c 0.131836,-0.0293 0.263672,-0.05859 0.398438,-0.08203 0.140625,-0.0293 0.28125,-0.05273 0.421875,-0.07031 0.09961,-0.225586 0.18164,-0.462891 0.246093,-0.714844 0.06152,-0.249024 0.108399,-0.518555 0.140625,-0.808594 z m -9.1054685,0 v 0.07031 c 0.029297,0.290039 0.076172,0.55957 0.140625,0.808594 0.061523,0.251953 0.1435547,0.489258 0.2460937,0.714844 0.140625,0.01758 0.2753907,0.04101 0.4101563,0.07031 0.140625,0.02344 0.2753906,0.05273 0.4101562,0.08203 0.070312,0.01758 0.140625,0.03516 0.2109375,0.05859 0.070312,0.01758 0.131836,0.04102 0.1875001,0.07031 -0.00879,-0.117188 -0.017578,-0.228516 -0.023437,-0.339844 -0.00879,-0.117188 -0.011719,-0.234375 -0.011719,-0.351563 0,-0.05273 0.00293,-0.108398 0.011719,-0.164062 0.00586,-0.06152 0.011719,-0.120117 0.011719,-0.175781 -0.087891,-0.05274 -0.1640625,-0.105469 -0.234375,-0.152344 -0.064453,-0.05274 -0.1376953,-0.105469 -0.2226563,-0.152344 -0.140625,-0.09961 -0.2929687,-0.1875 -0.4570312,-0.257812 -0.1582031,-0.07031 -0.3134766,-0.131836 -0.46875,-0.1875 z m 0,0"
         style="fill:#000000;fill-opacity:1;fill-rule:nonzero;stroke:none" />
      <path
         id="path145"
         d="m 35.334961,-9.2189072 -0.46875,-0.7382812 c 0.202148,-0.1464846 0.480469,-0.2958986 0.832031,-0.4453126 0.351563,-0.155273 0.776367,-0.234375 1.277344,-0.234375 0.632812,0 1.142578,0.146484 1.535156,0.433594 0.389649,0.2900389 0.585938,0.7031248 0.585938,1.2421873 v 3.9609375 h -0.960938 v -0.796875 c -0.164062,0.2988281 -0.416015,0.5244141 -0.75,0.6796875 -0.336914,0.1552734 -0.711914,0.234375 -1.125,0.234375 -0.351562,0 -0.673828,-0.064453 -0.960937,-0.1875 -0.28125,-0.1318359 -0.509766,-0.3222656 -0.679688,-0.5742187 -0.172851,-0.2490235 -0.257812,-0.5625 -0.257812,-0.9375 0,-0.5859375 0.205078,-1.0371094 0.621093,-1.359375 0.421875,-0.328125 0.996094,-0.4921875 1.722657,-0.4921875 0.319336,0 0.600586,0.043945 0.84375,0.1289062 0.240234,0.079102 0.436523,0.1699219 0.585937,0.2695313 v -0.9257813 c 0,-0.28125 -0.117187,-0.4921875 -0.351562,-0.6328125 -0.234375,-0.140625 -0.503907,-0.2109375 -0.808594,-0.2109375 -0.392578,0 -0.732422,0.076172 -1.019531,0.2226563 -0.28125,0.140625 -0.489258,0.2636718 -0.621094,0.3632812 z m 0,2.6015625 c 0,0.2988281 0.111328,0.5214844 0.339844,0.6679688 0.225586,0.149414 0.498047,0.2226562 0.820312,0.2226562 0.47461,0 0.867188,-0.1083984 1.171875,-0.328125 0.310547,-0.2255859 0.46875,-0.5917969 0.46875,-1.1015625 v -0.2226562 c -0.407226,-0.2109375 -0.864258,-0.3164063 -1.371094,-0.3164063 -0.492187,0 -0.855468,0.099609 -1.089843,0.2929688 -0.228516,0.1875 -0.339844,0.4511718 -0.339844,0.7851562 z m 8.329101,-3.9023433 h 1.078125 l -1.886718,2.6718746 2.003906,2.8476562 H 43.78125 l -1.441406,-2.0859375 -1.441407,2.0859375 H 39.820312 L 41.824219,-7.8478134 39.9375,-10.519688 h 1.078125 l 1.324219,1.9218746 z m 0,0"
         style="fill:#000000;fill-opacity:1;fill-rule:nonzero;stroke:none" />
    </g>
  </g>
</svg>
