<?xml version="1.0" encoding="UTF-8" standalone="no"?>
<!-- Created with Inkscape (http://www.inkscape.org/) -->

<svg
   version="1.1"
   id="svg1"
   width="28.015627"
   height="22.96875"
   viewBox="0 0 28.015627 22.96875"
   xmlns="http://www.w3.org/2000/svg"
   xmlns:svg="http://www.w3.org/2000/svg">
  <defs
     id="defs1" />
  <g
     id="g82"
     transform="translate(-2080.6562,-610.78906)">
    <g
       id="g145"
       aria-label="&#10;ac"
       transform="matrix(1.3333333,0,0,1.3333333,2080,634.50672)">
      <path
         id="path146"
         d="m 10.757813,-17.788243 c 0.577148,0 1.107421,0.134765 1.59375,0.398437 0.483398,0.266602 0.878906,0.615235 1.183593,1.042969 h 1.183594 c 0.257813,0 0.47168,0.09082 0.644531,0.269531 0.178711,0.181641 0.269532,0.398438 0.269532,0.65625 0,0.243164 -0.0791,0.451172 -0.234375,0.621094 -0.158204,0.172852 -0.348633,0.275391 -0.574219,0.304688 H 14.15625 v 0.878906 h 0.5625 c 0.257813,0 0.47168,0.09082 0.644531,0.269531 0.178711,0.181641 0.269532,0.392578 0.269532,0.632813 0,0.07031 -0.0088,0.140625 -0.02344,0.210937 -0.0088,0.06445 -0.0293,0.123047 -0.05859,0.175781 0.202149,-0.131836 0.416016,-0.234375 0.644531,-0.304687 0.225586,-0.07031 0.46875,-0.111328 0.726563,-0.128906 h 0.152344 c 0.75,0 1.394531,0.246093 1.933593,0.738281 0.544922,0.486328 0.861329,1.083984 0.949219,1.792969 h 0.621094 c 0.257812,0 0.474609,0.09082 0.65625,0.2695309 0.178711,0.1816406 0.269531,0.3984375 0.269531,0.65625 0,0.243164 -0.0791,0.4511718 -0.234375,0.6210937 -0.158203,0.1728516 -0.351562,0.2753906 -0.585937,0.3046875 h -0.726563 v 0.328125 c 0,1.0166016 -0.351562,1.8955078 -1.054687,2.6367188 -0.703125,0.7353515 -1.564453,1.1308593 -2.578125,1.1835937 h -1.992188 c -0.04687,0 -0.09082,0.020508 -0.128906,0.058594 -0.03223,0.032227 -0.04687,0.076172 -0.04687,0.1289062 v 1.4882813 c 0,0.5478515 -0.199219,1.0166015 -0.597656,1.40625 -0.392578,0.3925781 -0.864258,0.58593747 -1.417969,0.58593747 H 9.3867188 c -0.5566407,0 -1.03125,-0.19335937 -1.4296876,-0.58593747 -0.3925781,-0.3896485 -0.5859375,-0.8583985 -0.5859375,-1.40625 V -3.4327744 H 6.421875 c -0.2578125,0 -0.4746094,-0.087891 -0.6445313,-0.2695312 -0.1728515,-0.178711 -0.2578125,-0.3984375 -0.2578125,-0.65625 0,-0.225586 0.073242,-0.4248047 0.2226563,-0.5976563 0.1552734,-0.1699219 0.3457031,-0.2724609 0.5742187,-0.3046875 L 6.421875,-5.2843369 H 7.3710937 V -5.6007431 H 6.2695312 c -0.243164,0 -0.4541015,-0.087891 -0.6328125,-0.2695313 -0.1816406,-0.1787109 -0.2695312,-0.3984375 -0.2695312,-0.65625 0,-0.234375 0.076172,-0.4365234 0.234375,-0.609375 0.1640625,-0.1787109 0.3515625,-0.2753906 0.5625,-0.2929687 l 0.1054687,-0.023437 h 1.1015625 v -0.1992188 c 0,-0.038086 -0.011719,-0.073242 -0.035156,-0.1054687 -0.023437,-0.038086 -0.055664,-0.064453 -0.09375,-0.082031 h -1.699219 c -0.5478515,0 -1.0546875,-0.1054687 -1.5234375,-0.3164062 C 3.5566406,-8.3722275 3.1640625,-8.6622666 2.8359375,-9.0226181 H 1.4179687 c -0.2578125,0 -0.47753901,-0.087891 -0.65624995,-0.2695313 -0.18164063,-0.1787109 -0.26953125,-0.3984375 -0.26953125,-0.65625 0,-0.2255856 0.0761719,-0.4248046 0.234375,-0.5976566 0.15527344,-0.169922 0.3515625,-0.272461 0.5859375,-0.304687 l 0.1054687,-0.02344 h 0.4921875 c -0.017578,-0.09375 -0.032227,-0.193359 -0.046875,-0.304687 -0.00879,-0.108399 -0.011719,-0.216797 -0.011719,-0.328125 v -1.980469 c 0,-0.802734 0.28125,-1.482422 0.84375,-2.039062 0.5625,-0.5625 1.2451172,-0.84375 2.0507812,-0.84375 0.5683594,0 1.0898438,0.158203 1.5585938,0.46875 0.46875,0.304687 0.8144531,0.700195 1.0429687,1.183593 l 0.046875,0.09375 v -0.128906 c 0.084961,-0.820312 0.4277344,-1.514648 1.0312501,-2.085937 0.6005862,-0.568358 1.324219,-0.884764 2.167969,-0.949217 z m 0,1.851562 c -0.430665,0 -0.7968755,0.152344 -1.101563,0.457032 -0.2988281,0.298828 -0.4453125,0.662109 -0.4453125,1.089843 v 1.699219 c 0,0.257813 -0.09082,0.477539 -0.2695312,0.65625 -0.1728516,0.181641 -0.3867188,0.269531 -0.6445313,0.269531 h -1.59375 c -0.2431641,0 -0.4541016,-0.08789 -0.6328125,-0.269531 -0.1816406,-0.178711 -0.2695313,-0.398437 -0.2695313,-0.65625 v -0.796875 c 0,-0.287109 -0.1054687,-0.533203 -0.3164062,-0.738281 -0.2050781,-0.210938 -0.4511719,-0.316406 -0.7382813,-0.316406 -0.2988281,0 -0.5478515,0.105468 -0.7499999,0.316406 -0.2050782,0.205078 -0.3046875,0.451172 -0.3046875,0.738281 v 1.980469 c 0,0.500976 0.1787109,0.93457 0.5390624,1.300781 0.3574219,0.3603517 0.796875,0.5390626 1.3125,0.5390626 h 1.6523438 c 0.5625,0 1.0371094,0.1992188 1.4296875,0.5976563 0.3896484,0.3925781 0.5859375,0.8642578 0.5859375,1.4179687 v 5.0976563 c 0,0.041016 0.017578,0.079101 0.058594,0.1171875 0.038086,0.041016 0.076172,0.058594 0.1171875,0.058594 h 2.753906 c 0.05273,0 0.09668,-0.017578 0.128906,-0.058594 0.03809,-0.038086 0.05859,-0.076172 0.05859,-0.1171875 v -1.4882813 c 0,-0.5537109 0.19043,-1.0253906 0.574219,-1.4179687 0.389648,-0.3984375 0.867187,-0.5976563 1.429687,-0.5976563 h 1.816406 c 0.544922,0 1.010743,-0.1933594 1.394532,-0.5859375 0.389648,-0.3984375 0.585937,-0.8671875 0.585937,-1.40625 v -1.828125 c 0,-0.2871091 -0.102539,-0.5332031 -0.304687,-0.7382811 -0.196289,-0.210938 -0.445313,-0.316406 -0.75,-0.316406 -0.28125,0 -0.527344,0.105468 -0.738282,0.316406 -0.210937,0.205078 -0.316406,0.451172 -0.316406,0.7382811 v 0.796875 c 0,0.2578125 -0.09082,0.4775391 -0.269531,0.65625 -0.172852,0.1728516 -0.383789,0.2578125 -0.632812,0.2578125 h -1.886719 c -0.257813,0 -0.47461,-0.084961 -0.644531,-0.2578125 -0.172852,-0.1787109 -0.257813,-0.3984375 -0.257813,-0.65625 v -5.3085941 c 0,-0.427734 -0.158203,-0.791015 -0.46875,-1.089843 -0.304687,-0.304688 -0.673828,-0.457032 -1.101562,-0.457032 z m 4.195312,4.125 h -0.02344 c -0.01758,0 -0.03223,0 -0.04687,0 -0.01758,0 -0.03516,0.0088 -0.05859,0.02344 H 14.15625 v 1.78125 h 0.04687 v -0.04687 c 0.02344,-0.342774 0.09668,-0.66211 0.222656,-0.960938 0.131836,-0.304687 0.307617,-0.568359 0.527344,-0.796875 z m 0,0"
         style="fill:#000000;fill-opacity:1;fill-rule:nonzero;stroke:none" />
      <path
         id="path147"
         d="m 35.334961,-9.2189072 -0.46875,-0.7382812 c 0.202148,-0.1464846 0.480469,-0.2958986 0.832031,-0.4453126 0.351563,-0.155273 0.776367,-0.234375 1.277344,-0.234375 0.632812,0 1.142578,0.146484 1.535156,0.433594 0.389649,0.2900389 0.585938,0.7031248 0.585938,1.2421873 v 3.9609375 h -0.960938 v -0.796875 c -0.164062,0.2988281 -0.416015,0.5244141 -0.75,0.6796875 -0.336914,0.1552734 -0.711914,0.234375 -1.125,0.234375 -0.351562,0 -0.673828,-0.064453 -0.960937,-0.1875 -0.28125,-0.1318359 -0.509766,-0.3222656 -0.679688,-0.5742187 -0.172851,-0.2490235 -0.257812,-0.5625 -0.257812,-0.9375 0,-0.5859375 0.205078,-1.0371094 0.621093,-1.359375 0.421875,-0.328125 0.996094,-0.4921875 1.722657,-0.4921875 0.319336,0 0.600586,0.043945 0.84375,0.1289062 0.240234,0.079102 0.436523,0.1699219 0.585937,0.2695313 v -0.9257813 c 0,-0.28125 -0.117187,-0.4921875 -0.351562,-0.6328125 -0.234375,-0.140625 -0.503907,-0.2109375 -0.808594,-0.2109375 -0.392578,0 -0.732422,0.076172 -1.019531,0.2226563 -0.28125,0.140625 -0.489258,0.2636718 -0.621094,0.3632812 z m 0,2.6015625 c 0,0.2988281 0.111328,0.5214844 0.339844,0.6679688 0.225586,0.149414 0.498047,0.2226562 0.820312,0.2226562 0.47461,0 0.867188,-0.1083984 1.171875,-0.328125 0.310547,-0.2255859 0.46875,-0.5917969 0.46875,-1.1015625 v -0.2226562 c -0.407226,-0.2109375 -0.864258,-0.3164063 -1.371094,-0.3164063 -0.492187,0 -0.855468,0.099609 -1.089843,0.2929688 -0.228516,0.1875 -0.339844,0.4511718 -0.339844,0.7851562 z m 5.821289,-1.1484375 c 0,0.3925781 0.08203,0.7353516 0.246094,1.03125 0.164062,0.2900391 0.386718,0.5214844 0.667968,0.6914063 0.28125,0.1728515 0.600586,0.2578125 0.960938,0.2578125 0.451172,0 0.855469,-0.09668 1.207031,-0.2929688 0.351563,-0.2021484 0.588867,-0.4394531 0.714844,-0.7148437 v 1.2070312 c -0.1875,0.2197266 -0.462891,0.3925781 -0.820313,0.515625 -0.351562,0.1230469 -0.720703,0.1875 -1.101562,0.1875 -0.533203,0 -1.016602,-0.1201172 -1.453125,-0.3632812 -0.430664,-0.2490235 -0.770508,-0.5917969 -1.019531,-1.03125 -0.251953,-0.4365235 -0.375,-0.9316407 -0.375,-1.4882813 0,-0.5537109 0.123047,-1.0458984 0.375,-1.4765625 0.249023,-0.4365234 0.588867,-0.7763673 1.019531,-1.0195313 0.436523,-0.249023 0.919922,-0.375 1.453125,-0.375 0.380859,0 0.75,0.06445 1.101562,0.1875 0.357422,0.117188 0.632813,0.290039 0.820313,0.5156251 v 1.2070312 c -0.125977,-0.2724609 -0.363281,-0.5068359 -0.714844,-0.703125 -0.351562,-0.2021484 -0.755859,-0.3046875 -1.207031,-0.3046875 -0.360352,0 -0.679688,0.087891 -0.960938,0.2578125 -0.28125,0.1640625 -0.503906,0.3955078 -0.667968,0.6914063 -0.164063,0.2988281 -0.246094,0.6386718 -0.246094,1.0195312 z m 0,0"
         style="fill:#000000;fill-opacity:1;fill-rule:nonzero;stroke:none" />
    </g>
  </g>
</svg>
