<?xml version="1.0" encoding="UTF-8" standalone="no"?>
<!-- Created with Inkscape (http://www.inkscape.org/) -->

<svg
   version="1.1"
   id="svg1"
   width="18.156248"
   height="27.265625"
   viewBox="0 0 18.156248 27.265625"
   xmlns="http://www.w3.org/2000/svg"
   xmlns:svg="http://www.w3.org/2000/svg">
  <defs
     id="defs1" />
  <g
     id="g82"
     transform="translate(-2241.1875,-609.16406)">
    <g
       id="g147"
       aria-label="&#10;av"
       transform="matrix(1.3333333,0,0,1.3333333,2236,634.50672)">
      <path
         id="path148"
         d="m 12.023438,-19.006993 c 0.577148,0 1.069335,0.196289 1.476562,0.585937 0.404297,0.383789 0.632813,0.852539 0.679688,1.40625 v 2.707032 h 1.160156 c 0.600586,0 1.113281,0.210937 1.535156,0.632812 0.421875,0.421875 0.632812,0.93457 0.632812,1.535156 v 10.7695316 c 0,0.60351565 -0.210937,1.11035159 -0.632812,1.52343752 -0.421875,0.41308594 -0.93457,0.62109375 -1.535156,0.62109375 h -0.878906 c -0.06445,0.20214844 -0.172852,0.36328123 -0.328125,0.48046873 -0.158204,0.1230469 -0.345704,0.1875 -0.5625,0.1875 -0.19629,0 -0.375,-0.064453 -0.539063,-0.1875 C 12.873047,1.1375381 12.767578,0.97640531 12.714844,0.77425687 H 8.6953125 C 8.6396484,0.97640531 8.53125,1.1375381 8.3671875,1.2547256 c -0.1640625,0.1230469 -0.3486328,0.1875 -0.5507813,0.1875 -0.2109375,0 -0.3984375,-0.064453 -0.5625,-0.1875 C 7.0957031,1.1375381 6.9902344,0.97640531 6.9375,0.77425687 H 6.0585937 c -0.6035156,0 -1.1132812,-0.20800781 -1.5351562,-0.62109375 C 4.1015625,-0.25992281 3.890625,-0.76675875 3.890625,-1.3702744 V -12.139806 c 0,-0.600586 0.2109375,-1.113281 0.6328125,-1.535156 0.421875,-0.421875 0.9316406,-0.632812 1.5351562,-0.632812 H 7.21875 v -2.554688 c 0,-0.568359 0.1904297,-1.057617 0.5742187,-1.464844 0.3896485,-0.413086 0.8613282,-0.638672 1.4179688,-0.679687 z m 3.632812,10.3242186 c -0.05566,0.017578 -0.114258,0.029297 -0.175781,0.035156 -0.05566,0.00879 -0.117188,0.011719 -0.1875,0.011719 l -0.175781,0.023437 H 11.625 v 1.1601563 c 0,0.2578125 -0.09082,0.477539 -0.269531,0.65625 -0.181641,0.1816406 -0.398438,0.2695312 -0.65625,0.2695312 -0.219727,0 -0.410156,-0.064453 -0.574219,-0.1992187 C 9.9609375,-6.8663681 9.8583984,-7.03629 9.8203125,-7.2413681 L 9.7734375,-7.4523056 V -8.6124619 H 6.2695312 c -0.055664,0 -0.1171875,-0.00293 -0.1875,-0.011719 -0.064453,-0.00586 -0.1230468,-0.017578 -0.1757812,-0.035156 l -0.1757813,-0.023437 v 7.3125 c 0,0.087891 0.023437,0.1582031 0.070312,0.2109375 0.052734,0.055664 0.1171875,0.09082 0.1875,0.1054688 h 9.3515633 c 0.08496,0 0.155273,-0.023437 0.210937,-0.070312 0.05274,-0.052734 0.08789,-0.1171875 0.105469,-0.1875 z M 15.339844,-12.456212 H 6.0585937 c -0.087891,0 -0.1611328,0.0293 -0.2226562,0.08203 -0.055664,0.04687 -0.09082,0.105469 -0.1054688,0.175782 v 1.195312 c 0,0.149414 0.041016,0.275391 0.1289063,0.375 0.084961,0.09375 0.1933594,0.149414 0.328125,0.164063 h 3.5859375 v -0.02344 c 0,-0.257812 0.087891,-0.47168 0.2695315,-0.644531 0.178711,-0.178711 0.398437,-0.269531 0.65625,-0.269531 0.210937,0 0.398437,0.06738 0.5625,0.199218 0.164062,0.134766 0.269531,0.301758 0.316406,0.503907 l 0.04687,0.210937 v 0.02344 h 3.492188 c 0.117187,0 0.225585,-0.03516 0.328125,-0.105469 0.09961,-0.07031 0.164062,-0.155274 0.1875,-0.257813 l 0.02344,-0.08203 v -1.230469 c 0,-0.08496 -0.03223,-0.158203 -0.09375,-0.222656 -0.06445,-0.06152 -0.137695,-0.09375 -0.222656,-0.09375 z m -5.9765627,-4.722656 c -0.087891,0 -0.1582032,0.02344 -0.2109375,0.07031 -0.055664,0.04687 -0.09082,0.111328 -0.1054688,0.1875 v 2.613282 h 3.304688 v -2.554688 c 0,-0.08496 -0.0293,-0.155273 -0.08203,-0.210937 -0.04687,-0.06152 -0.105468,-0.09668 -0.175781,-0.105469 z m 0,0"
         style="fill:#000000;fill-opacity:1;fill-rule:nonzero;stroke:none" />
      <path
         id="path149"
         d="m 35.334961,-9.2189072 -0.46875,-0.7382812 c 0.202148,-0.1464846 0.480469,-0.2958986 0.832031,-0.4453126 0.351563,-0.155273 0.776367,-0.234375 1.277344,-0.234375 0.632812,0 1.142578,0.146484 1.535156,0.433594 0.389649,0.2900389 0.585938,0.7031248 0.585938,1.2421873 v 3.9609375 h -0.960938 v -0.796875 c -0.164062,0.2988281 -0.416015,0.5244141 -0.75,0.6796875 -0.336914,0.1552734 -0.711914,0.234375 -1.125,0.234375 -0.351562,0 -0.673828,-0.064453 -0.960937,-0.1875 -0.28125,-0.1318359 -0.509766,-0.3222656 -0.679688,-0.5742187 -0.172851,-0.2490235 -0.257812,-0.5625 -0.257812,-0.9375 0,-0.5859375 0.205078,-1.0371094 0.621093,-1.359375 0.421875,-0.328125 0.996094,-0.4921875 1.722657,-0.4921875 0.319336,0 0.600586,0.043945 0.84375,0.1289062 0.240234,0.079102 0.436523,0.1699219 0.585937,0.2695313 v -0.9257813 c 0,-0.28125 -0.117187,-0.4921875 -0.351562,-0.6328125 -0.234375,-0.140625 -0.503907,-0.2109375 -0.808594,-0.2109375 -0.392578,0 -0.732422,0.076172 -1.019531,0.2226563 -0.28125,0.140625 -0.489258,0.2636718 -0.621094,0.3632812 z m 0,2.6015625 c 0,0.2988281 0.111328,0.5214844 0.339844,0.6679688 0.225586,0.149414 0.498047,0.2226562 0.820312,0.2226562 0.47461,0 0.867188,-0.1083984 1.171875,-0.328125 0.310547,-0.2255859 0.46875,-0.5917969 0.46875,-1.1015625 v -0.2226562 c -0.407226,-0.2109375 -0.864258,-0.3164063 -1.371094,-0.3164063 -0.492187,0 -0.855468,0.099609 -1.089843,0.2929688 -0.228516,0.1875 -0.339844,0.4511718 -0.339844,0.7851562 z m 4.485351,-3.9023433 h 1.078125 l 1.558594,3.9023433 1.558594,-3.9023433 h 1.089844 l -2.648438,5.9414058 z m 0,0"
         style="fill:#000000;fill-opacity:1;fill-rule:nonzero;stroke:none" />
    </g>
  </g>
</svg>
