<?xml version="1.0" encoding="UTF-8" standalone="no"?>
<!-- Created with Inkscape (http://www.inkscape.org/) -->

<svg
   version="1.1"
   id="svg1"
   width="27.268551"
   height="26.634251"
   viewBox="0 0 27.268551 26.634251"
   xmlns="http://www.w3.org/2000/svg"
   xmlns:svg="http://www.w3.org/2000/svg">
  <defs
     id="defs1" />
  <g
     id="g82"
     transform="translate(-1769.0283,-654.29297)">
    <g
       id="g149"
       aria-label="&#10;ab"
       transform="matrix(1.3333333,0,0,1.3333333,1768,679.84005)">
      <path
         id="path150"
         d="m 6.6210937,-19.160313 c 0.2109375,0 0.413086,0.01758 0.609375,0.04687 0.2021485,0.02344 0.3984375,0.06738 0.5859375,0.128906 0.5302735,0.158203 0.9990235,0.357422 1.4062501,0.597656 0.4130859,0.243164 0.7675781,0.521484 1.0664067,0.832031 0.08496,0.08789 0.164062,0.172852 0.234375,0.257813 0.07031,0.08789 0.134765,0.172851 0.199218,0.257812 l 0.08203,0.128907 0.07031,-0.03516 c 0.84375,-0.632812 1.749023,-1.054687 2.71875,-1.265625 0.975586,-0.216797 2.06543,-0.249023 3.269531,-0.09375 l 0.316406,0.04687 0.09375,0.02344 c 1.458985,0.398437 2.478516,0.960937 3.058594,1.6875 0.577149,0.720703 0.873047,1.543945 0.890625,2.472656 v 0.175781 c 0,0.304688 -0.117187,0.547852 -0.351562,0.726563 -0.234375,0.172851 -0.503907,0.222656 -0.808594,0.152344 -0.960938,-0.257813 -1.851563,-0.357422 -2.671875,-0.304688 -0.814453,0.04687 -1.488281,0.181641 -2.027344,0.398438 l -0.04687,0.01172 0.128907,0.09375 c 0.155273,0.111328 0.307617,0.240235 0.457031,0.386719 0.155273,0.140625 0.287109,0.28125 0.398437,0.421875 l 0.152344,0.199219 c 0.1875,0.243164 0.339844,0.486328 0.457031,0.726562 0.123047,0.243164 0.228516,0.500977 0.316406,0.773438 0.04687,0.117187 0.08496,0.251953 0.117188,0.3984373 0.03809,0.1494141 0.06445,0.2548828 0.08203,0.3164063 l 0.03516,0.2109375 c 0.06152,0.65625 0.03516,1.2480468 -0.08203,1.7695312 -0.117187,0.5244141 -0.304687,0.9726563 -0.5625,1.3476563 -0.140625,0.196289 -0.290039,0.3603515 -0.445312,0.4921875 -0.149414,0.1259765 -0.28711,0.2285156 -0.410156,0.3046875 -0.228516,0.1113281 -0.465821,0.1171875 -0.714844,0.023437 -0.243164,-0.09375 -0.416016,-0.2519532 -0.515625,-0.4804688 -0.210938,-0.4833984 -0.480469,-0.9550781 -0.808594,-1.4179687 -0.322266,-0.459961 -0.667969,-0.8789063 -1.042969,-1.2539063 -0.36914,-0.3808594 -0.74414,-0.703125 -1.125,-0.9609375 -0.392578,-0.2402344 -0.767578,-0.3896484 -1.125,-0.4453123 h -0.03516 l -0.175781,0.2578123 c -0.383789,0.6269531 -0.714844,1.3564453 -0.996094,2.1914063 -0.28125,0.8291015 -0.4921875,1.7314453 -0.6328125,2.7070312 0.515625,-0.1699219 1.0429688,-0.2988281 1.5820315,-0.3867187 0.544922,-0.084961 1.092773,-0.1289063 1.640625,-0.1289063 0.881836,0 1.740234,0.1142578 2.578125,0.3398438 0.826172,0.2197265 1.608398,0.5361328 2.34375,0.9492187 0.741211,0.4160156 1.420898,0.9140625 2.039062,1.5 0.609375,0.6035156 1.142578,1.2714844 1.605469,2.00390626 0.131836,0.2109375 0.166992,0.44238281 0.105469,0.69140625 -0.05566,0.24902344 -0.19336,0.43945313 -0.410157,0.57421875 -0.210937,0.12304688 -0.442382,0.15527344 -0.691406,0.09375 -0.251953,-0.0556641 -0.442383,-0.1875 -0.574219,-0.3984375 -0.36914,-0.60058594 -0.805664,-1.14257812 -1.3125,-1.62890626 -0.500976,-0.4921875 -1.051757,-0.9052734 -1.652343,-1.2421875 -0.603516,-0.3339844 -1.248047,-0.5976562 -1.933594,-0.7851562 -0.673828,-0.178711 -1.371094,-0.2695313 -2.097656,-0.2695313 -0.594727,0 -1.177735,0.067383 -1.746094,0.1992188 -0.5712891,0.1259765 -1.1220703,0.3017578 -1.6523437,0.5273437 0,0.3603516 0.00293,0.7236328 0.011719,1.0898438 0.00586,0.3603515 0.026367,0.72656246 0.058594,1.10156246 l 0.011719,0.41015625 c 0.029297,0.2578125 -0.043945,0.48339844 -0.2226562,0.6796875 -0.1816407,0.20214844 -0.4072266,0.3046875 -0.6796876,0.3046875 h -6.09375 c -0.2578125,0 -0.4804687,-0.09375 -0.6679687,-0.28125 -0.1875,-0.1875 -0.27539063,-0.41015625 -0.2578125,-0.66796875 0.0292969,-0.41308594 0.10839844,-0.94921876 0.234375,-1.60546876 0.1318359,-0.65625 0.3457031,-1.4121094 0.6445312,-2.2734375 0,-0.029297 0.00586,-0.058594 0.023437,-0.082031 0.014648,-0.029297 0.029297,-0.061523 0.046875,-0.09375 0,0 0,-0.00293 0,-0.011719 0,-0.00586 0,-0.017578 0,-0.035156 0.2578125,-0.6855469 0.5419922,-1.3740235 0.8554688,-2.0625 0.3281237,-0.6855376 0.6972643,-1.3710845 1.11328,-2.050772 C 4.1044922,-9.0704697 4.5703125,-9.7384384 5.0859375,-10.394688 5.5927734,-11.050938 6.1464844,-11.701329 6.75,-12.35172 L 6.9609375,-12.586095 6.9375,-12.63297 c -0.041016,-0.155273 -0.1054688,-0.310547 -0.1992188,-0.46875 -0.09375,-0.155273 -0.1992187,-0.307617 -0.3164062,-0.457031 l -0.1757813,-0.1875 C 5.8476562,-14.173985 5.3203125,-14.534337 4.6640625,-14.824376 4.0136719,-15.120274 3.2109375,-15.319493 2.25,-15.422032 c -0.3984375,-0.04687 -0.65625,-0.257813 -0.7734375,-0.632813 -0.1113281,-0.380859 -0.023437,-0.708984 0.2578125,-0.984375 0.1640625,-0.123047 0.3691406,-0.28125 0.6210938,-0.46875 0.2490234,-0.1875 0.5390625,-0.377929 0.8671875,-0.574218 0.5683593,-0.333985 1.1367187,-0.597657 1.6992187,-0.785157 0.5683594,-0.193359 1.1367187,-0.292968 1.6992187,-0.292968 z m 0.011719,1.851562 c -0.2666016,0 -0.5507813,0.04102 -0.8554688,0.117188 -0.2988281,0.0791 -0.5976562,0.1875 -0.9023437,0.328125 l -0.1875,0.08203 0.2695312,0.09375 c 0.506836,0.1875 0.9638672,0.410156 1.3710938,0.667969 0.4042969,0.257812 0.7734375,0.544921 1.1015625,0.855468 l 0.1523437,0.175782 c 0.4453126,0.46875 0.7617188,0.93457 0.9492188,1.394531 0.1933594,0.454101 0.3164063,0.852539 0.3632813,1.195312 0,0.149414 -0.023437,0.290039 -0.070312,0.421875 -0.041016,0.125977 -0.1113282,0.231446 -0.2109375,0.316407 -0.087891,0.102539 -0.1757813,0.199218 -0.2695313,0.292968 -0.09375,0.08789 -0.1845703,0.172852 -0.2695312,0.257813 -0.3603516,0.392578 -0.7001954,0.785156 -1.0195313,1.1835936 -0.3222656,0.3925781 -0.6269531,0.7792968 -0.9140625,1.1601562 H 6.1875 c 0.2578125,0 0.4746094,0.09082 0.65625,0.2695313 0.1787109,0.1816406 0.2695312,0.3984375 0.2695312,0.65625 0,0.243164 -0.082031,0.4511718 -0.2460937,0.6210937 -0.1582031,0.1728516 -0.3486328,0.2753906 -0.5742188,0.3046875 H 5.1796875 c -0.032227,0 -0.067383,-0.00293 -0.1054688,-0.011719 -0.032227,-0.00586 -0.064453,-0.011719 -0.09375,-0.011719 -0.196289,0.3457031 -0.383789,0.6884766 -0.5625,1.03125 -0.1816406,0.3457031 -0.3457031,0.6972656 -0.4921874,1.0546875 h 0.6328124 c 0.2578125,0 0.4716797,0.09082 0.6445313,0.2695313 0.1787109,0.1816406 0.2695312,0.3984375 0.2695312,0.65625 0,0.2285156 -0.079102,0.4277343 -0.234375,0.5976562 -0.1582031,0.1728516 -0.3486328,0.2753906 -0.5742187,0.3046875 H 3.2460938 c -0.1347657,0.3691406 -0.2402344,0.7236328 -0.3164063,1.0664063 -0.079102,0.3457031 -0.1464844,0.6767578 -0.1992187,0.99609371 l 0.023437,-0.09375 h 4.0546874 v -0.234375 c -0.041016,-1.03125 -0.017578,-2.0185547 0.070312,-2.9648437 0.09375,-0.9609375 0.2460938,-1.8632813 0.4570313,-2.7070313 0.2167969,-0.84375 0.4863281,-1.6230469 0.8085938,-2.34375 C 8.4550781,-10.031407 8.8125,-10.678868 9.2109375,-11.250157 l 0.1523438,-0.222656 c 0.070312,-0.09961 0.1582031,-0.181641 0.2695312,-0.246094 0.1083984,-0.06152 0.2255859,-0.09961 0.3515625,-0.117188 0.506836,-0.07031 1.010742,-0.01758 1.511719,0.152344 0.498047,0.158203 0.984375,0.395508 1.453125,0.714844 0.474609,0.322265 0.928711,0.703125 1.359375,1.1484373 0.427734,0.4628906 0.823242,0.9492188 1.183594,1.4648438 l 0.128906,0.2109375 0.01172,-0.1523438 c 0,-0.1083984 0.0029,-0.2226562 0.01172,-0.3398437 0.0059,-0.1230469 0.0029,-0.2519532 -0.01172,-0.3867188 v -0.1757812 l -0.03516,-0.1875 -0.09375,-0.3046875 -0.01172,-0.058594 c -0.06445,-0.1699219 -0.134766,-0.3339846 -0.210938,-0.4921876 -0.0791,-0.164062 -0.175781,-0.322265 -0.292969,-0.480468 -0.196289,-0.257813 -0.442383,-0.486329 -0.738281,-0.691407 -0.290039,-0.210937 -0.644531,-0.386718 -1.066406,-0.527343 -0.298828,-0.117188 -0.489258,-0.331055 -0.574219,-0.644532 -0.08789,-0.310547 -0.01758,-0.591797 0.210938,-0.84375 0.257812,-0.28125 0.591796,-0.541992 1.007812,-0.785156 0.404297,-0.249023 0.873047,-0.451172 1.40625,-0.609375 0.539063,-0.155273 1.130859,-0.251953 1.78125,-0.292969 0.638672,-0.06152 1.318359,-0.0498 2.039062,0.03516 l 0.105469,0.02344 -0.02344,-0.04687 c -0.158203,-0.263672 -0.404297,-0.503906 -0.738282,-0.714844 -0.336914,-0.216797 -0.796875,-0.413086 -1.382812,-0.585937 l -0.175781,-0.04687 -0.210938,-0.04687 c -1.148437,-0.140625 -2.141601,-0.08496 -2.976562,0.164062 -0.837891,0.251953 -1.628906,0.726563 -2.378906,1.429688 l -0.164063,0.175781 c -0.275391,0.28125 -0.594727,0.357422 -0.960937,0.222656 -0.3691411,-0.140625 -0.5712896,-0.401367 -0.6093755,-0.785156 v -0.07031 c -0.032227,-0.09375 -0.09082,-0.222657 -0.1757812,-0.386719 -0.087891,-0.169922 -0.2167969,-0.345703 -0.3867188,-0.527344 -0.1875,-0.202148 -0.421875,-0.380859 -0.703125,-0.539062 -0.2753906,-0.155274 -0.5976563,-0.292969 -0.9726563,-0.410157 -0.1113281,-0.0293 -0.2197265,-0.0498 -0.328125,-0.05859 -0.1113281,-0.01465 -0.2226562,-0.02344 -0.3398437,-0.02344 z m 0,0"
         style="fill:#000000;fill-opacity:1;fill-rule:nonzero;stroke:none" />
      <path
         id="path151"
         d="m 35.334961,-9.2198838 -0.46875,-0.7382812 c 0.202148,-0.146484 0.480469,-0.295898 0.832031,-0.445313 0.351563,-0.155273 0.776367,-0.234375 1.277344,-0.234375 0.632812,0 1.142578,0.146485 1.535156,0.433594 0.389649,0.2900393 0.585938,0.7031252 0.585938,1.2421877 v 3.9609375 h -0.960938 v -0.796875 c -0.164062,0.2988282 -0.416015,0.5244141 -0.75,0.6796875 -0.336914,0.1552735 -0.711914,0.234375 -1.125,0.234375 -0.351562,0 -0.673828,-0.064453 -0.960937,-0.1875 -0.28125,-0.1318359 -0.509766,-0.3222656 -0.679688,-0.5742187 -0.172851,-0.2490234 -0.257812,-0.5625 -0.257812,-0.9375 0,-0.5859375 0.205078,-1.0371094 0.621093,-1.359375 0.421875,-0.328125 0.996094,-0.4921875 1.722657,-0.4921875 0.319336,0 0.600586,0.043945 0.84375,0.1289062 0.240234,0.079102 0.436523,0.1699219 0.585937,0.2695313 v -0.9257813 c 0,-0.28125 -0.117187,-0.4921875 -0.351562,-0.6328125 -0.234375,-0.140625 -0.503907,-0.2109375 -0.808594,-0.2109375 -0.392578,0 -0.732422,0.076172 -1.019531,0.2226563 -0.28125,0.140625 -0.489258,0.2636719 -0.621094,0.3632812 z m 0,2.6015625 c 0,0.2988282 0.111328,0.5214844 0.339844,0.6679688 0.225586,0.1494141 0.498047,0.2226562 0.820312,0.2226562 0.47461,0 0.867188,-0.1083984 1.171875,-0.328125 0.310547,-0.2255859 0.46875,-0.5917968 0.46875,-1.1015625 V -7.38004 c -0.407226,-0.2109375 -0.864258,-0.3164063 -1.371094,-0.3164063 -0.492187,0 -0.855468,0.099609 -1.089843,0.2929688 -0.228516,0.1875 -0.339844,0.4511719 -0.339844,0.7851562 z m 10.907226,-1.1484375 c 0,0.5947266 -0.125976,1.1103516 -0.375,1.546875 -0.251953,0.4306641 -0.583007,0.7617188 -0.996093,0.9960938 -0.407227,0.2255859 -0.864258,0.3398437 -1.371094,0.3398437 -0.407227,0 -0.773438,-0.09082 -1.101563,-0.2695312 -0.322265,-0.1875 -0.580078,-0.4511719 -0.773437,-0.796875 v 0.9492187 H 40.664062 V -14.364415 H 41.625 v 4.7929687 c 0.193359,-0.3427734 0.451172,-0.6035157 0.773437,-0.7851567 0.328125,-0.1875 0.694336,-0.28125 1.101563,-0.28125 0.506836,0 0.963867,0.117188 1.371094,0.351563 0.413086,0.228516 0.74414,0.5566406 0.996093,0.984375 0.249024,0.4306641 0.375,0.9433594 0.375,1.5351562 z m -0.972656,0 c 0,-0.421875 -0.08789,-0.7792968 -0.257812,-1.078125 -0.172852,-0.2958984 -0.404297,-0.5185546 -0.691407,-0.6679687 -0.28125,-0.1464844 -0.594726,-0.2226563 -0.9375,-0.2226563 -0.28125,0 -0.55957,0.076172 -0.832031,0.2226563 -0.266601,0.1494141 -0.489258,0.3720703 -0.667969,0.6679687 -0.172851,0.2988282 -0.257812,0.65625 -0.257812,1.078125 0,0.4306641 0.08496,0.7939454 0.257812,1.0898438 0.178711,0.2988281 0.401368,0.5214844 0.667969,0.6679687 0.272461,0.1494141 0.550781,0.2226563 0.832031,0.2226563 0.342774,0 0.65625,-0.073242 0.9375,-0.2226563 0.28711,-0.1464843 0.518555,-0.3691406 0.691407,-0.6679687 0.169922,-0.2958984 0.257812,-0.6591797 0.257812,-1.0898438 z m 0,0"
         style="fill:#000000;fill-opacity:1;fill-rule:nonzero;stroke:none" />
    </g>
  </g>
</svg>
