<?xml version="1.0" encoding="UTF-8" standalone="no"?>
<!-- Created with Inkscape (http://www.inkscape.org/) -->

<svg
   version="1.1"
   id="svg1"
   width="26.703125"
   height="26.6875"
   viewBox="0 0 26.703125 26.6875"
   xmlns="http://www.w3.org/2000/svg"
   xmlns:svg="http://www.w3.org/2000/svg">
  <defs
     id="defs1" />
  <g
     id="g13"
     transform="translate(-2114,-545)">
    <g
       id="g16"
       aria-label="î„&#10;6.1"
       transform="matrix(1.3333333,0,0,1.3333333,1768,250.50667)">
      <path
         id="path26-1"
         d="m 269.51955,220.87 c 1.38281,0 2.6748,0.2666 3.8789,0.79688 1.21875,0.51562 2.2793,1.23047 3.1875,2.14453 0.91407,0.9082 1.63477,1.96875 2.16797,3.1875 0.51563,1.21289 0.77344,2.50488 0.77344,3.87891 0,1.3916 -0.25781,2.69531 -0.77344,3.91406 -0.5332,1.21875 -1.2539,2.28223 -2.16797,3.1875 -0.9082,0.89941 -1.96875,1.61133 -3.1875,2.13281 -1.2041,0.51563 -2.49609,0.77344 -3.8789,0.77344 -1.39161,0 -2.68946,-0.25781 -3.89063,-0.77344 -1.21875,-0.52148 -2.28515,-1.2334 -3.19922,-2.13281 -0.9082,-0.90527 -1.62597,-1.96875 -2.15625,-3.1875 -0.51562,-1.21875 -0.77343,-2.52246 -0.77343,-3.91406 0,-1.37403 0.25781,-2.66602 0.77343,-3.87891 0.53028,-1.21875 1.24805,-2.2793 2.15625,-3.1875 0.91407,-0.91406 1.98047,-1.62891 3.19922,-2.14453 1.20117,-0.53028 2.49902,-0.79688 3.89063,-0.79688 z m 0,1.54688 c -1.18067,0 -2.2793,0.22266 -3.29297,0.66797 -1.03125,0.44531 -1.93067,1.05175 -2.69531,1.8164 -0.76758,0.76758 -1.3711,1.66407 -1.81641,2.69532 -0.44531,1.03125 -0.66797,2.12695 -0.66797,3.28125 0,1.18066 0.22266,2.28515 0.66797,3.3164 0.44531,1.0166 1.04883,1.90723 1.81641,2.67188 0.76464,0.76758 1.66406,1.37109 2.69531,1.8164 1.01367,0.44532 2.1123,0.66797 3.29297,0.66797 1.17187,0 2.26464,-0.22265 3.28125,-0.66797 1.03125,-0.44531 1.92773,-1.04882 2.69531,-1.8164 0.76465,-0.76465 1.37109,-1.65528 1.81641,-2.67188 0.44531,-1.03125 0.66796,-2.13574 0.66796,-3.3164 0,-1.1543 -0.22265,-2.25 -0.66796,-3.28125 -0.44532,-1.03125 -1.05176,-1.92774 -1.81641,-2.69532 -0.76758,-0.76465 -1.66406,-1.37109 -2.69531,-1.8164 -1.01661,-0.44532 -2.10938,-0.66797 -3.28125,-0.66797 z m -2.625,13.06641 4.23047,0.72656 c 0.21093,0.041 0.37792,0.14941 0.5039,0.32812 0.12305,0.18164 0.16992,0.37207 0.14063,0.57422 -0.0469,0.21094 -0.15821,0.38086 -0.32813,0.50391 -0.17285,0.12597 -0.36328,0.16406 -0.57422,0.11719 l -4.23047,-0.72657 c -0.21972,-0.0469 -0.39257,-0.15527 -0.51562,-0.32812 -0.11719,-0.16992 -0.16113,-0.36328 -0.12891,-0.57422 0.0381,-0.2168 0.14356,-0.38672 0.31641,-0.50391 0.16992,-0.12304 0.36621,-0.16406 0.58594,-0.11718 z m -2.32032,-2.28516 c 0.4834,0 0.82325,0.0645 1.01954,0.1875 0.19335,0.11719 0.29296,0.34863 0.29296,0.69141 0,0.3457 -0.0996,0.58007 -0.29296,0.70312 -0.19629,0.12598 -0.53614,0.1875 -1.01954,0.1875 -0.50097,0 -0.84961,-0.0615 -1.04296,-0.1875 -0.19629,-0.12305 -0.29297,-0.35742 -0.29297,-0.70312 0,-0.34278 0.0967,-0.57422 0.29297,-0.69141 0.19335,-0.12305 0.54199,-0.1875 1.04296,-0.1875 z m 9.87891,0 c 0.49805,0 0.84668,0.0645 1.04297,0.1875 0.19336,0.11719 0.29297,0.34863 0.29297,0.69141 0,0.3457 -0.0996,0.58007 -0.29297,0.70312 -0.19629,0.12598 -0.54492,0.1875 -1.04297,0.1875 -0.48633,0 -0.82617,-0.0615 -1.01953,-0.1875 -0.19629,-0.12305 -0.29297,-0.35742 -0.29297,-0.70312 0,-0.34278 0.0967,-0.57422 0.29297,-0.69141 0.19336,-0.12305 0.5332,-0.1875 1.01953,-0.1875 z m 0,0"
         style="fill:#000000;fill-opacity:1;fill-rule:nonzero;stroke:none" />
    </g>
  </g>
</svg>
