<?xml version="1.0" encoding="UTF-8" standalone="no"?>
<!-- Created with Inkscape (http://www.inkscape.org/) -->

<svg
   version="1.1"
   id="svg1"
   width="28.703125"
   height="22.984371"
   viewBox="0 0 28.703125 22.984371"
   xmlns="http://www.w3.org/2000/svg"
   xmlns:svg="http://www.w3.org/2000/svg">
  <defs
     id="defs1" />
  <g
     id="g82"
     transform="translate(-2080.3125,-656.60547)">
    <g
       id="g153"
       aria-label="&#10;am"
       transform="matrix(1.3333333,0,0,1.3333333,2080,679.84005)">
      <path
         id="path154"
         d="m 6.5507812,-17.425938 c 0.5302735,0 0.9990235,0.164062 1.40625,0.492187 0.4042969,0.322266 0.6738282,0.732422 0.8085938,1.230469 l 5.179688,-0.02344 c 0.624023,0 1.160156,0.228516 1.605468,0.679688 0.445313,0.454101 0.667969,0.993164 0.667969,1.617187 v 0.503907 h 0.597656 c 0.169922,-0.459961 0.457031,-0.837891 0.855469,-1.136719 0.404297,-0.304688 0.867187,-0.47168 1.382812,-0.503906 h 0.152344 c 0.708985,0 1.3125,0.251953 1.804688,0.75 0.498047,0.492187 0.75,1.095703 0.75,1.804687 0,0.703125 -0.251953,1.306641 -0.75,1.804688 -0.492188,0.5009761 -1.095703,0.7499996 -1.804688,0.7499996 -0.547851,0 -1.037109,-0.1523438 -1.464844,-0.4570313 -0.430664,-0.3046873 -0.738281,-0.7031253 -0.925781,-1.1953123 H 16.21875 v 0.585937 c 0,0.6035159 -0.208008,1.1220706 -0.621094,1.5585941 -0.407226,0.4394531 -0.911133,0.6767578 -1.511718,0.7148437 l -0.140625,0.023437 h -2.648438 l 0.128906,0.4921875 c 0.155274,0.6035156 0.07031,1.1777344 -0.257812,1.7226563 -0.328125,0.5390625 -0.793946,0.8847656 -1.3945315,1.03125 -0.070312,0.023437 -0.1376953,0.041016 -0.1992187,0.046875 -0.055664,0.00879 -0.1171875,0.011719 -0.1875,0.011719 l -0.1757813,0.023437 H 8.9179688 c -0.1171875,0 -0.2314454,-0.017578 -0.3398438,-0.058594 -0.1025391,-0.046875 -0.1962891,-0.1054688 -0.28125,-0.1757813 l -0.070312,1.2070313 v 0.082031 l 0.023437,0.058594 0.28125,1.125 c 0.140625,0.5332031 0.070312,1.0371093 -0.2109375,1.5117187 -0.2753906,0.46875001 -0.6767578,0.77343751 -1.2070313,0.91406251 -0.064453,0.0175781 -0.1171875,0.0292969 -0.1640625,0.0351563 -0.046875,0.008789 -0.102539,0.0117188 -0.1640625,0.0117188 H 2.7070313 c -0.6328125,0 -1.1718751,-0.22265625 -1.6171876,-0.66796875 C 0.65039062,-1.3009384 0.43359375,-1.8400009 0.43359375,-2.4728134 V -2.6251572 L 0.4453125,-2.7657822 1.5,-10.652501 c 0,-0.04687 -0.00879,-0.08203 -0.023437,-0.105469 -0.00879,-0.0293 -0.029297,-0.05273 -0.058594,-0.07031 -0.3457031,-0.169922 -0.6210937,-0.413086 -0.8320312,-0.726563 -0.20507812,-0.310547 -0.32226562,-0.65625 -0.3515625,-1.03125 v -2.53125 c 0,-0.615234 0.20214844,-1.142578 0.609375,-1.582031 0.4130859,-0.436523 0.9199219,-0.670898 1.5234375,-0.703125 l 0.140625,-0.02344 z m -2.3203125,4.535156 H 2.0625 v 0.152344 c 0,0.05566 0.011719,0.111328 0.035156,0.164062 0.029297,0.04687 0.076172,0.08789 0.140625,0.117188 0.3515625,0.1875 0.6269531,0.451171 0.8320312,0.785156 0.2021484,0.336914 0.2871094,0.703125 0.2578125,1.101562 l -0.023437,0.152344 -0.28125,2.1914063 H 4.828125 c 0.2578125,0 0.4746094,0.09082 0.65625,0.2695313 0.1787109,0.1816406 0.2695312,0.3984375 0.2695312,0.65625 0,0.2285156 -0.079102,0.4277343 -0.234375,0.5976562 -0.1582031,0.1728516 -0.3486328,0.2753906 -0.5742187,0.3046875 H 2.765625 l -0.058594,0.4453125 h 1.7343749 c 0.2578125,0 0.4746094,0.09082 0.65625,0.2695313 0.178711,0.1816406 0.2695313,0.3984375 0.2695313,0.65625 0,0.2285156 -0.079102,0.4277343 -0.234375,0.5976562 -0.1582031,0.1728516 -0.3486328,0.2753906 -0.5742188,0.3046875 H 2.4726563 L 2.25,-2.5314072 c 0,0.017578 0,0.029297 0,0.035156 0,0 0,0.00879 0,0.023437 0,0.1171875 0.035156,0.2197265 0.1054688,0.3046875 0.076172,0.087891 0.1669921,0.1376953 0.2695312,0.1523437 h 3.9960937 c 0.00586,0 0.011719,0 0.011719,0 0,0 0.00586,0 0.023437,0 0.029297,0 0.052734,-0.014648 0.070312,-0.046875 0.023437,-0.029297 0.035156,-0.058594 0.035156,-0.082031 V -2.215001 L 6.4921875,-3.3282822 c -0.032227,-0.084961 -0.055664,-0.1699219 -0.070312,-0.2578125 -0.017578,-0.084961 -0.023437,-0.1699219 -0.023437,-0.2578125 v -0.1757812 l 0.234375,-4.1601563 c -0.5859375,-0.046875 -1.0869141,-0.2871094 -1.5,-0.7265625 -0.4160156,-0.4365234 -0.6210938,-0.9550781 -0.6210938,-1.5585938 0,-0.108398 0.00586,-0.225586 0.023437,-0.351562 0.014648,-0.123047 0.041016,-0.240235 0.082031,-0.351563 l 0.3632812,-1.113281 z m 5.2031251,4.6874998 H 8.4609375 l -0.082031,1.6523438 c 0.052734,-0.046875 0.1171875,-0.082031 0.1875,-0.1054688 0.076172,-0.029297 0.1582031,-0.052734 0.2460937,-0.070312 h 0.3984375 c 0.014648,0 0.035156,-0.00293 0.058594,-0.011719 0.023437,-0.00586 0.041016,-0.011719 0.058594,-0.011719 0.1083984,-0.023437 0.1904297,-0.076172 0.2460938,-0.1640625 0.061523,-0.084961 0.09375,-0.1875 0.09375,-0.3046875 l -0.023437,-0.082031 z M 13.945313,-13.898595 H 7.7578125 c -0.1025391,0 -0.1962891,0.03516 -0.28125,0.105469 -0.087891,0.06445 -0.1464844,0.137695 -0.1757813,0.222656 l -0.9375,2.953125 c 0,0.03223 -0.00586,0.05859 -0.011719,0.08203 -0.00879,0.02344 -0.011719,0.04687 -0.011719,0.07031 0,0.102539 0.026367,0.1875 0.082031,0.257813 0.052734,0.07031 0.1230469,0.128906 0.2109375,0.175781 0,-0.515625 0.1347656,-1.066406 0.4101562,-1.652344 0.272461,-0.585937 0.6738282,-0.908203 1.2070313,-0.972656 l 0.1289063,-0.01172 h 6.0117185 v -0.761719 c 0,-0.108398 -0.03516,-0.205078 -0.105469,-0.292968 -0.07031,-0.08496 -0.164062,-0.134766 -0.28125,-0.152344 z m -5.2500005,3.046875 -0.058594,0.128907 c -0.032227,0.08789 -0.064453,0.18164 -0.09375,0.28125 -0.023437,0.102539 -0.043945,0.196289 -0.058594,0.28125 v 0.04687 h 5.0039065 c 0.05274,0 0.105469,0.0059 0.152344,0.01172 0.05273,0 0.105469,0.01758 0.152344,0.04687 h 0.152344 c 0.123046,0 0.228515,-0.04687 0.316406,-0.140625 0.08496,-0.09375 0.128906,-0.202148 0.128906,-0.328125 v -0.328125 z m 10.5117185,-1.886718 c -0.205078,0 -0.380859,0.07617 -0.527344,0.222656 -0.140625,0.140625 -0.210937,0.310547 -0.210937,0.503906 0,0.205078 0.07031,0.380859 0.210937,0.527344 0.146485,0.140625 0.322266,0.210937 0.527344,0.210937 0.19336,0 0.363281,-0.07031 0.503906,-0.210937 0.146485,-0.146485 0.222657,-0.322266 0.222657,-0.527344 0,-0.193359 -0.07617,-0.363281 -0.222657,-0.503906 -0.140625,-0.146485 -0.310546,-0.222656 -0.503906,-0.222656 z M 6.5507812,-15.597813 H 2.5078125 c -0.1113281,0 -0.2080078,0.04101 -0.2929687,0.117187 -0.087891,0.07031 -0.1376954,0.161133 -0.1523438,0.269531 v 0.492188 h 2.5078125 c 0.084961,0 0.1669922,0.01172 0.2460937,0.03516 0.084961,0.02344 0.1640625,0.05566 0.234375,0.09375 l 0.1054688,0.09375 0.4335937,0.339844 c 0.09375,-0.295899 0.2460938,-0.5625 0.4570313,-0.796875 0.2167969,-0.240235 0.4716797,-0.424805 0.7617187,-0.550781 -0.032227,-0.01465 -0.064453,-0.0293 -0.09375,-0.04687 -0.023437,-0.01465 -0.052734,-0.02344 -0.082031,-0.02344 z m 0,0"
         style="fill:#000000;fill-opacity:1;fill-rule:nonzero;stroke:none" />
      <path
         id="path155"
         d="m 35.334961,-9.2198838 -0.46875,-0.7382812 c 0.202148,-0.146484 0.480469,-0.295898 0.832031,-0.445313 0.351563,-0.155273 0.776367,-0.234375 1.277344,-0.234375 0.632812,0 1.142578,0.146485 1.535156,0.433594 0.389649,0.2900393 0.585938,0.7031252 0.585938,1.2421877 v 3.9609375 h -0.960938 v -0.796875 c -0.164062,0.2988282 -0.416015,0.5244141 -0.75,0.6796875 -0.336914,0.1552735 -0.711914,0.234375 -1.125,0.234375 -0.351562,0 -0.673828,-0.064453 -0.960937,-0.1875 -0.28125,-0.1318359 -0.509766,-0.3222656 -0.679688,-0.5742187 -0.172851,-0.2490234 -0.257812,-0.5625 -0.257812,-0.9375 0,-0.5859375 0.205078,-1.0371094 0.621093,-1.359375 0.421875,-0.328125 0.996094,-0.4921875 1.722657,-0.4921875 0.319336,0 0.600586,0.043945 0.84375,0.1289062 0.240234,0.079102 0.436523,0.1699219 0.585937,0.2695313 v -0.9257813 c 0,-0.28125 -0.117187,-0.4921875 -0.351562,-0.6328125 -0.234375,-0.140625 -0.503907,-0.2109375 -0.808594,-0.2109375 -0.392578,0 -0.732422,0.076172 -1.019531,0.2226563 -0.28125,0.140625 -0.489258,0.2636719 -0.621094,0.3632812 z m 0,2.6015625 c 0,0.2988282 0.111328,0.5214844 0.339844,0.6679688 0.225586,0.1494141 0.498047,0.2226562 0.820312,0.2226562 0.47461,0 0.867188,-0.1083984 1.171875,-0.328125 0.310547,-0.2255859 0.46875,-0.5917968 0.46875,-1.1015625 V -7.38004 c -0.407226,-0.2109375 -0.864258,-0.3164063 -1.371094,-0.3164063 -0.492187,0 -0.855468,0.099609 -1.089843,0.2929688 -0.228516,0.1875 -0.339844,0.4511719 -0.339844,0.7851562 z m 8.680664,-1.7460937 c 0,-0.4511719 -0.0791,-0.7910156 -0.234375,-1.0195313 -0.158203,-0.234375 -0.430664,-0.3515625 -0.820313,-0.3515625 -0.416015,0 -0.732421,0.1289063 -0.949218,0.3867188 -0.219727,0.2578125 -0.328125,0.5859375 -0.328125,0.984375 v 3.3632812 h -0.960938 v -5.5195312 h 0.960938 v 0.8085937 c 0.146484,-0.2871093 0.351562,-0.5156247 0.609375,-0.6796877 0.263672,-0.164062 0.568359,-0.246094 0.914062,-0.246094 0.796875,0 1.327149,0.345704 1.59375,1.0312505 0.169922,-0.3193359 0.404297,-0.5683595 0.703125,-0.7500005 0.295899,-0.1875 0.626953,-0.28125 0.996094,-0.28125 0.568359,0 1.007812,0.184571 1.3125,0.550782 0.310547,0.3603513 0.46875,0.8964841 0.46875,1.6054685 v 3.4804687 H 47.320312 V -8.364415 c 0,-0.4511719 -0.0791,-0.7910156 -0.234375,-1.0195313 -0.158203,-0.234375 -0.430664,-0.3515625 -0.820312,-0.3515625 -0.416016,0 -0.735352,0.1289063 -0.960938,0.3867188 -0.219726,0.2578125 -0.328125,0.5859375 -0.328125,0.984375 v 3.3632812 h -0.960937 z m 0,0"
         style="fill:#000000;fill-opacity:1;fill-rule:nonzero;stroke:none" />
    </g>
  </g>
</svg>
