<?xml version="1.0" encoding="UTF-8" standalone="no"?>
<!-- Created with Inkscape (http://www.inkscape.org/) -->

<svg
   version="1.1"
   id="svg1"
   width="24.370554"
   height="24.388102"
   viewBox="0 0 24.370554 24.388102"
   xmlns="http://www.w3.org/2000/svg"
   xmlns:svg="http://www.w3.org/2000/svg">
  <defs
     id="defs1" />
  <g
     id="g372"
     transform="translate(-30194.145,-243.13777)">
    <path
       id="path383"
       d="m 90.879,183.379 c 0.672,0.672 1.008,1.488 1.008,2.449 0,0.961 -0.336,1.777 -1.008,2.449 -0.024,0.032 -0.055,0.063 -0.094,0.094 -0.043,0.024 -0.07,0.051 -0.094,0.082 l -1.464,1.266 1.699,4.828 0.058,0.234 c 0.168,0.578 0.239,1.157 0.2,1.735 -0.032,0.578 -0.172,1.14 -0.411,1.687 -0.207,0.469 -0.546,0.797 -1.019,0.985 -0.477,0.187 -0.957,0.171 -1.43,-0.047 -0.14,-0.055 -0.277,-0.129 -0.41,-0.223 -0.125,-0.094 -0.23,-0.203 -0.316,-0.328 l -3.504,-4.488 -1.137,0.984 0.551,2.508 c 0.027,0.133 0.027,0.269 0,0.41 -0.024,0.133 -0.078,0.25 -0.164,0.351 l -0.071,0.083 -1.945,1.957 c -0.219,0.21 -0.488,0.285 -0.797,0.234 -0.304,-0.047 -0.527,-0.211 -0.668,-0.481 l -1.113,-2.144 h -0.129 c -0.277,0 -0.547,-0.047 -0.809,-0.141 -0.265,-0.101 -0.511,-0.246 -0.738,-0.433 l -0.129,-0.129 c -0.218,-0.219 -0.394,-0.473 -0.515,-0.762 -0.118,-0.297 -0.176,-0.594 -0.176,-0.891 v -0.128 l -2.145,-1.125 c -0.257,-0.141 -0.418,-0.352 -0.48,-0.633 -0.055,-0.282 0.004,-0.528 0.176,-0.739 l 0.058,-0.082 1.957,-1.957 c 0.098,-0.101 0.231,-0.175 0.387,-0.222 0.156,-0.055 0.309,-0.059 0.457,-0.012 l 2.508,0.551 0.973,-1.137 -4.477,-3.504 c -0.125,-0.086 -0.234,-0.191 -0.328,-0.316 -0.094,-0.133 -0.172,-0.27 -0.223,-0.41 -0.219,-0.469 -0.234,-0.942 -0.047,-1.418 0.188,-0.485 0.516,-0.836 0.985,-1.055 0.543,-0.227 1.105,-0.356 1.687,-0.387 0.586,-0.039 1.164,0.028 1.735,0.199 l 0.234,0.059 4.828,1.699 1.277,-1.465 c 0.571,-0.687 1.293,-1.082 2.168,-1.183 0.883,-0.11 1.692,0.086 2.426,0.586 l 0.152,0.105 0.129,0.106 c 0.024,0.031 0.051,0.066 0.094,0.105 0.039,0.031 0.07,0.063 0.094,0.094 z m -1.289,1.289 c -0.02,-0.016 -0.031,-0.031 -0.047,-0.047 -0.008,-0.016 -0.02,-0.027 -0.035,-0.035 -0.344,-0.289 -0.742,-0.414 -1.196,-0.375 -0.453,0.031 -0.82,0.211 -1.101,0.539 l -7.008,8.168 c -0.109,0.125 -0.246,0.219 -0.41,0.281 -0.156,0.055 -0.32,0.059 -0.492,0.012 l -2.555,-0.574 -0.691,0.703 1.664,0.867 c 0.191,0.102 0.332,0.258 0.41,0.469 0.074,0.203 0.09,0.402 0.035,0.597 l -0.059,0.2 c -0.031,0.086 -0.035,0.179 -0.011,0.281 0.027,0.101 0.082,0.187 0.152,0.258 0.086,0.086 0.188,0.14 0.305,0.164 0.117,0.015 0.226,0.004 0.328,-0.035 l 0.105,-0.047 c 0.192,-0.055 0.399,-0.043 0.61,0.035 0.211,0.078 0.363,0.219 0.457,0.422 l 0.867,1.652 0.703,-0.691 -0.574,-2.555 c -0.031,-0.156 -0.031,-0.305 0,-0.445 0.039,-0.149 0.109,-0.274 0.211,-0.375 l 0.082,-0.082 8.25,-7.09 c 0.32,-0.313 0.48,-0.695 0.48,-1.149 0,-0.453 -0.16,-0.836 -0.48,-1.148 z m -6.34,1.863 -4.137,-1.453 c -0.375,-0.133 -0.769,-0.191 -1.172,-0.176 -0.398,0.016 -0.773,0.102 -1.125,0.258 -0.019,0 -0.023,0.008 -0.023,0.024 0,0.015 0,0.023 0,0.023 v 0.023 l 4.547,3.54 z m 4.477,4.477 -2.239,1.91 3.563,4.547 c 0,0 0.008,0 0.023,0 0.016,0 0.024,-0.004 0.024,-0.012 0.156,-0.359 0.242,-0.738 0.257,-1.137 0.016,-0.406 -0.043,-0.796 -0.175,-1.171 z m 1.628,-5.285 c 0.168,0.187 0.258,0.406 0.258,0.656 0,0.25 -0.09,0.469 -0.258,0.656 -0.171,0.156 -0.375,0.242 -0.609,0.258 -0.23,0.008 -0.43,-0.059 -0.609,-0.199 l -0.094,-0.059 -0.797,-0.82 c -0.184,-0.188 -0.269,-0.406 -0.269,-0.656 0,-0.25 0.085,-0.461 0.269,-0.633 0.164,-0.172 0.363,-0.266 0.598,-0.281 0.234,-0.016 0.437,0.05 0.609,0.199 l 0.082,0.082 z"
       style="fill:#000000;fill-opacity:1;fill-rule:nonzero;stroke:none"
       transform="matrix(1.3333333,0,0,1.3333333,30096,0)" />
  </g>
</svg>
