<?xml version="1.0" encoding="UTF-8" standalone="no"?>
<!-- Created with Inkscape (http://www.inkscape.org/) -->

<svg
   version="1.1"
   id="svg1"
   width="26.858665"
   height="23.234667"
   viewBox="0 0 26.858665 23.234667"
   xmlns="http://www.w3.org/2000/svg"
   xmlns:svg="http://www.w3.org/2000/svg">
  <defs
     id="defs1" />
  <g
     id="g372"
     transform="translate(-30349.235,-242.78666)">
    <path
       id="path385"
       d="m 196.922,185.57 c 0.976,0 1.887,0.188 2.73,0.563 0.86,0.351 1.598,0.844 2.227,1.476 0.633,0.633 1.137,1.371 1.512,2.215 0.375,0.844 0.562,1.746 0.562,2.707 0,0.242 -0.086,0.449 -0.258,0.621 -0.172,0.172 -0.383,0.258 -0.621,0.258 -0.25,0 -0.465,-0.086 -0.633,-0.258 -0.171,-0.172 -0.257,-0.379 -0.257,-0.621 0,-0.719 -0.137,-1.394 -0.399,-2.027 -0.273,-0.641 -0.652,-1.195 -1.137,-1.664 -0.476,-0.477 -1.039,-0.852 -1.675,-1.125 -0.633,-0.274 -1.321,-0.41 -2.051,-0.41 -0.727,0 -1.406,0.136 -2.039,0.41 -0.641,0.273 -1.203,0.648 -1.676,1.125 -0.469,0.469 -0.84,1.023 -1.113,1.664 -0.289,0.633 -0.434,1.308 -0.434,2.027 0,0.727 0.145,1.407 0.434,2.039 0.273,0.633 0.644,1.188 1.113,1.664 0.473,0.469 1.035,0.836 1.676,1.102 0.633,0.289 1.312,0.434 2.039,0.434 0.59,0 1.164,-0.094 1.711,-0.282 0.555,-0.187 1.051,-0.457 1.488,-0.808 0.203,-0.149 0.422,-0.207 0.656,-0.176 0.239,0.031 0.438,0.144 0.598,0.34 0.141,0.187 0.191,0.402 0.164,0.644 -0.023,0.235 -0.137,0.422 -0.34,0.563 -0.605,0.469 -1.273,0.832 -2.004,1.09 -0.726,0.25 -1.484,0.375 -2.273,0.375 -0.957,0 -1.86,-0.188 -2.719,-0.563 -0.851,-0.359 -1.601,-0.851 -2.238,-1.476 -0.633,-0.633 -1.133,-1.372 -1.5,-2.215 -0.36,-0.852 -0.539,-1.762 -0.539,-2.731 0,-0.961 0.179,-1.863 0.539,-2.707 0.367,-0.844 0.867,-1.582 1.5,-2.215 0.637,-0.632 1.387,-1.125 2.238,-1.476 0.859,-0.375 1.762,-0.563 2.719,-0.563 z m 6.152,-3.48 c 0.953,0 1.856,0.18 2.719,0.539 0.848,0.367 1.594,0.867 2.227,1.5 0.636,0.633 1.14,1.371 1.511,2.215 0.356,0.844 0.539,1.746 0.539,2.707 0,0.961 -0.183,1.863 -0.539,2.707 -0.371,0.859 -0.875,1.605 -1.511,2.238 -0.633,0.625 -1.379,1.117 -2.227,1.477 -0.863,0.375 -1.766,0.562 -2.719,0.562 -0.98,0 -1.886,-0.187 -2.73,-0.562 -0.864,-0.36 -1.606,-0.852 -2.239,-1.477 -0.628,-0.633 -1.125,-1.379 -1.5,-2.238 -0.375,-0.844 -0.562,-1.746 -0.562,-2.707 0,-0.242 0.086,-0.446 0.258,-0.61 0.168,-0.164 0.379,-0.246 0.621,-0.246 0.25,0 0.461,0.082 0.633,0.246 0.168,0.164 0.257,0.368 0.257,0.61 0,0.726 0.133,1.406 0.399,2.039 0.273,0.633 0.648,1.187 1.125,1.664 0.484,0.469 1.047,0.836 1.687,1.101 0.633,0.274 1.317,0.411 2.051,0.411 0.727,0 1.406,-0.137 2.039,-0.411 0.637,-0.265 1.196,-0.632 1.664,-1.101 0.473,-0.477 0.848,-1.031 1.125,-1.664 0.286,-0.633 0.434,-1.313 0.434,-2.039 0,-0.719 -0.148,-1.391 -0.434,-2.016 -0.277,-0.648 -0.652,-1.207 -1.125,-1.676 -0.468,-0.476 -1.027,-0.851 -1.664,-1.125 -0.633,-0.273 -1.312,-0.41 -2.039,-0.41 -0.594,0 -1.168,0.094 -1.722,0.281 -0.547,0.188 -1.04,0.454 -1.477,0.797 -0.207,0.157 -0.426,0.219 -0.668,0.188 -0.234,-0.039 -0.43,-0.152 -0.586,-0.34 -0.141,-0.188 -0.199,-0.402 -0.176,-0.645 0.028,-0.242 0.145,-0.433 0.352,-0.574 0.601,-0.461 1.265,-0.816 1.992,-1.066 0.731,-0.25 1.492,-0.375 2.285,-0.375 z"
       style="fill:#000000;fill-opacity:1;fill-rule:nonzero;stroke:none"
       transform="matrix(1.3333333,0,0,1.3333333,30096,0)" />
  </g>
</svg>
