<?xml version="1.0" encoding="UTF-8" standalone="no"?>
<!-- Created with Inkscape (http://www.inkscape.org/) -->

<svg
   version="1.1"
   id="svg1"
   width="25.671125"
   height="25.061533"
   viewBox="0 0 25.671125 25.061533"
   xmlns="http://www.w3.org/2000/svg"
   xmlns:svg="http://www.w3.org/2000/svg">
  <defs
     id="defs1" />
  <g
     id="g372"
     transform="translate(-30661.823,-241.86513)">
    <path
       id="path389"
       d="m 441.797,190.855 c 0.586,0 1.058,0.207 1.418,0.622 0.355,0.414 0.48,0.886 0.363,1.418 v 0.023 c 0,0.187 -0.023,0.391 -0.07,0.609 -0.043,0.219 -0.086,0.453 -0.141,0.703 -0.133,0.438 -0.297,0.868 -0.492,1.29 -0.187,0.414 -0.418,0.812 -0.691,1.195 -0.414,0.578 -0.895,1.082 -1.442,1.512 -0.554,0.429 -1.176,0.793 -1.863,1.089 -0.68,0.289 -1.426,0.504 -2.238,0.645 -0.821,0.152 -1.7,0.234 -2.637,0.234 -0.977,0 -1.883,-0.082 -2.707,-0.234 -0.84,-0.156 -1.602,-0.383 -2.297,-0.68 -0.699,-0.304 -1.312,-0.687 -1.852,-1.148 -0.562,-0.445 -1.05,-0.969 -1.464,-1.571 -0.258,-0.382 -0.481,-0.781 -0.668,-1.195 -0.188,-0.414 -0.328,-0.851 -0.422,-1.312 -0.047,-0.141 -0.082,-0.278 -0.106,-0.41 -0.015,-0.141 -0.043,-0.278 -0.07,-0.411 0,-0.086 -0.008,-0.152 -0.012,-0.199 -0.008,-0.055 -0.011,-0.082 -0.011,-0.082 -0.09,-0.57 0.039,-1.062 0.386,-1.476 0.344,-0.415 0.809,-0.622 1.395,-0.622 z m -0.047,1.84 h -15.527 v 0.129 c 0,0.016 0.004,0.043 0.011,0.082 0.008,0.032 0.012,0.063 0.012,0.094 0.016,0.102 0.031,0.203 0.047,0.305 0.023,0.101 0.043,0.207 0.059,0.316 0.086,0.344 0.199,0.68 0.339,1.008 0.149,0.32 0.321,0.621 0.516,0.902 0.32,0.461 0.699,0.871 1.137,1.231 0.445,0.359 0.949,0.652 1.511,0.879 0.571,0.226 1.2,0.406 1.887,0.539 0.688,0.117 1.442,0.175 2.262,0.175 0.797,0 1.547,-0.058 2.25,-0.175 0.687,-0.133 1.308,-0.313 1.863,-0.539 0.563,-0.227 1.067,-0.52 1.512,-0.879 0.445,-0.36 0.824,-0.77 1.137,-1.231 0.203,-0.281 0.375,-0.582 0.515,-0.902 0.141,-0.328 0.254,-0.664 0.34,-1.008 0.031,-0.109 0.051,-0.215 0.07,-0.316 0.016,-0.102 0.028,-0.203 0.036,-0.305 0,-0.016 0,-0.027 0,-0.035 0,-0.016 0.007,-0.024 0.023,-0.024 z m -3.539,-11.144 c 0.187,0.117 0.309,0.285 0.375,0.504 0.062,0.211 0.051,0.422 -0.035,0.633 l -0.059,0.128 -3.48,5.52 6.222,-4.875 c 0.204,-0.156 0.426,-0.215 0.68,-0.176 0.25,0.031 0.449,0.149 0.609,0.352 0.157,0.203 0.215,0.429 0.188,0.679 -0.023,0.25 -0.137,0.454 -0.34,0.61 l -6.703,5.238 c -0.195,0.156 -0.418,0.223 -0.668,0.199 -0.254,-0.031 -0.457,-0.148 -0.621,-0.351 -0.039,-0.055 -0.074,-0.114 -0.106,-0.176 -0.023,-0.07 -0.043,-0.141 -0.058,-0.211 l -0.199,0.305 c -0.125,0.211 -0.313,0.347 -0.563,0.41 -0.254,0.055 -0.488,0.012 -0.703,-0.129 -0.188,-0.117 -0.312,-0.277 -0.375,-0.481 -0.066,-0.21 -0.051,-0.429 0.035,-0.656 l 0.059,-0.117 4.476,-7.125 c 0.121,-0.219 0.309,-0.355 0.563,-0.41 0.25,-0.055 0.484,-0.012 0.703,0.129 z"
       style="fill:#000000;fill-opacity:1;fill-rule:nonzero;stroke:none"
       transform="matrix(1.3333333,0,0,1.3333333,30096,0)" />
  </g>
</svg>
