<?xml version="1.0" encoding="UTF-8" standalone="no"?>
<!-- Created with Inkscape (http://www.inkscape.org/) -->

<svg
   version="1.1"
   id="svg1"
   width="24.971273"
   height="22.594666"
   viewBox="0 0 24.971273 22.594666"
   xmlns="http://www.w3.org/2000/svg"
   xmlns:svg="http://www.w3.org/2000/svg">
  <defs
     id="defs1" />
  <g
     id="g372"
     transform="translate(-30350.122,-288.42666)">
    <path
       id="path393"
       d="m 206.59,225.016 h 2.156 c -0.164,0.304 -0.348,0.605 -0.551,0.89 -0.195,0.282 -0.418,0.551 -0.656,0.809 l -6.129,5.976 c -0.398,0.387 -0.875,0.575 -1.418,0.575 -0.539,0 -1.008,-0.188 -1.406,-0.575 l -6.129,-6 -0.129,-0.129 h 2.602 l 4.945,4.84 c 0.023,0.036 0.063,0.047 0.117,0.047 0.063,0 0.106,-0.011 0.129,-0.047 l 6.106,-5.976 c 0.07,-0.051 0.132,-0.117 0.187,-0.188 0.063,-0.07 0.121,-0.14 0.176,-0.222 z m -5.18,-4.442 0.07,0.082 1.653,2.813 0.773,-0.891 c 0.071,-0.074 0.156,-0.14 0.258,-0.199 0.098,-0.051 0.211,-0.086 0.328,-0.106 h 3.75 c 0.258,0 0.473,0.094 0.656,0.27 0.18,0.184 0.27,0.398 0.27,0.656 0,0.231 -0.078,0.43 -0.234,0.598 -0.161,0.176 -0.348,0.277 -0.575,0.305 h -3.351 l -1.336,1.523 c -0.207,0.23 -0.453,0.336 -0.738,0.316 -0.282,-0.011 -0.512,-0.132 -0.68,-0.363 l -0.07,-0.082 -1.114,-1.898 -0.855,3.914 c -0.09,0.363 -0.313,0.586 -0.668,0.679 -0.359,0.094 -0.664,0.012 -0.902,-0.246 l -0.059,-0.093 -1.641,-2.204 h -5.191 c -0.234,0 -0.442,-0.074 -0.621,-0.234 -0.184,-0.164 -0.278,-0.352 -0.281,-0.562 l -0.024,-0.106 c 0,-0.246 0.078,-0.457 0.234,-0.633 0.157,-0.168 0.344,-0.269 0.575,-0.293 h 5.789 c 0.121,0 0.238,0.032 0.351,0.082 0.118,0.047 0.215,0.118 0.305,0.2 l 0.07,0.082 0.703,0.949 0.926,-4.219 c 0.086,-0.379 0.321,-0.609 0.703,-0.68 0.391,-0.07 0.7,0.047 0.926,0.34 z m 2.11,-4.254 c 0.89,0 1.726,0.196 2.519,0.575 0.797,0.375 1.481,0.914 2.063,1.617 0.343,0.418 0.613,0.867 0.808,1.347 0.203,0.481 0.34,0.973 0.41,1.489 h -1.851 c -0.055,-0.293 -0.153,-0.586 -0.293,-0.879 -0.137,-0.285 -0.301,-0.563 -0.492,-0.821 -0.407,-0.48 -0.887,-0.855 -1.43,-1.125 -0.539,-0.261 -1.121,-0.398 -1.734,-0.398 -0.547,0 -1.067,0.113 -1.559,0.328 -0.492,0.211 -0.934,0.516 -1.324,0.902 -0.172,0.184 -0.387,0.27 -0.645,0.27 -0.254,0 -0.465,-0.086 -0.633,-0.27 -0.394,-0.386 -0.832,-0.691 -1.324,-0.902 -0.492,-0.215 -1.015,-0.328 -1.558,-0.328 -0.618,0 -1.204,0.137 -1.747,0.398 -0.539,0.27 -1.015,0.645 -1.418,1.125 -0.371,0.465 -0.621,0.981 -0.761,1.547 -0.137,0.563 -0.16,1.133 -0.071,1.7 h -1.781 c -0.015,0.019 -0.031,0.023 -0.035,0.023 -0.008,0 -0.019,0 -0.035,0 -0.086,-0.785 -0.024,-1.563 0.187,-2.328 0.219,-0.766 0.579,-1.457 1.079,-2.074 0.578,-0.704 1.261,-1.246 2.05,-1.621 0.797,-0.379 1.641,-0.571 2.532,-0.571 0.64,0 1.261,0.102 1.863,0.317 0.601,0.203 1.148,0.5 1.64,0.89 0.516,-0.406 1.075,-0.707 1.676,-0.906 0.602,-0.199 1.223,-0.301 1.864,-0.301 z"
       style="fill:#000000;fill-opacity:1;fill-rule:nonzero;stroke:none"
       transform="matrix(1.3333333,0,0,1.3333333,30096,0)" />
  </g>
</svg>
