<?xml version="1.0" encoding="UTF-8" standalone="no"?>
<!-- Created with Inkscape (http://www.inkscape.org/) -->

<svg
   version="1.1"
   id="svg1"
   width="19.827999"
   height="26.90093"
   viewBox="0 0 19.827999 26.90093"
   xmlns="http://www.w3.org/2000/svg"
   xmlns:svg="http://www.w3.org/2000/svg">
  <defs
     id="defs1" />
  <g
     id="g372"
     transform="translate(-30508.579,-286.28666)">
    <path
       id="path395"
       d="m 316.875,214.715 c 1.023,0 1.984,0.195 2.895,0.574 0.898,0.395 1.679,0.926 2.355,1.594 0.68,0.676 1.211,1.461 1.594,2.355 0.39,0.891 0.586,1.852 0.586,2.883 0,0.606 -0.075,1.191 -0.223,1.758 -0.141,0.562 -0.34,1.101 -0.598,1.617 -0.257,0.516 -0.582,0.996 -0.961,1.442 -0.375,0.441 -0.804,0.832 -1.289,1.171 v 5.848 c 0,0.375 -0.164,0.648 -0.492,0.82 -0.324,0.172 -0.637,0.149 -0.949,-0.07 l -0.094,-0.059 -2.824,-2.519 -2.836,2.519 c -0.289,0.243 -0.605,0.297 -0.949,0.164 -0.348,-0.124 -0.539,-0.374 -0.586,-0.75 v -5.953 c -0.488,-0.339 -0.914,-0.73 -1.289,-1.171 -0.383,-0.446 -0.703,-0.926 -0.961,-1.442 -0.258,-0.516 -0.457,-1.055 -0.598,-1.617 -0.148,-0.567 -0.222,-1.152 -0.222,-1.758 0,-1.031 0.191,-1.992 0.586,-2.883 0.378,-0.894 0.906,-1.679 1.582,-2.355 0.679,-0.668 1.468,-1.199 2.367,-1.594 0.906,-0.379 1.875,-0.574 2.906,-0.574 z m 2.531,14.367 c -0.406,0.141 -0.82,0.254 -1.242,0.328 -0.422,0.082 -0.852,0.117 -1.289,0.117 -0.43,0 -0.863,-0.035 -1.289,-0.117 -0.43,-0.074 -0.852,-0.187 -1.254,-0.328 v 2.836 l 1.934,-1.699 c 0.156,-0.141 0.332,-0.215 0.539,-0.235 0.203,-0.011 0.394,0.036 0.574,0.153 l 0.094,0.082 1.933,1.699 z m -2.531,-12.551 c -0.773,0 -1.5,0.153 -2.18,0.457 -0.687,0.293 -1.285,0.692 -1.793,1.196 -0.511,0.511 -0.902,1.101 -1.183,1.769 -0.305,0.676 -0.457,1.395 -0.457,2.168 0,0.774 0.152,1.5 0.457,2.168 0.281,0.676 0.672,1.266 1.183,1.77 0.508,0.511 1.106,0.91 1.793,1.195 0.68,0.293 1.407,0.434 2.18,0.434 0.766,0 1.492,-0.141 2.18,-0.434 0.679,-0.285 1.269,-0.684 1.781,-1.195 0.508,-0.504 0.902,-1.094 1.184,-1.77 0.304,-0.668 0.457,-1.394 0.457,-2.168 0,-0.773 -0.153,-1.492 -0.457,-2.168 -0.282,-0.668 -0.676,-1.258 -1.184,-1.769 -0.512,-0.504 -1.102,-0.903 -1.781,-1.196 -0.688,-0.304 -1.414,-0.457 -2.18,-0.457 z m 0.809,1.746 0.82,1.606 1.781,0.258 c 0.375,0.066 0.621,0.281 0.738,0.644 0.122,0.363 0.051,0.668 -0.222,0.926 l -1.313,1.266 0.328,1.769 c 0.055,0.371 -0.074,0.668 -0.386,0.891 -0.305,0.222 -0.621,0.246 -0.95,0.07 l -1.605,-0.832 -1.617,0.832 c -0.328,0.176 -0.653,0.152 -0.961,-0.07 -0.305,-0.223 -0.422,-0.52 -0.352,-0.891 l 0.305,-1.769 -1.289,-1.266 c -0.277,-0.258 -0.359,-0.563 -0.246,-0.926 0.117,-0.363 0.363,-0.578 0.738,-0.644 l 1.805,-0.258 0.797,-1.606 c 0.168,-0.339 0.445,-0.515 0.82,-0.515 0.379,0 0.652,0.176 0.809,0.515 z m -0.809,2.473 -0.199,0.387 c -0.055,0.113 -0.133,0.211 -0.235,0.293 -0.101,0.09 -0.218,0.148 -0.339,0.175 l -0.118,0.028 -0.422,0.055 0.293,0.304 c 0.098,0.09 0.176,0.199 0.223,0.328 0.051,0.129 0.074,0.258 0.059,0.387 v 0.105 l -0.082,0.399 0.386,-0.188 c 0.118,-0.05 0.239,-0.082 0.375,-0.093 0.133,-0.004 0.258,0.011 0.375,0.047 l 0.106,0.046 0.387,0.188 -0.082,-0.399 c -0.02,-0.128 -0.012,-0.257 0.011,-0.386 0.032,-0.129 0.086,-0.246 0.176,-0.352 l 0.094,-0.082 0.293,-0.304 -0.422,-0.059 c -0.133,-0.012 -0.254,-0.059 -0.363,-0.129 -0.102,-0.07 -0.192,-0.152 -0.27,-0.258 l -0.059,-0.105 z"
       style="fill:#000000;fill-opacity:1;fill-rule:nonzero;stroke:none"
       transform="matrix(1.3333333,0,0,1.3333333,30096,0)" />
  </g>
</svg>
