<?xml version="1.0" encoding="UTF-8" standalone="no"?>
<!-- Created with Inkscape (http://www.inkscape.org/) -->

<svg
   version="1.1"
   id="svg1"
   width="26.703999"
   height="26.688"
   viewBox="0 0 26.703999 26.688"
   xmlns="http://www.w3.org/2000/svg"
   xmlns:svg="http://www.w3.org/2000/svg">
  <defs
     id="defs1" />
  <g
     id="g372"
     transform="translate(-30661.312,-286.36399)">
    <path
       id="path397"
       d="m 434.004,214.773 c 1.383,0 2.676,0.27 3.879,0.797 1.219,0.516 2.277,1.231 3.187,2.145 0.914,0.91 1.633,1.969 2.168,3.187 0.516,1.215 0.774,2.508 0.774,3.879 0,1.395 -0.258,2.696 -0.774,3.914 -0.535,1.219 -1.254,2.285 -2.168,3.188 -0.91,0.902 -1.968,1.613 -3.187,2.133 -1.203,0.515 -2.496,0.773 -3.879,0.773 -1.391,0 -2.692,-0.258 -3.891,-0.773 -1.218,-0.52 -2.285,-1.231 -3.199,-2.133 -0.91,-0.903 -1.625,-1.969 -2.156,-3.188 -0.516,-1.218 -0.774,-2.519 -0.774,-3.914 0,-1.371 0.258,-2.664 0.774,-3.879 0.531,-1.218 1.246,-2.277 2.156,-3.187 0.914,-0.914 1.981,-1.629 3.199,-2.145 1.199,-0.527 2.5,-0.797 3.891,-0.797 z m 0,1.547 c -1.18,0 -2.281,0.223 -3.293,0.668 -1.031,0.446 -1.93,1.055 -2.695,1.817 -0.77,0.769 -1.371,1.664 -1.817,2.695 -0.445,1.031 -0.668,2.129 -0.668,3.281 0,1.184 0.223,2.285 0.668,3.317 0.446,1.019 1.047,1.91 1.817,2.672 0.765,0.769 1.664,1.371 2.695,1.816 1.012,0.445 2.113,0.668 3.293,0.668 1.172,0 2.266,-0.223 3.281,-0.668 1.031,-0.445 1.926,-1.047 2.695,-1.816 0.766,-0.762 1.372,-1.653 1.817,-2.672 0.445,-1.032 0.668,-2.133 0.668,-3.317 0,-1.152 -0.223,-2.25 -0.668,-3.281 -0.445,-1.031 -1.051,-1.926 -1.817,-2.695 -0.769,-0.762 -1.664,-1.371 -2.695,-1.817 -1.015,-0.445 -2.109,-0.668 -3.281,-0.668 z m 0.469,9.457 c 0.601,0 1.011,0.012 1.242,0.024 0.226,0.011 0.414,0.035 0.562,0.082 0.239,0.058 0.414,0.16 0.516,0.305 0.109,0.14 0.164,0.351 0.164,0.621 0,0.656 -0.289,1.203 -0.855,1.629 -0.571,0.433 -1.293,0.644 -2.168,0.644 -0.86,0 -1.559,-0.211 -2.098,-0.633 -0.535,-0.422 -0.797,-0.965 -0.797,-1.64 0,-0.27 0.043,-0.481 0.129,-0.621 0.086,-0.145 0.234,-0.247 0.445,-0.305 0.133,-0.047 0.285,-0.071 0.457,-0.082 0.168,-0.012 0.473,-0.024 0.914,-0.024 z m -3.047,-3.222 c 0.344,0.281 0.539,0.652 0.586,1.101 0.047,0.457 -0.067,0.867 -0.328,1.231 l -1.161,1.64 c -0.136,0.188 -0.312,0.305 -0.527,0.34 -0.211,0.035 -0.406,-0.015 -0.574,-0.152 l -1.676,-1.137 c -0.375,-0.258 -0.617,-0.609 -0.726,-1.055 -0.102,-0.445 -0.047,-0.855 0.164,-1.242 0.132,-0.215 0.296,-0.398 0.504,-0.551 0.21,-0.144 0.437,-0.238 0.679,-0.281 0.145,-0.027 0.297,-0.035 0.445,-0.023 0.145,0.019 0.286,0.047 0.422,0.082 0.11,-0.082 0.227,-0.156 0.364,-0.223 0.14,-0.058 0.281,-0.105 0.422,-0.14 0.25,-0.047 0.496,-0.028 0.75,0.046 0.25,0.071 0.468,0.196 0.656,0.364 z m 6.551,-0.41 c 0.14,0.035 0.273,0.082 0.41,0.14 0.14,0.067 0.261,0.141 0.375,0.223 0.133,-0.035 0.273,-0.063 0.422,-0.082 0.144,-0.012 0.296,-0.004 0.445,0.027 0.238,0.039 0.461,0.133 0.668,0.281 0.211,0.149 0.379,0.332 0.515,0.551 0.211,0.383 0.262,0.797 0.153,1.242 -0.102,0.442 -0.34,0.793 -0.715,1.051 l -1.676,1.137 c -0.172,0.137 -0.371,0.187 -0.586,0.152 -0.211,-0.035 -0.383,-0.152 -0.515,-0.34 l -1.172,-1.64 c -0.258,-0.379 -0.363,-0.797 -0.317,-1.242 0.047,-0.446 0.239,-0.809 0.586,-1.09 0.188,-0.168 0.403,-0.293 0.657,-0.364 0.25,-0.074 0.496,-0.093 0.75,-0.043 z"
       style="fill:#000000;fill-opacity:1;fill-rule:nonzero;stroke:none"
       transform="matrix(1.3333333,0,0,1.3333333,30096,0)" />
  </g>
</svg>
