<?xml version="1.0" encoding="UTF-8" standalone="no"?>
<!-- Created with Inkscape (http://www.inkscape.org/) -->

<svg
   version="1.1"
   id="svg1"
   width="26.703999"
   height="26.688"
   viewBox="0 0 26.703999 26.688"
   xmlns="http://www.w3.org/2000/svg"
   xmlns:svg="http://www.w3.org/2000/svg">
  <defs
     id="defs1" />
  <g
     id="g372"
     transform="translate(-30349.312,-331.70266)">
    <path
       id="path401"
       d="m 200.004,248.777 c 1.383,0 2.676,0.266 3.879,0.797 1.219,0.516 2.277,1.231 3.187,2.145 0.914,0.91 1.633,1.969 2.168,3.187 0.516,1.215 0.774,2.504 0.774,3.879 0,1.391 -0.258,2.695 -0.774,3.914 -0.535,1.219 -1.254,2.281 -2.168,3.188 -0.91,0.898 -1.968,1.613 -3.187,2.133 -1.203,0.515 -2.496,0.773 -3.879,0.773 -1.391,0 -2.692,-0.258 -3.891,-0.773 -1.218,-0.52 -2.285,-1.235 -3.199,-2.133 -0.91,-0.907 -1.625,-1.969 -2.156,-3.188 -0.516,-1.219 -0.774,-2.523 -0.774,-3.914 0,-1.375 0.258,-2.664 0.774,-3.879 0.531,-1.218 1.246,-2.277 2.156,-3.187 0.914,-0.914 1.981,-1.629 3.199,-2.145 1.199,-0.531 2.5,-0.797 3.891,-0.797 z m 0,1.547 c -1.18,0 -2.281,0.223 -3.293,0.668 -1.031,0.446 -1.93,1.051 -2.695,1.817 -0.77,0.769 -1.371,1.664 -1.817,2.695 -0.445,1.031 -0.668,2.129 -0.668,3.281 0,1.18 0.223,2.285 0.668,3.317 0.446,1.015 1.047,1.906 1.817,2.671 0.765,0.77 1.664,1.372 2.695,1.817 1.012,0.445 2.113,0.668 3.293,0.668 1.172,0 2.266,-0.223 3.281,-0.668 1.031,-0.445 1.926,-1.047 2.695,-1.817 0.766,-0.765 1.372,-1.656 1.817,-2.671 0.445,-1.032 0.668,-2.137 0.668,-3.317 0,-1.152 -0.223,-2.25 -0.668,-3.281 -0.445,-1.031 -1.051,-1.926 -1.817,-2.695 -0.769,-0.766 -1.664,-1.371 -2.695,-1.817 -1.015,-0.445 -2.109,-0.668 -3.281,-0.668 z m 0,12.844 c 0.25,0 0.555,0.012 0.926,0.035 0.367,0.024 0.773,0.055 1.218,0.094 0.211,0 0.391,0.078 0.54,0.234 0.156,0.149 0.234,0.328 0.234,0.539 0,0.219 -0.078,0.407 -0.234,0.551 -0.149,0.149 -0.329,0.223 -0.54,0.223 h -0.023 c -0.465,-0.039 -0.875,-0.071 -1.23,-0.094 -0.352,-0.023 -0.649,-0.035 -0.891,-0.035 -0.219,0 -0.508,0.012 -0.867,0.035 -0.36,0.023 -0.793,0.055 -1.289,0.094 -0.211,0 -0.395,-0.074 -0.551,-0.223 -0.149,-0.144 -0.223,-0.332 -0.223,-0.551 0,-0.211 0.071,-0.39 0.211,-0.539 0.145,-0.156 0.32,-0.234 0.527,-0.234 0.497,-0.039 0.93,-0.07 1.29,-0.094 0.367,-0.023 0.668,-0.035 0.902,-0.035 z m -6.774,-3.926 c 0.461,0.09 0.868,0.164 1.219,0.235 0.356,0.07 0.668,0.14 0.926,0.211 0.215,0.066 0.496,0.152 0.844,0.269 0.343,0.113 0.742,0.242 1.207,0.398 0.191,0.055 0.344,0.176 0.457,0.364 0.109,0.187 0.14,0.394 0.094,0.609 -0.055,0.195 -0.184,0.348 -0.375,0.457 -0.196,0.113 -0.399,0.137 -0.61,0.07 -0.09,-0.039 -0.172,-0.07 -0.258,-0.093 -0.089,-0.028 -0.172,-0.063 -0.257,-0.094 -0.137,0.289 -0.348,0.504 -0.645,0.644 -0.289,0.141 -0.594,0.172 -0.902,0.083 -0.328,-0.086 -0.582,-0.262 -0.762,-0.54 -0.184,-0.281 -0.254,-0.578 -0.211,-0.902 -0.16,-0.039 -0.324,-0.07 -0.504,-0.094 -0.183,-0.027 -0.371,-0.062 -0.562,-0.093 v -0.024 h -0.024 c -0.219,-0.051 -0.379,-0.176 -0.48,-0.363 -0.094,-0.188 -0.121,-0.379 -0.082,-0.586 0.062,-0.191 0.183,-0.344 0.363,-0.457 0.187,-0.109 0.375,-0.141 0.562,-0.094 z m 14.461,0.551 c 0.051,0.219 0.024,0.418 -0.093,0.598 -0.114,0.183 -0.278,0.304 -0.493,0.375 -0.195,0.031 -0.382,0.066 -0.562,0.093 -0.184,0.024 -0.348,0.055 -0.504,0.094 0.039,0.324 -0.031,0.621 -0.211,0.902 -0.183,0.278 -0.433,0.454 -0.762,0.54 -0.312,0.089 -0.617,0.058 -0.914,-0.083 -0.289,-0.14 -0.5,-0.355 -0.632,-0.644 -0.086,0.031 -0.172,0.066 -0.258,0.094 -0.086,0.023 -0.184,0.054 -0.282,0.093 -0.21,0.067 -0.41,0.043 -0.597,-0.07 -0.188,-0.109 -0.301,-0.262 -0.34,-0.457 -0.063,-0.215 -0.043,-0.422 0.059,-0.609 0.097,-0.188 0.25,-0.297 0.457,-0.34 0.468,-0.168 0.871,-0.309 1.218,-0.422 0.344,-0.117 0.625,-0.203 0.844,-0.269 0.258,-0.071 0.555,-0.141 0.902,-0.211 0.352,-0.071 0.754,-0.141 1.219,-0.211 0.203,-0.063 0.391,-0.039 0.574,0.07 0.188,0.113 0.309,0.266 0.375,0.457 z"
       style="fill:#000000;fill-opacity:1;fill-rule:nonzero;stroke:none"
       transform="matrix(1.3333333,0,0,1.3333333,30096,0)" />
  </g>
</svg>
