<?xml version="1.0" encoding="UTF-8" standalone="no"?>
<!-- Created with Inkscape (http://www.inkscape.org/) -->

<svg
   version="1.1"
   id="svg1"
   width="26.866886"
   height="26.903439"
   viewBox="0 0 26.866886 26.903439"
   xmlns="http://www.w3.org/2000/svg"
   xmlns:svg="http://www.w3.org/2000/svg">
  <defs
     id="defs1" />
  <g
     id="g3"
     transform="translate(-1090.1406,-690.53015)">
    <g
       id="g52"
       aria-label="&#10;y"
       transform="matrix(1.3333333,0,0,1.3333333,1088,717.12004)">
      <path
         id="path53"
         d="m 17.824219,-19.288272 0.796875,2.496094 2.496093,0.785156 c 0.328125,0.117187 0.530274,0.339844 0.609375,0.667969 0.07617,0.328125 0.0029,0.618164 -0.222656,0.867187 l -3.480469,3.46875 c -0.102539,0.08789 -0.210937,0.158203 -0.328125,0.210938 -0.111328,0.04687 -0.231445,0.06445 -0.363281,0.04687 h -0.02344 c 0.169922,0.46289 0.298828,0.9345699 0.386718,1.4179683 0.08496,0.4775391 0.128907,0.9667969 0.128907,1.4648438 0,1.1191406 -0.208008,2.165039 -0.621094,3.140625 -0.430664,0.984375 -1.016602,1.8457031 -1.757812,2.578125 -0.735352,0.7265625 -1.587891,1.30664059 -2.554688,1.73437496 -0.993164,0.42773438 -2.047852,0.64453125 -3.1640625,0.64453125 -1.125,0 -2.1855469,-0.21679687 -3.1757813,-0.64453125 C 5.5722656,-0.83710031 4.7167969,-1.4171784 3.984375,-2.1437409 3.2490234,-2.8761628 2.6660156,-3.7374909 2.2382813,-4.7218659 1.8164062,-5.6974519 1.6054687,-6.7433503 1.6054687,-7.8624909 c 0,-1.116211 0.2109375,-2.1679691 0.6328126,-3.1523441 0.4277343,-0.990234 1.0107421,-1.851562 1.7460937,-2.578125 0.7324219,-0.732422 1.5878906,-1.315429 2.5664062,-1.746093 0.9902344,-0.413086 2.0507813,-0.621094 3.1757813,-0.621094 0.4921875,0 0.9726565,0.04101 1.4414065,0.117187 0.474609,0.0791 0.93164,0.205078 1.371094,0.375 v -0.03516 c 0,-0.131836 0.01758,-0.257812 0.05859,-0.375 0.04687,-0.123047 0.120117,-0.228516 0.222657,-0.316406 l 3.480468,-3.480469 c 0.240235,-0.240234 0.527344,-0.319336 0.855469,-0.234375 0.333984,0.08789 0.556641,0.292969 0.667969,0.621094 z m -8.0976565,5.15625 c -0.8671875,0 -1.6845703,0.164062 -2.4492188,0.492187 -0.758789,0.328125 -1.4238281,0.779297 -1.9921875,1.347657 -0.571289,0.5625 -1.0253906,1.224609 -1.3593749,1.980468 -0.328125,0.7587894 -0.4921875,1.5761722 -0.4921875,2.4492191 0,0.8613281 0.1640625,1.6699218 0.4921875,2.4257812 0.3339843,0.7587891 0.7880859,1.4238281 1.3593749,1.9921875 0.5683594,0.5625 1.2333985,1.0078125 1.9921875,1.3359375 0.7646485,0.3369141 1.5820313,0.5039063 2.4492188,0.5039063 0.8583985,0 1.6669925,-0.1669922 2.4257815,-0.5039063 0.773437,-0.328125 1.441406,-0.7734375 2.003906,-1.3359375 0.568359,-0.5683594 1.019531,-1.2333984 1.347656,-1.9921875 0.333985,-0.7558594 0.503906,-1.5644531 0.503906,-2.4257812 0,-0.46875 -0.05273,-0.928711 -0.152343,-1.3828125 -0.102539,-0.4511719 -0.254883,-0.8847656 -0.457031,-1.3007816 l -0.128907,-0.28125 -1.160156,-0.04687 -0.726562,0.761719 c 0.202148,0.3281251 0.357421,0.6855469 0.46875,1.0664063 0.117187,0.375 0.175781,0.7705078 0.175781,1.1835938 0,0.5859375 -0.114258,1.1367187 -0.339844,1.6523437 -0.234375,0.5332031 -0.547852,0.9931641 -0.9375,1.3828125 -0.383789,0.3837891 -0.84082,0.6884766 -1.371094,0.9140625 -0.509765,0.2197266 -1.060547,0.328125 -1.6523435,0.328125 -0.6035156,0 -1.1601562,-0.1083984 -1.6757812,-0.328125 C 7.5263672,-4.1388581 7.0693359,-4.4435456 6.6796875,-4.8273347 6.2958984,-5.2169831 5.9882812,-5.6769441 5.7539062,-6.2101472 5.5429687,-6.7257722 5.4375,-7.2765534 5.4375,-7.8624909 c 0,-0.600586 0.1054687,-1.1601563 0.3164062,-1.6757813 0.234375,-0.5156248 0.5419922,-0.9667968 0.9257813,-1.3593748 0.3896484,-0.398438 0.8466797,-0.703125 1.3710938,-0.914063 0.515625,-0.225586 1.0722656,-0.339843 1.6757812,-0.339843 0.3896485,0 0.7646485,0.05273 1.1250005,0.152343 0.36621,0.09375 0.708984,0.234375 1.03125,0.421875 l 0.210937,0.128907 0.597656,-0.597657 -0.05859,-1.382812 c -0.445313,-0.225586 -0.914063,-0.398438 -1.40625,-0.515625 -0.492188,-0.123047 -0.993165,-0.1875 -1.5000005,-0.1875 z m 0,3.796875 c -0.6884766,0 -1.2714844,0.243164 -1.7460938,0.7265623 -0.477539,0.4775391 -0.7148437,1.0605469 -0.7148437,1.7460938 0,0.6738281 0.2373047,1.2509765 0.7148437,1.734375 0.4746094,0.477539 1.0576172,0.7148437 1.7460938,0.7148437 0.6796875,0 1.2568355,-0.2373047 1.7343755,-0.7148437 0.474609,-0.4833985 0.714843,-1.0605469 0.714843,-1.734375 0,-0.1230469 -0.0088,-0.2490235 -0.02344,-0.375 -0.0088,-0.1230469 -0.03516,-0.2402344 -0.08203,-0.3515625 l -0.05859,-0.1757813 -1.769531,1.7578125 c -0.172852,0.1875 -0.3867192,0.28125 -0.6445317,0.28125 -0.2578125,0 -0.4746094,-0.09375 -0.6445313,-0.28125 -0.1728516,-0.1552734 -0.2666016,-0.3515625 -0.28125,-0.5859375 -0.00879,-0.234375 0.058594,-0.4365234 0.1992188,-0.609375 l 0.082031,-0.09375 1.8046882,-1.8046873 c -0.172852,-0.07031 -0.345704,-0.123047 -0.515625,-0.164063 -0.172852,-0.04687 -0.3457038,-0.07031 -0.5156257,-0.07031 z m 6.8085935,-6.972656 -2.121093,2.121093 0.105468,2.496094 2.472656,0.105469 2.121094,-2.132813 -1.5,-0.46875 c -0.140625,-0.05273 -0.266601,-0.131836 -0.375,-0.234375 -0.111328,-0.09961 -0.18457,-0.222656 -0.222656,-0.363281 z m 0,0"
         style="fill:#000000;fill-opacity:1;fill-rule:nonzero;stroke:none" />
      <path
         id="path54"
         d="m 39.28418,-10.519718 -3.609375,8.1562505 H 34.59668 l 1.511718,-3.421875 -2.109375,-4.7343755 h 1.136719 l 1.546875,3.8085942 1.511719,-3.8085942 z m 0,0"
         style="fill:#000000;fill-opacity:1;fill-rule:nonzero;stroke:none" />
    </g>
  </g>
</svg>
