<?xml version="1.0" encoding="UTF-8" standalone="no"?>
<!-- Created with Inkscape (http://www.inkscape.org/) -->

<svg
   version="1.1"
   id="svg1"
   width="26.859364"
   height="25.281242"
   viewBox="0 0 26.859364 25.281242"
   xmlns="http://www.w3.org/2000/svg"
   xmlns:svg="http://www.w3.org/2000/svg">
  <defs
     id="defs1" />
  <g
     id="g3"
     transform="translate(-1245.2344,-692.26173)">
    <g
       id="g54"
       aria-label="&#10;t"
       transform="matrix(1.3333333,0,0,1.3333333,1244,717.12004)">
      <path
         id="path55"
         d="m 5.4609375,-18.596866 c 0.09375,-0.0293 0.1933594,-0.04687 0.3046875,-0.04687 0.1083984,0 0.2138672,0.01758 0.3164062,0.04687 0.140625,0.05566 0.3046875,0.140625 0.4921875,0.257813 0.1875,0.111328 0.3779297,0.251953 0.5742188,0.421875 0.3339844,0.304687 0.5976562,0.662109 0.7851562,1.066406 0.1933594,0.407226 0.2929688,0.861328 0.2929688,1.359375 0,0.134765 -0.00879,0.263672 -0.023437,0.386719 -0.017578,0.117187 -0.035156,0.234375 -0.058594,0.351562 -0.087891,0.28125 -0.2050782,0.5625 -0.3515626,0.84375 -0.140625,0.28125 -0.3134765,0.55957 -0.515625,0.832031 -0.1113281,0.140625 -0.2167968,0.278321 -0.3164062,0.410157 -0.1025391,0.125976 -0.1962891,0.240234 -0.28125,0.339843 v 0.304688 h 3.4218753 v -0.304688 c -0.0791,-0.07031 -0.1582034,-0.146484 -0.2343753,-0.234375 -0.079102,-0.08496 -0.1523437,-0.1875 -0.2226562,-0.304687 l -0.152344,-0.175781 C 9.2490234,-13.370303 9.046875,-13.701358 8.8828125,-14.038272 8.71875,-14.372257 8.6132813,-14.7121 8.5664063,-15.057803 c -0.00879,-0.07031 -0.017578,-0.140625 -0.023437,-0.210938 -0.00879,-0.07031 -0.011719,-0.143555 -0.011719,-0.222656 0.014648,-0.498047 0.1171875,-0.952149 0.3046875,-1.359375 0.1933594,-0.404297 0.4482422,-0.761719 0.7617188,-1.066406 0.2021484,-0.169922 0.3984375,-0.310547 0.5859374,-0.421875 0.1875,-0.117188 0.351562,-0.202149 0.492187,-0.257813 0.117188,-0.0293 0.225586,-0.04687 0.328125,-0.04687 0.108399,0 0.213867,0.01758 0.316407,0.04687 0.140625,0.05566 0.304687,0.140625 0.492187,0.257813 0.1875,0.111328 0.380859,0.251953 0.585938,0.421875 0.328125,0.304687 0.585937,0.662109 0.773437,1.066406 0.193359,0.407226 0.292969,0.861328 0.292969,1.359375 0,0.134765 -0.0088,0.263672 -0.02344,0.386719 -0.0088,0.117187 -0.03516,0.234375 -0.08203,0.351562 -0.07031,0.28125 -0.181641,0.5625 -0.328125,0.84375 -0.140625,0.28125 -0.310547,0.55957 -0.503906,0.832031 -0.117188,0.140625 -0.228516,0.278321 -0.328125,0.410157 -0.102539,0.125976 -0.196289,0.240234 -0.28125,0.339843 v 0.304688 h 3.421875 v -0.304688 c -0.07031,-0.07031 -0.149414,-0.146484 -0.234375,-0.234375 -0.0791,-0.08496 -0.161133,-0.1875 -0.246094,-0.304687 l -0.128906,-0.175781 c -0.243164,-0.328125 -0.445313,-0.65918 -0.609375,-0.996094 -0.164063,-0.333985 -0.266602,-0.673828 -0.304688,-1.019531 -0.01758,-0.07031 -0.0293,-0.140625 -0.03516,-0.210938 -0.0088,-0.07031 -0.01172,-0.143555 -0.01172,-0.222656 0.01465,-0.498047 0.111328,-0.952149 0.292969,-1.359375 0.1875,-0.404297 0.448242,-0.761719 0.785156,-1.066406 0.19336,-0.169922 0.386719,-0.310547 0.574219,-0.421875 0.1875,-0.117188 0.351563,-0.202149 0.492188,-0.257813 0.09961,-0.0293 0.205078,-0.04687 0.316406,-0.04687 0.117187,0 0.225586,0.01758 0.328125,0.04687 0.146484,0.05566 0.310547,0.140625 0.492187,0.257813 0.1875,0.111328 0.38086,0.251953 0.585938,0.421875 0.328125,0.304687 0.588867,0.662109 0.785156,1.066406 0.193359,0.407226 0.292969,0.861328 0.292969,1.359375 0,0.134765 -0.01172,0.263672 -0.03516,0.386719 -0.02344,0.117187 -0.05273,0.234375 -0.08203,0.351562 -0.07031,0.28125 -0.175781,0.5625 -0.316406,0.84375 -0.140625,0.28125 -0.322266,0.55957 -0.539063,0.832031 -0.102539,0.140625 -0.205078,0.278321 -0.304687,0.410157 -0.09375,0.125976 -0.193359,0.240234 -0.292969,0.339843 v 0.304688 h 1.710938 c 0.591797,0 1.101562,0.205078 1.523437,0.609375 0.421875,0.407226 0.650391,0.902344 0.691406,1.4882811 v 3.7851562 c 0,0 0,0.00586 0,0.011719 0,0.00879 0,0.017578 0,0.023437 v 4.1953125 c 0,0.5859375 -0.199218,1.09570309 -0.597656,1.52343746 -0.398437,0.42773438 -0.896484,0.66210938 -1.488281,0.703125 H 3.140625 c -0.5947266,0 -1.1074219,-0.20507812 -1.5351563,-0.609375 C 1.1748047,-0.69647531 0.94921875,-1.1857331 0.92578125,-1.7570222 v -8.0390625 c 0,-0.5859373 0.19921875,-1.0927733 0.59765625,-1.5234373 0.3984375,-0.427735 0.8935547,-0.65918 1.4882813,-0.691406 l 0.140625,-0.01172 h 1.6992187 v -0.304688 C 4.78125,-12.397647 4.7050781,-12.473819 4.6289062,-12.56171 4.5498047,-12.646671 4.4765625,-12.740421 4.40625,-12.84296 l -0.1523438,-0.199218 c -0.243164,-0.328125 -0.4453124,-0.65918 -0.6093749,-0.996094 -0.1582032,-0.333985 -0.2636719,-0.673828 -0.3164063,-1.019531 -0.017578,-0.07031 -0.023437,-0.140625 -0.023437,-0.210938 0,-0.07031 0,-0.143555 0,-0.222656 0,-0.498047 0.09668,-0.952149 0.2929688,-1.359375 0.1933593,-0.404297 0.4570312,-0.761719 0.7851562,-1.066406 0.1875,-0.169922 0.3691406,-0.310547 0.5507812,-0.421875 0.1875,-0.117188 0.3632813,-0.202149 0.5273433,-0.257813 z M 19.242187,-5.2140534 H 2.7539063 l -0.023437,3.3046875 c 0,0.102539 0.029297,0.1875 0.09375,0.2578125 0.061523,0.070312 0.1435546,0.1142578 0.2460937,0.1289062 l 0.070312,0.023437 H 18.84375 c 0.09375,0 0.175781,-0.029297 0.246094,-0.09375 0.07617,-0.070312 0.128906,-0.1552734 0.152343,-0.2578125 z M 18.855469,-10.182803 H 3.1523438 c -0.1113282,0 -0.2050782,0.04101 -0.28125,0.117187 -0.079102,0.079102 -0.1171875,0.1699219 -0.1171875,0.2695313 v 2.7304688 H 19.242187 v -2.7304688 c 0,-0.084961 -0.0293,-0.1669922 -0.08203,-0.2460933 -0.05566,-0.07617 -0.134765,-0.123047 -0.234375,-0.140625 z m -7.851563,-6.503907 -0.07031,0.05859 -0.08203,0.07031 c -0.158204,0.140625 -0.278321,0.301757 -0.363282,0.480468 -0.08789,0.181641 -0.128906,0.383789 -0.128906,0.609375 0,0.01758 0,0.03516 0,0.05859 0,0.02344 0.0029,0.04687 0.01172,0.07031 0.01465,0.172851 0.07617,0.360351 0.1875,0.5625 0.108398,0.205078 0.240234,0.418945 0.398437,0.644531 l 0.04687,0.04687 0.03516,-0.07031 c 0.131835,-0.169922 0.240234,-0.333984 0.328125,-0.492187 0.08496,-0.155274 0.146484,-0.298828 0.1875,-0.433594 l 0.04687,-0.152344 c 0.01465,-0.03809 0.02344,-0.07617 0.02344,-0.117187 0.0059,-0.04687 0.01172,-0.09375 0.01172,-0.140625 0,-0.225586 -0.04102,-0.424805 -0.117188,-0.597656 -0.0791,-0.169922 -0.196289,-0.328125 -0.351562,-0.46875 -0.01758,-0.01465 -0.03223,-0.0293 -0.04687,-0.04687 -0.0088,-0.01465 -0.02051,-0.0293 -0.03516,-0.04687 z m -5.2265623,0 -0.082031,0.05859 -0.09375,0.07031 c -0.1582031,0.140625 -0.2753906,0.301757 -0.3515625,0.480468 -0.079102,0.181641 -0.1259766,0.383789 -0.140625,0.609375 0,0.01758 0.00293,0.03516 0.011719,0.05859 0.00586,0.02344 0.011719,0.04687 0.011719,0.07031 0.029297,0.172851 0.09375,0.360351 0.1875,0.5625 0.099609,0.205078 0.234375,0.418945 0.3984375,0.644531 l 0.035156,0.04687 0.046875,-0.07031 c 0.1230469,-0.169922 0.2285157,-0.333984 0.3164063,-0.492187 0.084961,-0.155274 0.1582031,-0.298828 0.2226562,-0.433594 L 6.375,-15.233585 c 0.014648,-0.03809 0.023437,-0.07617 0.023437,-0.117187 0,-0.04687 0,-0.09375 0,-0.140625 0,-0.225586 -0.041016,-0.424805 -0.1171875,-0.597656 -0.079102,-0.169922 -0.1962891,-0.328125 -0.3515625,-0.46875 -0.017578,-0.01465 -0.032227,-0.0293 -0.046875,-0.04687 -0.017578,-0.01465 -0.029297,-0.0293 -0.035156,-0.04687 z m 10.4648433,0 -0.07031,0.05859 -0.105469,0.07031 c -0.140625,0.140625 -0.254883,0.301757 -0.339843,0.480468 -0.08789,0.181641 -0.128907,0.383789 -0.128907,0.609375 0,0.01758 0,0.03516 0,0.05859 0,0.02344 0.0059,0.04687 0.02344,0.07031 0.0059,0.172851 0.06152,0.360351 0.164062,0.5625 0.09961,0.205078 0.237305,0.418945 0.410156,0.644531 l 0.04687,0.04687 0.03516,-0.07031 c 0.131836,-0.169922 0.240234,-0.333984 0.328125,-0.492187 0.08496,-0.155274 0.146484,-0.298828 0.1875,-0.433594 l 0.04687,-0.152344 c 0.01465,-0.03809 0.02637,-0.07617 0.03516,-0.117187 0.0059,-0.04687 0.01172,-0.09375 0.01172,-0.140625 0,-0.225586 -0.04395,-0.424805 -0.128907,-0.597656 -0.08789,-0.169922 -0.205078,-0.328125 -0.351562,-0.46875 -0.0088,-0.01465 -0.02344,-0.0293 -0.04687,-0.04687 -0.02344,-0.01465 -0.04395,-0.0293 -0.05859,-0.04687 z m 0,0"
         style="fill:#000000;fill-opacity:1;fill-rule:nonzero;stroke:none" />
      <path
         id="path56"
         d="m 34.057617,-10.519718 h 0.902344 v -1.921875 h 0.960937 v 1.921875 h 0.902344 v 0.9023442 h -0.902344 v 4.6171875 h -0.960937 v -4.6171875 h -0.902344 z m 0,0"
         style="fill:#000000;fill-opacity:1;fill-rule:nonzero;stroke:none" />
    </g>
  </g>
</svg>
