<?xml version="1.0" encoding="UTF-8" standalone="no"?>
<!-- Created with Inkscape (http://www.inkscape.org/) -->

<svg
   version="1.1"
   id="svg1"
   width="26.703125"
   height="26.6875"
   viewBox="0 0 26.703125 26.6875"
   xmlns="http://www.w3.org/2000/svg"
   xmlns:svg="http://www.w3.org/2000/svg">
  <defs
     id="defs1" />
  <g
     id="g13"
     transform="translate(-2091,-628)">
    <g
       id="g16"
       aria-label="î„&#10;6.1"
       transform="matrix(1.3333333,0,0,1.3333333,1768,250.50667)">
      <path
         id="path53-1"
         d="m 252.26955,283.12 c 1.38281,0 2.6748,0.26661 3.8789,0.79688 1.21875,0.51562 2.2793,1.23047 3.1875,2.14453 0.91406,0.9082 1.63477,1.96875 2.16797,3.1875 0.51563,1.21289 0.77344,2.50488 0.77344,3.87891 0,1.3916 -0.25781,2.69531 -0.77344,3.91406 -0.5332,1.21875 -1.25391,2.28223 -2.16797,3.1875 -0.9082,0.89941 -1.96875,1.61133 -3.1875,2.13281 -1.2041,0.51563 -2.49609,0.77344 -3.8789,0.77344 -1.39161,0 -2.68946,-0.25781 -3.89063,-0.77344 -1.21875,-0.52148 -2.28516,-1.2334 -3.19922,-2.13281 -0.9082,-0.90527 -1.62597,-1.96875 -2.15625,-3.1875 -0.51562,-1.21875 -0.77344,-2.52246 -0.77344,-3.91406 0,-1.37403 0.25782,-2.66602 0.77344,-3.87891 0.53028,-1.21875 1.24805,-2.2793 2.15625,-3.1875 0.91406,-0.91406 1.98047,-1.62891 3.19922,-2.14453 1.20117,-0.53027 2.49902,-0.79688 3.89063,-0.79688 z m 0,1.54688 c -1.18067,0 -2.2793,0.22266 -3.29297,0.66797 -1.03125,0.44531 -1.93067,1.05176 -2.69532,1.8164 -0.76757,0.76758 -1.37109,1.66407 -1.8164,2.69532 -0.44531,1.03125 -0.66797,2.12695 -0.66797,3.28125 0,1.18066 0.22266,2.28515 0.66797,3.3164 0.44531,1.0166 1.04883,1.90723 1.8164,2.67188 0.76465,0.76758 1.66407,1.37109 2.69532,1.8164 1.01367,0.44532 2.1123,0.66797 3.29297,0.66797 1.17187,0 2.26464,-0.22265 3.28125,-0.66797 1.03125,-0.44531 1.92773,-1.04882 2.69531,-1.8164 0.76465,-0.76465 1.37109,-1.65528 1.8164,-2.67188 0.44532,-1.03125 0.66797,-2.13574 0.66797,-3.3164 0,-1.1543 -0.22265,-2.25 -0.66797,-3.28125 -0.44531,-1.03125 -1.05175,-1.92774 -1.8164,-2.69532 -0.76758,-0.76464 -1.66406,-1.37109 -2.69531,-1.8164 -1.01661,-0.44531 -2.10938,-0.66797 -3.28125,-0.66797 z m 0,11.66016 c 0.86718,0 1.50293,0.15234 1.91015,0.45703 0.41309,0.29882 0.6211,0.7705 0.6211,1.41797 v 0.0586 c 0,0 0,0.006 0,0.0117 0,0.009 0,0.0117 0,0.0117 v 0.0234 c 0,0.25782 -0.0322,0.45704 -0.0937,0.59766 -0.0557,0.13477 -0.16114,0.25781 -0.31641,0.375 -0.1875,0.11133 -0.4541,0.19629 -0.79688,0.25781 -0.3457,0.0557 -0.78515,0.082 -1.32421,0.082 -0.86133,0 -1.48829,-0.082 -1.88672,-0.24609 -0.39258,-0.16406 -0.60938,-0.43359 -0.65625,-0.80859 0,-0.0381 0,-0.0762 0,-0.11719 0,-0.0381 0,-0.0937 0,-0.16406 0,-0.0234 0,-0.0381 0,-0.0469 0,-0.006 0,-0.0176 0,-0.0351 0,-0.64747 0.20215,-1.11915 0.60937,-1.41797 0.41309,-0.30469 1.05762,-0.45703 1.9336,-0.45703 z m -4.94532,-2.63672 c 0.35743,0 0.66797,0.1289 0.92578,0.38672 0.25782,0.25781 0.38672,0.56835 0.38672,0.92578 0,0.36914 -0.1289,0.67968 -0.38672,0.9375 -0.25781,0.25781 -0.56835,0.38672 -0.92578,0.38672 -0.375,0 -0.6914,-0.12891 -0.94922,-0.38672 -0.25781,-0.25782 -0.38671,-0.56836 -0.38671,-0.9375 0,-0.35743 0.1289,-0.66797 0.38671,-0.92578 0.25782,-0.25782 0.57422,-0.38672 0.94922,-0.38672 z m 9.87891,0 c 0.375,0 0.69141,0.1289 0.94922,0.38672 0.25781,0.25781 0.38672,0.56835 0.38672,0.92578 0,0.36914 -0.12891,0.67968 -0.38672,0.9375 -0.25781,0.25781 -0.57422,0.38672 -0.94922,0.38672 -0.36035,0 -0.66797,-0.12891 -0.92578,-0.38672 -0.25781,-0.25782 -0.38672,-0.56836 -0.38672,-0.9375 0,-0.35743 0.12891,-0.66797 0.38672,-0.92578 0.25781,-0.25782 0.56543,-0.38672 0.92578,-0.38672 z m 0,0"
         style="fill:#000000;fill-opacity:1;fill-rule:nonzero;stroke:none" />
    </g>
  </g>
</svg>
