<?xml version="1.0" encoding="UTF-8" standalone="no"?>
<!-- Created with Inkscape (http://www.inkscape.org/) -->

<svg
   version="1.1"
   id="svg1"
   width="26.953125"
   height="25.0625"
   viewBox="0 0 26.953125 25.0625"
   xmlns="http://www.w3.org/2000/svg"
   xmlns:svg="http://www.w3.org/2000/svg">
  <defs
     id="defs1" />
  <g
     id="g3"
     transform="translate(-1089.2344,-812.14453)">
    <g
       id="g59"
       aria-label="&#10;u"
       transform="matrix(1.3333333,0,0,1.3333333,1088,837.06671)">
      <path
         id="path60"
         d="m 1.8632812,-18.691632 c 0.2343751,0 0.4394532,0.0791 0.6210938,0.234375 0.1787109,0.149414 0.28125,0.336914 0.3046875,0.5625 l 0.023437,0.105469 v 14.2617189 c 0,0.4775391 0.1669922,0.890625 0.5039063,1.2421875 0.3339843,0.3515625 0.7499999,0.5390625 1.2421874,0.5625 H 19.699219 c 0.257812,0 0.480468,0.09082 0.667968,0.2695313 0.1875,0.1816406 0.28125,0.3925781 0.28125,0.63281249 0,0.234375 -0.08203,0.43945312 -0.246093,0.609375 -0.158203,0.17285156 -0.357422,0.26953125 -0.597657,0.29296875 l -0.105468,0.0234375 H 4.6992187 c -1.0019531,0 -1.8691406,-0.33105469 -2.6015624,-0.99609375 C 1.3710937,-1.5529597 0.97851563,-2.3674128 0.92578125,-3.3283503 V -17.789288 c 0,-0.240234 0.0878907,-0.451172 0.26953125,-0.632812 0.1875,-0.178711 0.4101562,-0.269532 0.6679687,-0.269532 z m 16.7226558,3.375 c 0.694336,0 1.291993,0.251954 1.792969,0.75 0.506836,0.492188 0.761719,1.095704 0.761719,1.804688 0,0.703125 -0.254883,1.306641 -0.761719,1.804687 -0.500976,0.500977 -1.098633,0.75 -1.792969,0.75 -0.134765,0 -0.257812,-0.0059 -0.375,-0.02344 -0.111328,-0.02344 -0.222656,-0.04981 -0.339843,-0.08203 l -3.410156,4.1953122 c -0.134766,0.1582031 -0.301758,0.2636719 -0.503907,0.3164062 -0.196289,0.046875 -0.386718,0.029297 -0.574218,-0.058594 L 11.34375,-6.7619441 c -0.228516,0.2431641 -0.500977,0.4335938 -0.820312,0.5742188 -0.313477,0.1347656 -0.6416021,0.1992187 -0.9843755,0.1992187 -0.2285156,0 -0.4541016,-0.029297 -0.6796875,-0.09375 C 8.6396484,-6.1525691 8.4375,-6.2463191 8.25,-6.3635066 l -2.4492188,2.4960938 c -0.1875,0.1728515 -0.4072265,0.2636719 -0.65625,0.2695312 -0.2519531,0.00879 -0.46875,-0.082031 -0.65625,-0.2695312 -0.1728515,-0.1699219 -0.2578125,-0.3867188 -0.2578125,-0.6445313 0,-0.2578125 0.084961,-0.4716797 0.2578125,-0.6445312 l 2.6015625,-2.6367188 c -0.046875,-0.1171875 -0.079102,-0.2373047 -0.09375,-0.3632812 -0.00879,-0.131836 -0.011719,-0.2636719 -0.011719,-0.3984375 0,-0.7089844 0.2460937,-1.3125 0.7382812,-1.8046872 0.4921876,-0.498047 1.0957032,-0.75 1.8164063,-0.75 0.7031258,0 1.3037108,0.251953 1.8046878,0.75 0.498047,0.4921872 0.75,1.0957028 0.75,1.8046872 0,0.017578 0,0.035156 0,0.058594 0,0.023437 0,0.043945 0,0.058594 l 1.394531,0.6210937 2.917969,-3.5859379 c -0.125977,-0.202149 -0.222656,-0.416016 -0.292969,-0.644531 -0.06445,-0.234375 -0.09375,-0.47168 -0.09375,-0.714844 0,-0.708984 0.246094,-1.3125 0.738281,-1.804688 0.498047,-0.498046 1.107422,-0.75 1.828125,-0.75 z m -9.0468745,6.0351567 c -0.2050781,0 -0.375,0.076172 -0.515625,0.2226562 -0.140625,0.140625 -0.2109375,0.3105469 -0.2109375,0.5039063 0,0.2050781 0.070312,0.375 0.2109375,0.515625 0.140625,0.1347656 0.3105469,0.1992187 0.515625,0.1992187 0.2021484,0 0.3691406,-0.064453 0.5039065,-0.1992187 0.131836,-0.140625 0.199219,-0.3105469 0.199219,-0.515625 0,-0.1933594 -0.06738,-0.3632813 -0.199219,-0.5039063 C 9.9082031,-9.2053034 9.7412109,-9.2814753 9.5390625,-9.2814753 Z m 9.0468745,-4.2070317 c -0.205078,0 -0.380859,0.07617 -0.527343,0.222657 -0.140625,0.140625 -0.210938,0.310547 -0.210938,0.503906 0,0.205078 0.07031,0.375 0.210938,0.515625 0.146484,0.134766 0.322265,0.199219 0.527343,0.199219 0.19336,0 0.357422,-0.06445 0.492188,-0.199219 0.140625,-0.140625 0.210937,-0.310547 0.210937,-0.515625 0,-0.193359 -0.07031,-0.363281 -0.210937,-0.503906 -0.134766,-0.146485 -0.298828,-0.222657 -0.492188,-0.222657 z m 0,0"
         style="fill:#000000;fill-opacity:1;fill-rule:nonzero;stroke:none" />
      <path
         id="path61"
         d="m 35.862305,-7.1574519 c 0,0.9140625 0.389648,1.3710938 1.171875,1.3710938 0.421875,0 0.761718,-0.1289063 1.019531,-0.3867188 0.257812,-0.2636719 0.386719,-0.5917969 0.386719,-0.984375 v -3.3632811 h 0.960937 v 5.5195311 H 38.44043 v -0.8789062 c -0.172852,0.3046875 -0.398438,0.5478515 -0.679688,0.7265625 -0.28125,0.1787109 -0.603515,0.2695312 -0.960937,0.2695312 -0.571289,0 -1.03125,-0.1787109 -1.382813,-0.5390625 -0.345703,-0.3662109 -0.515625,-0.9052734 -0.515625,-1.6171875 v -3.4804686 h 0.960938 z m 0,0"
         style="fill:#000000;fill-opacity:1;fill-rule:nonzero;stroke:none" />
    </g>
  </g>
</svg>
