<?xml version="1.0" encoding="UTF-8" standalone="no"?>
<!-- Created with Inkscape (http://www.inkscape.org/) -->

<svg
   version="1.1"
   id="svg1"
   width="26.296867"
   height="26.265688"
   viewBox="0 0 26.296867 26.265688"
   xmlns="http://www.w3.org/2000/svg"
   xmlns:svg="http://www.w3.org/2000/svg">
  <defs
     id="defs1" />
  <g
     id="g3"
     transform="translate(-1245.5156,-811.72259)">
    <g
       id="g61"
       aria-label="&#10;o"
       transform="matrix(1.3333333,0,0,1.3333333,1244,837.06671)">
      <path
         id="path62"
         d="m 11.917969,-19.008038 v 0.03516 c 1.101562,0.102539 2.170898,0.392579 3.210937,0.867188 1.03711,0.46875 1.980469,1.125 2.824219,1.96875 0.849609,0.852539 1.514648,1.801758 1.992187,2.847656 0.47461,1.040039 0.764649,2.109375 0.867188,3.210938 h 0.04687 v 0.9023434 c 0,0.017578 0,0.029297 0,0.035156 0,0.00879 0,0.020508 0,0.035156 0,0.070312 -0.0059,0.140625 -0.01172,0.2109375 -0.0088,0.070312 -0.01172,0.140625 -0.01172,0.2109375 0,0.032227 0,0.055664 0,0.070312 0,0.017578 0,0.035156 0,0.058594 v -0.1289063 c 0,0.1728516 -0.01172,0.3398438 -0.03516,0.5039063 -0.01758,0.1582031 -0.03223,0.3222656 -0.04687,0.4921875 -0.01758,0.023437 -0.02344,0.046875 -0.02344,0.070312 0,0.023437 -0.0088,0.052734 -0.02344,0.082031 0,0.023437 -0.0059,0.052734 -0.01172,0.082031 -0.0088,0.032227 -0.01172,0.052734 -0.01172,0.058594 0,0.032227 -0.0059,0.055664 -0.01172,0.070312 -0.0088,0.017578 -0.01172,0.035156 -0.01172,0.058594 0,0.032227 -0.0059,0.067383 -0.01172,0.1054687 0,0.032227 -0.0088,0.064453 -0.02344,0.09375 0,0.017578 0,0.032227 0,0.046875 0,0.00879 -0.0088,0.011719 -0.02344,0.011719 -0.04687,0.2050781 -0.09375,0.3984375 -0.140625,0.5859375 -0.04687,0.1875 -0.111328,0.375 -0.1875,0.5625 0,0.00879 -0.0059,0.020508 -0.01172,0.035156 0,0.017578 0,0.032227 0,0.046875 -0.01758,0.041016 -0.03223,0.076172 -0.04687,0.1054688 -0.01758,0.032227 -0.03223,0.058594 -0.04687,0.082031 0,0.017578 0,0.029297 0,0.035156 0,0.00879 -0.0088,0.020508 -0.02344,0.035156 -0.02344,0.087891 -0.05566,0.1699219 -0.09375,0.2460938 -0.03223,0.079102 -0.06445,0.1523437 -0.09375,0.2226562 -0.01758,0.017578 -0.0293,0.032227 -0.03516,0.046875 -0.0088,0.017578 -0.01172,0.032227 -0.01172,0.046875 -0.01758,0.023437 -0.03223,0.052734 -0.04687,0.082031 -0.0088,0.032227 -0.02051,0.058594 -0.03516,0.082031 -0.01758,0.017578 -0.0293,0.035156 -0.03516,0.058594 -0.0088,0.023437 -0.01172,0.041016 -0.01172,0.046875 -0.140625,0.2578125 -0.290039,0.515625 -0.445313,0.7734375 -0.158203,0.2578125 -0.328125,0.5126953 -0.515625,0.7617187 -0.01758,0 -0.02344,0.00586 -0.02344,0.011719 0,0 -0.0088,0.00879 -0.02344,0.023437 -0.03223,0.032226 -0.05859,0.067383 -0.08203,0.1054687 -0.01758,0.032227 -0.04102,0.064453 -0.07031,0.09375 0,0 -0.0059,0.00586 -0.01172,0.011719 -0.0088,0.00879 -0.01172,0.017578 -0.01172,0.023437 -0.09375,0.1171875 -0.196289,0.234375 -0.304687,0.3515625 -0.111328,0.1113281 -0.222657,0.2226562 -0.339844,0.3398437 -0.07031,0.070312 -0.140625,0.140625 -0.210938,0.2109375 -0.07031,0.064453 -0.140625,0.1289063 -0.210937,0.1992188 -0.01758,0.017578 -0.03223,0.029297 -0.04687,0.035156 -0.01758,0.00879 -0.02344,0.017578 -0.02344,0.023437 -0.02344,0.032227 -0.05566,0.058594 -0.09375,0.082031 -0.04102,0.023437 -0.07031,0.046875 -0.09375,0.070312 0,0 -0.0059,0.00586 -0.01172,0.011719 -0.0088,0.00879 -0.02051,0.011719 -0.03516,0.011719 -0.01758,0.032227 -0.04102,0.058594 -0.07031,0.082031 -0.02344,0.017578 -0.05273,0.041016 -0.08203,0.070312 -0.01758,0 -0.03223,0.00879 -0.04687,0.023437 -0.0088,0.017578 -0.0293,0.029297 -0.05859,0.035156 -0.01758,0.017578 -0.04102,0.035156 -0.07031,0.058594 -0.02344,0.023437 -0.05273,0.043945 -0.08203,0.058594 -0.01758,0.00879 -0.03223,0.017578 -0.04687,0.023437 -0.0088,0.00879 -0.01172,0.020508 -0.01172,0.035156 -0.08789,0.055664 -0.169921,0.1113282 -0.246093,0.16406254 -0.07031,0.046875 -0.140625,0.09375 -0.210938,0.140625 -0.01758,0.0175781 -0.0293,0.0234375 -0.03516,0.0234375 0,0 -0.0088,0.005859 -0.02344,0.0117188 -0.134765,0.0791016 -0.263671,0.15234375 -0.386718,0.22265625 -0.117188,0.0703125 -0.240235,0.140625 -0.363281,0.2109375 -0.03223,0.0175781 -0.05859,0.0292969 -0.08203,0.0351563 -0.02344,0.008789 -0.04687,0.0205078 -0.07031,0.0351563 -0.01758,0.008789 -0.03516,0.0175781 -0.05859,0.0234375 -0.02344,0.008789 -0.04102,0.0205078 -0.04687,0.0351563 -0.03223,0 -0.05859,0.008789 -0.08203,0.0234375 -0.02344,0.0175781 -0.04687,0.0322266 -0.07031,0.046875 -0.01758,0.008789 -0.03516,0.0175781 -0.05859,0.0234375 -0.02344,0.008789 -0.04687,0.0117188 -0.07031,0.0117188 -0.01758,0.0175781 -0.03516,0.0292969 -0.05859,0.0351563 -0.02344,0.008789 -0.04687,0.02050781 -0.07031,0.03515625 -0.01758,0.01757812 -0.03516,0.02929687 -0.05859,0.03515625 -0.02344,0 -0.04687,0.0087891 -0.07031,0.0234375 -0.01758,0 -0.04102,0.0058594 -0.07031,0.01171875 -0.02344,0.00878906 -0.04395,0.01757812 -0.05859,0.03515625 -0.03223,0.01464843 -0.05859,0.0234375 -0.08203,0.0234375 -0.01758,0.0058594 -0.04102,0.01757812 -0.07031,0.03515625 -0.01758,0 -0.03516,0.0029297 -0.05859,0.01171875 -0.01758,0.0058594 -0.04102,0.01757812 -0.07031,0.03515625 -0.134765,0.0380859 -0.269531,0.0761719 -0.410156,0.1171875 -0.140625,0.046875 -0.27832,0.09375 -0.410156,0.140625 -0.02344,0 -0.04395,0.00293 -0.05859,0.0117188 -0.01758,0.005859 -0.04102,0.0117188 -0.07031,0.0117188 -0.01758,0 -0.03516,0.00293 -0.05859,0.0117188 -0.01758,0.005859 -0.04102,0.0117188 -0.07031,0.0117188 -0.02344,0.005859 -0.05273,0.0146484 -0.08203,0.0234375 -0.03223,0.005859 -0.06738,0.0117188 -0.105469,0.0117188 -0.01758,0 -0.03223,0.00293 -0.04687,0.0117188 -0.01758,0.005859 -0.03223,0.0117188 -0.04687,0.0117188 -0.02344,0 -0.04687,0.00293 -0.07031,0.0117187 -0.02344,0.005859 -0.04687,0.0175781 -0.07031,0.0351563 -0.03223,0 -0.06445,0.00293 -0.09375,0.0117188 -0.02344,0.005859 -0.05273,0.0117188 -0.08203,0.0117188 -0.01758,0 -0.03516,0 -0.05859,0 -0.01758,0.005859 -0.03223,0.0117188 -0.04687,0.0117188 -0.03223,0 -0.06738,0.00293 -0.105468,0.0117188 -0.03223,0.005859 -0.06445,0.0117188 -0.09375,0.0117188 -0.01758,0 -0.03223,0 -0.04687,0 -0.0088,0 -0.02051,0.005859 -0.03516,0.0234375 -0.04687,0 -0.09375,0.00293 -0.140625,0.0117188 -0.04101,0.005859 -0.0791,0.0117188 -0.117187,0.0117188 -0.01758,0 -0.0293,0 -0.03516,0 -0.0088,0 -0.02051,0 -0.03516,0 -0.04101,0 -0.08203,0.00293 -0.128906,0.0117188 -0.04102,0.005859 -0.08203,0.0117188 -0.128906,0.0117188 -0.0088,0 -0.02051,0 -0.03516,0 -0.01758,0 -0.02344,0 -0.02344,0 -0.04687,0 -0.09375,0.00293 -0.140625,0.0117188 -0.04102,0.005859 -0.0791,0.0117188 -0.117187,0.0117188 -0.05567,0 -0.111329,0 -0.164063,0 -0.04687,0 -0.09961,0 -0.152344,0 h 0.269532 c -0.04102,0 -0.0791,0 -0.117188,0 -0.03223,0 -0.07031,0 -0.117187,0 h -0.960938 v -0.046875 C 8.9765625,0.54176687 7.9042969,0.25758719 6.8671875,-0.21116281 5.8271484,-0.68577219 4.8867187,-1.3478816 4.0429687,-2.1916316 3.1904297,-3.0353816 2.5253906,-3.9787409 2.0507813,-5.0275691 1.5732422,-6.0734675 1.2832031,-7.1486628 1.1835937,-8.2502253 h -0.046875 v -1.0546875 c 0.014648,-0.1875 0.026367,-0.366211 0.035156,-0.5390625 0.00586,-0.1787107 0.023437,-0.3632817 0.046875,-0.5507817 0,-0.01465 0,-0.03516 0,-0.05859 0,-0.02344 0.00586,-0.03809 0.023437,-0.04687 0,-0.0293 0,-0.05859 0,-0.08203 0,-0.02344 0.00586,-0.04687 0.023437,-0.07031 0,-0.0293 0,-0.05273 0,-0.07031 0,-0.02344 0.00586,-0.04101 0.023437,-0.05859 0,-0.0293 0.00293,-0.06152 0.011719,-0.09375 0.00586,-0.03809 0.011719,-0.08203 0.011719,-0.128907 0,-0.0059 0.00293,-0.01465 0.011719,-0.02344 0.00586,-0.0059 0.011719,-0.01758 0.011719,-0.03516 0.038086,-0.240235 0.087891,-0.47461 0.1523437,-0.703125 0.070312,-0.234375 0.1464844,-0.462891 0.234375,-0.691407 0,-0.01465 0,-0.0293 0,-0.04687 0.00586,-0.01465 0.011719,-0.02637 0.011719,-0.03516 0.014648,-0.04687 0.029297,-0.08203 0.046875,-0.105469 0.014648,-0.0293 0.029297,-0.07031 0.046875,-0.117187 0,0 0,-0.0029 0,-0.01172 0,-0.01465 0.00586,-0.02344 0.023437,-0.02344 0.023437,-0.08496 0.049805,-0.166993 0.082031,-0.246094 0.038086,-0.08496 0.073242,-0.164063 0.1054688,-0.234375 0.014648,-0.01465 0.026367,-0.0293 0.035156,-0.04687 0.00586,-0.02344 0.011719,-0.04102 0.011719,-0.05859 0.2402344,-0.498047 0.5214844,-0.975586 0.84375,-1.429687 0.3193359,-0.459961 0.6914063,-0.902344 1.1132812,-1.324219 0.09375,-0.108399 0.1992188,-0.213867 0.3164063,-0.316406 0.1171875,-0.09961 0.2373047,-0.202149 0.3632812,-0.304688 0,0 0.00293,-0.0029 0.011719,-0.01172 0.00586,-0.0059 0.017578,-0.01465 0.035156,-0.02344 0.029297,-0.01465 0.058594,-0.03809 0.082031,-0.07031 0.029297,-0.0293 0.061523,-0.05859 0.09375,-0.08203 0.00586,0 0.017578,-0.0059 0.035156,-0.02344 0.014648,-0.01465 0.029297,-0.02344 0.046875,-0.02344 0.029297,-0.0293 0.061523,-0.05859 0.09375,-0.08203 0.038086,-0.0293 0.070312,-0.05273 0.09375,-0.07031 0,-0.01465 0.00293,-0.02344 0.011719,-0.02344 0.00586,0 0.011719,0 0.011719,0 0.2402344,-0.169922 0.4921875,-0.333984 0.75,-0.492188 0.2578125,-0.155273 0.5214844,-0.292968 0.796875,-0.410156 0.014648,-0.0059 0.029297,-0.01465 0.046875,-0.02344 0.014648,-0.0059 0.035156,-0.01758 0.058594,-0.03516 0.029297,-0.01465 0.058594,-0.02637 0.082031,-0.03516 0.029297,-0.0059 0.061523,-0.01758 0.09375,-0.03516 0.014648,-0.0059 0.029297,-0.01465 0.046875,-0.02344 0.014648,-0.0059 0.026367,-0.01172 0.035156,-0.01172 0.029297,-0.01465 0.058594,-0.0293 0.082031,-0.04687 0.029297,-0.01465 0.061523,-0.02344 0.09375,-0.02344 0.014648,-0.01465 0.029297,-0.02344 0.046875,-0.02344 0.014648,-0.0059 0.035156,-0.01172 0.058594,-0.01172 0.029297,-0.01465 0.052734,-0.02637 0.070312,-0.03516 0.023437,-0.0059 0.049805,-0.01758 0.082031,-0.03516 0.029297,-0.01465 0.049805,-0.02637 0.058594,-0.03516 0.014648,-0.0059 0.038086,-0.01172 0.070312,-0.01172 0.1318359,-0.03809 0.2636719,-0.07617 0.3984375,-0.117187 0.1318359,-0.04687 0.2636719,-0.09375 0.3984375,-0.140625 0.029297,0 0.058594,0 0.082031,0 0.029297,-0.0059 0.061523,-0.01758 0.09375,-0.03516 0.00586,0 0.023437,0 0.046875,0 0.023437,0 0.041016,-0.0059 0.058594,-0.02344 0.023437,0 0.049805,-0.0029 0.082031,-0.01172 0.029297,-0.0059 0.064453,-0.01758 0.1054687,-0.03516 0.014648,0 0.029297,0 0.046875,0 0.014648,0 0.029297,0 0.046875,0 0.023437,-0.01465 0.046875,-0.02344 0.070312,-0.02344 0.023437,-0.0059 0.046875,-0.01172 0.070312,-0.01172 0.029297,0 0.058594,-0.0029 0.082031,-0.01172 0.029297,-0.0059 0.061523,-0.01172 0.09375,-0.01172 0.014648,0 0.029297,-0.0029 0.046875,-0.01172 0.023437,-0.0059 0.041016,-0.01172 0.058594,-0.01172 0.029297,0 0.061523,-0.0029 0.09375,-0.01172 0.038086,-0.0059 0.073242,-0.01172 0.1054688,-0.01172 0.014648,0 0.026367,-0.0029 0.035156,-0.01172 0.014648,-0.0059 0.029297,-0.01172 0.046875,-0.01172 0.046875,0 0.087891,-0.0029 0.1289063,-0.01172 0.046875,-0.0059 0.087891,-0.01172 0.1289063,-0.01172 0.01465,0 0.02637,0 0.03516,0 0.0059,0 0.01758,0 0.03516,0 0.03808,-0.0059 0.07617,-0.01172 0.117187,-0.01172 0.04687,0 0.09375,0 0.140625,0 0.0059,0 0.01758,-0.0029 0.03516,-0.01172 0.01465,-0.0059 0.02344,-0.01172 0.02344,-0.01172 0.04687,0 0.08789,0 0.128906,0 0.04687,0 0.08203,0 0.105469,0 0.06152,0 0.120117,0 0.175781,0 0.05273,0 0.111328,0 0.175781,0 h -0.246093 c 0.0293,0 0.05859,0 0.08203,0 0.0293,0 0.06152,0 0.09375,0 z m -0.914063,11.1445314 -4.9921873,4.9804688 c 0.600586,0.4921875 1.2539063,0.8789062 1.9570313,1.1601562 0.703125,0.2753907 1.4238281,0.4453125 2.167969,0.515625 0.08496,-0.9521484 0.316406,-1.8808593 0.691406,-2.7890625 0.380859,-0.9140625 0.890625,-1.7490234 1.523438,-2.5078125 z m 2.660157,2.6484375 c -0.462891,0.5566407 -0.832032,1.1601563 -1.113282,1.8164063 -0.27539,0.6503906 -0.46289,1.3242187 -0.5625,2.0273437 l -0.02344,0.1640625 0.08203,-0.011719 c 0.0293,0 0.05273,0 0.07031,0 0.02344,0 0.04101,0 0.05859,0 0.0293,-0.014648 0.06152,-0.023437 0.09375,-0.023437 0.03809,0 0.07324,-0.00586 0.105469,-0.023437 l -0.199219,0.046875 c 0.04687,-0.014648 0.09375,-0.026367 0.140625,-0.035156 0.05274,-0.00586 0.09961,-0.017578 0.140625,-0.035156 l -0.08203,0.023437 c 0.05273,-0.014648 0.111328,-0.026367 0.175781,-0.035156 0.07031,-0.00586 0.131836,-0.017578 0.1875,-0.035156 l -0.28125,0.046875 c 0.04687,0 0.09375,-0.00586 0.140625,-0.023437 0.04687,-0.014648 0.09961,-0.023437 0.164063,-0.023437 h -0.02344 c 0.03809,-0.00586 0.07617,-0.014648 0.117188,-0.023437 0.04687,-0.00586 0.09375,-0.017578 0.140625,-0.035156 l -0.234375,0.058594 c 0.05273,-0.00586 0.111328,-0.017578 0.175781,-0.035156 0.07031,-0.014648 0.131836,-0.038086 0.1875,-0.070312 l -0.128906,0.046875 c 0.03809,-0.014648 0.07617,-0.026367 0.117187,-0.035156 0.03809,-0.00586 0.07617,-0.017578 0.117188,-0.035156 L 13.125,-1.4416316 c 0.03809,0 0.07617,-0.00293 0.117188,-0.011719 0.04687,-0.014648 0.09375,-0.029297 0.140625,-0.046875 l -0.152344,0.035156 c 0.05273,-0.00586 0.09961,-0.017578 0.140625,-0.035156 0.04687,-0.014648 0.09375,-0.029297 0.140625,-0.046875 l -0.128906,0.046875 c 0.03808,-0.014648 0.07617,-0.029297 0.117187,-0.046875 0.04687,-0.014648 0.09375,-0.029297 0.140625,-0.046875 l -0.128906,0.046875 c 0.03809,-0.014648 0.07617,-0.026367 0.117187,-0.035156 0.03809,-0.014648 0.07617,-0.029297 0.117188,-0.046875 l -0.105469,0.035156 c 0.08496,-0.023437 0.164063,-0.049805 0.234375,-0.082031 0.07031,-0.029297 0.140625,-0.058594 0.210938,-0.082031 0.01465,0 0.02637,-0.00293 0.03516,-0.011719 0.0059,-0.00586 0.01172,-0.011719 0.01172,-0.011719 l -0.04687,0.023437 c 0.0293,-0.014648 0.05859,-0.026367 0.08203,-0.035156 0.02344,-0.00586 0.04687,-0.017578 0.07031,-0.035156 l -0.105468,0.046875 c 0.05273,-0.014648 0.09961,-0.029297 0.140625,-0.046875 0.04687,-0.023437 0.09375,-0.049805 0.140625,-0.082031 l -0.175782,0.082031 c 0.04687,-0.014648 0.08496,-0.029297 0.117188,-0.046875 0.03809,-0.023437 0.07617,-0.041016 0.117187,-0.058594 l -0.05859,0.023437 c 0.03808,-0.014648 0.07617,-0.029297 0.117187,-0.046875 0.04687,-0.023437 0.09375,-0.049805 0.140625,-0.082031 l -0.199219,0.1054687 c 0.04687,-0.029297 0.08789,-0.052734 0.128907,-0.070312 0.04687,-0.023437 0.09668,-0.049805 0.152343,-0.082031 l -0.08203,0.046875 c 0.03809,-0.014649 0.07617,-0.035156 0.117188,-0.058594 0.04687,-0.029297 0.09375,-0.052734 0.140625,-0.070312 l -0.175782,0.082031 c 0.04687,-0.014649 0.08789,-0.029297 0.128907,-0.046875 0.04687,-0.023437 0.08203,-0.049805 0.105468,-0.082031 l -0.05859,0.046875 c 0.03808,-0.029297 0.07617,-0.052734 0.117187,-0.070312 0.03809,-0.023437 0.07617,-0.049805 0.117188,-0.082031 l -0.175782,0.1054687 c 0.07617,-0.023437 0.143555,-0.052734 0.199219,-0.09375 0.05273,-0.038086 0.105469,-0.076172 0.152344,-0.1171875 0.07031,-0.046875 0.131836,-0.084961 0.1875,-0.1171875 0.06152,-0.038086 0.120117,-0.076172 0.175781,-0.1171875 0.01465,-0.014648 0.0293,-0.029297 0.04687,-0.046875 0.02344,-0.014648 0.04102,-0.029297 0.05859,-0.046875 l -0.105469,0.09375 c 0.03809,-0.046875 0.07617,-0.082031 0.117188,-0.1054687 0.04687,-0.029297 0.09375,-0.061524 0.140625,-0.09375 l -0.152344,0.1054687 c 0.0293,-0.023437 0.05859,-0.046875 0.08203,-0.070312 0.0293,-0.023437 0.06152,-0.041016 0.09375,-0.058594 z M 8.3554688,-10.523663 c -0.7734376,0.6416017 -1.6142579,1.1484377 -2.5195313,1.5234377 -0.8994141,0.375 -1.8369141,0.609375 -2.8125,0.703125 0.076172,0.7353515 0.2578125,1.453125 0.5390625,2.15625 0.2871094,0.703125 0.6738281,1.3564453 1.1601562,1.9570312 l 4.9921876,-4.9921875 z m 10.6171872,2.3437502 -0.175781,0.011719 c -0.703125,0.1025391 -1.382813,0.2929688 -2.039063,0.5742188 -0.65039,0.28125 -1.250976,0.6445312 -1.804687,1.0898437 l 2.320312,2.3203125 c 0.07031,-0.076172 0.131836,-0.1552734 0.1875,-0.234375 0.06152,-0.076172 0.120118,-0.1582031 0.175782,-0.2460937 0,0 0.0029,-0.00293 0.01172,-0.011719 0.0059,-0.014648 0.01758,-0.023437 0.03516,-0.023437 0.07031,-0.1171875 0.140625,-0.234375 0.210937,-0.3515625 0.07031,-0.1230468 0.131836,-0.2460937 0.1875,-0.3632812 0.01465,-0.014648 0.02637,-0.026367 0.03516,-0.035156 0.0059,-0.014648 0.01172,-0.029297 0.01172,-0.046875 l -0.04687,0.082031 c 0.0293,-0.038086 0.05859,-0.076172 0.08203,-0.1171875 0.02344,-0.046875 0.03809,-0.099609 0.04687,-0.1640625 l -0.08203,0.1992187 c 0.0293,-0.046875 0.05273,-0.087891 0.07031,-0.1289062 0.02344,-0.046875 0.04102,-0.087891 0.05859,-0.1289063 l -0.04687,0.058594 c 0.07617,-0.1230469 0.143555,-0.2578125 0.199219,-0.3984375 0.05273,-0.1464844 0.111328,-0.2929688 0.175781,-0.4335938 0,-0.014648 0,-0.029297 0,-0.046875 0.0059,-0.014648 0.01172,-0.029297 0.01172,-0.046875 l -0.01172,0.09375 c 0.0059,-0.046875 0.01758,-0.087891 0.03516,-0.1289062 0.01465,-0.046875 0.0293,-0.087891 0.04687,-0.1289063 l -0.07031,0.1640625 c 0.01465,-0.052734 0.03516,-0.1054687 0.05859,-0.1523437 0.02344,-0.052734 0.04102,-0.1083985 0.05859,-0.1640625 l -0.04687,0.1523437 c 0.01465,-0.046875 0.02637,-0.087891 0.03516,-0.1289062 0.0059,-0.046875 0.01465,-0.087891 0.02344,-0.1289063 l -0.01172,0.1054688 c 0.0059,-0.046875 0.01465,-0.087891 0.02344,-0.1289063 0.0059,-0.046875 0.01758,-0.087891 0.03516,-0.1289062 l -0.04687,0.1523437 c 0.01465,-0.061523 0.0293,-0.1230468 0.04687,-0.1875 0.01465,-0.061523 0.0293,-0.1201172 0.04687,-0.1757812 l -0.04687,0.2109375 c 0.01465,-0.046875 0.02637,-0.09375 0.03516,-0.140625 0.0059,-0.046875 0.01758,-0.09375 0.03516,-0.140625 0.0059,-0.084961 0.02344,-0.1757813 0.04687,-0.2695313 0.02344,-0.09375 0.04102,-0.1816406 0.05859,-0.2695312 l -0.02344,0.023437 c 0.01465,-0.014648 0.02344,-0.029297 0.02344,-0.046875 0,-0.023437 0,-0.049805 0,-0.082031 z m -1.699219,-5.9765622 -4.992187,4.9804684 1.359375,1.359375 c 0.773438,-0.6328125 1.608398,-1.1367187 2.507812,-1.5117187 0.905274,-0.3808594 1.845704,-0.6152344 2.824219,-0.7031247 -0.0791,-0.726563 -0.263672,-1.441407 -0.550781,-2.144532 -0.28125,-0.703125 -0.665039,-1.362304 -1.148438,-1.980468 z m -12.5507808,0 c -0.1582031,0.205078 -0.3046875,0.407226 -0.4453125,0.609375 -0.1347656,0.196289 -0.2548828,0.404297 -0.3632812,0.621093 0,0.0088 -0.00586,0.02051 -0.011719,0.03516 -0.00879,0.01758 -0.020508,0.03223 -0.035156,0.04687 l 0.046875,-0.08203 c -0.1171875,0.228516 -0.2285156,0.457032 -0.328125,0.691407 -0.1025391,0.228515 -0.1875,0.46289 -0.2578125,0.703125 0,0.01758 -0.00586,0.03223 -0.011719,0.04687 -0.00879,0.0088 -0.011719,0.01172 -0.011719,0.01172 l 0.023437,-0.05859 c -0.017578,0.05566 -0.032227,0.105468 -0.046875,0.152343 -0.00879,0.04102 -0.020508,0.08203 -0.035156,0.128907 l 0.058594,-0.222657 c -0.017578,0.06445 -0.032227,0.117188 -0.046875,0.164063 -0.00879,0.04687 -0.020508,0.102539 -0.035156,0.164062 l 0.023437,-0.105468 c -0.017578,0.08789 -0.035156,0.172851 -0.058594,0.257812 -0.023437,0.0791 -0.041016,0.161133 -0.046875,0.246094 -0.017578,0.08789 -0.032227,0.172851 -0.046875,0.257812 -0.017578,0.08789 -0.032227,0.172852 -0.046875,0.257813 l -0.023437,0.09375 0.1757813,-0.02344 c 0.703125,-0.09961 1.3769531,-0.287109 2.0273437,-0.5625 0.65625,-0.28125 1.2597656,-0.644531 1.8164062,-1.089843 z m 7.1367188,-2.988282 -0.02344,0.28125 c -0.117188,0.914063 -0.363282,1.801758 -0.738282,2.660157 -0.36914,0.861328 -0.852539,1.658203 -1.4531247,2.390625 l 1.3593747,1.347656 4.980469,-4.980469 c -0.603516,-0.483398 -1.253906,-0.867187 -1.957031,-1.148437 -0.703125,-0.28125 -1.426758,-0.462891 -2.167969,-0.550782 z m -1.828125,0.02344 H 9.949219 c -0.017578,0 -0.041016,0.0059 -0.070312,0.01172 -0.023437,0.0088 -0.043945,0.01172 -0.058594,0.01172 -0.046875,0 -0.09082,0.0059 -0.1289062,0.01172 -0.032227,0.0088 -0.064453,0.02051 -0.09375,0.03516 l 0.2226562,-0.04687 c -0.046875,0.01758 -0.09375,0.0293 -0.140625,0.03516 -0.041016,0.0088 -0.079102,0.01172 -0.1171875,0.01172 h 0.035156 c -0.023437,0 -0.055664,0.0059 -0.09375,0.01172 -0.032227,0 -0.064453,0 -0.09375,0 L 9.5625,-17.051007 c -0.087891,0.0088 -0.1699219,0.02051 -0.2460937,0.03516 -0.070312,0.01758 -0.140625,0.03223 -0.2109375,0.04687 -0.017578,0.01758 -0.032227,0.02344 -0.046875,0.02344 -0.00879,0 -0.020508,0 -0.035156,0 l 0.082031,-0.02344 c -0.041016,0.01758 -0.082031,0.03223 -0.1289063,0.04687 -0.041016,0.0088 -0.082031,0.02051 -0.1289062,0.03516 l 0.1757812,-0.05859 c -0.046875,0.01758 -0.09082,0.03223 -0.1289062,0.04687 -0.032227,0.0088 -0.067383,0.01172 -0.1054688,0.01172 h 0.058594 c -0.041016,0 -0.082031,0.0088 -0.1289063,0.02344 -0.041016,0.01758 -0.082031,0.03223 -0.1289062,0.04687 l 0.1992187,-0.07031 c -0.064453,0.01758 -0.1171875,0.03223 -0.1640625,0.04687 -0.041016,0.01758 -0.079102,0.03223 -0.1171875,0.04687 l 0.082031,-0.02344 c -0.041016,0.01758 -0.079102,0.03223 -0.1171875,0.04687 -0.032227,0.0088 -0.070312,0.02051 -0.1171875,0.03516 l 0.1523437,-0.05859 c -0.055664,0.02344 -0.1113281,0.04395 -0.1640625,0.05859 -0.046875,0.01758 -0.1025391,0.04102 -0.1640625,0.07031 l 0.1757813,-0.07031 c -0.041016,0.01758 -0.082031,0.03223 -0.1289063,0.04687 -0.041016,0.01758 -0.082031,0.0293 -0.1289062,0.03516 l 0.082031,-0.01172 c -0.055664,0.0088 -0.1142578,0.02344 -0.1757812,0.04687 -0.055664,0.02344 -0.1113282,0.05273 -0.1640626,0.08203 l 0.2578126,-0.117187 c -0.041016,0.01758 -0.087891,0.03516 -0.1406251,0.05859 -0.046875,0.02344 -0.102539,0.04687 -0.1640625,0.07031 l 0.046875,-0.01172 c -0.041016,0.0088 -0.082031,0.02344 -0.1289062,0.04687 -0.041016,0.02344 -0.082031,0.04395 -0.1289063,0.05859 l 0.2109375,-0.09375 c -0.041016,0.01758 -0.087891,0.03516 -0.140625,0.05859 -0.046875,0.02344 -0.09082,0.04687 -0.1289062,0.07031 l 0.058594,-0.03516 c -0.041016,0.02344 -0.082031,0.04687 -0.1289062,0.07031 -0.041016,0.02344 -0.082031,0.04395 -0.1289063,0.05859 l 0.1992188,-0.09375 c -0.046875,0.01758 -0.09375,0.04102 -0.140625,0.07031 -0.041016,0.03223 -0.079102,0.05273 -0.1171875,0.05859 l 0.058594,-0.03516 c -0.032227,0.02344 -0.070312,0.04687 -0.1171875,0.07031 -0.041016,0.02344 -0.079102,0.04395 -0.1171875,0.05859 l 0.1757813,-0.09375 c -0.046875,0.03223 -0.09375,0.05859 -0.140625,0.08203 -0.041016,0.02344 -0.079102,0.04687 -0.1171875,0.07031 l 0.082031,-0.05859 c -0.102539,0.05566 -0.1992187,0.114257 -0.2929687,0.175781 -0.09375,0.05566 -0.1845703,0.111328 -0.2695313,0.164062 -0.017578,0.01758 -0.029297,0.0293 -0.035156,0.03516 0,0.0088 -0.00879,0.01172 -0.023437,0.01172 l 0.058594,-0.04687 c -0.087891,0.05566 -0.1728515,0.117188 -0.2578125,0.1875 -0.087891,0.06445 -0.1640625,0.123047 -0.234375,0.175782 0,0 -0.00586,0.0059 -0.011719,0.01172 -0.00879,0.0088 -0.011719,0.01172 -0.011719,0.01172 l 2.3203126,2.320313 c 0.4599609,-0.553711 0.8261718,-1.154297 1.1015625,-1.804688 0.28125,-0.65625 0.4716796,-1.327148 0.5742196,-2.015625 z m 0,0"
         style="fill:#000000;fill-opacity:1;fill-rule:nonzero;stroke:none" />
      <path
         id="path63"
         d="m 34.420898,-7.7668269 c 0,-0.5537109 0.123047,-1.0458984 0.375,-1.4765625 0.249024,-0.4365234 0.588868,-0.7763676 1.019532,-1.0195316 0.436523,-0.249023 0.925781,-0.375 1.464843,-0.375 0.539063,0 1.022461,0.125977 1.453125,0.375 0.427735,0.243164 0.767579,0.5830082 1.019532,1.0195316 0.249023,0.4306641 0.375,0.9228516 0.375,1.4765625 0,0.5566406 -0.125977,1.0517578 -0.375,1.4882813 -0.251953,0.4394531 -0.591797,0.7822265 -1.019532,1.03125 -0.430664,0.243164 -0.914062,0.3632812 -1.453125,0.3632812 -0.539062,0 -1.02832,-0.1201172 -1.464843,-0.3632812 -0.430664,-0.2490235 -0.770508,-0.5917969 -1.019532,-1.03125 -0.251953,-0.4365235 -0.375,-0.9316407 -0.375,-1.4882813 z m 0.972657,0 c 0,0.3925781 0.08203,0.7353516 0.246093,1.03125 0.164063,0.2900391 0.386719,0.5214844 0.667969,0.6914063 0.28125,0.1728515 0.603516,0.2578125 0.972656,0.2578125 0.357422,0 0.679688,-0.084961 0.960938,-0.2578125 0.28125,-0.1699219 0.503906,-0.4013672 0.667969,-0.6914063 0.164062,-0.2958984 0.246093,-0.6386719 0.246093,-1.03125 0,-0.3808594 -0.08203,-0.7207031 -0.246093,-1.0195312 -0.164063,-0.2958985 -0.386719,-0.5273438 -0.667969,-0.6914063 -0.28125,-0.1699219 -0.603516,-0.2578125 -0.960938,-0.2578125 -0.36914,0 -0.691406,0.087891 -0.972656,0.2578125 -0.28125,0.1640625 -0.503906,0.3955078 -0.667969,0.6914063 -0.164062,0.2988281 -0.246093,0.6386718 -0.246093,1.0195312 z m 0,0"
         style="fill:#000000;fill-opacity:1;fill-rule:nonzero;stroke:none" />
    </g>
  </g>
</svg>
