<?xml version="1.0" encoding="UTF-8" standalone="no"?>
<!-- Created with Inkscape (http://www.inkscape.org/) -->

<svg
   version="1.1"
   id="svg1"
   width="26.296875"
   height="26.265625"
   viewBox="0 0 26.296875 26.265625"
   xmlns="http://www.w3.org/2000/svg"
   xmlns:svg="http://www.w3.org/2000/svg">
  <defs
     id="defs1" />
  <g
     id="g3"
     transform="translate(-1401.5156,-811.72266)">
    <g
       id="g63"
       aria-label="&#10;p"
       transform="matrix(1.3333333,0,0,1.3333333,1400,837.06671)">
      <path
         id="path64"
         d="m 4.0429687,-16.136944 c 0.9521485,-0.952149 2.0302735,-1.675781 3.234375,-2.167969 1.2187501,-0.46875 2.4550782,-0.703125 3.7148443,-0.703125 1.265625,0 2.507812,0.234375 3.726562,0.703125 1.201172,0.492188 2.279297,1.21582 3.234375,2.167969 0.960937,0.960937 1.6875,2.050781 2.179687,3.269531 0.483399,1.204102 0.726563,2.4375 0.726563,3.7031252 0,1.2597656 -0.243164,2.493164 -0.726563,3.703125 -0.492187,1.2041015 -1.21875,2.2939453 -2.179687,3.2695312 -0.955078,0.9609375 -2.033203,1.67578129 -3.234375,2.14453129 -1.21875,0.4921875 -2.460937,0.73828125 -3.726562,0.73828125 -1.2597661,0 -2.4960942,-0.24609375 -3.7148443,-0.73828125 C 6.0732422,-0.51585031 4.9951172,-1.2306941 4.0429687,-2.1916316 3.0644531,-3.1672175 2.3378906,-4.2570613 1.8632812,-5.4611628 1.3769531,-6.6711238 1.1367187,-7.9045222 1.1367187,-9.1642878 c 0,-1.2656252 0.2402344,-2.4990232 0.7265625,-3.7031252 0.4746094,-1.21875 1.2011719,-2.308594 2.1796875,-3.269531 z m 12.4335933,1.125 c -0.791015,-0.75 -1.672851,-1.300781 -2.648437,-1.652344 -0.969727,-0.357422 -1.957031,-0.530273 -2.964844,-0.515625 -1.0019529,0.0088 -1.9804685,0.208008 -2.941406,0.597656 -0.9550781,0.398438 -1.8164063,0.978516 -2.5898438,1.734375 -0.7910156,0.791016 -1.3798828,1.681641 -1.7695312,2.671875 -0.3837891,0.984375 -0.5742187,1.989258 -0.5742187,3.0117192 0,1.0253906 0.1904296,2.0332031 0.5742187,3.0234375 0.3896484,0.984375 0.9785156,1.8632812 1.7695312,2.6367187 0.7792969,0.7910157 1.6669922,1.3798828 2.6601563,1.7695313 0.9755859,0.3984375 1.9746094,0.5976562 3.0000005,0.5976562 1.03125,0 2.033203,-0.1992187 3.011718,-0.5976562 0.990235,-0.3896485 1.87793,-0.9785156 2.660156,-1.7695313 0.788086,-0.7734375 1.376954,-1.6523437 1.769532,-2.6367187 0.380859,-0.9902344 0.574218,-1.9980469 0.574218,-3.0234375 0,-1.0224612 -0.193359,-2.0273442 -0.574218,-3.0117192 -0.392578,-0.990234 -0.981446,-1.880859 -1.769532,-2.671875 z M 6.9375,-13.207257 c 0.5625,-0.5625 1.1982422,-0.984375 1.9101563,-1.265625 0.703125,-0.272461 1.4179687,-0.410156 2.1445317,-0.410156 0.732421,0 1.453125,0.137695 2.15625,0.410156 0.708984,0.28125 1.347656,0.703125 1.910156,1.265625 0.553711,0.556641 0.966797,1.183594 1.242187,1.886719 0.28711,0.703125 0.433594,1.426758 0.433594,2.1679689 0,0.7353516 -0.146484,1.4501953 -0.433594,2.1445313 -0.27539,0.703125 -0.688476,1.3359375 -1.242187,1.8984375 -0.5625,0.5566406 -1.201172,0.9697265 -1.910156,1.2421875 -0.703125,0.290039 -1.423829,0.4335937 -2.15625,0.4335937 -0.726563,0 -1.4414067,-0.1435547 -2.1445317,-0.4335937 C 8.1445313,-4.1398738 7.5058594,-4.5529597 6.9375,-5.1096003 6.3808594,-5.6721003 5.9677734,-6.3049128 5.6953125,-7.0080378 5.4052734,-7.7023738 5.2617187,-8.4172175 5.2617187,-9.1525691 c 0,-0.7412109 0.1435547,-1.4648439 0.4335938,-2.1679689 0.2724609,-0.703125 0.6855469,-1.330078 1.2421875,-1.886719 z m 6.65625,1.136719 c -0.758789,-0.685547 -1.658203,-1.013672 -2.695312,-0.984375 -1.0400396,0.02344 -1.9218755,0.404297 -2.648438,1.136719 -0.7587891,0.758789 -1.1367188,1.675781 -1.1367188,2.7539062 0,1.0722656 0.3779297,1.9921875 1.1367188,2.765625 0.7558594,0.758789 1.6699219,1.1367187 2.742188,1.1367187 1.078125,0 1.995117,-0.3779297 2.753906,-1.1367187 0.755859,-0.7734375 1.136719,-1.6933594 1.136719,-2.765625 0,-1.0781252 -0.38086,-1.9951172 -1.136719,-2.7539062 z m -2.589844,-0.75 c 0.624024,0 1.163086,0.222656 1.617188,0.667969 0.451172,0.439453 0.679687,0.972656 0.679687,1.605469 0,0.257812 -0.04395,0.503906 -0.128906,0.7382809 -0.08789,0.234375 -0.205078,0.4453125 -0.351562,0.6328125 0.146484,0.2050782 0.263671,0.421875 0.351562,0.65625 0.08496,0.2285157 0.128906,0.46875 0.128906,0.7265625 0,0.6416016 -0.228515,1.1835938 -0.679687,1.6289063 -0.454102,0.4453125 -0.993164,0.6679687 -1.617188,0.6679687 -0.632812,0 -1.1777341,-0.2226562 -1.628906,-0.6679687 -0.4541016,-0.4453125 -0.6796875,-0.9873047 -0.6796875,-1.6289063 0,-0.2578125 0.041016,-0.4980468 0.1289063,-0.7265625 0.084961,-0.234375 0.2021484,-0.4511718 0.3515625,-0.65625 -0.1494141,-0.1875 -0.2666016,-0.3984375 -0.3515625,-0.6328125 -0.087891,-0.2343749 -0.1289063,-0.4804689 -0.1289063,-0.7382809 0,-0.632813 0.2255859,-1.166016 0.6796875,-1.605469 0.4511719,-0.445313 0.996094,-0.667969 1.628906,-0.667969 z m 0,4.5703127 c -0.134765,0 -0.243164,0.046875 -0.328125,0.140625 -0.08789,0.09375 -0.128906,0.1992187 -0.128906,0.3164062 0,0.1259766 0.04102,0.234375 0.128906,0.328125 0.08496,0.09375 0.19336,0.140625 0.328125,0.140625 0.123047,0 0.228516,-0.046875 0.316407,-0.140625 0.08496,-0.09375 0.128906,-0.2021484 0.128906,-0.328125 0,-0.1171875 -0.04395,-0.2226562 -0.128906,-0.3164062 -0.08789,-0.09375 -0.19336,-0.140625 -0.316407,-0.140625 z m 0,-2.7539067 c -0.134765,0 -0.243164,0.04687 -0.328125,0.140625 -0.08789,0.09375 -0.128906,0.199219 -0.128906,0.316407 0,0.125976 0.04102,0.234375 0.128906,0.328125 0.08496,0.09375 0.19336,0.140625 0.328125,0.140625 0.123047,0 0.228516,-0.04687 0.316407,-0.140625 0.08496,-0.09375 0.128906,-0.202149 0.128906,-0.328125 0,-0.117188 -0.04395,-0.222657 -0.128906,-0.316407 -0.08789,-0.09375 -0.19336,-0.140625 -0.316407,-0.140625 z m 0,0"
         style="fill:#000000;fill-opacity:1;fill-rule:nonzero;stroke:none" />
      <path
         id="path65"
         d="m 35.803711,-2.3644831 h -0.960938 v -8.1562499 h 0.960938 v 0.9492186 c 0.193359,-0.3427734 0.451172,-0.6035156 0.773437,-0.7851566 0.328125,-0.1875 0.694336,-0.28125 1.101563,-0.28125 0.506836,0 0.963867,0.117188 1.371094,0.351563 0.413086,0.228515 0.74414,0.5566405 0.996093,0.9843749 0.249024,0.430664 0.375,0.9433593 0.375,1.5351562 0,0.5947266 -0.125976,1.1103516 -0.375,1.546875 -0.251953,0.4306641 -0.583007,0.7617188 -0.996093,0.9960938 -0.407227,0.2255859 -0.864258,0.3398437 -1.371094,0.3398437 -0.407227,0 -0.773438,-0.09082 -1.101563,-0.2695312 -0.322265,-0.1875 -0.580078,-0.4511719 -0.773437,-0.796875 z m 3.644531,-5.4023438 c 0,-0.421875 -0.08789,-0.7792969 -0.257812,-1.078125 -0.172852,-0.2958984 -0.404297,-0.5185547 -0.691407,-0.6679687 -0.28125,-0.1464844 -0.594726,-0.2226563 -0.9375,-0.2226563 -0.28125,0 -0.55957,0.076172 -0.832031,0.2226563 -0.266601,0.149414 -0.489258,0.3720703 -0.667969,0.6679687 -0.172851,0.2988281 -0.257812,0.65625 -0.257812,1.078125 0,0.4306641 0.08496,0.7939453 0.257812,1.0898438 0.178711,0.2988281 0.401368,0.5214843 0.667969,0.6679687 0.272461,0.1494141 0.550781,0.2226563 0.832031,0.2226563 0.342774,0 0.65625,-0.073242 0.9375,-0.2226563 0.28711,-0.1464844 0.518555,-0.3691406 0.691407,-0.6679687 0.169922,-0.2958985 0.257812,-0.6591797 0.257812,-1.0898438 z m 0,0"
         style="fill:#000000;fill-opacity:1;fill-rule:nonzero;stroke:none" />
    </g>
  </g>
</svg>
