<?xml version="1.0" encoding="UTF-8" standalone="no"?>
<!-- Created with Inkscape (http://www.inkscape.org/) -->

<svg
   version="1.1"
   id="svg1"
   width="26.296875"
   height="26.265623"
   viewBox="0 0 26.296875 26.265623"
   xmlns="http://www.w3.org/2000/svg"
   xmlns:svg="http://www.w3.org/2000/svg">
  <defs
     id="defs1" />
  <g
     id="g3"
     transform="translate(-933.51562,-857.05469)">
    <g
       id="g65"
       aria-label="&#10;s"
       transform="matrix(1.3333333,0,0,1.3333333,932,882.40004)">
      <path
         id="path66"
         d="m 4.0429687,-16.137921 c 0.9521485,-0.952148 2.0302735,-1.675781 3.234375,-2.167968 1.2187501,-0.46875 2.4550782,-0.703125 3.7148443,-0.703125 1.265625,0 2.507812,0.234375 3.726562,0.703125 1.201172,0.492187 2.279297,1.21582 3.234375,2.167968 0.975586,0.960938 1.702148,2.050782 2.179687,3.269532 0.483399,1.204101 0.726563,2.4375 0.726563,3.7031246 0,1.2597657 -0.243164,2.4931641 -0.726563,3.703125 -0.477539,1.2041016 -1.204101,2.2939453 -2.179687,3.2695313 -0.955078,0.9609375 -2.033203,1.67578123 -3.234375,2.14453123 -1.21875,0.4921875 -2.460937,0.73828125 -3.726562,0.73828125 -1.2597661,0 -2.4960942,-0.24609375 -3.7148443,-0.73828125 C 6.0732422,-0.51682687 4.9951172,-1.2316706 4.0429687,-2.1926081 3.0820313,-3.1681941 2.3554688,-4.2580378 1.8632812,-5.4621394 1.3769531,-6.6721003 1.1367187,-7.9054987 1.1367187,-9.1652644 c 0,-1.2656246 0.2402344,-2.4990236 0.7265625,-3.7031246 0.4921876,-1.21875 1.2187501,-2.308594 2.1796875,-3.269532 z m 6.9375003,14.5429691 -0.714844,0.4101563 c 0.234375,0.032226 0.47168,0.046875 0.714844,0.046875 0.240234,0 0.483398,-0.014649 0.726562,-0.046875 z m 2.976562,-4.78125 -2.0625,1.1953125 v 2.0039063 l 2.34375,1.3476562 c 0.257813,-0.1083984 0.506836,-0.234375 0.75,-0.375 0.249024,-0.1464843 0.486328,-0.2988281 0.714844,-0.4570312 v -2.7070313 z m -5.941406,0 -1.7695313,1.0078125 v 2.6601563 c 0.2490235,0.1728515 0.4951172,0.3339844 0.7382813,0.4804687 0.2402344,0.140625 0.4921875,0.2666016 0.75,0.375 l 2.320313,-1.3242187 v -2.0273438 z m 10.265625,0.5507813 -0.75,0.4570312 v 0.8554688 c 0.155273,-0.2109375 0.292969,-0.421875 0.410156,-0.6328125 0.123047,-0.2167969 0.237305,-0.4453125 0.339844,-0.6796875 z m -14.5664062,0.046875 c 0.099609,0.2050781 0.2050781,0.4101562 0.3164062,0.6210937 0.1171875,0.2050782 0.2490234,0.3984375 0.3984375,0.5859375 v -0.796875 z m 7.2656252,-5.5898434 -1.8984377,1.101562 v 2.2148439 l 1.8984377,1.0898437 1.910156,-1.0898437 v -2.2148439 z m 5.648437,0 -1.746093,0.996093 v 2.4023441 l 1.746093,1.0078125 2.34375,-1.3710937 c 0.02344,-0.272461 0.03516,-0.5507813 0.03516,-0.8320313 0,-0.28125 -0.01172,-0.5625 -0.03516,-0.8437496 z m -11.285156,0 -2.3203125,1.335937 C 3,-9.7424128 2.9882813,-9.4523737 2.9882813,-9.1652644 c 0,0.28125 0.011719,0.5683594 0.035156,0.8554688 l 2.3203125,1.3476562 1.7695312,-1.03125 v -2.3437496 z m 2.390625,-5.132813 c -0.2578125,0.117188 -0.5097656,0.251953 -0.75,0.398438 -0.2431641,0.140625 -0.4892578,0.298828 -0.7382813,0.46875 v 2.683593 l 1.7695313,1.03125 2.039063,-1.183593 v -2.039063 z m 6.503906,0 -2.34375,1.359375 v 2.015625 l 2.0625,1.183594 1.746094,-1.007813 v -2.707031 c -0.228516,-0.169922 -0.46582,-0.322265 -0.714844,-0.457031 -0.243164,-0.140625 -0.492187,-0.269531 -0.75,-0.386719 z m 3.292969,2.683594 v 0.867187 l 0.75,0.421875 c -0.102539,-0.210937 -0.216797,-0.424804 -0.339844,-0.644531 -0.117187,-0.225586 -0.254883,-0.439453 -0.410156,-0.644531 z m -13.1015625,0.07031 c -0.1494141,0.1875 -0.28125,0.383789 -0.3984375,0.585938 -0.1113281,0.196289 -0.2167969,0.404297 -0.3164062,0.621094 l 0.7148437,-0.410157 z m 7.2773435,-3.421875 c -0.243164,-0.0059 -0.486328,-0.01172 -0.726562,-0.01172 -0.243164,0 -0.480469,0.01172 -0.714844,0.03516 l 0.714844,0.410156 z m 0,0"
         style="fill:#000000;fill-opacity:1;fill-rule:nonzero;stroke:none" />
      <path
         id="path67"
         d="m 35.053711,-6.9445612 c 0.193359,0.336914 0.427734,0.6152343 0.703125,0.8320312 0.28125,0.2197266 0.553711,0.328125 0.820312,0.328125 0.257813,0 0.47168,-0.049805 0.644532,-0.1523437 0.169922,-0.1083985 0.257812,-0.28125 0.257812,-0.515625 0,-0.1875 -0.06445,-0.3427735 -0.1875,-0.46875 -0.117187,-0.131836 -0.269531,-0.2460938 -0.457031,-0.3398438 -0.1875,-0.099609 -0.392578,-0.1904297 -0.609375,-0.2695312 -0.243164,-0.099609 -0.489258,-0.2109375 -0.738281,-0.328125 -0.243164,-0.1171875 -0.445313,-0.272461 -0.609375,-0.46875 -0.158203,-0.2021485 -0.234375,-0.4746094 -0.234375,-0.8203125 0,-0.3427735 0.08496,-0.6240235 0.257812,-0.84375 0.178711,-0.2255858 0.404297,-0.3896488 0.679688,-0.4921878 0.272461,-0.09961 0.55664,-0.152343 0.855468,-0.152343 0.436524,0 0.834961,0.105468 1.195313,0.316406 0.357422,0.205078 0.624023,0.457031 0.796875,0.7617185 l -0.773438,0.4921875 c -0.125976,-0.1875 -0.301757,-0.3515625 -0.527343,-0.4921875 -0.228516,-0.140625 -0.454102,-0.2109375 -0.679688,-0.2109375 -0.243164,0 -0.451172,0.043945 -0.621094,0.1289063 -0.164062,0.087891 -0.246093,0.2402343 -0.246093,0.4570312 0,0.1728516 0.07031,0.3134766 0.210937,0.421875 0.146485,0.1113281 0.328125,0.2050781 0.539063,0.28125 0.210937,0.070312 0.416015,0.1523438 0.621093,0.2460938 0.263672,0.102539 0.509766,0.2285156 0.738282,0.375 0.234375,0.140625 0.421875,0.3164062 0.5625,0.5273437 0.146484,0.2050781 0.222656,0.4628906 0.222656,0.7734375 0,0.5947266 -0.18457,1.0253906 -0.550781,1.2890625 -0.360352,0.2578125 -0.808594,0.3867188 -1.347657,0.3867188 -0.509765,0 -0.966796,-0.1523438 -1.371093,-0.4570313 -0.398438,-0.3105469 -0.700196,-0.6914062 -0.902344,-1.1367187 z m 0,0"
         style="fill:#000000;fill-opacity:1;fill-rule:nonzero;stroke:none" />
    </g>
  </g>
</svg>
