<?xml version="1.0" encoding="UTF-8" standalone="no"?>
<!-- Created with Inkscape (http://www.inkscape.org/) -->

<svg
   version="1.1"
   id="svg1"
   width="26.162621"
   height="25.062498"
   viewBox="0 0 26.162621 25.062498"
   xmlns="http://www.w3.org/2000/svg"
   xmlns:svg="http://www.w3.org/2000/svg">
  <defs
     id="defs1" />
  <g
     id="g3"
     transform="translate(-1089.5874,-857.64844)">
    <g
       id="g67"
       aria-label="&#10;k"
       transform="matrix(1.3333333,0,0,1.3333333,1088,882.40004)">
      <path
         id="path68"
         d="m 16.886719,-16.759014 c 0.84375,0.665039 1.526367,1.450195 2.050781,2.355468 0.521484,0.899414 0.861328,1.857422 1.019531,2.871094 0.07031,0.416016 0.105469,0.829102 0.105469,1.242188 0,0.4160153 -0.0293,0.8291012 -0.08203,1.2421871 -0.06445,0.3603516 -0.140625,0.7148438 -0.234375,1.0664063 -0.08789,0.3515625 -0.205078,0.6914062 -0.351563,1.0195312 0.427735,0.3603516 0.773438,0.8027344 1.03125,1.3242188 0.257813,0.524414 0.386719,1.086914 0.386719,1.6875 0,1.0722656 -0.383789,1.9892578 -1.148438,2.7539062 -0.767578,0.75878909 -1.68457,1.13671878 -2.753906,1.13671878 -0.735351,0 -1.40625,-0.1875 -2.015625,-0.5625 -0.609375,-0.375 -1.078125,-0.85546878 -1.40625,-1.44140628 -0.773437,0.1582032 -1.555664,0.2167969 -2.34375,0.1757813 -0.782226,-0.046875 -1.5468747,-0.2050781 -2.2968747,-0.4804688 -0.2109375,-0.084961 -0.4335938,-0.1054687 -0.6679688,-0.058594 -0.2285156,0.041016 -0.4277344,0.1347656 -0.5976563,0.28125 l -0.1054687,0.082031 -1.59375,1.59375003 c -0.041016,0.0410156 -0.082031,0.0791016 -0.1289063,0.1171875 -0.041016,0.0322266 -0.082031,0.0644531 -0.1289062,0.09375 L 5.4960937,-0.15354562 C 5.3232422,-0.05100656 5.1474609,0.028095 4.96875,0.09254813 4.7871094,0.15407156 4.6083984,0.1921575 4.4296875,0.20973563 L 4.2539062,0.23317313 C 4.0957031,0.23317313 3.9375,0.215595 3.7734375,0.18629813 3.6152344,0.16286063 3.4599609,0.11891531 3.3046875,0.05739188 L 3.1523438,-0.00120187 c -0.023437,-0.01464844 -0.046875,-0.02636719 -0.070312,-0.03515625 -0.023437,-0.0058594 -0.046875,-0.01464844 -0.070312,-0.0234375 l -0.1289063,-0.09375 C 2.8183594,-0.17698312 2.765625,-0.20628 2.71875,-0.24729562 2.6777344,-0.28538156 2.6396484,-0.3234675 2.6015625,-0.36448312 L 2.4726563,-0.46995187 1.8867187,-1.0558894 c -0.28125,-0.28125 -0.477539,-0.609375 -0.5859375,-0.984375 -0.1113281,-0.375 -0.1376953,-0.7441406 -0.082031,-1.1132812 0,-0.029297 0.00293,-0.058594 0.011719,-0.082031 0.00586,-0.029297 0.017578,-0.061523 0.035156,-0.09375 0.046875,-0.1875 0.1113281,-0.3632812 0.1992187,-0.5273437 0.084961,-0.1640625 0.1904297,-0.3164063 0.3164063,-0.4570313 L 1.8867187,-4.4426081 3.5625,-6.1183894 c 0.1464844,-0.1699218 0.2402344,-0.3691406 0.28125,-0.5976562 0.046875,-0.234375 0.029297,-0.4628906 -0.046875,-0.6914063 -0.00879,-0.014648 -0.011719,-0.026367 -0.011719,-0.035156 0,-0.00586 0,-0.017578 0,-0.035156 l 0.035156,0.1289063 C 3.796875,-7.4015916 3.776367,-7.4572561 3.761718,-7.5129201 3.74414,-7.5744431 3.720702,-7.6330373 3.691406,-7.6887014 c 0,0 0,-0.00586 0,-0.023437 0,-0.014648 -0.00879,-0.029297 -0.023437,-0.046875 -0.2431641,-0.796875 -0.3632813,-1.6113281 -0.3632813,-2.4492186 0,-0.826172 0.1113281,-1.631836 0.3398438,-2.414063 0.234375,-0.779296 0.5859374,-1.523437 1.0546874,-2.226562 0.459961,-0.685547 1.0253907,-1.306641 1.6992188,-1.863281 0.7558594,-0.615235 1.5878906,-1.072266 2.4960938,-1.371094 0.8964843,-0.319336 1.8105465,-0.480469 2.7421875,-0.480469 0.9375,0 1.854492,0.152344 2.753906,0.457031 0.905273,0.298829 1.737305,0.747071 2.496094,1.347657 z m -11.6015628,7.8632809 0.046875,0.2578125 c 0.00586,0.017578 0.011719,0.032227 0.011719,0.046875 0,0.017578 0.00586,0.029297 0.023437,0.035156 0,0.032227 0.00293,0.064453 0.011719,0.09375 0.00586,0.023437 0.017578,0.052734 0.035156,0.082031 l -0.046875,-0.1757813 c 0.014648,0.1025391 0.038086,0.1992188 0.070312,0.2929688 0.038086,0.09375 0.073242,0.1845703 0.1054687,0.2695312 0.1875,0.5009766 0.234375,1.0136719 0.140625,1.5351563 -0.09375,0.524414 -0.2988281,0.993164 -0.609375,1.40625 -0.046875,0.064453 -0.099609,0.1171875 -0.1523437,0.1640625 -0.046875,0.046875 -0.09082,0.09375 -0.1289063,0.140625 l -1.5937499,1.59375 c -0.017578,0.00879 -0.032227,0.020508 -0.046875,0.035156 -0.00879,0.017578 -0.011719,0.032227 -0.011719,0.046875 0,0 -0.00879,0 -0.023437,0 h 0.023437 c -0.017578,0.017578 -0.029297,0.032227 -0.035156,0.046875 -0.00879,0.00879 -0.011719,0.011719 -0.011719,0.011719 l 0.023437,-0.058594 c 0,0.017578 -0.00879,0.035156 -0.023437,0.058594 -0.017578,0.017578 -0.023437,0.032227 -0.023437,0.046875 l 0.023437,-0.046875 c -0.017578,0.017578 -0.029297,0.035156 -0.035156,0.058594 -0.00879,0.023437 -0.011719,0.043945 -0.011719,0.058594 l 0.023437,-0.070312 c -0.017578,0.017578 -0.023437,0.032227 -0.023437,0.046875 0,0.017578 0,0.035156 0,0.058594 v -0.035156 c 0,0.00879 -0.00586,0.020508 -0.011719,0.035156 -0.00879,0.017578 -0.011719,0.032227 -0.011719,0.046875 l 0.023437,-0.046875 c -0.017578,0 -0.023437,0.00879 -0.023437,0.023437 0,0.017578 0,0.032227 0,0.046875 v -0.023437 c 0,0.017578 0,0.032227 0,0.046875 0,0.00879 0,0.029297 0,0.058594 v -0.082031 c 0,0.023437 0,0.043945 0,0.058594 0,0.017578 0,0.032227 0,0.046875 v -0.023437 c 0,0.017578 0,0.032227 0,0.046875 0,0.017578 0.00586,0.029297 0.023437,0.035156 l -0.023437,-0.058594 c 0,0.017578 0.00293,0.032227 0.011719,0.046875 0.00586,0.00879 0.011719,0.020508 0.011719,0.035156 v -0.023437 c 0,0.017578 0.00293,0.032227 0.011719,0.046875 0.00586,0.017578 0.011719,0.032227 0.011719,0.046875 l -0.023437,-0.070312 c 0,0.017578 0.00293,0.032227 0.011719,0.046875 0.00586,0.017578 0.011719,0.032227 0.011719,0.046875 v -0.023437 c 0.014648,0.041016 0.029297,0.076172 0.046875,0.1054688 0.023437,0.032227 0.049805,0.058594 0.082031,0.082031 l 0.5859375,0.5859375 c 0.00586,0.017578 0.014648,0.029297 0.023437,0.035156 0.00586,0 0.017578,0.00879 0.035156,0.023437 0.014648,0 0.023437,0 0.023437,0 0,0 0.00586,0.00879 0.023437,0.023437 L 3.84375,-1.7004206 c 0.014648,0 0.029297,0.00586 0.046875,0.011719 0.014648,0.00879 0.026367,0.020508 0.035156,0.035156 l -0.035156,-0.023437 c 0.014648,0 0.026367,0.00586 0.035156,0.011719 0.014648,0.00879 0.029297,0.020508 0.046875,0.035156 l -0.046875,-0.023437 c 0.014648,0 0.029297,0.00586 0.046875,0.011719 0.014648,0.00879 0.029297,0.011719 0.046875,0.011719 H 3.972656 c 0.014648,0 0.029297,0.00586 0.046875,0.011719 0.014648,0.00879 0.026367,0.011719 0.035156,0.011719 l -0.035156,-0.023437 c 0.014648,0.017578 0.026367,0.023437 0.035156,0.023437 0.014648,0 0.029297,0 0.046875,0 H 4.054687 c 0.029297,0 0.058594,0.00586 0.082031,0.011719 0.029297,0 0.070312,-0.00293 0.1171875,-0.011719 h -0.046875 c 0.014648,0 0.029297,0 0.046875,0 0.014648,0 0.035156,0 0.058594,0 h -0.058594 c 0.014648,0 0.026367,0 0.035156,0 0.014648,0 0.029297,0 0.046875,0 H 4.3125 c 0.014648,0 0.029297,-0.00293 0.046875,-0.011719 0.014648,-0.00586 0.038086,-0.017578 0.070312,-0.035156 l -0.09375,0.046875 c 0.014648,-0.014649 0.029297,-0.023437 0.046875,-0.023437 0.014648,0 0.029297,-0.00586 0.046875,-0.023437 0.023437,-0.014649 0.049805,-0.029297 0.082031,-0.046875 0.029297,-0.023437 0.058594,-0.041016 0.082031,-0.058594 l 1.59375,-1.59375 c 0.4277344,-0.4277343 0.9404297,-0.7089843 1.5351562,-0.84375 0.5917969,-0.140625 1.1748047,-0.099609 1.7460938,0.1171875 l -0.035156,-0.023437 0.035156,0.023437 0.070312,0.023437 c 0.084961,0.023437 0.1699219,0.052734 0.2578125,0.082031 0.084961,0.032227 0.1787109,0.052734 0.2812505,0.058594 h -0.02344 c 0.01465,0 0.02637,0.00586 0.03516,0.011719 0.0059,0.00879 0.01465,0.011719 0.02344,0.011719 l 0.222657,0.046875 z m 11.6249998,2.8828125 c -0.580078,0 -1.066406,0.1992187 -1.464843,0.5976562 -0.398438,0.3984375 -0.597657,0.8876953 -0.597657,1.4648438 0,0.055664 0,0.1171875 0,0.1875 0.0059,0.064453 0.01172,0.1289062 0.01172,0.1992187 0.01465,0.017578 0.02637,0.035156 0.03516,0.058594 0.0059,0.017578 0.01758,0.032227 0.03516,0.046875 0,0.032227 0.0029,0.067383 0.01172,0.1054687 0.0059,0.032227 0.01758,0.067383 0.03516,0.1054688 0.140625,0.3925781 0.386718,0.711914 0.738281,0.9609375 0.351562,0.2519531 0.75,0.375 1.195312,0.375 0.56836,0 1.054688,-0.1992188 1.453125,-0.5976563 0.404297,-0.4042968 0.609375,-0.8847656 0.609375,-1.4414062 0,-0.5771485 -0.205078,-1.0664063 -0.609375,-1.4648438 -0.398437,-0.3984375 -0.884765,-0.5976562 -1.453125,-0.5976562 z M 7.5585937,-15.294171 c -0.618164,0.500977 -1.1220703,1.078125 -1.5117187,1.734375 -0.3837891,0.650391 -0.6445313,1.335938 -0.7851563,2.0625 l 7.6875003,7.6757816 c 0.01465,0 0.02637,0 0.03516,0 0.0059,0 0.01172,-0.00586 0.01172,-0.023437 v -0.1054687 c 0,-1.078125 0.380859,-1.9951172 1.148437,-2.7539063 0.764649,-0.7558593 1.6875,-1.1367187 2.765625,-1.1367187 0.140625,0 0.275391,0.00879 0.410156,0.023437 0.140625,0.017578 0.28125,0.035156 0.421875,0.058594 0.09961,-0.2402343 0.1875,-0.4921875 0.257813,-0.75 0.07031,-0.2578125 0.120117,-0.5214843 0.152344,-0.796875 0.03809,-0.3105468 0.05859,-0.6328125 0.05859,-0.9609379 0,-0.328125 -0.0293,-0.65625 -0.08203,-0.984375 -0.117187,-0.788086 -0.380859,-1.535156 -0.785156,-2.238281 -0.407227,-0.703125 -0.9375,-1.318359 -1.59375,-1.851563 -0.594727,-0.451171 -1.248047,-0.802734 -1.957031,-1.054687 -0.703125,-0.225586 -1.423828,-0.339844 -2.15625,-0.339844 -0.726563,0 -1.441406,0.123047 -2.1445315,0.363281 -0.703125,0.243164 -1.3476562,0.603516 -1.9335938,1.078125 z m 0,0"
         style="fill:#000000;fill-opacity:1;fill-rule:nonzero;stroke:none" />
      <path
         id="path69"
         d="m 37.842773,-10.51878 h 1.195313 l -2.402344,2.2851563 2.648438,3.234375 H 38.077148 L 35.803711,-7.80003 v 2.8007813 H 34.842773 V -14.36253 h 0.960938 v 5.7773438 z m 0,0"
         style="fill:#000000;fill-opacity:1;fill-rule:nonzero;stroke:none" />
    </g>
  </g>
</svg>
