<?xml version="1.0" encoding="UTF-8" standalone="no"?>
<!-- Created with Inkscape (http://www.inkscape.org/) -->

<svg
   version="1.1"
   id="svg1"
   width="25.082203"
   height="23.967564"
   viewBox="0 0 25.082203 23.967564"
   xmlns="http://www.w3.org/2000/svg"
   xmlns:svg="http://www.w3.org/2000/svg">
  <defs
     id="defs1" />
  <g
     id="g3"
     transform="translate(-1402.1186,-903.53125)">
    <g
       id="g79"
       aria-label="&#10;lucky"
       transform="matrix(1.3333333,0,0,1.3333333,1400,927.73337)">
      <path
         id="path80"
         d="m 11.835938,-17.635967 2.402343,4.875 5.355469,0.773437 c 0.380859,0.06445 0.632812,0.27832 0.75,0.644531 0.123047,0.360352 0.04687,0.676758 -0.234375,0.949219 l -3.867188,3.7734375 0.902344,5.3554688 c 0.07031,0.37499995 -0.05566,0.67675776 -0.375,0.9023437 -0.313476,0.22851563 -0.641601,0.24609375 -0.984375,0.0585938 l -4.78125,-2.5078125 -4.7929685,2.50781245 C 5.8652344,-0.11643625 5.5341797,-0.13401437 5.2148437,-0.36253 4.9013672,-0.58811594 4.78125,-0.88987375 4.8515625,-1.2648737 L 5.7539062,-6.6203425 1.8867187,-10.39378 c -0.28125,-0.272461 -0.3632812,-0.588867 -0.2460937,-0.949219 0.1230469,-0.366211 0.3779297,-0.580078 0.7617188,-0.644531 l 5.3554687,-0.773437 2.4023435,-4.875 c 0.169922,-0.342774 0.448242,-0.515625 0.832032,-0.515625 0.389648,0 0.670898,0.172851 0.84375,0.515625 z m -0.832032,2.53125 -1.7929685,3.597656 c -0.070312,0.140625 -0.1699219,0.257812 -0.2929687,0.351562 -0.1171875,0.09375 -0.2460938,0.146485 -0.3867188,0.152344 l -3.9960938,0.585938 2.8710938,2.8124995 c 0.1171875,0.1025391 0.1992187,0.2285156 0.2460937,0.375 0.052734,0.1494141 0.064453,0.2988281 0.035156,0.4453125 l -0.6796875,3.9726563 3.5625008,-1.8867188 c 0.123046,-0.061523 0.263671,-0.09375 0.421875,-0.09375 0.164062,0 0.307617,0.032227 0.433593,0.09375 l 3.5625,1.8867188 -0.679687,-3.9726563 c -0.03223,-0.1464844 -0.02344,-0.2958984 0.02344,-0.4453125 0.05274,-0.1464844 0.140625,-0.2724609 0.257813,-0.375 l 2.871093,-2.8124995 -3.996093,-0.585938 c -0.140625,-0.0059 -0.275391,-0.05859 -0.398438,-0.152344 -0.117187,-0.09375 -0.210937,-0.210937 -0.28125,-0.351562 z m 0,0"
         style="fill:#000000;fill-opacity:1;fill-rule:nonzero;stroke:none" />
      <path
         id="path81"
         d="m 34.901367,-14.363507 h 0.960938 v 9.3632817 h -0.960938 z m 3.720703,7.2070317 c 0,0.9140625 0.389649,1.3710937 1.171875,1.3710937 0.421875,0 0.761719,-0.1289062 1.019532,-0.3867187 0.257812,-0.2636719 0.386718,-0.5917969 0.386718,-0.984375 v -3.3632817 h 0.960938 v 5.5195317 h -0.960938 v -0.8789063 c -0.172851,0.3046875 -0.398437,0.5478516 -0.679687,0.7265625 -0.28125,0.178711 -0.603516,0.2695313 -0.960938,0.2695313 -0.571289,0 -1.03125,-0.1787109 -1.382812,-0.5390625 -0.345703,-0.3662109 -0.515625,-0.9052734 -0.515625,-1.6171875 v -3.4804692 h 0.960937 z m 5.774414,-0.609375 c 0,0.3925781 0.08203,0.7353516 0.246094,1.03125 0.164063,0.2900391 0.386719,0.5214844 0.667969,0.6914062 0.28125,0.1728516 0.600586,0.2578125 0.960937,0.2578125 0.451172,0 0.855469,-0.09668 1.207032,-0.2929687 0.351562,-0.2021484 0.588867,-0.4394531 0.714843,-0.7148438 v 1.2070313 c -0.1875,0.2197266 -0.46289,0.3925781 -0.820312,0.515625 -0.351563,0.1230469 -0.720703,0.1875 -1.101563,0.1875 -0.533203,0 -1.016601,-0.1201172 -1.453125,-0.3632813 -0.430664,-0.2490234 -0.770507,-0.5917968 -1.019531,-1.03125 -0.251953,-0.4365234 -0.375,-0.9316406 -0.375,-1.4882812 0,-0.5537109 0.123047,-1.0458984 0.375,-1.4765625 0.249024,-0.4365234 0.588867,-0.7763672 1.019531,-1.0195312 0.436524,-0.249023 0.919922,-0.375 1.453125,-0.375 0.38086,0 0.75,0.06445 1.101563,0.1875 0.357422,0.117187 0.632812,0.290039 0.820312,0.5156249 v 1.2070313 c -0.125976,-0.2724609 -0.363281,-0.5068359 -0.714843,-0.703125 -0.351563,-0.2021484 -0.75586,-0.3046875 -1.207032,-0.3046875 -0.360351,0 -0.679687,0.087891 -0.960937,0.2578125 -0.28125,0.1640625 -0.503906,0.3955078 -0.667969,0.6914062 -0.164062,0.2988282 -0.246094,0.6386719 -0.246094,1.0195313 z m 8.244141,-2.7539067 h 1.195312 l -2.402343,2.2851567 2.648437,3.234375 H 52.875 l -2.273438,-2.8007813 v 2.8007813 h -0.960937 v -9.3632817 h 0.960937 v 5.7773442 z m 6.720703,0 -3.609375,8.1562504 h -1.078125 l 1.511719,-3.421875 -2.109375,-4.7343754 h 1.136719 l 1.546875,3.8085942 1.511718,-3.8085942 z m 0,0"
         style="fill:#000000;fill-opacity:1;fill-rule:nonzero;stroke:none" />
    </g>
  </g>
</svg>
