<?xml version="1.0" encoding="UTF-8" standalone="no"?>
<!-- Created with Inkscape (http://www.inkscape.org/) -->

<svg
   version="1.1"
   id="svg1"
   width="25.921875"
   height="26.78125"
   viewBox="0 0 25.921875 26.78125"
   xmlns="http://www.w3.org/2000/svg"
   xmlns:svg="http://www.w3.org/2000/svg">
  <defs
     id="defs1" />
  <g
     id="g82"
     transform="translate(-1925.5156,-142.60156)">
    <g
       id="g85"
       aria-label="&#10;v"
       transform="matrix(1.3333333,0,0,1.3333333,1924,167.94669)">
      <path
         id="path86"
         d="m 18.28125,-19.008848 c 0.632812,0 1.171875,0.222656 1.617187,0.667969 0.451172,0.439453 0.679688,0.972656 0.679688,1.605468 v 15.5156254 c 0,0.6269531 -0.228516,1.1660156 -0.679688,1.61718748 C 19.453125,0.84857375 18.914062,1.0770894 18.28125,1.0770894 H 3.4335938 c -0.6269532,0 -1.1660157,-0.22851565 -1.6171876,-0.67968752 C 1.3623047,-0.05377 1.1367187,-0.5928325 1.1367187,-1.2197856 V -16.735411 c 0,-0.632812 0.225586,-1.166015 0.6796875,-1.605468 0.4511719,-0.445313 0.9902344,-0.667969 1.6171876,-0.667969 z m 0.445312,6.082031 H 2.9882813 v 11.7070314 c 0,0.1113281 0.035156,0.2080078 0.1054687,0.29296873 0.070312,0.0878906 0.1552734,0.13769531 0.2578125,0.15234375 H 18.28125 c 0.123047,0 0.234375,-0.0410156 0.328125,-0.12890625 C 18.703125,-0.98834031 18.75,-1.0938091 18.75,-1.2197856 Z m -7.722656,0.550781 c 0.75586,0 1.470703,0.146485 2.144532,0.433594 0.65625,0.290039 1.233398,0.685547 1.734375,1.183594 0.498046,0.500976 0.893554,1.0781249 1.183593,1.7343749 0.28711,0.6738281 0.433594,1.3886719 0.433594,2.1445312 0,0.7675782 -0.146484,1.4853516 -0.433594,2.15625 -0.290039,0.65625 -0.685547,1.2363282 -1.183593,1.734375 -0.500977,0.5009766 -1.078125,0.8964844 -1.734375,1.1835938 -0.673829,0.290039 -1.388672,0.4335937 -2.144532,0.4335937 -0.767578,0 -1.4853513,-0.1435547 -2.1562497,-0.4335937 -0.65625,-0.2871094 -1.2363282,-0.6826172 -1.7343751,-1.1835938 -0.5009765,-0.4980468 -0.8964843,-1.078125 -1.1835937,-1.734375 -0.2900391,-0.6708984 -0.4335938,-1.3886718 -0.4335938,-2.15625 0,-0.7558593 0.1435547,-1.4707031 0.4335938,-2.1445312 0.2871094,-0.65625 0.6826172,-1.2333989 1.1835937,-1.7343749 0.4980469,-0.498047 1.0781251,-0.893555 1.7343751,-1.183594 0.6708984,-0.287109 1.3886717,-0.433594 2.1562497,-0.433594 z m 0,1.828125 c -1.0253904,0 -1.8955076,0.360352 -2.613281,1.0781254 -0.7119141,0.711914 -1.0664063,1.5761719 -1.0664063,2.5898437 0,1.0253907 0.3544922,1.8955078 1.0664063,2.6132813 0.7177734,0.711914 1.5878906,1.0664062 2.613281,1.0664062 1.013672,0 1.87793,-0.3544922 2.589844,-1.0664062 0.717773,-0.7177735 1.078125,-1.5878906 1.078125,-2.6132813 0,-1.0136718 -0.360352,-1.8779297 -1.078125,-2.5898437 -0.711914,-0.7177734 -1.576172,-1.0781254 -2.589844,-1.0781254 z m 2.296875,2.6601566 c 0.240235,0 0.451172,0.09082 0.632813,0.2695313 0.178711,0.1816406 0.269531,0.3925781 0.269531,0.6328125 0,0.9228515 -0.325195,1.7080078 -0.972656,2.3554687 -0.641602,0.6416016 -1.423828,0.9609375 -2.34375,0.9609375 -0.243164,0 -0.454102,-0.087891 -0.632813,-0.2695312 -0.18164,-0.178711 -0.269531,-0.3896485 -0.269531,-0.6328125 0,-0.234375 0.076172,-0.4365235 0.234375,-0.609375 0.164063,-0.1699219 0.357422,-0.2695313 0.585938,-0.2929688 l 0.08203,-0.023437 c 0.404297,0 0.74414,-0.1289062 1.019531,-0.3867187 0.28125,-0.2578125 0.436523,-0.5800781 0.46875,-0.9726563 v -0.1289062 c 0,-0.2402344 0.08789,-0.4511719 0.269531,-0.6328125 0.178711,-0.178711 0.398438,-0.2695313 0.65625,-0.2695313 z M 18.28125,-17.180723 H 3.4335938 c -0.1259766,0 -0.2314454,0.04395 -0.3164063,0.128906 -0.087891,0.08789 -0.1289062,0.19336 -0.1289062,0.316406 v 1.980469 H 18.726562 L 18.75,-16.735411 c 0,-0.117187 -0.04102,-0.213867 -0.117188,-0.292968 -0.0791,-0.07617 -0.169921,-0.128907 -0.269531,-0.152344 z m -0.902344,0.445312 c 0.257813,0 0.47168,0.09082 0.644531,0.269532 0.169922,0.18164 0.257813,0.398437 0.257813,0.65625 0,0.228515 -0.0791,0.430664 -0.234375,0.609375 -0.149414,0.18164 -0.336914,0.27832 -0.5625,0.292968 l -0.105469,0.02344 h -0.210937 c -0.251953,0 -0.465821,-0.08789 -0.644532,-0.269531 -0.172851,-0.178711 -0.257812,-0.398438 -0.257812,-0.65625 0,-0.225586 0.07617,-0.427735 0.234375,-0.609375 0.155273,-0.178711 0.345703,-0.275391 0.574219,-0.292969 l 0.09375,-0.02344 z m -2.449218,0 c 0.240234,0 0.448242,0.09082 0.621093,0.269532 0.169922,0.18164 0.257813,0.398437 0.257813,0.65625 0,0.228515 -0.07617,0.430664 -0.222656,0.609375 -0.149415,0.18164 -0.333985,0.27832 -0.550782,0.292968 l -0.105468,0.02344 h -2.191407 c -0.228515,0 -0.427734,-0.08789 -0.597656,-0.269531 -0.172852,-0.178711 -0.257812,-0.398438 -0.257812,-0.65625 0,-0.225586 0.07031,-0.427735 0.210937,-0.609375 0.140625,-0.178711 0.328125,-0.275391 0.5625,-0.292969 l 0.08203,-0.02344 z m 0,0"
         style="fill:#000000;fill-opacity:1;fill-rule:nonzero;stroke:none" />
      <path
         id="path87"
         d="m 33.999023,-10.518614 h 1.078125 l 1.558594,3.902344 1.558594,-3.902344 h 1.089844 l -2.648438,5.9414065 z m 0,0"
         style="fill:#000000;fill-opacity:1;fill-rule:nonzero;stroke:none" />
    </g>
  </g>
</svg>
