<?xml version="1.0" encoding="UTF-8" standalone="no"?>
<!-- Created with Inkscape (http://www.inkscape.org/) -->

<svg
   version="1.1"
   id="svg1"
   width="24.328125"
   height="26.265625"
   viewBox="0 0 24.328125 26.265625"
   xmlns="http://www.w3.org/2000/svg"
   xmlns:svg="http://www.w3.org/2000/svg">
  <defs
     id="defs1" />
  <g
     id="g82"
     transform="translate(-2082.4844,-142.60156)">
    <g
       id="g87"
       aria-label="î‡&#10;b"
       transform="matrix(1.3333333,0,0,1.3333333,2080,167.94669)">
      <path
         id="path88"
         d="m 18.515625,-19.008848 c 0.445312,0 0.820312,0.158203 1.125,0.46875 0.310547,0.304687 0.46875,0.676758 0.46875,1.113281 v 16.50000013 c 0,0.4453125 -0.158203,0.82617187 -0.46875,1.13671875 -0.304688,0.31933593 -0.679688,0.48046875 -1.125,0.48046875 H 3.4804688 c -0.4453125,0 -0.8291016,-0.16113282 -1.1484375,-0.48046875 C 2.0185547,-0.100645 1.8632812,-0.48150437 1.8632812,-0.92681687 V -17.426817 c 0,-0.436523 0.1552735,-0.808594 0.4687501,-1.113281 0.3193359,-0.310547 0.703125,-0.46875 1.1484375,-0.46875 z m -6.339844,8.027344 H 9.9023438 v 4.5820309 c 0,0.102539 -0.041016,0.1845703 -0.1171875,0.2460937 -0.079102,0.064453 -0.1757813,0.09375 -0.2929688,0.09375 H 9.1757813 v 4.921875 h 3.6210937 v -4.921875 h -0.210937 c -0.117188,0 -0.216797,-0.029297 -0.292969,-0.09375 -0.0791,-0.061523 -0.117188,-0.1435547 -0.117188,-0.2460937 z m 6.105469,0 h -2.882812 v 4.5820309 c 0,0.102539 -0.04102,0.1845703 -0.117188,0.2460937 -0.0791,0.064453 -0.175781,0.09375 -0.292969,0.09375 h -0.339843 v 4.8984375 l 3.632812,0.023437 z m -11.6015625,0 H 3.7148438 v 9.8437496 h 3.6328124 v -4.921875 H 7.0898437 c -0.1171875,0 -0.2167968,-0.029297 -0.2929687,-0.09375 C 6.717773,-6.2149024 6.6796875,-6.2969341 6.6796875,-6.3994731 Z M 18.28125,-17.180723 H 3.7148438 v 4.382812 H 18.28125 Z m -2.191406,0.679687 c 0.375,0 0.694336,0.137696 0.960937,0.410157 0.272461,0.27539 0.410156,0.597656 0.410156,0.972656 0,0.383789 -0.137695,0.708984 -0.410156,0.972656 -0.266601,0.266602 -0.585937,0.398438 -0.960937,0.398438 -0.392578,0 -0.720703,-0.131836 -0.984375,-0.398438 -0.257813,-0.263672 -0.386719,-0.588867 -0.386719,-0.972656 0,-0.375 0.128906,-0.697266 0.386719,-0.972656 0.263672,-0.272461 0.591797,-0.410157 0.984375,-0.410157 z m 0,0"
         style="fill:#000000;fill-opacity:1;fill-rule:nonzero;stroke:none" />
      <path
         id="path89"
         d="m 40.420898,-7.7647075 c 0,0.5947266 -0.125976,1.1103516 -0.375,1.546875 -0.251953,0.4306641 -0.583007,0.7617188 -0.996093,0.9960938 -0.407227,0.2255859 -0.864258,0.3398437 -1.371094,0.3398437 -0.407227,0 -0.773438,-0.09082 -1.101563,-0.2695312 -0.322265,-0.1875 -0.580078,-0.4511719 -0.773437,-0.796875 v 0.9492187 h -0.960938 v -9.3632815 h 0.960938 v 4.792969 c 0.193359,-0.3427734 0.451172,-0.603516 0.773437,-0.785156 0.328125,-0.1875 0.694336,-0.28125 1.101563,-0.28125 0.506836,0 0.963867,0.117187 1.371094,0.351562 0.413086,0.228516 0.74414,0.5566409 0.996093,0.9843753 0.249024,0.430664 0.375,0.9433593 0.375,1.5351562 z m -0.972656,0 c 0,-0.421875 -0.08789,-0.7792969 -0.257812,-1.078125 -0.172852,-0.2958984 -0.404297,-0.5185547 -0.691407,-0.6679687 -0.28125,-0.1464844 -0.594726,-0.2226563 -0.9375,-0.2226563 -0.28125,0 -0.55957,0.076172 -0.832031,0.2226563 -0.266601,0.149414 -0.489258,0.3720703 -0.667969,0.6679687 -0.172851,0.2988281 -0.257812,0.65625 -0.257812,1.078125 0,0.4306641 0.08496,0.7939453 0.257812,1.0898438 0.178711,0.2988281 0.401368,0.5214843 0.667969,0.6679687 0.272461,0.1494141 0.550781,0.2226563 0.832031,0.2226563 0.342774,0 0.65625,-0.073242 0.9375,-0.2226563 0.28711,-0.1464844 0.518555,-0.3691406 0.691407,-0.6679687 0.169922,-0.2958985 0.257812,-0.6591797 0.257812,-1.0898438 z m 0,0"
         style="fill:#000000;fill-opacity:1;fill-rule:nonzero;stroke:none" />
    </g>
  </g>
</svg>
