<?xml version="1.0" encoding="UTF-8" standalone="no"?>
<!-- Created with Inkscape (http://www.inkscape.org/) -->

<svg
   version="1.1"
   id="svg1"
   width="21.359373"
   height="25.0625"
   viewBox="0 0 21.359373 25.0625"
   xmlns="http://www.w3.org/2000/svg"
   xmlns:svg="http://www.w3.org/2000/svg">
  <defs
     id="defs1" />
  <g
     id="g82"
     transform="translate(-1771.9844,-188.53125)">
    <g
       id="g91"
       aria-label="&#10;m"
       transform="matrix(1.3333333,0,0,1.3333333,1768,213.28003)">
      <path
         id="path92"
         d="m 11.003906,-18.561583 c 0.75586,0 1.470703,0.146485 2.144532,0.433594 0.65625,0.290039 1.233398,0.685547 1.734375,1.183594 0.498046,0.500977 0.893554,1.078125 1.183593,1.734375 0.28711,0.673828 0.433594,1.391602 0.433594,2.15625 v 1.816406 h 0.257812 c 0.624024,0 1.154297,0.228516 1.59375,0.679688 0.436524,0.454101 0.65625,0.9931638 0.65625,1.6171872 v 6.8789063 c 0,0.6328125 -0.219726,1.17773437 -0.65625,1.62890625 -0.439453,0.4453125 -0.969726,0.66796875 -1.59375,0.66796875 H 5.2382812 c -0.6269531,0 -1.1572265,-0.22265625 -1.5937499,-0.66796875 C 3.2050781,-0.88384813 2.9882813,-1.42877 2.9882813,-2.0615825 v -6.8789063 c 0,-0.6240234 0.2167968,-1.1630862 0.65625,-1.6171872 0.4365234,-0.451172 0.9667968,-0.679688 1.5937499,-0.679688 h 0.2578125 v -1.816406 c 0,-0.75 0.1347657,-1.444336 0.4101563,-2.085938 0.2724609,-0.662109 0.6474609,-1.242187 1.125,-1.734375 0.4833984,-0.492187 1.0458984,-0.890625 1.6875,-1.195312 0.6474609,-0.295898 1.335938,-0.459961 2.0625,-0.492188 z m 5.753906,9.1757817 H 5.2382812 c -0.1113281,0 -0.2080078,0.035156 -0.2929687,0.1054688 -0.079102,0.070312 -0.1289063,0.1582031 -0.1523438,0.2578125 v 6.9609375 c 0,0.1171875 0.035156,0.2197266 0.1054688,0.3046875 0.070312,0.087891 0.1552734,0.1376953 0.2578125,0.1523437 h 11.601562 c 0.108399,0 0.202149,-0.035156 0.28125,-0.1054687 0.08496,-0.076172 0.140625,-0.1669922 0.164063,-0.2695313 v -6.9609375 c 0,-0.1230468 -0.04395,-0.2285156 -0.128906,-0.3164062 -0.08789,-0.084961 -0.19336,-0.1289063 -0.316407,-0.1289063 z m -5.753906,0.3164063 c 0.240235,0 0.448242,0.09082 0.621094,0.2695312 0.178711,0.1816407 0.269531,0.3925782 0.269531,0.6328125 V -6.67877 c 0.404297,0.1728516 0.726563,0.4453125 0.960938,0.8203125 0.234375,0.3691406 0.351562,0.7734375 0.351562,1.21875 0,0.6035156 -0.216797,1.1220703 -0.644531,1.5585937 -0.430664,0.4394532 -0.949219,0.65625 -1.558594,0.65625 -0.618164,0 -1.1425779,-0.2167968 -1.5703122,-0.65625 C 9.0029297,-3.5176372 8.7890625,-4.0361919 8.7890625,-4.6397075 8.7890625,-5.08502 8.90625,-5.4863872 9.140625,-5.8467388 9.375,-6.2129497 9.6943359,-6.49127 10.101563,-6.67877 v -1.4882813 c 0,-0.2402343 0.08496,-0.4511718 0.257812,-0.6328125 0.178711,-0.1787109 0.392578,-0.2695312 0.644531,-0.2695312 z m 0,3.9960937 c -0.117187,0 -0.219726,0.043945 -0.304687,0.1289063 -0.08789,0.087891 -0.128906,0.1875 -0.128906,0.3046875 0,0.1171875 0.04101,0.2167969 0.128906,0.2929687 0.08496,0.079102 0.1875,0.1171875 0.304687,0.1171875 0.108399,0 0.205078,-0.038086 0.292969,-0.1171875 0.08496,-0.076172 0.128906,-0.1757812 0.128906,-0.2929687 0,-0.1171875 -0.04395,-0.2167969 -0.128906,-0.3046875 -0.08789,-0.084961 -0.18457,-0.1289063 -0.292969,-0.1289063 z m 0,-11.6601567 c -0.993164,0 -1.8398435,0.339844 -2.5429685,1.019532 -0.703125,0.679687 -1.0751953,1.5 -1.1132813,2.460937 l -0.023437,0.199219 v 1.816406 h 7.3476558 v -1.816406 c 0,-0.943359 -0.322266,-1.763672 -0.960937,-2.460938 -0.632813,-0.694335 -1.415039,-1.092773 -2.34375,-1.195312 h -0.175782 z m 0,0"
         style="fill:#000000;fill-opacity:1;fill-rule:nonzero;stroke:none" />
      <path
         id="path93"
         d="m 38.194336,-8.3633403 c 0,-0.4511719 -0.0791,-0.7910156 -0.234375,-1.0195313 -0.158203,-0.234375 -0.430664,-0.3515625 -0.820313,-0.3515625 -0.416015,0 -0.732421,0.1289063 -0.949218,0.3867188 -0.219727,0.2578125 -0.328125,0.5859375 -0.328125,0.984375 v 3.3632812 H 34.901367 V -10.51959 h 0.960938 v 0.8085934 c 0.146484,-0.2871093 0.351562,-0.5156254 0.609375,-0.6796874 0.263672,-0.164063 0.568359,-0.246094 0.914062,-0.246094 0.796875,0 1.327149,0.345703 1.59375,1.0312502 0.169922,-0.319336 0.404297,-0.5683592 0.703125,-0.7500002 0.295899,-0.1875 0.626953,-0.28125 0.996094,-0.28125 0.568359,0 1.007812,0.18457 1.3125,0.550781 0.310547,0.360352 0.46875,0.8964848 0.46875,1.6054692 v 3.4804687 h -0.960938 v -3.3632812 c 0,-0.4511719 -0.0791,-0.7910156 -0.234375,-1.0195313 -0.158203,-0.234375 -0.430664,-0.3515625 -0.820312,-0.3515625 -0.416016,0 -0.735352,0.1289063 -0.960938,0.3867188 -0.219726,0.2578125 -0.328125,0.5859375 -0.328125,0.984375 v 3.3632812 h -0.960937 z m 0,0"
         style="fill:#000000;fill-opacity:1;fill-rule:nonzero;stroke:none" />
    </g>
  </g>
</svg>
