<?xml version="1.0" encoding="UTF-8" standalone="no"?>
<!-- Created with Inkscape (http://www.inkscape.org/) -->

<svg
   version="1.1"
   id="svg1"
   width="26.296871"
   height="23.828125"
   viewBox="0 0 26.296871 23.828125"
   xmlns="http://www.w3.org/2000/svg"
   xmlns:svg="http://www.w3.org/2000/svg">
  <defs
     id="defs1" />
  <g
     id="g82"
     transform="translate(-1925.5156,-189.14063)">
    <g
       id="g93"
       aria-label="&#10;aq"
       transform="matrix(1.3333333,0,0,1.3333333,1924,213.28003)">
      <path
         id="path94"
         d="m 13.183594,-18.104551 c 0.427734,0 0.832031,0.114258 1.207031,0.339843 0.375,0.228516 0.65918,0.544922 0.855469,0.949219 l -0.03516,-0.09375 1.265624,2.003906 h 2.53125 c 0.492188,0 0.908204,0.164063 1.253907,0.492188 0.351562,0.328125 0.541992,0.732422 0.574218,1.207031 l 0.02344,0.128906 v 10.9687505 c 0,0.515625 -0.181641,0.9550781 -0.539063,1.3125 -0.360351,0.36035156 -0.796875,0.5390625 -1.3125,0.5390625 h -0.05859 c -0.07031,0.0175781 -0.140625,0.0234375 -0.210938,0.0234375 -0.06445,0 -0.128906,0 -0.199219,0 L 13.464844,-0.256895 H 2.9882813 c -0.4921875,0 -0.9140625,-0.1640625 -1.2656251,-0.4921875 -0.3457031,-0.328125 -0.5332031,-0.7294922 -0.5625,-1.2070313 L 1.1367187,-2.1084575 V -13.077208 c 0,-0.498046 0.178711,-0.92871 0.5390625,-1.289062 0.3574219,-0.357422 0.7968751,-0.539063 1.3125001,-0.539063 H 5.71875 l 1.265625,-1.980468 0.035156,-0.05859 c 0.1875,-0.328125 0.4394532,-0.591797 0.7617188,-0.796875 0.328125,-0.202148 0.6738281,-0.316406 1.0429688,-0.339844 H 9 Z m 5.824218,5.027343 H 2.9882813 V -2.1084575 H 19.007812 Z m -7.992187,1.195313 h 0.222656 c 0.56836,0.03223 1.104492,0.169922 1.605469,0.410156 0.498047,0.243164 0.9375,0.5625 1.3125,0.960938 0.375,0.392578 0.667969,0.8437497 0.878906,1.3593747 0.216797,0.515625 0.328125,1.0664063 0.328125,1.6523438 -0.01758,0.6035156 -0.140625,1.1689453 -0.375,1.6992187 -0.228515,0.515625 -0.539062,0.9726563 -0.9375,1.3710938 -0.392578,0.3925781 -0.852539,0.6914062 -1.382812,0.9023437 -0.524414,0.234375 -1.086914,0.3515625 -1.6875,0.3515625 C 10.376953,-3.1895122 9.8115234,-3.3096294 9.28125,-3.538145 8.7480469,-3.77252 8.2851563,-4.0830669 7.8867187,-4.475645 7.4941406,-4.8740825 7.1953125,-5.3340434 6.984375,-5.8584575 6.75,-6.3887309 6.6328125,-6.9541606 6.6328125,-7.5576763 c 0.014648,-0.6005859 0.140625,-1.1660156 0.375,-1.6992187 0.2255859,-0.5302734 0.5332031,-0.987305 0.9257812,-1.371094 0.3984376,-0.389648 0.8613282,-0.697265 1.3945313,-0.925781 0.5214844,-0.216797 1.083984,-0.328125 1.6875,-0.328125 z m 0,1.828125 H 10.875 c -0.665039,0.04687 -1.2304687,0.3105469 -1.6992187,0.7851562 -0.4628907,0.4775391 -0.6914063,1.0546875 -0.6914063,1.734375 -0.017578,0.6884766 0.2226563,1.2773438 0.7148438,1.7695313 0.4980468,0.4921875 1.0927732,0.7470703 1.7812502,0.7617187 0.694336,0 1.289062,-0.2402343 1.78125,-0.7265625 0.498047,-0.4921875 0.75,-1.0898437 0.75,-1.7929687 0.01465,-0.6855469 -0.228516,-1.2773438 -0.726563,-1.7695313 -0.492187,-0.4921875 -1.083984,-0.7441407 -1.769531,-0.7617187 z m -5.0625,-2.25 c 0.2578125,0 0.4746094,0.09082 0.65625,0.269531 0.1787109,0.181641 0.2695312,0.398438 0.2695312,0.65625 0,0.228516 -0.082031,0.430664 -0.2460937,0.609375 -0.1582031,0.181641 -0.3486328,0.275391 -0.5742188,0.28125 l -0.1054687,0.02344 H 4.5703125 c -0.2431641,0 -0.4541016,-0.08789 -0.6328125,-0.269532 -0.1816406,-0.17871 -0.2695312,-0.392578 -0.2695312,-0.644531 0,-0.234375 0.073242,-0.436523 0.2226562,-0.609375 0.1552734,-0.169922 0.3457031,-0.269531 0.5742187,-0.292969 l 0.1054688,-0.02344 z m 7.230469,-3.960938 H 9 c -0.087891,0 -0.1699219,0.02344 -0.2460937,0.07031 -0.079102,0.04102 -0.1347657,0.102539 -0.1640625,0.1875 l -0.058594,0.09375 -0.5859375,0.902344 h 6.2929687 l -0.597656,-0.925782 -0.04687,-0.08203 c -0.04102,-0.07617 -0.09961,-0.134765 -0.175781,-0.175781 -0.07031,-0.04687 -0.149414,-0.07031 -0.234375,-0.07031 z m 0,0"
         style="fill:#000000;fill-opacity:1;fill-rule:nonzero;stroke:none" />
      <path
         id="path95"
         d="m 35.334961,-9.2188091 -0.46875,-0.7382812 c 0.202148,-0.1464847 0.480469,-0.2958987 0.832031,-0.4453127 0.351563,-0.155273 0.776367,-0.234375 1.277344,-0.234375 0.632812,0 1.142578,0.146485 1.535156,0.433594 0.389649,0.290039 0.585938,0.7031249 0.585938,1.2421874 v 3.9609375 h -0.960938 v -0.796875 c -0.164062,0.2988282 -0.416015,0.5244141 -0.75,0.6796875 -0.336914,0.1552735 -0.711914,0.234375 -1.125,0.234375 -0.351562,0 -0.673828,-0.064453 -0.960937,-0.1875 -0.28125,-0.1318359 -0.509766,-0.3222656 -0.679688,-0.5742187 -0.172851,-0.2490235 -0.257812,-0.5625 -0.257812,-0.9375 0,-0.5859375 0.205078,-1.0371094 0.621093,-1.359375 0.421875,-0.328125 0.996094,-0.4921875 1.722657,-0.4921875 0.319336,0 0.600586,0.043945 0.84375,0.1289062 0.240234,0.079102 0.436523,0.1699219 0.585937,0.2695313 v -0.9257813 c 0,-0.28125 -0.117187,-0.4921875 -0.351562,-0.6328125 -0.234375,-0.140625 -0.503907,-0.2109375 -0.808594,-0.2109375 -0.392578,0 -0.732422,0.076172 -1.019531,0.2226563 -0.28125,0.140625 -0.489258,0.2636719 -0.621094,0.3632812 z m 0,2.6015625 c 0,0.2988282 0.111328,0.5214844 0.339844,0.6679688 0.225586,0.149414 0.498047,0.2226562 0.820312,0.2226562 0.47461,0 0.867188,-0.1083984 1.171875,-0.328125 0.310547,-0.2255859 0.46875,-0.5917968 0.46875,-1.1015625 v -0.2226562 c -0.407226,-0.2109375 -0.864258,-0.3164063 -1.371094,-0.3164063 -0.492187,0 -0.855468,0.099609 -1.089843,0.2929688 -0.228516,0.1875 -0.339844,0.4511719 -0.339844,0.7851562 z m 4.907226,-1.1484375 c 0,-0.5917968 0.120118,-1.1044922 0.363282,-1.5351562 0.249023,-0.4277344 0.580078,-0.7558597 0.996093,-0.9843747 0.421875,-0.234375 0.878907,-0.351563 1.371094,-0.351563 0.413086,0 0.779297,0.09375 1.101563,0.28125 0.319336,0.181641 0.580078,0.442383 0.785156,0.7851564 V -10.51959 h 0.960937 v 8.1562497 h -0.960937 v -3.5859375 c -0.205078,0.3457031 -0.46582,0.609375 -0.785156,0.796875 -0.322266,0.1787109 -0.688477,0.2695312 -1.101563,0.2695312 -0.492187,0 -0.949219,-0.1142578 -1.371094,-0.3398437 -0.416015,-0.234375 -0.74707,-0.5654297 -0.996093,-0.9960938 -0.243164,-0.4365234 -0.363282,-0.9521484 -0.363282,-1.546875 z m 0.972657,0 c 0,0.4306641 0.08496,0.7939453 0.257812,1.0898438 0.169922,0.2988281 0.401367,0.5214844 0.691406,0.6679687 0.28711,0.1494141 0.600586,0.2226563 0.9375,0.2226563 0.272461,0 0.544922,-0.073242 0.820313,-0.2226563 0.272461,-0.1464843 0.495117,-0.3691406 0.667969,-0.6679687 0.178711,-0.2958985 0.269531,-0.6591797 0.269531,-1.0898438 0,-0.421875 -0.09082,-0.7792968 -0.269531,-1.078125 -0.172852,-0.2958984 -0.395508,-0.5185547 -0.667969,-0.6679687 -0.275391,-0.1464844 -0.547852,-0.2226563 -0.820313,-0.2226563 -0.336914,0 -0.65039,0.076172 -0.9375,0.2226563 -0.290039,0.149414 -0.521484,0.3720703 -0.691406,0.6679687 -0.172851,0.2988282 -0.257812,0.65625 -0.257812,1.078125 z m 0,0"
         style="fill:#000000;fill-opacity:1;fill-rule:nonzero;stroke:none" />
    </g>
  </g>
</svg>
