<?xml version="1.0" encoding="UTF-8" standalone="no"?>
<!-- Created with Inkscape (http://www.inkscape.org/) -->

<svg
   version="1.1"
   id="svg1"
   width="26.296873"
   height="26.296873"
   viewBox="0 0 26.296873 26.296873"
   xmlns="http://www.w3.org/2000/svg"
   xmlns:svg="http://www.w3.org/2000/svg">
  <defs
     id="defs1" />
  <g
     id="g82"
     transform="translate(-2081.5156,-186.39063)">
    <g
       id="g95"
       aria-label="&#10;aw"
       transform="matrix(1.3333333,0,0,1.3333333,2080,213.28003)">
      <path
         id="path96"
         d="m 13.054688,-17.424864 c 0.591796,0 1.104492,0.205078 1.535156,0.609375 0.436523,0.398438 0.685547,0.884766 0.75,1.453125 h 0.08203 c 0.65625,0 1.280273,0.125977 1.875,0.375 0.585937,0.243164 1.101562,0.571289 1.546875,0.984375 0.451172,0.416016 0.823242,0.908203 1.113281,1.476563 0.28711,0.5625 0.451172,1.171875 0.492188,1.828125 l 0.410156,5.1328122 c 0,0 0,0.00586 0,0.011719 0,0.00879 0,0.011719 0,0.011719 v 2.7890625 c 0,0.234375 -0.0791,0.4423829 -0.234375,0.6210938 -0.158203,0.1816406 -0.351563,0.2753906 -0.585938,0.28125 l -0.105468,0.023437 h -2.015625 c -0.1875,0.4072266 -0.46875,0.7382812 -0.84375,0.99609375 -0.369141,0.2578125 -0.791016,0.38671875 -1.265625,0.38671875 -0.46875,0 -0.890625,-0.12890625 -1.265625,-0.38671875 -0.375,-0.25781255 -0.65625,-0.58886715 -0.84375,-0.99609375 H 8.296875 c -0.1875,0.4072266 -0.46875,0.7382812 -0.84375,0.99609375 -0.375,0.2578125 -0.796875,0.38671875 -1.265625,0.38671875 -0.4775391,0 -0.9023438,-0.12890625 -1.2773438,-0.38671875 C 4.5410156,-1.0889263 4.265625,-1.4199809 4.078125,-1.8272075 H 2.0625 c -0.2285156,0 -0.4306641,-0.076172 -0.609375,-0.234375 C 1.2714844,-2.2168559 1.1748047,-2.4072856 1.1601562,-2.6358013 L 1.1367187,-2.7529888 V -13.05377 c 0,-0.632813 0.225586,-1.174805 0.6796875,-1.628906 0.4511719,-0.451172 0.9902344,-0.679688 1.6171876,-0.679688 H 10.78125 c 0.06152,-0.568359 0.307617,-1.054687 0.738281,-1.453125 0.436524,-0.404297 0.949219,-0.609375 1.535157,-0.609375 z M 6.1875,-3.1983013 c -0.1347656,0 -0.2431641,0.043945 -0.328125,0.1289063 -0.087891,0.087891 -0.1289063,0.1933594 -0.1289063,0.3164062 0,0.1347657 0.041016,0.2431641 0.1289063,0.328125 0.084961,0.087891 0.1933594,0.1289063 0.328125,0.1289063 0.1230469,0 0.2285156,-0.041016 0.3164062,-0.1289063 0.084961,-0.084961 0.1289063,-0.1933593 0.1289063,-0.328125 0,-0.1230468 -0.043945,-0.2285156 -0.1289063,-0.3164062 C 6.4160156,-3.1543559 6.3105469,-3.1983013 6.1875,-3.1983013 Z m 9.621094,0 c -0.125977,0 -0.231446,0.043945 -0.316406,0.1289063 -0.08789,0.087891 -0.128907,0.1933594 -0.128907,0.3164062 0,0.1347657 0.04102,0.2431641 0.128907,0.328125 0.08496,0.087891 0.190429,0.1289063 0.316406,0.1289063 0.131836,0 0.240234,-0.041016 0.328125,-0.1289063 0.08496,-0.084961 0.128906,-0.1933593 0.128906,-0.328125 0,-0.1230468 -0.04395,-0.2285156 -0.128906,-0.3164062 -0.08789,-0.084961 -0.196289,-0.1289063 -0.328125,-0.1289063 z M 4.8164062,-4.569395 H 2.9882813 v 0.9023437 H 4.078125 c 0.084961,-0.1699218 0.1875,-0.3339843 0.3046875,-0.4921875 0.1230469,-0.1640625 0.2695312,-0.2988281 0.4335937,-0.4101562 z m 14.1914058,0 h -1.828125 c 0.164063,0.1113281 0.304688,0.2460937 0.421875,0.4101562 0.123047,0.1582032 0.228516,0.3222657 0.316407,0.4921875 h 1.089843 z m -4.570312,0 H 7.5585937 c 0.1552735,0.1113281 0.2958985,0.2460937 0.421875,0.4101562 0.1230469,0.1582032 0.2285157,0.3222657 0.3164063,0.4921875 h 5.402344 c 0.07617,-0.1640625 0.166992,-0.3164062 0.269531,-0.4570312 0.108398,-0.140625 0.234375,-0.2695313 0.375,-0.3867188 z m 0.925781,-8.941406 v 7.0898435 h 3.585938 l -0.328125,-4.1250005 c -0.05566,-0.811523 -0.375,-1.49414 -0.960938,-2.050781 -0.580078,-0.5625 -1.265625,-0.867187 -2.0625,-0.914062 z m -1.851562,0 H 3.4335938 c -0.1259766,0 -0.2314454,0.04395 -0.3164063,0.128906 -0.087891,0.08789 -0.1289062,0.196289 -0.1289062,0.328125 v 6.6328125 H 13.511719 Z M 8.25,-12.608458 c 0.2255859,0 0.4277344,0.0791 0.609375,0.234375 0.1787109,0.158204 0.2753906,0.351563 0.2929688,0.585938 l 0.023437,0.105469 v 0.445312 h 0.4453125 c 0.2578125,0 0.4746097,0.09082 0.6562507,0.269531 0.178711,0.181641 0.269531,0.398438 0.269531,0.65625 0,0.228516 -0.0791,0.4306646 -0.234375,0.6093755 -0.158203,0.1816406 -0.351563,0.2783203 -0.585938,0.2929687 l -0.1054687,0.023437 h -0.445312 v 0.4453125 c 0,0.2578125 -0.09082,0.4775391 -0.2695313,0.65625 C 8.7246094,-8.1025986 8.5078125,-8.014708 8.25,-8.014708 8.0214844,-8.014708 7.8193359,-8.09088 7.640625,-8.249083 7.4589844,-8.4043559 7.3623047,-8.5947856 7.3476562,-8.8233013 L 7.3242187,-8.9404888 V -9.3858013 H 6.8789062 c -0.2578125,0 -0.477539,-0.087891 -0.65625,-0.2695312 C 6.0410156,-9.8340434 5.953125,-10.05377 5.953125,-10.311583 c 0,-0.225585 0.076172,-0.427734 0.234375,-0.609375 0.1552734,-0.17871 0.3457031,-0.27539 0.5742187,-0.292968 l 0.1171875,-0.02344 h 0.4453125 v -0.445312 c 0,-0.257813 0.087891,-0.47461 0.2695313,-0.65625 0.1787109,-0.178711 0.3984375,-0.269532 0.65625,-0.269532 z m 4.804688,-2.964843 c -0.08789,0 -0.164063,0.02344 -0.234375,0.07031 -0.07031,0.04102 -0.123047,0.08789 -0.152344,0.140625 h 0.773437 c -0.02344,-0.05273 -0.06445,-0.09668 -0.117187,-0.128906 -0.04687,-0.03809 -0.105469,-0.06445 -0.175781,-0.08203 z m 3.398437,-3.632813 c 0.169922,0.158203 0.260742,0.357422 0.269531,0.597656 0.0059,0.234375 -0.05566,0.439454 -0.1875,0.609375 l -0.773437,0.773438 c -0.172852,0.1875 -0.386719,0.28125 -0.644531,0.28125 -0.257813,0 -0.47461,-0.09375 -0.644532,-0.28125 -0.172851,-0.155273 -0.263672,-0.351563 -0.269531,-0.585938 0,-0.240234 0.06152,-0.448242 0.1875,-0.621093 l 0.773438,-0.773438 c 0.169921,-0.1875 0.386718,-0.28125 0.644531,-0.28125 0.257812,0 0.471679,0.09375 0.644531,0.28125 z m -5.578125,-0.08203 0.08203,0.08203 0.679688,0.691406 c 0.1875,0.172852 0.28125,0.386719 0.28125,0.644532 0,0.257812 -0.09375,0.474609 -0.28125,0.644531 -0.158203,0.172852 -0.351563,0.263672 -0.585938,0.269531 -0.234375,0.0088 -0.439453,-0.05273 -0.609375,-0.1875 l -0.7734372,-0.773437 c -0.1875,-0.169922 -0.28125,-0.386719 -0.28125,-0.644532 0,-0.257812 0.09375,-0.471679 0.28125,-0.644531 0.1552734,-0.169922 0.3515622,-0.260742 0.5859372,-0.269531 0.240235,-0.0059 0.448242,0.05566 0.621094,0.1875 z m 2.179688,-0.878906 c 0.234375,0 0.439453,0.0791 0.621093,0.234375 0.178711,0.158203 0.272461,0.348633 0.28125,0.574218 l 0.02344,0.117188 v 0.679687 c 0,0.257813 -0.09082,0.47754 -0.269531,0.65625 -0.181641,0.181641 -0.398438,0.269532 -0.65625,0.269532 -0.228516,0 -0.430665,-0.07617 -0.609375,-0.234375 -0.181641,-0.155274 -0.278321,-0.351563 -0.292969,-0.585938 l -0.01172,-0.105469 v -0.679687 c 0,-0.257813 0.08496,-0.474609 0.257813,-0.65625 0.17871,-0.178711 0.398437,-0.269531 0.65625,-0.269531 z m 0,0"
         style="fill:#000000;fill-opacity:1;fill-rule:nonzero;stroke:none" />
      <path
         id="path97"
         d="m 35.334961,-9.2188091 -0.46875,-0.7382812 c 0.202148,-0.1464847 0.480469,-0.2958987 0.832031,-0.4453127 0.351563,-0.155273 0.776367,-0.234375 1.277344,-0.234375 0.632812,0 1.142578,0.146485 1.535156,0.433594 0.389649,0.290039 0.585938,0.7031249 0.585938,1.2421874 v 3.9609375 h -0.960938 v -0.796875 c -0.164062,0.2988282 -0.416015,0.5244141 -0.75,0.6796875 -0.336914,0.1552735 -0.711914,0.234375 -1.125,0.234375 -0.351562,0 -0.673828,-0.064453 -0.960937,-0.1875 -0.28125,-0.1318359 -0.509766,-0.3222656 -0.679688,-0.5742187 -0.172851,-0.2490235 -0.257812,-0.5625 -0.257812,-0.9375 0,-0.5859375 0.205078,-1.0371094 0.621093,-1.359375 0.421875,-0.328125 0.996094,-0.4921875 1.722657,-0.4921875 0.319336,0 0.600586,0.043945 0.84375,0.1289062 0.240234,0.079102 0.436523,0.1699219 0.585937,0.2695313 v -0.9257813 c 0,-0.28125 -0.117187,-0.4921875 -0.351562,-0.6328125 -0.234375,-0.140625 -0.503907,-0.2109375 -0.808594,-0.2109375 -0.392578,0 -0.732422,0.076172 -1.019531,0.2226563 -0.28125,0.140625 -0.489258,0.2636719 -0.621094,0.3632812 z m 0,2.6015625 c 0,0.2988282 0.111328,0.5214844 0.339844,0.6679688 0.225586,0.149414 0.498047,0.2226562 0.820312,0.2226562 0.47461,0 0.867188,-0.1083984 1.171875,-0.328125 0.310547,-0.2255859 0.46875,-0.5917968 0.46875,-1.1015625 v -0.2226562 c -0.407226,-0.2109375 -0.864258,-0.3164063 -1.371094,-0.3164063 -0.492187,0 -0.855468,0.099609 -1.089843,0.2929688 -0.228516,0.1875 -0.339844,0.4511719 -0.339844,0.7851562 z m 4.543945,-3.9023434 h 1.078125 l 1.382813,3.5859372 1.5,-4.0078122 1.605468,4.0312497 1.394532,-3.6093747 h 1.078125 l -2.402344,5.9414059 -1.664063,-4.0195312 -1.570312,4.0195312 z m 0,0"
         style="fill:#000000;fill-opacity:1;fill-rule:nonzero;stroke:none" />
    </g>
  </g>
</svg>
