<?xml version="1.0" encoding="UTF-8" standalone="no"?>
<!-- Created with Inkscape (http://www.inkscape.org/) -->

<svg
   version="1.1"
   id="svg1"
   width="26.703125"
   height="26.6875"
   viewBox="0 0 26.703125 26.6875"
   xmlns="http://www.w3.org/2000/svg"
   xmlns:svg="http://www.w3.org/2000/svg">
  <defs
     id="defs1" />
  <g
     id="g13"
     transform="translate(-1964,-539)">
    <g
       id="g16"
       aria-label="î„&#10;6.1"
       transform="matrix(1.3333333,0,0,1.3333333,1768,250.50667)">
      <path
         id="path17-6"
         d="m 157.01955,216.37001 c 1.38281,0 2.6748,0.2666 3.8789,0.79687 1.21875,0.51563 2.2793,1.23047 3.1875,2.14453 0.91406,0.9082 1.63477,1.96875 2.16797,3.1875 0.51563,1.21289 0.77344,2.50488 0.77344,3.87891 0,1.3916 -0.25781,2.69531 -0.77344,3.91406 -0.5332,1.21875 -1.25391,2.28223 -2.16797,3.1875 -0.9082,0.89941 -1.96875,1.61133 -3.1875,2.13281 -1.2041,0.51563 -2.49609,0.77344 -3.8789,0.77344 -1.39161,0 -2.68946,-0.25781 -3.89063,-0.77344 -1.21875,-0.52148 -2.28516,-1.2334 -3.19922,-2.13281 -0.9082,-0.90527 -1.62597,-1.96875 -2.15625,-3.1875 -0.51562,-1.21875 -0.77344,-2.52246 -0.77344,-3.91406 0,-1.37403 0.25782,-2.66602 0.77344,-3.87891 0.53028,-1.21875 1.24805,-2.2793 2.15625,-3.1875 0.91406,-0.91406 1.98047,-1.6289 3.19922,-2.14453 1.20117,-0.53027 2.49902,-0.79687 3.89063,-0.79687 z m 0,1.54687 c -1.18067,0 -2.2793,0.22266 -3.29297,0.66797 -1.03125,0.44531 -1.93067,1.05176 -2.69532,1.81641 -0.76757,0.76757 -1.37109,1.66406 -1.8164,2.69531 -0.44531,1.03125 -0.66797,2.12695 -0.66797,3.28125 0,1.18066 0.22266,2.28515 0.66797,3.3164 0.44531,1.01661 1.04883,1.90723 1.8164,2.67188 0.76465,0.76758 1.66407,1.37109 2.69532,1.81641 1.01367,0.44531 2.1123,0.66796 3.29297,0.66796 1.17187,0 2.26464,-0.22265 3.28125,-0.66796 1.03125,-0.44532 1.92773,-1.04883 2.69531,-1.81641 0.76465,-0.76465 1.37109,-1.65527 1.8164,-2.67188 0.44532,-1.03125 0.66797,-2.13574 0.66797,-3.3164 0,-1.1543 -0.22265,-2.25 -0.66797,-3.28125 -0.44531,-1.03125 -1.05175,-1.92774 -1.8164,-2.69531 -0.76758,-0.76465 -1.66406,-1.3711 -2.69531,-1.81641 -1.01661,-0.44531 -2.10938,-0.66797 -3.28125,-0.66797 z m 2.27343,10.44141 c 0.24024,0.0557 0.41309,0.1582 0.51563,0.30468 0.1084,0.14063 0.16406,0.34864 0.16406,0.6211 0,0.65625 -0.28711,1.20117 -0.85547,1.6289 -0.57129,0.43067 -1.29492,0.64454 -2.16797,0.64454 -0.86132,0 -1.55859,-0.21094 -2.09765,-0.63282 -0.53321,-0.42187 -0.79688,-0.96679 -0.79688,-1.64062 0,-0.27246 0.041,-0.48047 0.12891,-0.6211 0.085,-0.14648 0.23437,-0.24902 0.44531,-0.30468 0.13184,-0.0469 0.28418,-0.0733 0.45703,-0.082 0.16992,-0.0147 0.47461,-0.0234 0.91406,-0.0234 h 1.48829 c 0.60058,0 1.01367,0.009 1.24218,0.0234 0.22559,0.009 0.41309,0.0351 0.5625,0.082 z m -7.21875,-1.875 c 0.35743,0 0.66797,0.1289 0.92578,0.38672 0.25782,0.25781 0.38672,0.57421 0.38672,0.94921 0,0.34571 -0.0996,0.58008 -0.29297,0.70313 -0.19628,0.11719 -0.53613,0.17578 -1.01953,0.17578 -0.50097,0 -0.84961,-0.0586 -1.04297,-0.17578 -0.19628,-0.12305 -0.29296,-0.35742 -0.29296,-0.70313 0,-0.375 0.1289,-0.6914 0.38671,-0.94921 0.25782,-0.25782 0.57422,-0.38672 0.94922,-0.38672 z m 9.87891,0 c 0.375,0 0.69141,0.1289 0.94922,0.38672 0.25781,0.25781 0.38672,0.57421 0.38672,0.94921 0,0.34571 -0.0996,0.58008 -0.29297,0.70313 -0.19629,0.11719 -0.54492,0.17578 -1.04297,0.17578 -0.48633,0 -0.82617,-0.0586 -1.01953,-0.17578 -0.19629,-0.12305 -0.29297,-0.35742 -0.29297,-0.70313 0,-0.375 0.12891,-0.6914 0.38672,-0.94921 0.25781,-0.25782 0.56543,-0.38672 0.92578,-0.38672 z"
         style="fill:#000000;fill-opacity:1;fill-rule:nonzero;stroke:none" />
    </g>
  </g>
</svg>
